<svg width="71" height="71" viewBox="0 0 71 71" fill="none" xmlns="http://www.w3.org/2000/svg">
<path d="M38.9519 49.9046L33.323 69.5147C33.2293 69.841 32.8889 70.0297 32.5626 69.936L17.8955 65.7259C17.5692 65.6322 17.3805 65.2917 17.4742 64.9654L24.3471 41.0212" stroke="black" stroke-width="2.08008" stroke-miterlimit="10" stroke-linecap="round" stroke-linejoin="round"/>
<path d="M22.6484 66.8395L28.3305 47.0437" stroke="black" stroke-width="2.08008" stroke-miterlimit="10" stroke-linecap="round" stroke-linejoin="round"/>
<path d="M33.9724 47.3525L27.9731 68.253" stroke="black" stroke-width="2.08008" stroke-miterlimit="10" stroke-linecap="round" stroke-linejoin="round"/>
<path d="M62.0531 56.5087L57.6128 41.0393" stroke="black" stroke-width="2.08008" stroke-miterlimit="10" stroke-linecap="round" stroke-linejoin="round"/>
<path d="M43.0142 49.9429L48.632 69.5145C48.7258 69.8408 49.0662 70.0295 49.3925 69.9357L64.0594 65.7258C64.3857 65.6321 64.5744 65.2916 64.4807 64.9653L63.3921 61.1729" stroke="black" stroke-width="2.08008" stroke-miterlimit="10" stroke-linecap="round" stroke-linejoin="round"/>
<path d="M47.9839 47.3567L53.982 68.2532" stroke="black" stroke-width="2.08008" stroke-miterlimit="10" stroke-linecap="round" stroke-linejoin="round"/>
<path d="M59.2607 66.6788L53.6479 47.125" stroke="black" stroke-width="2.08008" stroke-miterlimit="10" stroke-linecap="round" stroke-linejoin="round"/>
<path d="M27.6108 15.1273C30.7354 11.1912 35.5617 8.66699 40.9775 8.66699C50.3977 8.66699 58.0342 16.3035 58.0342 25.7236C58.0342 35.1438 50.3977 42.7803 40.9775 42.7803C31.5574 42.7803 23.9209 35.1438 23.9209 25.7236C23.9209 24.9551 23.9717 24.1985 24.0702 23.457" stroke="#F19E38" stroke-width="2.08008" stroke-miterlimit="10" stroke-linecap="round" stroke-linejoin="round"/>
<path d="M27.61 5.36327C27.8883 4.9406 28.2172 4.58463 28.6332 4.3439C30.3899 3.32757 33.2011 4.72968 35.2075 4.19344C37.1467 3.67508 38.875 1.04004 40.9775 1.04004C43.0801 1.04004 44.8084 3.67508 46.7475 4.19344C48.754 4.72968 51.5651 3.32757 53.3218 4.3439C55.1038 5.37492 55.2886 8.52014 56.7348 9.96635C58.181 11.4126 61.3262 11.5973 62.3573 13.3793C63.3736 15.136 61.9715 17.9472 62.5077 19.9536C63.0261 21.8928 65.6611 23.6211 65.6611 25.7236C65.6611 27.8262 63.0261 29.5544 62.5077 31.4936C61.9715 33.5001 63.3736 36.3112 62.3573 38.0679C61.3262 39.8499 58.181 40.0347 56.7348 41.4809C55.2886 42.9271 55.1039 46.0723 53.3218 47.1034C51.5651 48.1197 48.754 46.7176 46.7475 47.2538C44.8084 47.7722 43.0801 50.4072 40.9775 50.4072C38.875 50.4072 37.1467 47.7722 35.2075 47.2538C33.2011 46.7176 30.3899 48.1197 28.6332 47.1034C26.8513 46.0723 26.6665 42.9271 25.2203 41.4809C23.774 40.0347 20.6288 39.85 19.5978 38.0679C18.5815 36.3112 19.9836 33.5001 19.4473 31.4936C18.929 29.5544 16.2939 27.8262 16.2939 25.7236C16.2939 24.9091 16.6894 24.1508 17.204 23.4146" stroke="#F19E38" stroke-width="2.08008" stroke-miterlimit="10" stroke-linecap="round" stroke-linejoin="round"/>
<path d="M34.3125 26.5827L40.128 31.1311L48.5413 21.8491" stroke="#F19E38" stroke-width="2.08008" stroke-miterlimit="10" stroke-linecap="round" stroke-linejoin="round"/>
<path d="M5.33887 6.51758V3.86492C5.33887 2.30473 6.60355 1.04004 8.16375 1.04004H24.7015C26.2615 1.04004 27.5264 2.30473 27.5264 3.86492V20.4027C27.5264 21.9627 26.2617 23.2275 24.7015 23.2275H8.16375C6.60369 23.2275 5.33887 21.9629 5.33887 20.4027V11.2632" stroke="black" stroke-width="2.08008" stroke-miterlimit="10" stroke-linecap="round" stroke-linejoin="round"/>
<path d="M11.0244 7.97363H18.7963" stroke="black" stroke-width="2.08008" stroke-miterlimit="10" stroke-linecap="round" stroke-linejoin="round"/>
<path d="M11.0244 12.1338H23.1576" stroke="black" stroke-width="2.08008" stroke-miterlimit="10" stroke-linecap="round" stroke-linejoin="round"/>
<path d="M11.0244 16.2939H20.5527" stroke="black" stroke-width="2.08008" stroke-miterlimit="10" stroke-linecap="round" stroke-linejoin="round"/>
</svg>
