<svg width="74" height="74" viewBox="0 0 74 74" fill="none" xmlns="http://www.w3.org/2000/svg">
<path d="M37.3947 3.95435C37.7777 4.08876 38.139 4.26798 38.4743 4.48333C38.7952 4.68856 39.0929 4.92704 39.3618 5.19587C40.3142 6.14833 40.9039 7.46501 40.9039 8.91899C40.9039 11.827 38.5466 14.1843 35.6372 14.1843C34.1832 14.1843 32.8665 13.5946 31.9141 12.6421C31.1871 11.9151 30.6725 10.9771 30.4688 9.92782" stroke="black" stroke-width="2.16797" stroke-miterlimit="10" stroke-linecap="round" stroke-linejoin="round"/>
<path d="M14.5879 4.65203L15.7462 7.96439L17.4907 12.9507C17.9821 14.3547 18.8013 15.6192 19.8818 16.6409L23.6152 20.1716L29.2195 25.4684V35.5433H42.1296V20.9894C42.1296 19.2362 40.7085 17.8151 38.9567 17.8151H33.4846C31.7559 17.8151 30.0818 17.2015 28.7627 16.0849L26.8644 14.4783L23.1424 11.3269L20.849 5.79296L19.5858 2.74363C19.1575 1.70749 18.1559 1.09106 17.1113 1.09106C16.7089 1.09106 16.2993 1.18299 15.9143 1.37565C14.7115 1.97921 14.1439 3.38174 14.5879 4.65203Z" stroke="black" stroke-width="2.16797" stroke-miterlimit="10" stroke-linecap="round" stroke-linejoin="round"/>
<path d="M34.0488 35.5432H37.7387H42.1296L50.6049 48.3545C52.1456 50.6829 51.7337 53.7917 49.6394 55.6388L38.431 65.5233L34.4087 61.5632L40.122 55.0434" stroke="black" stroke-width="2.16797" stroke-miterlimit="10" stroke-linecap="round" stroke-linejoin="round"/>
<path d="M34.4092 61.5625L38.4314 65.5229L37.4211 71.2672C37.2535 72.2207 36.4252 72.9159 35.4571 72.9159H35.0778C34.1793 72.9159 33.3919 72.315 33.1546 71.4484L31.4735 65.31C31.2457 64.3995 31.6127 63.4439 32.3914 62.9199L34.4092 61.5625Z" stroke="black" stroke-width="2.16797" stroke-miterlimit="10" stroke-linecap="round" stroke-linejoin="round"/>
<path d="M31.5927 49.7431L35.4939 48.7723L31.3275 43.6931C29.927 41.9858 29.1725 39.8396 29.1965 37.6315L29.2192 35.5435H37.7389L44.2617 49.8138C44.4784 50.2878 44.5905 50.8031 44.5905 51.3242C44.5905 53.2111 43.1464 54.7839 41.2663 54.9446L27.558 56.1163L26.6846 50.9644" stroke="black" stroke-width="2.16797" stroke-miterlimit="10" stroke-linecap="round" stroke-linejoin="round"/>
<path d="M27.5581 56.1162L25.292 60.7389C24.957 61.4222 24.2624 61.8553 23.5014 61.8553C22.4001 61.8553 21.5073 60.9625 21.5073 59.8612V53.4151C21.5073 52.2474 22.4085 51.2777 23.573 51.1923L26.6847 50.9641L27.5581 56.1162Z" stroke="black" stroke-width="2.16797" stroke-miterlimit="10" stroke-linecap="round" stroke-linejoin="round"/>
<path d="M51.5303 19.4977C53.0291 18.4286 53.9891 16.7616 54.1586 14.9281L54.8311 7.67692L55.1702 4.01262C55.3169 2.43911 54.0796 1.08398 52.5017 1.08398H52.4916C51.1595 1.08832 50.0328 2.06983 49.8461 3.38897L49.4092 6.47702L48.3186 14.1837L43.2503 17.1583C42.5159 17.588 41.6811 17.8151 40.8304 17.8151H38.9565" stroke="black" stroke-width="2.16797" stroke-miterlimit="10" stroke-linecap="round" stroke-linejoin="round"/>
<path d="M28.2838 15.6797L23.1426 11.327C23.1426 11.327 30.8082 -0.00383679 38.4737 4.48328C38.4737 4.48328 36.8645 9.12967 30.4697 9.92532" stroke="#F19E38" stroke-width="2.16797" stroke-miterlimit="10" stroke-linecap="round" stroke-linejoin="round"/>
<path d="M19.2126 15.9375C17.4696 17.5114 15.7815 19.0507 15.3103 21.1739C14.4258 25.1499 16.9898 29.1274 23.7061 32.1322C25.8336 33.0847 27.6778 32.5543 29.22 31.3098" stroke="#F19E38" stroke-width="2.16797" stroke-miterlimit="10" stroke-linecap="round" stroke-linejoin="round"/>
<path d="M38.9557 13.0063C38.9557 13.0063 37.337 15.4576 36.1143 17.8149" stroke="black" stroke-width="2.16797" stroke-miterlimit="10" stroke-linecap="round" stroke-linejoin="round"/>
<path d="M46.5569 23.0402L51.5302 19.4976C53.029 18.4285 53.9889 16.7615 54.1585 14.928L54.831 7.67685L49.3371 6.98657L48.3186 14.1837L43.2503 17.1582C42.5159 17.5879 41.6811 17.815 40.8304 17.815H38.9565" stroke="black" stroke-width="2.16797" stroke-miterlimit="10" stroke-linecap="round" stroke-linejoin="round"/>
<path d="M15.7461 7.96441L17.4906 12.9507C17.982 14.3547 18.8012 15.6192 19.8817 16.6409L23.6151 20.1717L29.2194 25.4684V35.5433H42.1296V20.9894C42.1296 19.2363 40.7084 17.8151 38.9567 17.8151H33.4846C31.7558 17.8151 30.0817 17.2015 28.7626 16.0849L26.8643 14.4783L23.1423 11.3269L20.8489 5.79297L15.7461 7.96441Z" stroke="black" stroke-width="2.16797" stroke-miterlimit="10" stroke-linecap="round" stroke-linejoin="round"/>
<path d="M57.5791 25.0105V28.9776" stroke="#F19E38" stroke-width="2.16797" stroke-miterlimit="10" stroke-linecap="round" stroke-linejoin="round"/>
<path d="M55.5952 26.9939H59.5625" stroke="#F19E38" stroke-width="2.16797" stroke-miterlimit="10" stroke-linecap="round" stroke-linejoin="round"/>
</svg>
