<svg width="67" height="68" viewBox="0 0 67 68" fill="none" xmlns="http://www.w3.org/2000/svg">
<g clipPath="url(#clip0_1221_6220)">
<path d="M61.4224 24.5046V18.3073C61.4224 18.0736 61.2977 17.8576 61.0953 17.7407L33.5 1.80859L5.57764 17.9296V50.1716L33.1729 66.1037C33.3753 66.2206 33.6247 66.2206 33.8272 66.1037L61.0953 50.3604C61.2977 50.2436 61.4224 50.0275 61.4224 49.7938V36.4286" stroke="black" stroke-width="2.61719" stroke-miterlimit="10" stroke-linecap="round" stroke-linejoin="round"/>
<path d="M33.4131 65.7879V32.4685" stroke="black" stroke-width="2.61719" stroke-miterlimit="10" stroke-linecap="round" stroke-linejoin="round"/>
<path d="M33.413 32.4685L5.9248 18.1108" stroke="black" stroke-width="2.61719" stroke-miterlimit="10" stroke-linecap="round" stroke-linejoin="round"/>
<path d="M21.531 16.3411L15.1348 13.0002" stroke="black" stroke-width="2.61719" stroke-miterlimit="10" stroke-linecap="round" stroke-linejoin="round"/>
<path d="M20.6581 49.3976L5.9248 41.7021" stroke="black" stroke-width="2.61719" stroke-miterlimit="10" stroke-linecap="round" stroke-linejoin="round"/>
<path d="M33.4128 43.6518L17.3164 35.2444" stroke="black" stroke-width="2.61719" stroke-miterlimit="10" stroke-linecap="round" stroke-linejoin="round"/>
<path d="M60.8012 18.2522L33.4131 32.4684" stroke="black" stroke-width="2.61719" stroke-miterlimit="10" stroke-linecap="round" stroke-linejoin="round"/>
<path d="M61.0703 41.2529L48.7085 48.0598" stroke="black" stroke-width="2.61719" stroke-miterlimit="10" stroke-linecap="round" stroke-linejoin="round"/>
<path d="M49.2096 33.2925L45.4875 35.2245C45.0562 35.4484 44.7855 35.8937 44.7855 36.3796V40.2382C44.7855 40.7241 44.5149 41.1696 44.0838 41.3933L33.4131 46.9326" stroke="black" stroke-width="2.61719" stroke-miterlimit="10" stroke-linecap="round" stroke-linejoin="round"/>
<path d="M51.8125 34.5003C53.2502 34.5003 54.4156 33.3349 54.4156 31.8972C54.4156 30.4596 53.2502 29.2942 51.8125 29.2942C50.3749 29.2942 49.2095 30.4596 49.2095 31.8972C49.2095 33.3349 50.3749 34.5003 51.8125 34.5003Z" stroke="#F19E38" stroke-width="2.61719" stroke-miterlimit="10" stroke-linecap="round" stroke-linejoin="round"/>
<path d="M46.1055 52.0005C47.5431 52.0005 48.7086 50.8351 48.7086 49.3975C48.7086 47.9599 47.5431 46.7944 46.1055 46.7944C44.6679 46.7944 43.5024 47.9599 43.5024 49.3975C43.5024 50.8351 44.6679 52.0005 46.1055 52.0005Z" stroke="#F19E38" stroke-width="2.61719" stroke-miterlimit="10" stroke-linecap="round" stroke-linejoin="round"/>
<path d="M14.4463 36.4285C15.8839 36.4285 17.0494 35.2631 17.0494 33.8255C17.0494 32.3878 15.8839 31.2224 14.4463 31.2224C13.0087 31.2224 11.8433 32.3878 11.8433 33.8255C11.8433 35.2631 13.0087 36.4285 14.4463 36.4285Z" stroke="#F19E38" stroke-width="2.61719" stroke-miterlimit="10" stroke-linecap="round" stroke-linejoin="round"/>
<path d="M37.2051 18.2061C38.6427 18.2061 39.8082 17.0407 39.8082 15.6031C39.8082 14.1654 38.6427 13 37.2051 13C35.7675 13 34.6021 14.1654 34.6021 15.6031C34.6021 17.0407 35.7675 18.2061 37.2051 18.2061Z" stroke="#F19E38" stroke-width="2.61719" stroke-miterlimit="10" stroke-linecap="round" stroke-linejoin="round"/>
<path d="M24.1338 20.0984C25.5714 20.0984 26.7369 18.933 26.7369 17.4954C26.7369 16.0578 25.5714 14.8923 24.1338 14.8923C22.6962 14.8923 21.5308 16.0578 21.5308 17.4954C21.5308 18.933 22.6962 20.0984 24.1338 20.0984Z" stroke="#F19E38" stroke-width="2.61719" stroke-miterlimit="10" stroke-linecap="round" stroke-linejoin="round"/>
<path d="M23.2608 53.2659C24.6984 53.2659 25.8638 52.1005 25.8638 50.6629C25.8638 49.2252 24.6984 48.0598 23.2608 48.0598C21.8231 48.0598 20.6577 49.2252 20.6577 50.6629C20.6577 52.1005 21.8231 53.2659 23.2608 53.2659Z" stroke="#F19E38" stroke-width="2.61719" stroke-miterlimit="10" stroke-linecap="round" stroke-linejoin="round"/>
<path d="M40.0552 17.2646L50.0247 22.9324" stroke="black" stroke-width="2.61719" stroke-miterlimit="10" stroke-linecap="round" stroke-linejoin="round"/>
</g>
<defs>
<clipPath id="clip0_1221_6220">
<rect width="67" height="67" fill="white" transform="translate(0 0.5)"/>
</clipPath>
</defs>
</svg>
