<svg width="41" height="42" viewBox="0 0 41 42" fill="none" xmlns="http://www.w3.org/2000/svg">
<g clipPath="url(#clip0_1222_6344)">
<path d="M20.5002 10.9523C19.0034 10.9523 17.79 9.73891 17.79 8.24222V6.92591C17.79 5.42914 19.0034 4.21582 20.5001 4.21582C21.9969 4.21582 23.2102 5.42922 23.2102 6.92591V8.24222C23.2104 9.73899 21.997 10.9523 20.5002 10.9523Z" stroke="#F19E38" stroke-width="1.20139" stroke-miterlimit="10"/>
<path d="M22.2539 10.3093C23.515 10.8702 26.5395 13.0298 26.5395 15.4622C26.5395 16.4285 25.7562 17.2118 24.79 17.2118H16.21C15.2438 17.2118 14.4604 16.4285 14.4604 15.4622C14.4604 13.0301 17.485 10.8704 18.7464 10.3091" stroke="#F19E38" stroke-width="1.20139" stroke-miterlimit="10"/>
<path d="M12.7248 4.56006C11.0845 6.39978 10.0881 8.82658 10.0881 11.4856C10.0881 17.2363 14.7495 21.8977 20.5001 21.8977C23.1592 21.8977 25.586 20.9013 27.4257 19.261" stroke="#F19E38" stroke-width="1.20139" stroke-miterlimit="10"/>
<path d="M13.5745 3.70988C15.4142 2.06959 17.841 1.07324 20.5 1.07324C26.2507 1.07324 30.9121 5.73462 30.9121 11.4852C30.9121 14.1443 29.9157 16.5711 28.2754 18.4108" stroke="#F19E38" stroke-width="1.20139" stroke-miterlimit="10"/>
<path d="M21.1567 30.4751L21.8867 29.6665C22.6559 29.9851 22.6579 29.9859 23.4271 30.3045L23.3715 31.3926C23.7422 31.7633 23.9295 31.9506 24.3002 32.3213L25.3883 32.2657C25.7069 33.0349 25.7077 33.037 26.0263 33.8061L25.2177 34.5361C25.2177 35.0604 25.2177 35.3253 25.2177 35.8496L26.0263 36.5796C25.7077 37.3488 25.7069 37.3508 25.3883 38.1199L24.3002 38.0643C23.9295 38.4351 23.7422 38.6224 23.3715 38.9931L23.4271 40.0812C22.6579 40.3998 22.6559 40.4006 21.8867 40.7192L21.1567 39.9106C20.6324 39.9106 20.3675 39.9106 19.8432 39.9106L19.1132 40.7192C18.344 40.4006 18.342 40.3998 17.5729 40.0812L17.6285 38.9931C17.2577 38.6224 17.0705 38.4351 16.6997 38.0643L15.6116 38.1199C15.293 37.3507 15.2922 37.3487 14.9736 36.5796L15.7822 35.8496C15.7822 35.3253 15.7822 35.0604 15.7822 34.5361L14.9736 33.8061C15.2922 33.0369 15.293 33.0349 15.6116 32.2657L16.6997 32.3213C17.0705 31.9506 17.2577 31.7633 17.6285 31.3926L17.5729 30.3045C18.3421 29.9859 18.3441 29.9851 19.1132 29.6665L19.8432 30.4751C20.3675 30.4751 20.6324 30.4751 21.1567 30.4751Z" stroke="black" stroke-width="1.20139" stroke-miterlimit="10"/>
<path d="M20.5 37.1432C21.5773 37.1432 22.4505 36.2699 22.4505 35.1927C22.4505 34.1155 21.5773 33.2422 20.5 33.2422C19.4228 33.2422 18.5496 34.1155 18.5496 35.1927C18.5496 36.2699 19.4228 37.1432 20.5 37.1432Z" stroke="black" stroke-width="1.20139" stroke-miterlimit="10"/>
<path d="M6.90033 30.4751L7.63038 29.6665C8.39958 29.9851 8.40159 29.9859 9.17071 30.3045L9.11513 31.3926C9.48588 31.7633 9.67313 31.9506 10.0439 32.3213L11.1319 32.2657C11.4505 33.0349 11.4513 33.037 11.7699 33.8061L10.9613 34.5361C10.9613 35.0604 10.9613 35.3253 10.9613 35.8496L11.7699 36.5796C11.4513 37.3488 11.4505 37.3508 11.1319 38.1199L10.0439 38.0643C9.67313 38.4351 9.48588 38.6224 9.11513 38.9931L9.17071 40.0812C8.40151 40.3998 8.3995 40.4006 7.63038 40.7192L6.90033 39.9106C6.37605 39.9106 6.11118 39.9106 5.5869 39.9106L4.85686 40.7192C4.08765 40.4006 4.08565 40.3998 3.31652 40.0812L3.37211 38.9931C3.00136 38.6224 2.8141 38.4351 2.44336 38.0643L1.3553 38.1199C1.03669 37.3507 1.03589 37.3487 0.717285 36.5796L1.5259 35.8496C1.5259 35.3253 1.5259 35.0604 1.5259 34.5361L0.717285 33.8061C1.03589 33.0369 1.03669 33.0349 1.3553 32.2657L2.44336 32.3213C2.8141 31.9506 3.00136 31.7633 3.37211 31.3926L3.31652 30.3045C4.08573 29.9859 4.08773 29.9851 4.85686 29.6665L5.5869 30.4751C6.11118 30.4751 6.37605 30.4751 6.90033 30.4751Z" stroke="black" stroke-width="1.20139" stroke-miterlimit="10"/>
<path d="M6.2437 37.1432C7.32093 37.1432 8.19419 36.2699 8.19419 35.1927C8.19419 34.1155 7.32093 33.2422 6.2437 33.2422C5.16648 33.2422 4.29321 34.1155 4.29321 35.1927C4.29321 36.2699 5.16648 37.1432 6.2437 37.1432Z" stroke="black" stroke-width="1.20139" stroke-miterlimit="10"/>
<path d="M35.413 30.395L36.1431 29.5864C36.9123 29.905 36.9143 29.9058 37.6834 30.2244L37.6278 31.3125C37.9986 31.6832 38.1858 31.8705 38.5566 32.2412L39.6446 32.1857C39.9632 32.9549 39.964 32.9569 40.2826 33.726L39.474 34.456C39.474 34.9803 39.474 35.2452 39.474 35.7695L40.2826 36.4995C39.964 37.2687 39.9632 37.2707 39.6446 38.0399L38.5566 37.9843C38.1858 38.355 37.9986 38.5423 37.6278 38.913L37.6834 40.0011C36.9142 40.3197 36.9122 40.3205 36.1431 40.6391L35.413 39.8305C34.8887 39.8305 34.6239 39.8305 34.0996 39.8305L33.3696 40.6391C32.6003 40.3205 32.5983 40.3197 31.8292 40.0011L31.8848 38.913C31.5141 38.5423 31.3268 38.355 30.9561 37.9843L29.868 38.0399C29.5494 37.2706 29.5486 37.2686 29.23 36.4995L30.0386 35.7695C30.0386 35.2452 30.0386 34.9803 30.0386 34.456L29.23 33.726C29.5486 32.9568 29.5494 32.9548 29.868 32.1857L30.9561 32.2412C31.3268 31.8705 31.5141 31.6832 31.8848 31.3125L31.8292 30.2244C32.5984 29.9058 32.6004 29.905 33.3696 29.5864L34.0996 30.395C34.6239 30.395 34.8887 30.395 35.413 30.395Z" stroke="black" stroke-width="1.20139" stroke-miterlimit="10"/>
<path d="M34.7564 37.0631C35.8336 37.0631 36.7069 36.1898 36.7069 35.1126C36.7069 34.0354 35.8336 33.1621 34.7564 33.1621C33.6792 33.1621 32.8059 34.0354 32.8059 35.1126C32.8059 36.1898 33.6792 37.0631 34.7564 37.0631Z" stroke="black" stroke-width="1.20139" stroke-miterlimit="10"/>
<path d="M20.5 21.8975V30.4673" stroke="black" stroke-width="1.20139" stroke-miterlimit="10"/>
<path d="M34.7565 30.4676V27.5042C34.7565 26.6195 34.0394 25.9023 33.1547 25.9023H7.8455C6.9608 25.9023 6.24365 26.6195 6.24365 27.5042V30.4676" stroke="black" stroke-width="1.20139" stroke-miterlimit="10"/>
<path d="M18.698 14.0806H19.8994" stroke="#F19E38" stroke-width="1.20139" stroke-miterlimit="10"/>
<path d="M21.1008 14.0806H22.3022" stroke="#F19E38" stroke-width="1.20139" stroke-miterlimit="10"/>
</g>
<defs>
<clipPath id="clip0_1222_6344">
<rect width="41" height="41" fill="white" transform="translate(0 0.45459)"/>
</clipPath>
</defs>
</svg>
