<svg width="39" height="40" viewBox="0 0 39 40" fill="none" xmlns="http://www.w3.org/2000/svg">
<mask id="mask0_1222_6412" style="mask-type:luminance" maskUnits="userSpaceOnUse" x="0" y="0" width="39" height="40">
<path d="M0 0.833008H39V39.833H0V0.833008Z" fill="white"/>
</mask>
<g mask="url(#mask0_1222_6412)">
<path d="M19.9007 1.79221L23.9489 6.80965C24.2325 7.16073 23.9833 7.6886 23.553 7.68837H21.2134V13.6104C21.2134 14.0815 20.8276 14.4673 20.3564 14.4673H18.6425C18.1713 14.4673 17.7856 14.0816 17.7856 13.6104V7.68837H15.4462C14.9899 7.68837 14.7635 7.12363 15.069 6.78642L19.1036 1.78573C19.3127 1.52698 19.6974 1.53284 19.9007 1.79221Z" stroke="#F19E38" stroke-width="1.2" stroke-miterlimit="2.613" stroke-linecap="round" stroke-linejoin="round"/>
<path d="M10.2209 9.72482C10.5529 9.80214 10.7559 10.1886 10.5759 10.5L9.40603 12.5261L14.5346 15.4871C14.9427 15.7227 15.0839 16.2496 14.8483 16.6578L13.9914 18.142C13.7557 18.5502 13.2289 18.6913 12.8207 18.4557L7.69217 15.4947L6.52239 17.5207C6.29434 17.9159 5.69197 17.8295 5.55273 17.3964L3.23931 11.4019C3.14623 11.1604 3.24525 10.9068 3.44756 10.7843" stroke="black" stroke-width="1.2" stroke-miterlimit="2.613" stroke-linecap="round" stroke-linejoin="round"/>
<path d="M3.24207 29.2559L5.56326 23.2413C5.72551 22.8201 6.30723 22.772 6.52226 23.1448L7.69196 25.1709L12.8206 22.21C13.2286 21.9744 13.7555 22.1155 13.9911 22.5236L14.8482 24.0079C15.0838 24.416 14.9426 24.9428 14.5345 25.1785L9.40583 28.1395L10.5756 30.1655C10.8037 30.5606 10.4278 31.039 9.98306 30.9431L3.63504 29.9493C3.30644 29.8977 3.11913 29.5616 3.24207 29.2559Z" stroke="#F19E38" stroke-width="1.2" stroke-miterlimit="2.613" stroke-linecap="round" stroke-linejoin="round"/>
<path d="M19.0983 38.8737L15.0501 33.8563C14.7665 33.5052 15.0158 32.9773 15.446 32.9776H17.7856V27.0556C17.7856 26.5845 18.1714 26.1987 18.6426 26.1987H20.3565C20.8278 26.1987 21.2134 26.5843 21.2134 27.0556V32.9776H23.5528C24.0091 32.9776 24.2355 33.5423 23.93 33.8795L19.8954 38.8802C19.6863 39.139 19.3017 39.1331 19.0983 38.8737Z" stroke="black" stroke-width="1.2" stroke-miterlimit="2.613" stroke-linecap="round" stroke-linejoin="round"/>
<path d="M35.356 29.9506L28.9867 30.9477C28.5408 31.0178 28.2083 30.538 28.4237 30.1655L29.5935 28.1393L24.4649 25.1784C24.0568 24.9428 23.9156 24.4158 24.1512 24.0078L25.0081 22.5235C25.2438 22.1154 25.7705 21.9742 26.1787 22.2098L31.3073 25.1708L32.4771 23.1447C32.7052 22.7496 33.3074 22.836 33.4468 23.2691L35.7602 29.2636C35.8797 29.574 35.6823 29.9042 35.356 29.9506Z" stroke="#F19E38" stroke-width="1.2" stroke-miterlimit="2.613" stroke-linecap="round" stroke-linejoin="round"/>
<path d="M35.7573 11.4099L33.4361 17.4244C33.2738 17.8456 32.6921 17.8936 32.4772 17.5209L31.3074 15.4947L26.1787 18.4558C25.7708 18.6913 25.2438 18.5501 25.0082 18.1421L24.1513 16.6578C23.9156 16.2497 24.0567 15.7229 24.4649 15.4872L29.5935 12.5262L28.4238 10.5002C28.1956 10.105 28.5715 9.62661 29.0163 9.72259L35.3644 10.7163C35.693 10.768 35.8802 11.104 35.7573 11.4099Z" stroke="black" stroke-width="1.2" stroke-miterlimit="2.613" stroke-linecap="round" stroke-linejoin="round"/>
<path d="M6.82812 10.2168H6.82973" stroke="black" stroke-width="1.2" stroke-miterlimit="2.613" stroke-linecap="round" stroke-linejoin="round"/>
</g>
</svg>
