<svg width="14" height="18" viewBox="0 0 14 18" fill="none" xmlns="http://www.w3.org/2000/svg">
<path d="M13 7.66666C13 12.3333 7 16.3333 7 16.3333C7 16.3333 1 12.3333 1 7.66666C1 6.07536 1.63214 4.54923 2.75736 3.42402C3.88258 2.2988 5.4087 1.66666 7 1.66666C8.5913 1.66666 10.1174 2.2988 11.2426 3.42402C12.3679 4.54923 13 6.07536 13 7.66666Z" stroke="#F19E38" stroke-width="1.4" stroke-linecap="round" stroke-linejoin="round"/>
<path d="M7 9.66666C8.10457 9.66666 9 8.77123 9 7.66666C9 6.56209 8.10457 5.66666 7 5.66666C5.89543 5.66666 5 6.56209 5 7.66666C5 8.77123 5.89543 9.66666 7 9.66666Z" stroke="#F19E38" stroke-width="1.4" stroke-linecap="round" stroke-linejoin="round"/>
</svg>
