<svg width="16" height="14" viewBox="0 0 16 14" fill="none" xmlns="http://www.w3.org/2000/svg">
<path d="M13.3335 3.6665H2.66683C1.93045 3.6665 1.3335 4.26346 1.3335 4.99984V11.6665C1.3335 12.4029 1.93045 12.9998 2.66683 12.9998H13.3335C14.0699 12.9998 14.6668 12.4029 14.6668 11.6665V4.99984C14.6668 4.26346 14.0699 3.6665 13.3335 3.6665Z" stroke="#F19E38" stroke-width="1.4" stroke-linecap="round" stroke-linejoin="round"/>
<path d="M10.6668 13V2.33333C10.6668 1.97971 10.5264 1.64057 10.2763 1.39052C10.0263 1.14048 9.68712 1 9.3335 1H6.66683C6.31321 1 5.97407 1.14048 5.72402 1.39052C5.47397 1.64057 5.3335 1.97971 5.3335 2.33333V13" stroke="#F19E38" stroke-width="1.4" stroke-linecap="round" stroke-linejoin="round"/>
</svg>
