<svg width="47" height="47" viewBox="0 0 47 47" fill="none" xmlns="http://www.w3.org/2000/svg">
<path d="M24.2145 17.1272L7.5431 18.4666C7.38438 18.4794 7.37838 18.7097 7.53622 18.7307L25.2395 21.0862C26.2297 21.218 26.9692 22.0625 26.9692 23.0614V25.8484C26.9692 26.1749 27.2609 26.4242 27.5835 26.3733L34.7135 25.2474C36.0882 25.0303 36.4802 23.2381 35.3218 22.4668L29.2696 18.4375C27.7795 17.4454 25.9989 16.9839 24.2145 17.1272Z" fill="url(#paint0_linear_1024_7153)"/>
<path d="M22.6581 31.4313L39.4563 30.0903C39.6153 30.0777 39.6211 29.8472 39.4633 29.8262L21.6368 27.4694C20.6459 27.3384 19.9054 26.4936 19.9054 25.4941V22.7085C19.9054 22.382 19.6137 22.1328 19.2913 22.1837L12.1612 23.3096C10.7865 23.5266 10.3944 25.3189 11.5529 26.0901L17.6069 30.1207C19.0958 31.1121 20.875 31.5736 22.6581 31.4313Z" fill="url(#paint1_linear_1024_7153)"/>
<rect x="0.412281" y="0.412281" width="46.1754" height="46.1754" rx="23.0877" stroke="#EDEDED" stroke-width="0.824561"/>
<defs>
<linearGradient id="paint0_linear_1024_7153" x1="16.6315" y1="20.8291" x2="30.6932" y2="24.5179" gradientUnits="userSpaceOnUse">
<stop stop-color="#F19E38"/>
<stop offset="1" stop-color="#FFD097"/>
</linearGradient>
<linearGradient id="paint1_linear_1024_7153" x1="30.3335" y1="27.7279" x2="16.2214" y2="24.0107" gradientUnits="userSpaceOnUse">
<stop stop-color="#F19E38"/>
<stop offset="1" stop-color="#FFD097"/>
</linearGradient>
</defs>
</svg>
