<svg width="120" height="114" viewBox="0 0 120 114" fill="none" xmlns="http://www.w3.org/2000/svg">
<path d="M80.2242 21.743L85.4836 34.0641L98.8852 35.2641C99.4242 35.318 99.893 35.5852 100.216 35.9695L100.27 36.0422C100.57 36.4276 100.717 36.9099 100.683 37.3969L100.676 37.4719C100.649 37.7129 100.579 37.9472 100.47 38.1633L100.439 38.2195C100.343 38.3953 100.219 38.5547 100.076 38.693L89.8828 47.5969L92.8852 60.743C92.993 61.2656 92.8828 61.7859 92.618 62.2078C92.4068 62.545 92.0995 62.8114 91.7357 62.9726C91.3719 63.1338 90.9683 63.1825 90.5766 63.1125C90.3088 63.0686 90.0532 62.9688 89.8266 62.8195L78.3656 55.9664L66.8109 62.8734C66.3422 63.1453 65.8055 63.2062 65.3227 63.0844C64.808 62.9553 64.3655 62.6274 64.0922 62.1727L64.0523 62.0977C63.8181 61.6692 63.7489 61.1698 63.8578 60.6937L66.8484 47.5969L56.7305 38.7633C56.5321 38.5895 56.37 38.3784 56.2534 38.1419C56.1368 37.9054 56.0679 37.6483 56.0508 37.3852C56.018 36.8789 56.1773 36.3563 56.543 35.9391C56.7258 35.7305 56.9391 35.5687 57.1711 35.4562C57.4102 35.3391 57.6727 35.2734 57.9398 35.257L71.2453 34.0641L76.5234 21.7102C76.7325 21.2212 77.127 20.8351 77.6203 20.6367C78.0914 20.4469 78.6422 20.4352 79.1508 20.6531L79.207 20.6789C79.432 20.782 79.6266 20.9203 79.7859 21.0797L79.8492 21.1477C80.0039 21.3211 80.1281 21.5156 80.2148 21.7242L80.2242 21.743ZM0 60.9281H24.9984L23.9977 104.203H0V60.9281ZM28.9453 100.709L29.782 64.7883L45.9375 65.1656C52.7578 66.5531 59.5195 70.425 66.2695 74.8992L78.818 75.1898C84.4898 75.6656 87.3305 81.4898 81.7242 85.1438C77.2477 88.268 71.4469 87.9516 65.5102 87.2789C61.4109 86.9813 61.1039 92.4938 65.3859 92.6109C66.8672 92.7609 68.4938 92.4516 69.9047 92.482C77.332 92.6484 83.4844 91.3711 87.3633 85.5914L89.3484 81.2414L108.23 72.4219C117.642 69.5648 124.052 79.4906 117.014 86.1234C103.266 95.6461 89.2078 103.418 74.8758 109.624C64.4297 115.65 54.1359 115.198 43.9758 108.905L28.9453 100.709ZM42.1641 25.5492C41.2055 25.1461 40.7555 24.0398 41.1586 23.0813C41.5617 22.1227 42.668 21.6727 43.6266 22.0758L51.4945 25.4086C52.4531 25.8117 52.9031 26.918 52.5 27.8766C52.3053 28.3371 51.9358 28.7016 51.4727 28.8901C51.0096 29.0786 50.4907 29.0757 50.0297 28.882L42.1641 25.5492ZM50.1633 13.2891C49.4297 12.5484 49.432 11.3531 50.1703 10.6195C50.9109 9.88594 52.1063 9.88828 52.8398 10.6266L58.8492 16.7016C59.5828 17.4398 59.5805 18.6352 58.8422 19.3687C58.1016 20.1047 56.9062 20.1 56.1727 19.3617L50.1633 13.2891ZM62.2242 4.98281C61.8281 4.01953 62.2898 2.91797 63.2531 2.52188C64.2164 2.12578 65.318 2.58516 65.7141 3.54844L68.9625 11.4516C69.0567 11.6806 69.1049 11.9259 69.1043 12.1735C69.1037 12.4211 69.0543 12.6661 68.959 12.8947C68.8636 13.1232 68.7242 13.3307 68.5487 13.5053C68.3732 13.68 68.1649 13.8183 67.9359 13.9125C66.9727 14.3086 65.8688 13.8492 65.4727 12.8859L62.2242 4.98281ZM113.105 22.0758C114.063 21.6727 115.17 22.1227 115.573 23.0813C115.976 24.0398 115.528 25.1461 114.567 25.5492L106.702 28.882C105.743 29.2852 104.637 28.8352 104.234 27.8766C104.137 27.6485 104.087 27.4037 104.085 27.1562C104.083 26.9086 104.131 26.6632 104.224 26.4339C104.318 26.2046 104.455 25.996 104.629 25.8201C104.804 25.6442 105.011 25.5043 105.239 25.4086L113.105 22.0758ZM103.891 10.6266C104.627 9.88828 105.823 9.88594 106.561 10.6195C107.299 11.3531 107.304 12.5484 106.568 13.2891L100.559 19.3617C99.825 20.1 98.6297 20.1047 97.8914 19.3687C97.1531 18.6352 97.1484 17.4398 97.882 16.7016L103.891 10.6266ZM91.0172 3.54844C91.4133 2.58516 92.5172 2.12578 93.4781 2.52188C94.4414 2.91797 94.9031 4.01953 94.507 4.98281L91.2586 12.8859C91.1644 13.1149 91.0261 13.3232 90.8514 13.4987C90.6768 13.6742 90.4693 13.8136 90.2408 13.909C90.0122 14.0043 89.7672 14.0537 89.5196 14.0543C89.2719 14.0549 89.0266 14.0067 88.7977 13.9125C87.8344 13.5164 87.3727 12.4148 87.7688 11.4516L91.0172 3.54844ZM76.4156 1.89141C76.4156 0.848437 77.2617 0 78.307 0C79.3523 0 80.1984 0.848437 80.1984 1.89141V10.4367C80.1984 11.4797 79.3523 12.3281 78.307 12.3281C77.2617 12.3281 76.4156 11.4797 76.4156 10.4367V1.89141Z" fill="black"/>
</svg>
