<svg width="120" height="100" viewBox="0 0 120 100" fill="none" xmlns="http://www.w3.org/2000/svg">
<path fill-rule="evenodd" clip-rule="evenodd" d="M3.26173 0H116.738C117.603 0.00257608 118.431 0.347048 119.042 0.958181C119.653 1.56931 119.997 2.39745 120 3.26172V78.457C119.997 79.3213 119.653 80.1494 119.042 80.7606C118.431 81.3717 117.603 81.7162 116.738 81.7188H3.26173C2.83212 81.7175 2.40696 81.6316 2.01053 81.466C1.61411 81.3004 1.25418 81.0583 0.951301 80.7537C0.648422 80.449 0.408522 80.0876 0.2453 79.6902C0.0820785 79.2928 -0.00126974 78.8671 1.46203e-05 78.4375V3.24219C0.00772054 2.38131 0.354455 1.55817 0.965036 0.951245C1.57562 0.34432 2.40083 0.00253539 3.26173 0ZM12.3242 22.666H20.7617C20.8601 22.6685 20.9569 22.6906 21.0466 22.7308C21.1364 22.7711 21.2172 22.8288 21.2845 22.9006C21.3517 22.9724 21.404 23.0568 21.4383 23.149C21.4726 23.2411 21.4883 23.3392 21.4844 23.4375V26.2695C21.4818 26.4647 21.4025 26.651 21.2636 26.788C21.1247 26.9251 20.9374 27.002 20.7422 27.002H12.3242C12.1291 27.002 11.9418 26.9251 11.8029 26.788C11.6639 26.651 11.5846 26.4647 11.582 26.2695V23.4375C11.5846 23.2424 11.6639 23.0561 11.8029 22.919C11.9418 22.7819 12.1291 22.7051 12.3242 22.7051V22.666ZM12.3242 46.4648H41.8555C42.0506 46.4648 42.238 46.5417 42.3769 46.6788C42.5158 46.8158 42.5951 47.0021 42.5977 47.1973V50.0684C42.5951 50.2635 42.5158 50.4498 42.3769 50.5869C42.238 50.7239 42.0506 50.8008 41.8555 50.8008H12.3242C12.1291 50.8008 11.9418 50.7239 11.8029 50.5869C11.6639 50.4498 11.5846 50.2635 11.582 50.0684V47.1973C11.5846 47.0021 11.6639 46.8158 11.8029 46.6788C11.9418 46.5417 12.1291 46.4648 12.3242 46.4648ZM12.3242 34.3457H30.6055C30.8015 34.3482 30.9888 34.4272 31.1275 34.5659C31.2661 34.7045 31.3451 34.8918 31.3477 35.0879V37.959C31.3426 38.1533 31.2625 38.3382 31.1241 38.4747C30.9858 38.6113 30.7999 38.6889 30.6055 38.6914H12.3242C12.1291 38.6914 11.9418 38.6146 11.8029 38.4775C11.6639 38.3404 11.5846 38.1541 11.582 37.959V35.0879C11.582 34.8911 11.6602 34.7023 11.7994 34.5631C11.9386 34.4239 12.1274 34.3457 12.3242 34.3457ZM12.3242 58.5742H54.5117C54.7069 58.5768 54.8932 58.6561 55.0302 58.795C55.1673 58.9339 55.2442 59.1212 55.2442 59.3164V62.1875C55.2416 62.381 55.1636 62.5658 55.0268 62.7026C54.89 62.8394 54.7052 62.9174 54.5117 62.9199H12.3242C12.1291 62.9199 11.9418 62.8431 11.8029 62.706C11.6639 62.5689 11.5846 62.3826 11.582 62.1875V59.3164C11.582 59.1196 11.6602 58.9308 11.7994 58.7916C11.9386 58.6524 12.1274 58.5742 12.3242 58.5742ZM45.2051 86.2012H74.7949C74.8731 91.3184 76.9824 95.9082 82.6953 99.5117H37.3047C41.9043 96.1816 45.2246 92.1484 45.2051 86.2012ZM115.732 11.377V69.1797C115.732 69.9567 115.424 70.7019 114.874 71.2513C114.325 71.8007 113.58 72.1094 112.803 72.1094H7.15822C6.38971 72.0966 5.65702 71.7823 5.11811 71.2342C4.5792 70.6862 4.27725 69.9483 4.27736 69.1797V11.377H30.8008V15.1562C30.8008 15.6743 31.0066 16.171 31.3729 16.5373C31.7391 16.9036 32.2359 17.1094 32.7539 17.1094H35.7324C36.0245 18.4238 36.4875 19.6944 37.1094 20.8887L34.8242 23.1836C34.4693 23.5482 34.2707 24.037 34.2707 24.5459C34.2707 25.0548 34.4693 25.5436 34.8242 25.9082L37.666 28.7598C38.0311 29.1176 38.522 29.3181 39.0332 29.3181C39.5445 29.3181 40.0353 29.1176 40.4004 28.7598L42.5 26.6504C43.6538 27.3696 44.8985 27.9312 46.2012 28.3203V31.5625C46.2012 32.0805 46.407 32.5773 46.7732 32.9436C47.1395 33.3099 47.6363 33.5156 48.1543 33.5156H52.1875C52.7055 33.5156 53.2023 33.3099 53.5686 32.9436C53.9349 32.5773 54.1406 32.0805 54.1406 31.5625V28.6328C55.4659 28.3326 56.744 27.8529 57.9395 27.207L60.2344 29.502C60.599 29.8569 61.0878 30.0555 61.5967 30.0555C62.1056 30.0555 62.5943 29.8569 62.959 29.502L65.8106 26.6504C66.1655 26.2857 66.3641 25.797 66.3641 25.2881C66.3641 24.7792 66.1655 24.2904 65.8106 23.9258L63.7109 21.8262C64.431 20.6751 64.9958 19.4339 65.3906 18.1348H68.6328C69.1508 18.1348 69.6476 17.929 70.0139 17.5627C70.3802 17.1964 70.586 16.6996 70.586 16.1816V12.1484C70.5852 11.8835 70.5321 11.6213 70.4297 11.377H115.732ZM102.744 25.3027L105.908 28.4668C106.307 28.8676 106.531 29.4101 106.531 29.9756C106.531 30.5411 106.307 31.0836 105.908 31.4844L103.359 34.0332C104.072 35.3596 104.604 36.7751 104.941 38.2422H108.232C108.795 38.2499 109.333 38.4783 109.729 38.8782C110.126 39.2782 110.349 39.8178 110.352 40.3809V44.8535C110.352 45.4207 110.126 45.9647 109.725 46.3658C109.324 46.7669 108.78 46.9922 108.213 46.9922H104.619C104.183 48.4332 103.555 49.8093 102.754 51.084L105.088 53.418C105.487 53.8204 105.712 54.3645 105.712 54.9316C105.712 55.4987 105.487 56.0429 105.088 56.4453L101.943 59.5703C101.541 59.9699 100.997 60.1941 100.43 60.1941C99.8626 60.1941 99.3185 59.9699 98.916 59.5703L96.377 57.0215C95.0472 57.7338 93.6285 58.2658 92.1582 58.6035V61.9043C92.1557 62.4707 91.9295 63.0132 91.529 63.4137C91.1284 63.8143 90.586 64.0404 90.0195 64.043H85.5469C84.9805 64.0404 84.438 63.8143 84.0375 63.4137C83.6369 63.0132 83.4108 62.4707 83.4082 61.9043V58.3398C81.968 57.9014 80.5921 57.2742 79.3164 56.4746L76.9824 58.8086C76.58 59.2081 76.0359 59.4324 75.4688 59.4324C74.9017 59.4324 74.3576 59.2081 73.9551 58.8086L70.8008 55.6641C70.4018 55.2633 70.1779 54.7208 70.1779 54.1553C70.1779 53.5898 70.4018 53.0473 70.8008 52.6465L73.3399 50.0977C72.6357 48.7721 72.1071 47.3605 71.7676 45.8984H68.4668C67.9004 45.8959 67.3579 45.6697 66.9574 45.2692C66.5569 44.8687 66.3307 44.3262 66.3281 43.7598V39.2578C66.3281 38.6897 66.5531 38.1447 66.9539 37.7421C67.3548 37.3394 67.8987 37.112 68.4668 37.1094H72.0703C72.5027 35.6668 73.1303 34.2901 73.9356 33.0176L71.6016 30.6836C71.4014 30.4856 71.2425 30.2499 71.134 29.9901C71.0255 29.7302 70.9697 29.4515 70.9697 29.1699C70.9697 28.8884 71.0255 28.6096 71.134 28.3498C71.2425 28.09 71.4014 27.8542 71.6016 27.6562L74.7559 24.4922C75.1583 24.0926 75.7024 23.8684 76.2695 23.8684C76.8367 23.8684 77.3808 24.0926 77.7832 24.4922L80.332 27.041C81.6584 26.3288 83.0739 25.7968 84.541 25.459V22.168C84.5436 21.6015 84.7697 21.0591 85.1703 20.6585C85.5708 20.258 86.1133 20.0319 86.6797 20.0293H91.1524C91.7188 20.0319 92.2613 20.258 92.6618 20.6585C93.0623 21.0591 93.2885 21.6015 93.291 22.168V25.7715C94.732 26.208 96.1082 26.8353 97.3828 27.6367L99.7168 25.3027C100.119 24.9032 100.663 24.679 101.23 24.679C101.798 24.679 102.342 24.9032 102.744 25.3027ZM58.2422 11.377C58.5989 12.5613 58.6736 13.8127 58.4604 15.0311C58.2471 16.2495 57.7517 17.4011 57.0139 18.3938C56.2761 19.3866 55.3163 20.193 54.2112 20.7486C53.1061 21.3041 51.8863 21.5935 50.6494 21.5935C49.4125 21.5935 48.1928 21.3041 47.0877 20.7486C45.9825 20.193 45.0227 19.3866 44.2849 18.3938C43.5471 17.4011 43.0518 16.2495 42.8385 15.0311C42.6252 13.8127 42.6999 12.5613 43.0567 11.377H58.2422ZM88.3496 33.2617C90.0879 33.2617 91.7872 33.7772 93.2326 34.7429C94.6779 35.7087 95.8044 37.0814 96.4697 38.6874C97.1349 40.2933 97.3089 42.0605 96.9698 43.7654C96.6307 45.4704 95.7936 47.0364 94.5644 48.2656C93.3353 49.4948 91.7692 50.3318 90.0643 50.671C88.3594 51.0101 86.5922 50.836 84.9862 50.1708C83.3802 49.5056 82.0075 48.3791 81.0418 46.9337C80.076 45.4884 79.5606 43.7891 79.5606 42.0508C79.5606 39.7198 80.4865 37.4842 82.1348 35.836C83.7831 34.1877 86.0186 33.2617 88.3496 33.2617ZM111.133 4.80469C111.519 4.80469 111.897 4.91924 112.218 5.13385C112.539 5.34846 112.789 5.6535 112.937 6.01038C113.085 6.36727 113.124 6.75998 113.048 7.13885C112.973 7.51772 112.787 7.86573 112.514 8.13888C112.241 8.41203 111.893 8.59805 111.514 8.67341C111.135 8.74877 110.742 8.71009 110.385 8.56227C110.029 8.41444 109.723 8.1641 109.509 7.84291C109.294 7.52172 109.18 7.1441 109.18 6.75781C109.18 6.23981 109.385 5.74303 109.752 5.37674C110.118 5.01046 110.615 4.80469 111.133 4.80469ZM98.0078 4.80469C98.3941 4.80469 98.7717 4.91924 99.0929 5.13385C99.4141 5.34846 99.6645 5.6535 99.8123 6.01038C99.9601 6.36727 99.9988 6.75998 99.9234 7.13885C99.8481 7.51772 99.662 7.86573 99.3889 8.13888C99.1157 8.41203 98.7677 8.59805 98.3889 8.67341C98.01 8.74877 97.6173 8.71009 97.2604 8.56227C96.9035 8.41444 96.5985 8.1641 96.3839 7.84291C96.1693 7.52172 96.0547 7.1441 96.0547 6.75781C96.0547 6.23981 96.2605 5.74303 96.6268 5.37674C96.993 5.01046 97.4898 4.80469 98.0078 4.80469ZM104.57 4.80469C104.957 4.80469 105.334 4.91924 105.655 5.13385C105.977 5.34846 106.227 5.6535 106.375 6.01038C106.523 6.36727 106.561 6.75998 106.486 7.13885C106.411 7.51772 106.225 7.86573 105.951 8.13888C105.678 8.41203 105.33 8.59805 104.951 8.67341C104.572 8.74877 104.18 8.71009 103.823 8.56227C103.466 8.41444 103.161 8.1641 102.946 7.84291C102.732 7.52172 102.617 7.1441 102.617 6.75781C102.617 6.23981 102.823 5.74303 103.189 5.37674C103.556 5.01046 104.052 4.80469 104.57 4.80469Z" fill="black"/>
</svg>
