<svg width="120" height="117" viewBox="0 0 120 117" fill="none" xmlns="http://www.w3.org/2000/svg">
<path d="M85.718 38.6741C85.4706 38.4092 85.2412 38.1281 85.0312 37.8327C84.5273 37.1389 84.0516 36.4147 83.5945 35.6882L81.3141 32.0577C80.4469 30.7968 79.9922 29.6436 79.9922 28.7319C79.9922 27.8178 80.5102 26.6272 81.5414 26.3624C81.4594 24.996 81.4055 23.6085 81.4055 22.2374C81.4055 21.4241 81.4195 20.6038 81.45 19.7975C81.4945 19.2889 81.5883 18.7827 81.7266 18.2905C82.357 16.2257 83.7422 14.4702 85.5984 13.3686C86.257 12.9561 86.9672 12.6163 87.7031 12.3655C89.0273 11.8639 88.3875 9.84128 89.8477 9.81082C93.2578 9.72175 98.8664 12.6421 101.053 15.0116C102.447 16.5515 103.24 18.5415 103.287 20.6178L103.146 26.5897C103.753 26.7374 104.229 27.2108 104.379 27.8178C104.562 28.5491 104.379 29.5499 103.739 30.9655C103.739 31.01 103.695 31.01 103.695 31.0569L101.095 35.3436C100.505 36.3093 99.8953 37.2983 99.2109 38.2077C98.3977 39.2928 97.7297 39.0983 98.4234 40.1389C103.399 46.978 118.024 42.6608 118.024 56.2639H94.8844C94.8844 46.9991 90.7055 43.0358 85.4672 40.7225C85.6336 40.5374 85.7906 40.3428 85.9406 40.1389C86.5125 39.2952 86.3602 39.3608 85.718 38.6741ZM16.5117 71.2171V75.9022C16.5117 77.0319 16.9172 78.0186 17.7445 78.8741C18.5695 79.7132 19.5703 80.135 20.7609 80.135H27.2109C27.5578 81.6139 27.9937 83.0483 28.5281 84.4241C29.0672 85.8163 29.6742 87.1639 30.3539 88.4694L25.3383 93.4686C24.4992 94.2678 24.0633 95.2405 24.0633 96.4124C24.0633 97.5725 24.4992 98.5733 25.3383 99.4288L31.5445 105.705C32.4 106.502 33.4008 106.896 34.5633 106.896C35.7188 106.896 36.7336 106.502 37.575 105.705L42.1711 101.039C43.4016 101.833 44.7094 102.53 46.0687 103.153C47.4305 103.776 48.8227 104.313 50.2289 104.777V111.823C50.2289 113.011 50.6344 114.009 51.4617 114.837C52.2867 115.664 53.2898 116.072 54.4758 116.072H63.3188C64.4508 116.072 65.4352 115.664 66.293 114.837C67.132 114.009 67.5516 113.011 67.5516 111.823V105.373C69.0305 105.026 70.4648 104.59 71.8406 104.053C73.2328 103.516 74.5828 102.907 75.8859 102.225L80.8875 107.243C81.6867 108.084 82.6711 108.52 83.8594 108.52C85.0617 108.52 86.0484 108.084 86.8453 107.243L93.1242 101.039C93.9211 100.181 94.3125 99.1804 94.3125 98.0225C94.3125 96.8624 93.9211 95.8499 93.1242 95.0061L88.4555 90.41C89.2523 89.1819 89.9484 87.8764 90.5719 86.5124C91.193 85.1507 91.732 83.7585 92.1961 82.3522H99.2414C100.43 82.3522 101.428 81.9444 102.253 81.1194C103.08 80.2944 103.486 79.2936 103.486 78.103V71.2171H85.9078C85.9313 71.6694 85.943 72.1264 85.943 72.5835C85.943 79.7483 83.0367 86.2358 78.3445 90.9303C73.65 95.6249 67.1625 98.5288 60 98.5288C52.8352 98.5288 46.3453 95.6249 41.6531 90.9303C36.9586 86.2358 34.0547 79.7483 34.0547 72.5835C34.0547 72.1241 34.0641 71.6694 34.0898 71.2171H16.5117ZM80.1773 71.2171C80.2078 71.6694 80.2242 72.1241 80.2242 72.5835C80.2242 83.7585 71.168 92.81 60.0023 92.81C48.8273 92.81 39.7758 83.7514 39.7758 72.5835C39.7758 72.1241 39.7945 71.6671 39.8227 71.2171H80.1773ZM1.24219 60.2155H118.758C119.442 60.2155 120 60.7874 120 61.46V66.11C120 66.785 119.43 67.3522 118.758 67.3522H1.24219C0.571875 67.3522 0 66.7944 0 66.11V61.46C0 60.7757 0.560156 60.2155 1.24219 60.2155ZM52.8492 36.7171C51.2203 35.2686 49.1766 34.0194 48.9 31.0077L48.7242 31.0124C48.3211 31.0077 47.932 30.9139 47.5664 30.7053C46.9852 30.3725 46.5727 29.803 46.2961 29.1608C45.7102 27.8132 45.2461 24.2647 46.7227 23.2499L46.4461 23.0671L46.4133 22.6733C46.357 21.9608 46.343 21.096 46.3289 20.1889C46.275 16.8514 46.207 12.8108 43.5258 11.9999L42.375 11.6507L43.132 10.7132C45.3 8.0366 47.5641 5.69285 49.8469 3.89519C52.432 1.86316 55.057 0.508472 57.6258 0.117066C60.2672 -0.283716 62.8266 0.323316 65.1891 2.23347C65.8875 2.79832 66.5648 3.47566 67.2188 4.27019C69.7406 4.51394 71.8008 5.87097 73.2727 7.80925C74.1516 8.96707 74.8195 10.3358 75.2438 11.7889C75.668 13.2397 75.8531 14.7819 75.7734 16.3007C75.6305 19.0194 74.6367 21.6749 72.6328 23.6132C72.9844 23.6249 73.3172 23.7069 73.6102 23.8639C74.7281 24.4616 74.7656 25.76 74.4703 26.8499C74.182 27.7616 73.8117 28.8186 73.4625 29.7069C73.0406 30.9022 72.4219 31.1272 71.2266 30.9983C71.1656 33.9257 69.0281 35.1233 67.2 36.8296C71.6672 45.178 90.6234 39.6725 90.6234 56.2639H29.3766C29.3766 39.6725 47.8945 45.3983 52.8773 36.7241L52.8492 36.7171ZM22.0523 38.0366C21.7992 37.7647 21.5602 37.4718 21.3422 37.1671C20.8195 36.4475 20.3273 35.6975 19.8539 34.9428L17.4914 31.1835C16.5938 29.8757 16.1227 28.6803 16.1227 27.7358C16.1227 26.7889 16.6594 25.5561 17.7258 25.2819C17.6414 23.8663 17.5852 22.4272 17.5852 21.0046C17.5852 20.1632 17.6016 19.3124 17.6344 18.478C17.6789 17.9507 17.775 17.428 17.918 16.9194C18.5719 14.7796 20.0063 12.9585 21.9328 11.8194C22.6156 11.3883 23.3463 11.0383 24.1102 10.7764C25.4836 10.2585 24.8203 8.16316 26.3344 8.13035C29.8664 8.04128 35.6766 11.0647 37.943 13.5186C39.387 15.1147 40.2089 17.1769 40.2586 19.3288L40.1133 25.5186C40.4218 25.5938 40.7038 25.7519 40.929 25.9758C41.1541 26.1997 41.3138 26.4809 41.3906 26.7889C41.5781 27.5483 41.3906 28.5843 40.7273 30.0491C40.7273 30.0983 40.6805 30.0983 40.6805 30.1452L37.9875 34.5866C37.3758 35.5874 36.7453 36.6139 36.0352 37.5538C35.1937 38.6788 34.5 38.4772 35.2195 39.5553C35.3906 39.7897 35.5734 40.0124 35.7656 40.2233C29.9461 42.4382 25.1156 46.1952 25.1156 56.2639H1.97578C1.97578 42.1616 17.1328 46.6405 22.2844 39.5553C22.8773 38.6835 22.7203 38.7491 22.0523 38.0366Z" fill="black"/>
</svg>
