<svg width="21" height="22" viewBox="0 0 21 22" fill="none" xmlns="http://www.w3.org/2000/svg">
<path d="M19.6667 11.0666C19.6667 16.2212 15.488 20.3999 10.3333 20.3999C5.17864 20.3999 0.999985 16.2212 0.999985 11.0666C0.999985 5.91189 5.17864 1.73324 10.3333 1.73324C15.488 1.73324 19.6667 5.91189 19.6667 11.0666Z" stroke="#F19E38" stroke-width="1.6" stroke-miterlimit="10"/>
<path d="M1.77657 7.33301H18.89" stroke="#F19E38" stroke-width="1.6" stroke-miterlimit="10"/>
<path d="M1.77657 14.7998H18.89" stroke="#F19E38" stroke-width="1.6" stroke-miterlimit="10"/>
<path d="M14.0667 11.0666C14.0667 16.2212 12.3952 20.3999 10.3333 20.3999C8.27147 20.3999 6.59999 16.2212 6.59999 11.0666C6.59999 5.91189 8.27147 1.73324 10.3333 1.73324C12.3952 1.73324 14.0667 5.91189 14.0667 11.0666Z" stroke="#F19E38" stroke-width="1.6" stroke-miterlimit="10"/>
</svg>
