<svg width="120" height="109" viewBox="0 0 120 109" fill="none" xmlns="http://www.w3.org/2000/svg">
<path fill-rule="evenodd" clip-rule="evenodd" d="M49.0332 37.666C52.3479 37.6737 55.5858 38.6636 58.3381 40.5108C61.0904 42.3579 63.2334 44.9793 64.4966 48.0439C65.7597 51.1084 66.0861 54.4786 65.4348 57.7286C64.7834 60.9786 63.1833 63.9627 60.8368 66.3037C58.4903 68.6448 55.5025 70.2379 52.251 70.8817C48.9995 71.5256 45.6301 71.1912 42.5685 69.921C39.5069 68.6507 36.8904 66.5016 35.0497 63.745C33.209 60.9885 32.2266 57.7482 32.2266 54.4335C32.2266 52.2283 32.6616 50.0447 33.5067 48.0078C34.3517 45.9709 35.5903 44.1208 37.1515 42.5632C38.7126 41.0057 40.5657 39.7714 42.6045 38.9311C44.6434 38.0907 46.828 37.6608 49.0332 37.666ZM89.1699 91.7968V83.2812H65.8789C67.9019 81.4521 69.7462 79.4345 71.3867 77.2558H92.168C92.9632 77.2584 93.7253 77.5747 94.2886 78.1361C94.8518 78.6976 95.1706 79.4586 95.1758 80.2538V91.7968C97.118 92.5029 98.7494 93.8708 99.7832 95.6603C100.817 97.4497 101.187 99.5462 100.829 101.582C100.47 103.617 99.406 105.461 97.823 106.789C96.24 108.118 94.2395 108.846 92.1729 108.846C90.1062 108.846 88.1057 108.118 86.5227 106.789C84.9397 105.461 83.8755 103.617 83.517 101.582C83.1586 99.5462 83.5287 97.4497 84.5625 95.6603C85.5964 93.8708 87.2277 92.5029 89.1699 91.7968ZM87.0703 29.9902H73.7402C72.4461 27.8632 70.9726 25.8507 69.3359 23.9745H84.0723V17.1386C82.1232 16.4515 80.4787 15.0995 79.4275 13.3202C78.3763 11.5409 77.9857 9.44815 78.3243 7.40947C78.663 5.3708 79.7092 3.51665 81.2791 2.17274C82.8491 0.828836 84.8424 0.0811265 86.9089 0.0609655C88.9754 0.0408045 90.9829 0.749482 92.5788 2.0625C94.1747 3.37553 95.2568 5.20891 95.6351 7.24059C96.0135 9.27226 95.6638 11.3723 94.6475 13.1717C93.6312 14.9712 92.0134 16.355 90.0781 17.08V26.9921C90.0781 27.3867 90.0003 27.7773 89.849 28.1417C89.6977 28.5061 89.476 28.837 89.1966 29.1155C88.9171 29.394 88.5855 29.6147 88.2206 29.7648C87.8558 29.9149 87.4649 29.9915 87.0703 29.9902ZM120 14.6484C119.996 13.067 119.565 11.5161 118.753 10.159C117.942 8.802 116.779 7.68912 115.387 6.93773C113.996 6.18633 112.427 5.82425 110.847 5.88967C109.267 5.95508 107.734 6.44556 106.41 7.30939C105.085 8.17323 104.018 9.37843 103.321 10.7979C102.625 12.2174 102.324 13.7987 102.45 15.3749C102.577 16.9512 103.126 18.4641 104.041 19.7542C104.955 21.0443 106.201 22.0637 107.646 22.705V40.2831H78.2422C78.8006 42.2557 79.215 44.2662 79.4824 46.2988H110.645C111.44 46.2936 112.201 45.9748 112.762 45.4115C113.324 44.8483 113.64 44.0862 113.643 43.291V23.1152C115.478 22.5866 117.092 21.4742 118.239 19.9465C119.386 18.4188 120.005 16.5588 120 14.6484ZM119.854 63.4081C119.875 61.3257 119.157 59.3031 117.827 57.7009C116.496 56.0986 114.64 55.0209 112.589 54.6597C110.538 54.2985 108.426 54.6774 106.628 55.7287C104.83 56.7801 103.464 58.4356 102.773 60.4003H78.9844C78.571 62.4425 78.003 64.4502 77.2852 66.4062H102.773C103.464 68.37 104.829 70.025 106.626 71.0764C108.422 72.1277 110.534 72.5073 112.584 72.1474C114.635 71.7875 116.491 70.7115 117.822 69.1111C119.153 67.5107 119.873 65.4897 119.854 63.4081ZM48.3984 102.832H44.9219C43.3393 102.829 41.8221 102.2 40.7021 101.082C39.5821 99.9639 38.9505 98.4478 38.9453 96.8652V90.7519C35.5328 89.9864 32.2453 88.7437 29.1797 87.0605L25.0977 91.1425C23.9758 92.2595 22.4571 92.8866 20.874 92.8866C19.2909 92.8866 17.7723 92.2595 16.6504 91.1425L11.7188 86.1718C10.6042 85.0487 9.97873 83.5305 9.97873 81.9482C9.97873 80.3659 10.6042 78.8477 11.7188 77.7245L15.4395 74.0038C13.4917 70.8765 12.0205 67.4766 11.0742 63.916H5.97657C4.39397 63.9134 2.87678 63.2842 1.75679 62.1661C0.636809 61.0479 0.00516936 59.5318 7.97914e-06 57.9492V50.9179C-0.00127551 50.1318 0.152295 49.3531 0.451951 48.6263C0.751607 47.8995 1.19148 47.2389 1.74646 46.6821C2.30143 46.1253 2.96064 45.6833 3.68644 45.3812C4.41225 45.0792 5.19043 44.9231 5.97657 44.9218H10.9766C11.9036 41.3256 13.3652 37.8888 15.3125 34.7265L11.7188 31.1327C10.6071 30.01 9.98357 28.4939 9.98357 26.914C9.98357 25.3341 10.6071 23.818 11.7188 22.6952L16.6895 17.7245C17.8113 16.6076 19.33 15.9805 20.9131 15.9805C22.4962 15.9805 24.0148 16.6076 25.1367 17.7245L29.043 21.6308C32.1429 19.9046 35.4743 18.6319 38.9356 17.8515V11.9921C38.9433 10.4095 39.5774 8.8944 40.6992 7.77808C41.821 6.66175 43.3393 6.03507 44.9219 6.03509H51.9434C53.4715 6.0456 54.9378 6.64013 56.0417 7.69685C57.1456 8.75357 57.8036 10.1925 57.8809 11.7187V31.7187C55.2426 30.7584 52.4561 30.2692 49.6484 30.2734C49.2285 30.2734 48.8086 30.2734 48.3984 30.2734C47.9883 30.2734 47.5684 30.2734 47.1582 30.2734C43.962 30.2089 40.7851 30.7828 37.8134 31.9614C34.8417 33.14 32.1351 34.8996 29.8519 37.1372C27.5687 39.3749 25.7549 42.0455 24.5166 44.9928C23.2784 47.9401 22.6406 51.1048 22.6406 54.3017C22.6406 57.4986 23.2784 60.6633 24.5166 63.6106C25.7549 66.5579 27.5687 69.2285 29.8519 71.4662C32.1351 73.7038 34.8417 75.4634 37.8134 76.642C40.7851 77.8206 43.962 78.3945 47.1582 78.33C47.5684 78.33 47.9883 78.33 48.3984 78.33C48.8086 78.33 49.2285 78.33 49.6484 78.33C52.4561 78.3342 55.2426 77.845 57.8809 76.8847V97.1484C57.8033 98.6796 57.1412 100.123 56.0311 101.18C54.9209 102.238 53.4473 102.829 51.9141 102.832H48.3984Z" fill="black"/>
</svg>
