<svg width="118" height="120" viewBox="0 0 118 120" fill="none" xmlns="http://www.w3.org/2000/svg">
<path fill-rule="evenodd" clip-rule="evenodd" d="M97.191 48.2957L108.659 59.337L91.1866 77.6877L77.1489 81.4525C76.6452 81.5509 76.4461 81.3494 76.5281 80.8762L79.7095 66.6464L97.191 48.2957ZM69.2749 81.4267C70.9898 81.3799 72.4236 82.7363 72.4704 84.4512C72.5173 86.1661 71.1608 87.5975 69.4459 87.6444C66.2996 87.7311 64.1092 89.3686 63.1908 91.3037C62.8183 92.0886 62.6614 92.9179 62.7457 93.6746C62.8183 94.3165 63.0854 94.9186 63.5657 95.3942C64.9549 96.7764 67.97 97.3808 73.0655 96.1462C73.8714 95.9494 75.4972 95.4059 77.5354 94.7241C87.2086 91.4888 104.981 85.5453 107.75 93.8034C108.291 95.4293 107.415 97.1957 105.787 97.7393C104.161 98.2828 102.394 97.4042 101.853 95.7784C101.061 93.4146 87.1055 98.0813 79.508 100.621C77.3316 101.349 75.5933 101.933 74.5274 102.19C66.979 104.02 61.9562 102.572 59.1777 99.8055C57.6362 98.2711 56.7787 96.3664 56.5538 94.3563C56.3383 92.4611 56.692 90.4744 57.5589 88.6494C59.3792 84.812 63.5001 81.586 69.2749 81.4267ZM24.2638 52.9109C22.6075 52.9109 21.2651 51.5685 21.2651 49.9121C21.2651 48.2582 22.6075 46.9158 24.2638 46.9158H62.0218C63.6781 46.9158 65.0205 48.2582 65.0205 49.9121C65.0205 51.5685 63.6781 52.9109 62.0218 52.9109H24.2638ZM24.2638 72.283C22.6075 72.283 21.2651 70.943 21.2651 69.2866C21.2651 67.6303 22.6075 66.2879 24.2638 66.2879H58.7935C60.4498 66.2879 61.7899 67.6303 61.7899 69.2866C61.7899 70.943 60.4498 72.283 58.7935 72.283H24.2638ZM24.2638 91.6575C22.6075 91.6575 21.2651 90.3151 21.2651 88.6588C21.2651 87.0048 22.6075 85.6624 24.2638 85.6624H44.7651C46.4191 85.6624 47.7615 87.0048 47.7615 88.6588C47.7615 90.3151 46.4191 91.6575 44.7651 91.6575H24.2638ZM57.6338 8.6049V18.7349C57.8681 21.7992 58.9364 24.2076 60.8106 25.81C62.7574 27.471 65.6624 28.4034 69.5092 28.4714L78.2406 28.462L57.6338 8.6049ZM80.2905 34.4547L69.4623 34.443C64.1303 34.3587 59.9344 32.9249 56.924 30.3549C53.7894 27.6748 52.023 23.8702 51.6645 19.1613L51.6388 18.749V5.99508H14.9022C9.99649 5.99508 5.99508 9.99649 5.99508 14.9022V105.095C5.99508 109.98 10.0152 114.003 14.9022 114.003H71.3881C75.0662 114.003 78.4233 111.665 79.7236 108.228C80.3022 106.684 82.0312 105.904 83.575 106.482C85.1189 107.063 85.899 108.79 85.318 110.334C83.1346 116.095 77.5612 120 71.3881 120H14.9022C6.72133 120 0 113.274 0 105.095V14.9022C0 6.71665 6.71665 0 14.9022 0H56.1204C57.0083 0 57.8095 0.386553 58.3554 1.00269L85.3602 27.0212C85.9693 27.6069 86.2762 28.3917 86.2762 29.1765L86.2856 46.5128C86.2856 48.1691 84.9432 49.5115 83.2892 49.5115C81.6329 49.5115 80.2905 48.1691 80.2905 46.5128V34.4547ZM108.607 40.1945C108.075 39.6837 107.455 39.4448 106.742 39.4541C106.033 39.4659 105.426 39.7446 104.922 40.2694L100.832 44.5285L112.311 55.6097L116.444 51.3084C116.938 50.8094 117.144 50.1605 117.137 49.4459C117.125 48.7431 116.872 48.1059 116.373 47.6233L108.607 40.1945ZM87.5436 77.0224L78.9341 79.33C78.6225 79.3909 78.5006 79.2691 78.5545 78.9786L80.5037 70.2495L87.5436 77.0224Z" fill="black"/>
</svg>
