<svg width="120" height="106" viewBox="0 0 120 106" fill="none" xmlns="http://www.w3.org/2000/svg">
<path fill-rule="evenodd" clip-rule="evenodd" d="M51.0724 92.2477C63.5553 103.734 80.9154 107.077 98.2732 99.6797L113.154 105.532L110.824 91.5329C124.669 79.4274 121.455 62.6063 110.404 50.768C109.54 55.3453 107.948 59.6907 105.731 63.7219C102.41 69.7618 97.6545 75.1289 91.8303 79.5469C86.1889 83.8289 79.6029 87.1899 72.424 89.3602C65.824 91.3547 58.617 92.386 51.0724 92.2477ZM30.9443 53.0555C29.1396 53.0555 27.6748 51.5907 27.6748 49.786C27.6748 47.9813 29.1396 46.5164 30.9443 46.5164H60.0349C61.8396 46.5164 63.3021 47.9813 63.3021 49.786C63.3021 51.5907 61.8396 53.0555 60.0349 53.0555H30.9443ZM30.9443 36.3188C29.1396 36.3188 27.6748 34.8539 27.6748 33.0493C27.6748 31.2422 29.1396 29.7797 30.9443 29.7797H72.5107C74.3154 29.7797 75.7779 31.2422 75.7779 33.0493C75.7779 34.8539 74.3154 36.3188 72.5107 36.3188H30.9443ZM52.999 0.0281602L53.0482 0.030504C67.1881 0.457067 79.8724 5.48441 88.9521 13.2703C98.2263 21.2203 103.788 32.0438 103.441 43.8586L103.439 43.9125C103.073 55.7344 96.8646 66.218 87.1217 73.6102C77.5732 80.8571 64.5935 85.1321 50.456 84.7172C46.8349 84.6094 43.3146 84.2391 39.9584 83.5875C37.0404 83.0204 34.2162 82.2399 31.5209 81.2321L6.60213 88.8422L14.067 71.0883C9.80135 67.3407 6.34666 62.9789 3.9326 58.1953C1.23963 52.8539 -0.168962 46.9875 0.0161943 40.8586C0.372444 29.025 6.58338 18.5321 16.331 11.1352C25.8842 3.88832 38.8615 -0.386683 52.999 0.0281602ZM52.8701 6.52035L52.8209 6.518C40.1928 6.14769 28.6709 9.9141 20.2521 16.3008C12.0326 22.5375 6.80135 31.2774 6.50604 41.0368C6.35369 46.05 7.51619 50.8664 9.73573 55.268C12.0818 59.9133 15.5998 64.104 19.999 67.5914L21.9349 69.1243L17.9529 78.5907L31.8092 74.3578L32.8639 74.7821C35.4771 75.8321 38.2639 76.6336 41.1795 77.1985C44.2428 77.7961 47.4115 78.1313 50.6342 78.2274C63.2623 78.5977 74.7842 74.8313 83.2029 68.4446C91.4224 62.2079 96.6537 53.468 96.949 43.7086V43.6571C97.2279 33.9141 92.5381 24.9047 84.7263 18.2063C76.7154 11.3391 65.4631 6.90004 52.8701 6.52035Z" fill="black"/>
</svg>
