<svg width="123" height="68" viewBox="0 0 123 68" fill="none" xmlns="http://www.w3.org/2000/svg">
<path fill-rule="evenodd" clip-rule="evenodd" d="M3.24019 16.7798L5.54019 45.2498C5.85019 48.1898 6.54019 50.0798 7.38019 51.1198C7.72886 51.513 8.18045 51.8009 8.68403 51.9511C9.1876 52.1013 9.72312 52.1078 10.2302 51.9698H10.5002H21.7802C22.3975 52.0337 23.0211 51.9469 23.5976 51.717C24.174 51.4872 24.6862 51.121 25.0902 50.6498L25.1402 50.5898C25.9707 49.2068 26.3807 47.6119 26.3202 45.9998V14.5698C26.271 14.4319 26.2473 14.2862 26.2502 14.1398C26.2453 14.1 26.2453 14.0597 26.2502 14.0198C26.2053 13.6005 26.0703 13.1957 25.8546 12.8333C25.6389 12.4709 25.3474 12.1593 25.0002 11.9198C23.8058 11.3005 22.4611 11.0301 21.1202 11.1398H7.00019C6.41688 11.1079 5.83318 11.1952 5.28472 11.3964C4.73627 11.5976 4.23455 11.9084 3.81019 12.3098C3.14019 13.1098 2.90019 14.4898 3.23019 16.6398V16.7798H3.24019ZM93.1002 15.5698C93.0987 15.0917 93.1287 14.614 93.1902 14.1398L88.0002 10.6498C87.2502 10.1498 86.4302 9.56984 85.6002 8.98984C82.6002 6.90984 79.6002 4.76984 76.2702 3.89984C74.3282 3.39939 72.3351 3.12424 70.3302 3.07984C68.4915 3.03253 66.6548 3.23437 64.8702 3.67984C63.8298 3.94359 62.8232 4.3261 61.8702 4.81984C61.0312 5.26221 60.2545 5.81366 59.5602 6.45984L56.0002 10.6298C55.8928 10.8329 55.7427 11.0103 55.5602 11.1498L45.8902 22.6598C46.015 23.3358 46.3034 23.971 46.7302 24.5098C47.1986 25.0832 47.8138 25.5187 48.5102 25.7698C49.3168 26.059 50.1776 26.1649 51.0302 26.0798C52.6525 25.9221 54.1912 25.2851 55.4502 24.2498L58.1402 21.9998C58.8202 21.4398 59.3902 20.9198 59.9502 20.4098C61.1067 19.2859 62.373 18.2809 63.7302 17.4098C66.7302 15.6098 69.7302 15.5498 72.7302 20.5298L87.9302 47.9998H93.1002V15.5698ZM94.3302 11.1798C94.5642 10.8523 94.8323 10.5506 95.1302 10.2798C96.733 9.00188 98.7546 8.36724 100.8 8.49984H114C116.77 8.49984 119 8.98984 120.58 10.1898C122.31 11.5298 123.13 13.5598 122.78 16.4798L119.86 46.6898C119.812 48.9606 119.042 51.1569 117.66 52.9598C116.953 53.7532 116.067 54.3679 115.077 54.7537C114.086 55.1395 113.018 55.2856 111.96 55.1798H100.09C98.5553 55.3002 97.0322 54.8318 95.8302 53.8698C94.9128 53.1054 94.1781 52.1452 93.6802 51.0598H89.5702C90.0893 52.5174 90.1174 54.1048 89.6502 55.5798C89.1883 56.9637 88.3293 58.181 87.1802 59.0798C86.0556 59.968 84.7241 60.5564 83.3102 60.7898C81.9044 61.0265 80.4606 60.8672 79.1402 60.3298C77.8199 61.8018 76.1219 62.8843 74.2302 63.4598C72.5048 63.93 70.6753 63.8461 69.0002 63.2198C67.5659 64.9396 65.6166 66.1527 63.4402 66.6798C61.1838 67.0993 58.852 66.747 56.8202 65.6798C56.122 66.2322 55.3515 66.6864 54.5302 67.0298C53.4061 67.4949 52.1962 67.7164 50.9802 67.6798C48.5755 67.7264 46.2399 66.8741 44.4302 65.2898C42.9324 63.8067 41.6891 62.087 40.7502 60.1998L34.1902 48.7998H29.1102C28.8805 50.1063 28.3649 51.3459 27.6002 52.4298L27.5302 52.5298C26.835 53.3875 25.9398 54.0614 24.9233 54.492C23.9067 54.9227 22.7999 55.0971 21.7002 54.9998H10.6102C9.59921 55.2235 8.54624 55.1656 7.5659 54.8323C6.58556 54.4991 5.71542 53.9033 5.05019 53.1098C3.75019 51.5998 2.85019 49.1098 2.47019 45.5398V45.4098L0.170189 17.0498C-0.289811 13.9898 0.170189 11.8198 1.45019 10.3398C2.13955 9.59626 2.97957 9.00827 3.91421 8.6151C4.84885 8.22193 5.85659 8.03263 6.87019 8.05984H21.1002C23.0409 7.93253 24.9765 8.37388 26.6702 9.32984C27.8495 10.0805 28.7138 11.2364 29.1002 12.5798H38.6502C40.8346 11.0144 43.2369 9.77795 45.7802 8.90984C48.4426 8.1097 51.246 7.89143 54.0002 8.26984L57.2702 4.37984L57.3902 4.24984C58.2881 3.39771 59.2973 2.6711 60.3902 2.08984C61.5582 1.48944 62.789 1.01992 64.0602 0.68984C66.1177 0.185876 68.2324 -0.0461014 70.3502 -0.00016034C72.5948 0.0503554 74.8262 0.359053 77.0002 0.91984C80.8102 1.91984 84.1002 4.22984 87.3002 6.46984C88.0702 7.00984 88.8302 7.53984 89.6502 8.08984L94.3002 11.1798H94.3302ZM15.7702 38.7598C16.2971 38.7579 16.8128 38.9124 17.2518 39.204C17.6907 39.4955 18.0332 39.9108 18.2358 40.3973C18.4383 40.8837 18.4919 41.4194 18.3895 41.9363C18.2872 42.4532 18.0337 42.9281 17.6611 43.3007C17.2885 43.6733 16.8136 43.9269 16.2967 44.0292C15.7797 44.1315 15.2441 44.078 14.7576 43.8754C14.2712 43.6729 13.8558 43.3304 13.5643 42.8914C13.2728 42.4524 13.1182 41.9368 13.1202 41.4098C13.1228 40.7078 13.4029 40.0353 13.8993 39.5389C14.3957 39.0425 15.0682 38.7625 15.7702 38.7598ZM86.3602 50.9198C86.1492 50.8279 85.961 50.6906 85.8089 50.5178C85.6568 50.345 85.5446 50.1408 85.4802 49.9198L70.0602 22.0898C68.3502 19.2298 66.8102 19.1498 65.3102 20.0398C64.1251 20.8234 63.0168 21.7174 62.0002 22.7098C61.3202 23.3298 60.6402 23.9498 60.0802 24.4098L57.3502 26.6598C55.6108 28.075 53.4922 28.9447 51.2602 29.1598C49.9525 29.2767 48.635 29.1061 47.4002 28.6598C46.1844 28.21 45.1107 27.4436 44.2902 26.4398C43.3573 25.2618 42.803 23.829 42.7002 22.3298C42.6843 22.1062 42.7163 21.8817 42.7939 21.6714C42.8715 21.4611 42.9929 21.2696 43.1502 21.1098L51.4802 11.1998C49.8511 11.1604 48.2265 11.3867 46.6702 11.8698C44.3013 12.6981 42.0674 13.8707 40.0402 15.3498C39.7577 15.5771 39.4025 15.6943 39.0402 15.6798H29.4102V45.6798H35.0802C35.3652 45.6794 35.6448 45.7576 35.8883 45.9058C36.1317 46.054 36.3296 46.2665 36.4602 46.5198L43.4602 58.6698C44.2389 60.2576 45.25 61.7203 46.4602 63.0098C47.7368 64.0907 49.3683 64.6606 51.0402 64.6098C51.8278 64.6323 52.6114 64.4892 53.3402 64.1898C53.8077 63.998 54.2481 63.7458 54.6502 63.4398L50.1402 54.9998C49.9784 54.6437 49.9581 54.2393 50.0836 53.8689C50.2091 53.4984 50.4708 53.1895 50.8157 53.0049C51.1606 52.8204 51.5628 52.774 51.9407 52.8752C52.3185 52.9764 52.6437 53.2176 52.8502 53.5498L57.7902 62.7798C59.1939 63.6773 60.8827 64.017 62.5242 63.732C64.1657 63.447 65.6412 62.558 66.6602 61.2398L59.5502 50.0598C59.3276 49.7177 59.2499 49.3011 59.3343 48.9017C59.4187 48.5023 59.6582 48.1527 60.0002 47.9298C60.3462 47.7143 60.7629 47.6429 61.161 47.7307C61.5591 47.8185 61.907 48.0587 62.1302 48.3998L69.6202 60.1698C70.8089 60.6964 72.1399 60.8091 73.4002 60.4898C74.7295 60.0705 75.919 59.296 76.8402 58.2498L70.0702 45.4698C69.8753 45.1078 69.8321 44.6832 69.9503 44.2894C70.0684 43.8955 70.3382 43.5648 70.7002 43.3698C71.0622 43.1749 71.4868 43.1318 71.8807 43.2499C72.2745 43.3681 72.6053 43.6378 72.8002 43.9998L79.8002 57.2198C80.7101 57.7345 81.7725 57.9115 82.8002 57.7198C83.6962 57.5768 84.5401 57.2048 85.2502 56.6398C85.92 56.1306 86.4245 55.4348 86.7002 54.6398C87.0045 53.6466 86.9223 52.5751 86.4702 51.6398C86.3724 51.4167 86.3311 51.1728 86.3502 50.9298L86.3602 50.9198ZM106.68 38.7598C107.206 38.7638 107.719 38.9234 108.154 39.2185C108.589 39.5137 108.926 39.931 109.124 40.418C109.322 40.905 109.372 41.4397 109.266 41.9546C109.16 42.4695 108.904 42.9416 108.53 43.3112C108.157 43.6808 107.682 43.9314 107.166 44.0313C106.65 44.1312 106.115 44.0759 105.631 43.8725C105.146 43.6691 104.732 43.3266 104.442 42.8883C104.152 42.45 103.998 41.9355 104 41.4098C104.003 40.7078 104.283 40.0353 104.779 39.5389C105.276 39.0425 105.948 38.7625 106.65 38.7598H106.68Z" fill="black"/>
</svg>
