<svg width="119" height="120" viewBox="0 0 119 120" fill="none" xmlns="http://www.w3.org/2000/svg">
<path fill-rule="evenodd" clip-rule="evenodd" d="M28.2021 38.8748H80.5157C80.8643 38.8754 81.1984 39.0142 81.4449 39.2607C81.6914 39.5072 81.8301 39.8413 81.8308 40.1899V62.5903C81.8308 63.3122 81.2377 63.903 80.5157 63.903H28.2021C27.4801 63.903 26.887 63.3122 26.887 62.5903V40.1899C26.887 39.4655 27.4801 38.8748 28.2021 38.8748ZM52.3558 0C66.7979 0 79.8969 5.8767 89.3835 15.3258C98.8725 24.8148 104.712 37.8739 104.712 52.3558C104.712 62.9184 101.561 72.7918 96.1838 81.0103L118.847 105.71L103.214 120L81.3572 95.9541C73.0591 101.484 63.0731 104.712 52.3558 104.712C37.9137 104.712 24.8148 98.835 15.3258 89.3858C5.83919 79.8969 0 66.8378 0 52.3558C0 37.9137 5.8767 24.8148 15.3258 15.3258C24.8148 5.83919 37.8739 0 52.3558 0ZM85.2368 19.4749C76.8237 11.0619 65.1852 5.83919 52.3558 5.83919C39.5265 5.83919 27.888 11.0619 19.4749 19.4749C11.0619 27.888 5.83919 39.5265 5.83919 52.3558C5.83919 64.7773 10.7361 76.083 18.6826 84.4257V30.8369C18.6826 29.7656 19.5523 28.8959 20.6235 28.8959H88.0919C89.1655 28.8959 90.0352 29.7656 90.0352 30.8369V79.6109C95.5884 71.9503 98.8725 62.527 98.8725 52.3558C98.8725 39.5265 93.6474 27.888 85.2368 19.4749ZM22.5668 88.0614C30.6353 94.8031 41.0314 98.8725 52.3558 98.8725C65.1852 98.8725 76.8237 93.6498 85.2368 85.2368C85.5462 84.9273 85.8509 84.6132 86.151 84.2944V32.7801H22.5668V88.0614ZM29.8195 73.8795C28.624 73.8795 27.6535 72.9114 27.6535 71.7159C27.6535 70.5204 28.624 69.5499 29.8195 69.5499H48.6146C49.8101 69.5499 50.7782 70.5204 50.7782 71.7159C50.7782 72.9114 49.8101 73.8795 48.6146 73.8795H29.8195ZM60.3235 83.8654C59.7472 83.8654 59.1945 83.6365 58.7869 83.229C58.3794 82.8215 58.1505 82.2688 58.1505 81.6925C58.1505 81.1161 58.3794 80.5634 58.7869 80.1559C59.1945 79.7484 59.7472 79.5195 60.3235 79.5195H78.8233C79.3996 79.5195 79.9523 79.7484 80.3598 80.1559C80.7673 80.5634 80.9962 81.1161 80.9962 81.6925C80.9962 82.2688 80.7673 82.8215 80.3598 83.229C79.9523 83.6365 79.3996 83.8654 78.8233 83.8654H60.3235ZM29.8195 83.8584C28.624 83.8584 27.6535 82.888 27.6535 81.6925C27.6535 80.497 28.624 79.5265 29.8195 79.5265H48.6146C49.8101 79.5265 50.7782 80.497 50.7782 81.6925C50.7782 82.888 49.8101 83.8584 48.6146 83.8584H29.8195ZM60.3235 73.8866C59.1233 73.8866 58.1505 72.9137 58.1505 71.7159C58.1505 71.1396 58.3794 70.5869 58.7869 70.1794C59.1945 69.7718 59.7472 69.5429 60.3235 69.5429H78.8233C79.3996 69.5429 79.9523 69.7718 80.3598 70.1794C80.7673 70.5869 80.9962 71.1396 80.9962 71.7159C80.9962 72.9137 80.0234 73.8866 78.8233 73.8866H60.3235ZM41.0713 44.857H44.9672V51.9526C44.9672 53.4412 44.8406 54.5757 44.5851 55.354C44.3319 56.1299 43.8209 56.7909 43.0497 57.3324C42.2808 57.8692 41.2963 58.1411 40.0961 58.1411C38.8279 58.1411 37.8458 57.9606 37.1496 57.6067C36.451 57.2504 35.9119 56.73 35.5321 56.0431C35.1524 55.3587 34.9273 54.5101 34.8594 53.4998L38.5631 52.977C38.5677 53.549 38.617 53.9733 38.7084 54.2499C38.7975 54.5312 38.9545 54.7539 39.1725 54.9273C39.3226 55.0399 39.5335 55.0938 39.8078 55.0938C40.2438 55.0938 40.5626 54.9273 40.7665 54.5921C40.9681 54.2569 41.0713 53.692 41.0713 52.8973V44.857ZM47.0863 51.3994C47.0863 49.2663 47.6559 47.6067 48.7998 46.4205C49.9437 45.2297 51.5331 44.639 53.5748 44.639C55.6657 44.639 57.2785 45.2227 58.4107 46.3877C59.5406 47.5551 60.1055 49.1913 60.1055 51.2916C60.1055 52.8176 59.8594 54.0694 59.3671 55.0445C58.8725 56.022 58.1552 56.7815 57.2222 57.3254C56.2869 57.8692 55.1219 58.1411 53.7271 58.1411C52.3113 58.1411 51.1392 57.9067 50.2086 57.4379C49.2827 56.9667 48.5279 56.226 47.9512 55.2086C47.3746 54.196 47.0863 52.9255 47.0863 51.3994ZM50.9634 51.4088C50.9634 52.7239 51.2002 53.6732 51.6714 54.2475C52.1449 54.8218 52.7895 55.1125 53.6029 55.1125C54.4351 55.1125 55.0844 54.8289 55.5415 54.2663C55.9986 53.7014 56.2283 52.691 56.2283 51.2283C56.2283 50 55.9869 49.1022 55.511 48.5373C55.0305 47.9677 54.3858 47.6864 53.5654 47.6864C52.7825 47.6864 52.1519 47.9747 51.6784 48.549C51.2002 49.1233 50.9634 50.0797 50.9634 51.4088ZM62.2433 44.857H69.5171C70.7267 44.857 71.6573 45.1711 72.3066 45.7947C72.9559 46.4158 73.2794 47.1894 73.2794 48.1106C73.2794 48.8842 73.0497 49.5476 72.5832 50.0961C72.2761 50.4688 71.8237 50.7571 71.2307 50.9728C72.1331 51.1978 72.7942 51.5846 73.2208 52.1355C73.6451 52.684 73.8584 53.3755 73.8584 54.2053C73.8584 54.8828 73.706 55.4923 73.406 56.0338C73.1013 56.5752 72.6864 56.9995 72.1636 57.316C71.8354 57.5105 71.3432 57.6535 70.6868 57.7426C69.8125 57.8598 69.2335 57.9208 68.9451 57.9208H62.2433V44.857ZM66.1556 50.1453H67.8504C68.4552 50.1453 68.8795 50.0375 69.1163 49.8218C69.353 49.6038 69.4726 48.9662 69.4726 48.5537C69.4726 48.1739 69.3507 47.8762 69.1163 47.6629C68.8795 47.4496 68.4623 47.3418 67.8762 47.3418H66.1556V50.1453ZM66.1556 55.2743H68.1364C68.8045 55.2743 69.2757 55.1477 69.5523 54.9016C69.8265 54.6554 69.9648 54.0037 69.9648 53.5888C69.9648 53.2021 69.8289 52.8903 69.557 52.6582C69.285 52.4238 68.8092 52.3043 68.1271 52.3043H66.1556V55.2743Z" fill="black"/>
</svg>
