<svg width="39" height="37" viewBox="0 0 39 37" fill="none" xmlns="http://www.w3.org/2000/svg">
<path fill-rule="evenodd" clip-rule="evenodd" d="M0 0.012207V36.452H38.9177V0.012207H0ZM28.3734 34.0479C28.2495 33.2055 28.1382 32.809 27.977 32.3259L26.7505 28.4106H21.2989L20.3202 29.6993L21.1999 32.3507C21.3734 32.9082 21.5591 33.3419 21.8811 34.0479H18.7837L18.276 32.3507L17.0368 34.0479H14.5462L14.0132 32.363L12.7 34.0479H10.2096C10.2716 33.9986 10.3211 33.9487 10.3706 33.8994C11.0026 33.3417 11.399 32.8339 11.7458 32.3755L13.332 30.2938L12.7123 28.4104H7.27319L3.02335 34.0479H0.384212C1.38791 33.1807 1.64814 32.9082 2.01966 32.4125L10.0733 21.7694C10.1838 21.6243 10.2832 21.4711 10.3706 21.3111C10.5193 21.0634 10.6556 20.7784 10.7301 20.4314H13.3442C13.3442 21.0138 13.431 21.3359 13.555 21.7821L15.3884 27.5311L16.3301 26.2921L14.831 21.7201C14.7195 21.3856 14.5832 20.9519 14.3105 20.4314H17.4824C17.5691 20.9394 17.6559 21.3483 17.7921 21.7943L18.3744 23.591L19.7371 21.7823C20.047 21.361 20.4685 20.8901 20.654 20.4316H23.4294C22.8846 20.8653 22.5372 21.3238 22.203 21.7573L19.1303 25.8339L19.6628 27.519L24.0616 21.7698C24.1729 21.5965 24.2969 21.4478 24.4209 21.2868C24.5817 21.039 24.7183 20.779 24.8053 20.4318H27.3945C27.4319 20.8903 27.4937 21.2868 27.6175 21.708L30.9506 32.3388C31.1114 32.9086 31.2233 33.2556 31.6441 34.0486H28.3734V34.0479Z" fill="black"/>
<path fill-rule="evenodd" clip-rule="evenodd" d="M8.51215 26.7256H12.2292L11.1018 23.2935L8.51215 26.7256ZM16.0701 29.6249L16.6648 31.5084L17.619 30.2569L16.9621 28.4107L16.0701 29.6249ZM22.6246 26.7256H26.2177L25.0903 23.2935L22.6246 26.7256Z" fill="black"/>
<path fill-rule="evenodd" clip-rule="evenodd" d="M21.2989 19.7375H23.5786L38.4717 0H36.192L21.2989 19.7375Z" fill="white"/>
</svg>
