<svg width="73" height="22" viewBox="0 0 73 22" fill="none" xmlns="http://www.w3.org/2000/svg">
<g clipPath="url(#clip0_419_6620)">
<path d="M72.5543 18.0143C72.5543 16.9014 71.7622 16.0863 70.6698 16.0863C69.5786 16.0863 68.7849 16.9018 68.7849 18.0143C68.7849 19.1268 69.5786 19.9419 70.6698 19.9419C71.7618 19.9419 72.5543 19.1272 72.5543 18.0143ZM70.1749 18.1129V19.3745H69.7646V16.5922H70.7817C71.3755 16.5922 71.6499 16.8529 71.6499 17.3584C71.6499 17.6688 71.4379 17.9161 71.1664 17.9517V17.9642C71.4007 18.0018 71.4882 18.2123 71.5381 18.5958C71.5754 18.8415 71.6248 19.2751 71.7124 19.3741H71.2284C71.1169 19.1143 71.1291 18.7433 71.0415 18.435C70.9685 18.1998 70.8441 18.1125 70.5713 18.1125L70.1749 18.1129ZM70.6811 17.7549C71.0784 17.7549 71.1907 17.5443 71.1907 17.3588C71.1907 17.1374 71.0788 16.9648 70.6811 16.9648H70.1749V17.7549H70.6811ZM68.3378 18.0143C68.3378 16.642 69.4302 15.7153 70.6694 15.7153C71.9098 15.7153 73.0002 16.642 73.0002 18.0143C73.0002 19.3867 71.9098 20.3133 70.6694 20.3133C69.4302 20.3137 68.3378 19.3871 68.3378 18.0143Z" fill="#3F3F3F"/>
<path d="M60.2602 20.3133L57.5723 17.3075L54.9091 20.3133H49.3062L54.783 14.1773L49.3062 8.04053H55.0846L57.7981 11.022L60.4106 8.04053H65.9887L60.5371 14.1519L66.0633 20.3133H60.2602Z" fill="#3F3F3F"/>
<path d="M38.5414 20.3135V0.980957H49.3061V5.28996H43.1009V8.04073H49.3061V12.1869H43.1009V15.992H49.3061V20.3135H38.5414Z" fill="#3F3F3F"/>
<path d="M34.0001 0.980957V8.89259H33.9511C32.945 7.74047 31.6896 7.34 30.2327 7.34C27.2468 7.34 24.9987 9.36378 24.2087 12.0378C23.3088 9.09141 20.9869 7.28505 17.5446 7.28505C14.7492 7.28505 12.5417 8.53616 11.3892 10.5741V8.04073H5.61085V5.28996H11.917V0.980957H0.459961V20.3135H5.61085V12.1869H10.7455C10.5923 12.7837 10.5104 13.423 10.5104 14.0971C10.5104 18.1301 13.6009 20.9597 17.545 20.9597C20.8616 20.9597 23.0469 19.4075 24.203 16.5779H19.7887C19.1912 17.4282 18.738 17.6807 17.545 17.6807C16.1607 17.6807 14.9673 16.4769 14.9673 15.0488H23.9557C24.3461 18.2529 26.8488 21.0154 30.283 21.0154C31.7642 21.0154 33.1221 20.2884 33.9515 19.0612H34.0005V20.3131H38.5421V0.980957H34.0001ZM15.11 12.2447C15.397 11.0174 16.3516 10.2144 17.545 10.2144C18.8575 10.2144 19.7643 10.9927 20.0027 12.2447H15.11ZM31.2449 17.3704C29.5712 17.3704 28.5306 15.8154 28.5306 14.1921C28.5306 12.4572 29.4362 10.7883 31.2449 10.7883C33.1209 10.7883 33.868 12.4572 33.868 14.1921C33.868 15.838 33.0763 17.3704 31.2449 17.3704Z" fill="black"/>
</g>
<defs>
<clipPath id="clip0_419_6620">
<rect width="72.5401" height="20.0349" fill="white" transform="translate(0.459961 0.980957)"/>
</clipPath>
</defs>
</svg>
