<svg width="65" height="29" viewBox="0 0 65 29" fill="none" xmlns="http://www.w3.org/2000/svg">
<path fill-rule="evenodd" clip-rule="evenodd" d="M9.9365 21.2499H17.4162C16.7053 20.0677 16.2972 18.6837 16.2972 17.2029C16.2972 11.1283 21.2192 6.20628 27.2938 6.20628L64.9406 6.37876L62.9971 13.1517H55.5678L51.3021 28.0228H43.3092L47.5749 13.1517H40.0699C40.7809 14.3338 41.1889 15.7179 41.1889 17.1987C41.1889 23.2691 36.267 28.1953 30.1923 28.1953H29.9946L0 28.0228L6.20926 6.37876H14.2022L9.9365 21.2499ZM24.1766 17.2029C24.1766 14.6788 26.2211 12.6343 28.7452 12.6343C31.2693 12.6343 33.3138 14.6788 33.3138 17.2029C33.3138 19.727 31.2693 21.7715 28.7452 21.7715C26.2211 21.7715 24.1766 19.727 24.1766 17.2029ZM27.6851 17.9896L30.2302 12.8825C30.5457 13.0339 30.756 13.3705 30.756 13.7407C30.756 13.9174 30.7098 14.0814 30.6256 14.2245L28.4339 17.8718L29.1743 17.7582C29.2121 17.754 29.25 17.7498 29.2921 17.7498C29.7043 17.7498 30.0409 18.0863 30.0409 18.4986H32.1022L31.9171 18.2672H31.5385L31.4544 18.1536H32.5524C32.6701 18.3514 32.8805 18.486 33.1245 18.5028L33.0908 18.6164H28.4549L30.3732 20.0888C30.5878 20.2528 30.7182 20.5137 30.7182 20.7997C30.7182 21.0479 30.6172 21.2793 30.4574 21.4392L27.5841 18.6164H24.4037L24.3701 18.5028L27.6851 17.9896Z" fill="black"/>
<path fill-rule="evenodd" clip-rule="evenodd" d="M10.1847 0.531039H10.7947L9.95754 3.45898H9.34755L10.1847 0.531039ZM41.332 1.01903L41.4708 0.531039H40.0699C39.6871 0.531039 39.2875 0.716139 39.1781 1.10317L39.0435 1.56592C38.9509 1.88563 39.136 2.1759 39.5904 2.1759H40.2719C40.3686 2.1759 40.5032 2.23059 40.4275 2.49562L40.3939 2.61341C40.3308 2.82796 40.1415 2.96679 39.9648 2.96679H38.648L38.5092 3.45478H39.9774C40.3644 3.45478 40.8145 3.30333 40.9618 2.7901L41.067 2.42831C41.2142 1.91929 40.8482 1.68371 40.499 1.68371H39.8554C39.7628 1.68371 39.6366 1.66267 39.6871 1.48178L39.7376 1.31351C39.8049 1.08213 39.9269 1.01482 40.1036 1.01482L41.332 1.01903ZM30.9706 0.531039H31.5806L30.7434 3.45478H30.1334C30.1292 3.45898 30.9706 0.531039 30.9706 0.531039ZM23.5708 0.531039H24.1808L23.3436 3.45478H22.7336L23.5708 0.531039ZM28.5306 0.531039H29.1406L28.4423 2.97099H29.7801L29.6412 3.45898H27.6935L28.5306 0.531039ZM15.0015 0.531039L14.1644 3.45898H14.7491L15.0814 2.30211H16.5664L16.2341 3.45898H16.8189L17.656 0.535245H17.0713L16.7053 1.81412H15.2203L15.5863 0.535245C15.5905 0.531039 15.0015 0.531039 15.0015 0.531039ZM35.5813 3.45898L36.4184 0.535245H38.4924L38.3536 1.02324H36.8391L36.6456 1.69212H37.9034L37.7646 2.18011H36.5068L36.2796 2.97099H37.794L37.6552 3.45898H35.5813ZM31.8372 3.45898L32.6744 0.535245H33.44L34.0542 2.7312C34.1047 2.9121 34.1047 2.9752 34.1047 2.9752L34.803 0.535245H35.3246L34.4875 3.45898H33.705L33.1119 1.26723C33.0698 1.10737 33.0656 1.00641 33.0656 1.00641L32.363 3.45898H31.8372ZM13.7605 1.01903L13.8993 0.531039H12.4985C12.1156 0.531039 11.716 0.716139 11.6066 1.10317L11.472 1.56592C11.3794 1.88563 11.5645 2.1759 12.0189 2.1759H12.7004C12.7971 2.1759 12.9318 2.23059 12.856 2.49562L12.8224 2.61341C12.7593 2.82796 12.57 2.96679 12.3933 2.96679H11.0723L10.9335 3.45478H12.3975C12.7845 3.45478 13.2304 3.30333 13.3819 2.7901L13.4871 2.42831C13.6343 1.91929 13.2683 1.68371 12.9191 1.68371H12.2713C12.1787 1.68371 12.0525 1.66267 12.103 1.48178L12.1535 1.31351C12.2208 1.08213 12.3428 1.01482 12.5195 1.01482L13.7605 1.01903ZM7.74896 0.531039H8.35895L7.66062 2.97099H9.00259L8.86376 3.45898H6.91601C6.9118 3.45898 7.74896 0.531039 7.74896 0.531039ZM2.13286 1.01903C2.32637 1.01903 2.35582 1.1831 2.32637 1.28827L2.22961 1.62481C2.14968 1.89826 1.90148 1.99081 1.76686 1.99081H1.02646L1.30411 1.01482C1.30411 1.01903 2.13286 1.01903 2.13286 1.01903ZM0.841363 0.531039L0 3.45478H0.609989L0.904466 2.4199H1.82576C2.12444 2.4199 2.65029 2.27266 2.7765 1.83095L2.92795 1.29668C3.09201 0.72876 2.59981 0.526834 2.38106 0.526834C2.38527 0.531041 0.841363 0.531039 0.841363 0.531039ZM25.2241 0.531039H26.7722C26.9867 0.531039 27.4789 0.732966 27.3191 1.30089L27.2265 1.62902C27.0961 2.09177 26.5324 2.13804 26.5324 2.13804C26.9825 2.32314 26.9951 2.43252 26.9405 2.849C26.8858 3.26547 26.9447 3.43374 26.9699 3.45898H26.4188C26.4188 3.45898 26.3052 3.30333 26.3852 2.89106C26.4777 2.39887 26.3305 2.36521 26.1959 2.361H25.3166L25.0053 3.45898H24.3953L25.2241 0.531039ZM26.5198 1.01903C26.7091 1.01903 26.7427 1.1831 26.7133 1.28827L26.6165 1.62481C26.5492 1.80991 26.3263 1.86881 26.1916 1.86881H25.4512L25.6952 1.01482H26.5198V1.01903ZM22.0017 3.45898L21.6988 0.535245H21.0299L19.019 3.45898H19.6669L20.0539 2.849H21.3706L21.3959 3.45898C21.3917 3.45898 22.0017 3.45898 22.0017 3.45898ZM21.3496 2.40728L21.2907 1.01903C21.2865 0.95172 21.2991 0.867585 21.2991 0.867585L21.2066 1.01903L20.3231 2.40728H21.3496ZM4.27833 2.97099H5.10708C5.32583 2.97099 5.58245 2.79431 5.67079 2.49142L5.96947 1.45233C6.0452 1.19151 5.82644 1.02324 5.69182 1.02324H4.85046C4.61908 1.02324 4.36668 1.21675 4.29937 1.44392L4.01751 2.42831C3.90813 2.80272 4.11847 2.97099 4.27833 2.97099ZM4.90936 0.535245H5.72969C6.15878 0.535245 6.65939 0.926479 6.52057 1.41868L6.1672 2.65548C6.02837 3.13506 5.51093 3.45478 5.02715 3.45478H4.3835C3.76931 3.45478 3.29814 3.01306 3.46221 2.43252L3.78614 1.30509C3.92075 0.825518 4.42557 0.535245 4.90936 0.535245Z" fill="black"/>
</svg>
