<svg width="31" height="39" viewBox="0 0 31 39" fill="none" xmlns="http://www.w3.org/2000/svg">
<path d="M10.27 37.0468C9.72203 36.8722 9.31754 36.5049 9.05683 35.9454C8.9392 35.693 8.91842 35.5781 8.91842 35.1804C8.91842 34.7826 8.93919 34.6679 9.05696 34.4151C9.53502 33.3891 10.7173 32.9673 11.708 33.4693C13.1501 34.2001 13.1163 36.2465 11.6506 36.9388C11.2394 37.133 10.6783 37.1769 10.27 37.0468ZM24.4524 33.8041C23.9187 33.6772 23.4062 33.2593 23.1379 32.732C23.0226 32.5055 23.0079 32.4119 23.0079 31.9046C23.0079 31.3812 23.02 31.3097 23.1508 31.0616C23.4399 30.5131 23.8589 30.177 24.4387 30.0284C25.3094 29.8054 26.2455 30.246 26.6478 31.0683C26.937 31.6593 26.8764 32.4557 26.5007 33.0034C26.0615 33.6435 25.1976 33.9812 24.4524 33.8041ZM26.8816 29.7257C26.4613 29.631 26.2631 29.5302 25.9603 29.2569C25.7844 29.0982 25.6288 28.89 25.5183 28.6655C25.3606 28.3451 25.348 28.2818 25.3511 27.824C25.3537 27.438 25.3782 27.2774 25.4622 27.0949C25.825 26.3078 26.5758 25.852 27.4112 25.9118C28.5306 25.9919 29.3802 27.0776 29.1695 28.1587C29.0037 29.0096 28.3931 29.6076 27.5504 29.7443C27.3685 29.7738 27.2079 29.7962 27.1936 29.794C27.1793 29.7918 27.0389 29.7611 26.8816 29.7257ZM23.2939 26.5639C22.6709 26.4705 22.0666 25.9864 21.8308 25.3919C21.6541 24.9463 21.6619 24.3149 21.8492 23.9109C22.0386 23.5024 22.2118 23.2886 22.5297 23.071C23.4792 22.4211 24.8501 22.7713 25.3491 23.7912C26.0539 25.2319 24.8892 26.8033 23.2939 26.5639ZM18.0955 25.7669C17.522 25.6063 17.0599 25.2104 16.8034 24.6602C16.6868 24.4099 16.6659 24.2941 16.6659 23.8971C16.6659 23.4986 16.6866 23.3848 16.8053 23.13C16.9999 22.7123 17.3997 22.3061 17.7967 22.1227C18.0772 21.9931 18.1825 21.9733 18.5882 21.9733C19.0038 21.9733 19.0939 21.9912 19.3941 22.1342C19.8238 22.3387 20.1468 22.6618 20.3509 23.0912C20.4935 23.3912 20.5116 23.4819 20.5118 23.8982C20.512 24.3233 20.4961 24.3997 20.3418 24.7131C19.926 25.5577 18.9625 26.0097 18.0955 25.7669ZM7.10969 22.778C6.55107 22.637 6.05623 22.2256 5.80338 21.692C5.65697 21.383 5.64099 21.3007 5.64099 20.8553C5.64099 20.414 5.65728 20.3282 5.79384 20.05C5.98913 19.6523 6.33925 19.3029 6.73406 19.1117C7.0087 18.9787 7.10243 18.961 7.53887 18.9593C7.96831 18.9577 8.07168 18.9757 8.33016 19.0968C9.34047 19.5703 9.77215 20.7443 9.29904 21.7317C9.12492 22.0951 8.64796 22.5379 8.28393 22.6741C7.93948 22.8029 7.39827 22.8509 7.10969 22.778ZM15.3763 21.3534C14.7807 21.1085 14.3752 20.6433 14.2161 20.0224C13.9922 19.1485 14.433 18.2169 15.2632 17.8093C15.5422 17.6723 15.6231 17.6575 16.0923 17.6575C16.5463 17.6575 16.6486 17.6749 16.8983 17.794C17.3398 18.0048 17.5978 18.2614 17.8198 18.7106C18.0014 19.078 18.0162 19.1421 18.0162 19.5591C18.0162 19.9827 18.0036 20.0349 17.8082 20.4175C17.4482 21.1227 16.8642 21.4805 16.0774 21.4781C15.7764 21.4771 15.6015 21.446 15.3763 21.3534ZM8.37493 13.6493C7.5742 13.3587 7.0709 12.648 7.0709 11.8079C7.0709 11.0496 7.46824 10.4123 8.16283 10.0565C9.64839 9.5525 10.8529 10.4778 10.8927 11.8079C10.9155 12.5842 10.5036 13.2203 9.83137 13.5625C9.4695 13.7396 8.74289 13.7829 8.37493 13.6493Z" fill="#9E9E9E"/>
<path d="M5.56295 34.3949C5.39847 34.3643 4.84234 34.0891 4.70495 33.9704C3.99759 33.3591 3.83954 32.2084 4.35695 31.4366C4.78514 30.7967 5.46059 30.6055 5.97892 30.6071C6.46885 30.6092 6.55531 30.6244 6.82131 30.7549C7.18753 30.9347 7.55411 31.3185 7.73469 31.7112C7.85127 31.9647 7.8717 32.0815 7.8732 32.5026C7.8748 32.9535 7.86059 33.026 7.71004 33.3345C7.51217 33.7401 7.25607 33.9997 6.83821 34.2185C6.58204 34.3526 6.45439 34.3845 6.11026 34.4001C5.88073 34.4106 5.63444 34.4082 5.56295 34.3949ZM20.2877 30.6049C19.5864 30.4075 19.078 29.8286 18.9236 29.0516C18.8425 28.6438 18.9054 28.2836 19.1334 27.8502C19.3504 27.4376 19.9474 26.9389 20.2243 26.9389C20.2791 26.9389 20.3383 26.9155 20.356 26.8869C20.3737 26.8583 20.5843 26.8349 20.824 26.8349C21.0637 26.8349 21.2743 26.8583 21.2919 26.8869C21.3096 26.9155 21.3689 26.9389 21.4236 26.9389C21.6575 26.9389 22.4619 27.5696 22.4619 27.753C22.4619 27.7914 22.4817 27.8229 22.506 27.8229C22.5694 27.8229 22.7247 28.3237 22.756 28.6288C22.8018 29.0761 22.5848 29.6834 22.2439 30.062C22.1078 30.2131 21.7299 30.4733 21.5057 30.5701C21.2638 30.6747 20.6026 30.6936 20.2877 30.6049ZM14.1424 28.5249C13.5188 28.3997 13.0547 28.0382 12.7804 27.4642C12.6345 27.1589 12.6162 27.0691 12.6149 26.653C12.6136 26.2485 12.6334 26.1411 12.7604 25.8614C12.9273 25.4941 13.3246 25.0828 13.65 24.9405C13.7635 24.8909 13.897 24.8289 13.9467 24.8027C14.0691 24.7381 15.012 24.7419 15.0523 24.8071C15.07 24.8357 15.1416 24.8591 15.2114 24.8591C15.2812 24.8591 15.3383 24.8768 15.3383 24.8984C15.3383 24.92 15.4087 24.9688 15.4948 25.0069C15.7355 25.1135 16.0954 25.504 16.2578 25.8346C16.3887 26.1014 16.4042 26.188 16.4042 26.653C16.4043 27.1047 16.3865 27.2104 16.2692 27.4589C15.8897 28.2626 15.0162 28.7004 14.1424 28.5249ZM7.56482 28.0712C7.47902 28.0423 7.3682 27.998 7.31854 27.9728C7.26888 27.9475 7.19284 27.9269 7.14955 27.9269C7.10627 27.9269 7.07085 27.9035 7.07085 27.8749C7.07085 27.8463 7.04772 27.8229 7.01945 27.8229C6.86124 27.8229 6.46862 27.3858 6.27679 26.9961C6.12514 26.6881 6.10891 26.6097 6.10891 26.185C6.10891 25.7583 6.12475 25.6827 6.28034 25.3666C6.45421 25.0134 6.86199 24.5471 6.99696 24.5471C7.0376 24.5471 7.07085 24.5237 7.07085 24.4951C7.07085 24.4665 7.11627 24.4431 7.17178 24.4431C7.22728 24.4431 7.28472 24.4236 7.29941 24.3999C7.31409 24.3761 7.48765 24.3262 7.68509 24.2889C8.47544 24.1398 9.31294 24.5392 9.68438 25.2423C10.112 26.0516 9.98626 26.9154 9.34631 27.5655C9.20697 27.7071 9.05916 27.8229 9.01785 27.8229C8.97653 27.8229 8.94273 27.8463 8.94273 27.8749C8.94273 27.9035 8.89983 27.9269 8.8474 27.9269C8.79497 27.9269 8.73534 27.9436 8.71489 27.9641C8.57655 28.1024 7.85639 28.1695 7.56482 28.0712ZM3.79506 17.9051C3.66637 17.894 3.53884 17.863 3.51168 17.8362C3.48451 17.8094 3.42016 17.7875 3.36869 17.7875C3.31721 17.7875 3.27509 17.7698 3.27509 17.7482C3.27509 17.7266 3.21075 17.6801 3.1321 17.6448C2.87048 17.5275 2.54793 17.1745 2.39487 16.8379C2.21138 16.4345 2.15967 16.0644 2.23546 15.6973C2.42495 14.7796 3.10329 14.1632 3.98619 14.1065C5.01313 14.0406 5.83229 14.6769 6.03285 15.6964C6.10657 16.0711 6.04149 16.5238 5.86324 16.8763C5.73125 17.1372 5.2043 17.681 5.08198 17.6824C5.03193 17.683 4.99098 17.7069 4.99098 17.7355C4.99098 17.7641 4.94887 17.7875 4.89739 17.7875C4.84591 17.7875 4.78157 17.808 4.7544 17.833C4.69367 17.8889 4.11271 17.9326 3.79506 17.9051ZM19.5761 17.2361C19.1446 17.1286 18.706 16.8141 18.4224 16.4091C18.2722 16.1945 18.094 15.6317 18.0948 15.3741C18.0961 14.9264 18.326 14.3552 18.6304 14.0438C18.9178 13.6773 19.3303 13.5454 19.6281 13.4718C20.4801 13.2065 21.3838 13.763 21.7877 14.541C21.8969 14.7629 21.9142 14.8717 21.915 15.3437C21.9158 15.8405 21.9025 15.917 21.7667 16.1934C21.4412 16.8564 20.8785 17.2162 20.122 17.2451C19.8789 17.2544 19.6333 17.2504 19.5761 17.2361Z" fill="#6C6C6C"/>
<path d="M16.2224 32.7798C15.6098 32.6821 15.0192 32.2455 14.7361 31.6813C14.6021 31.4142 14.5874 31.3333 14.5874 30.8649C14.5875 30.2774 14.6772 30.0081 15.0067 29.6059C15.3193 29.2244 15.9832 28.915 16.4893 28.915C17.0374 28.915 17.7228 29.2623 18.0406 29.701C18.3124 30.0762 18.4174 30.4414 18.3977 30.9429C18.3765 31.4787 18.2036 31.8804 17.8434 32.2305C17.4123 32.6494 16.7697 32.8672 16.2224 32.7798ZM10.6267 32.2246C9.5972 31.9624 8.95225 30.8848 9.22149 29.8769C9.38061 29.2813 9.73377 28.8501 10.2704 28.5962C11.2571 28.1294 12.3904 28.5414 12.8641 29.539C13.0075 29.8409 13.0244 29.9272 13.0229 30.3494C13.0214 30.7753 13.0046 30.8557 12.8526 31.1643C12.4443 31.9937 11.4952 32.4458 10.6267 32.2246ZM2.67722 29.5854C2.33732 29.4671 2.07421 29.3068 1.84647 29.079C0.732228 27.9648 1.35232 26.0503 2.90864 25.7996C3.73286 25.6669 4.58324 26.1119 4.97222 26.8794C5.10651 27.1444 5.12106 27.2239 5.12106 27.6931C5.12106 28.1475 5.10362 28.2503 4.98273 28.5081C4.78915 28.9211 4.46954 29.2476 4.06282 29.448C3.7673 29.5935 3.65836 29.6185 3.27649 29.6283C3.03269 29.6346 2.76301 29.6152 2.67722 29.5854ZM14.4686 28.5716C14.4858 28.5543 14.5307 28.5525 14.5682 28.5675C14.6097 28.5841 14.5974 28.5964 14.5368 28.5989C14.482 28.6012 14.4513 28.5889 14.4686 28.5716ZM22.124 21.7369C20.6538 21.3822 20.1117 19.6161 21.1367 18.5203C21.6088 18.0156 22.3412 17.7851 22.9499 17.9495C23.5149 18.1022 24.0466 18.5207 24.2734 18.9912C24.6694 19.8126 24.4215 20.8293 23.6909 21.3806C23.2724 21.6964 22.5948 21.8505 22.124 21.7369ZM27.1937 20.0072C26.6 19.8359 26.1463 19.462 25.9035 18.9439C25.7796 18.6795 25.7638 18.5836 25.7638 18.0997C25.7638 17.5765 25.7712 17.54 25.942 17.225C26.1487 16.8437 26.4622 16.5483 26.8754 16.3453C27.1322 16.2192 27.2276 16.2018 27.6616 16.2018C28.0957 16.2018 28.191 16.2192 28.4479 16.3453C28.8625 16.5489 29.1754 16.8446 29.379 17.225C29.5334 17.5137 29.5573 17.6107 29.5751 18.0217C29.5988 18.5678 29.4949 18.9189 29.1927 19.3147C28.751 19.8933 27.8637 20.2006 27.1937 20.0072ZM4.01722 17.9123C4.0345 17.895 4.07934 17.8932 4.11688 17.9082C4.15836 17.9248 4.14604 17.9371 4.08546 17.9396C4.03065 17.9418 3.99994 17.9296 4.01722 17.9123ZM14.2077 16.8278C13.4432 16.589 12.905 15.9055 12.8538 15.1086C12.7904 14.1206 13.3839 13.3255 14.3696 13.078C14.6753 13.0012 14.7752 12.9972 15.064 13.0504C15.5145 13.1334 15.813 13.281 16.1152 13.5701C16.9927 14.4096 16.8899 15.8162 15.8968 16.557C15.475 16.8717 14.7302 16.9911 14.2077 16.8278ZM23.9108 15.3697C23.3444 15.1875 22.8501 14.6833 22.6691 14.1035C22.5383 13.6843 22.5386 13.3617 22.6702 12.9445C22.8076 12.5088 23.0724 12.1601 23.4525 11.9145C23.8426 11.6623 24.1864 11.5779 24.6729 11.6147C25.4109 11.6705 26.0093 12.1068 26.2934 12.796C26.5161 13.3363 26.4207 14.2348 26.0974 14.6426C25.895 14.8979 25.5859 15.151 25.3264 15.2737C24.9645 15.4449 24.2872 15.4909 23.9108 15.3697Z" fill="black"/>
<path d="M20.5903 36.3709C20.3208 36.2732 19.9428 36.027 19.7659 35.8339C19.6988 35.7606 19.5701 35.5486 19.4799 35.3627C19.3313 35.0562 19.3161 34.9787 19.3161 34.5307C19.3161 34.0962 19.3341 33.9978 19.4658 33.7126C19.9201 32.729 21.1957 32.309 22.1499 32.8288C22.437 32.9852 22.8008 33.3709 22.963 33.6911C23.0987 33.9588 23.1118 34.033 23.1118 34.5307C23.1118 35.0219 23.0974 35.1061 22.9679 35.3698C22.785 35.7422 22.4475 36.0803 22.0657 36.2734C21.8129 36.4014 21.6943 36.427 21.2954 36.4401C20.9574 36.4512 20.7579 36.4316 20.5903 36.3709ZM14.4685 28.5717C14.4857 28.5544 14.5306 28.5526 14.5681 28.5676C14.6096 28.5842 14.5973 28.5965 14.5367 28.599C14.4819 28.6013 14.4512 28.589 14.4685 28.5717ZM27.7565 24.9962C27.6229 24.9638 27.4962 24.9198 27.4749 24.8984C27.4536 24.8769 27.3933 24.8594 27.3409 24.8594C27.2885 24.8594 27.2456 24.836 27.2456 24.8074C27.2456 24.7788 27.2162 24.7554 27.1803 24.7554C27.0884 24.7554 26.7023 24.3816 26.5513 24.1465C26.197 23.595 26.159 22.8484 26.4545 22.2481C26.7755 21.5963 27.4606 21.1676 28.1815 21.1676C28.8911 21.1676 29.5793 21.5907 29.9154 22.2335C30.0679 22.5253 30.0785 22.581 30.0789 23.0915C30.0793 23.5736 30.0634 23.6709 29.9432 23.9234C29.6826 24.4706 29.1784 24.8599 28.5355 25.0103C28.2456 25.0781 28.0827 25.0751 27.7565 24.9962ZM11.8025 24.4867C11.1711 24.3531 10.6592 23.9506 10.3905 23.3764C10.2546 23.0859 10.2347 22.986 10.2374 22.6084C10.2421 21.9764 10.3946 21.5901 10.7917 21.204C11.7622 20.2608 13.3151 20.5482 13.9191 21.7827C14.0409 22.0317 14.0625 22.1418 14.0634 22.5185C14.065 23.2027 13.8745 23.6475 13.4097 24.0454C13.139 24.2771 12.899 24.3914 12.5045 24.4765C12.1474 24.5535 12.1198 24.5539 11.8025 24.4867ZM1.78657 24.0558C1.23151 23.8997 0.770652 23.5119 0.534938 23.0026C0.381521 22.6711 0.32844 22.1314 0.41043 21.7367C0.53265 21.1483 1.07757 20.5493 1.67823 20.3431C1.92523 20.2583 2.65984 20.255 2.87743 20.3376C3.43596 20.5499 3.72021 20.7829 3.97376 21.2363C4.41862 22.0317 4.2745 22.9619 3.60826 23.5952C3.13524 24.0448 2.4045 24.2296 1.78657 24.0558ZM4.01712 17.9124C4.0344 17.8951 4.07925 17.8933 4.11678 17.9083C4.15826 17.9249 4.14594 17.9372 4.08537 17.9397C4.03056 17.942 3.99985 17.9297 4.01712 17.9124ZM12.7778 10.6722C12.6222 10.356 12.6086 10.288 12.6098 9.83323C12.611 9.38377 12.6265 9.30681 12.7779 8.99482C12.9764 8.58597 13.3031 8.26616 13.7172 8.07533C14.5108 7.773 15.4367 7.88674 16.0572 8.66537C16.3466 9.04259 16.4422 9.36889 16.4218 9.90994C16.4073 10.296 16.3785 10.4307 16.2577 10.6767C16.071 11.0569 15.731 11.3969 15.3508 11.5836C14.3775 11.9975 13.2687 11.6364 12.7778 10.6722Z" fill="black"/>
<path d="M15.7805 37.9907C15.3006 37.8479 15.1696 37.7762 14.8781 37.4966C14.0941 36.7449 14.103 35.4708 14.8976 34.7112C15.8516 33.7992 17.4043 34.0919 17.9752 35.2914C18.104 35.5621 18.1203 35.6547 18.1203 36.1163C18.1203 36.572 18.103 36.6731 17.9805 36.9345C17.8298 37.2561 17.4363 37.684 17.1844 37.8002C16.6121 38.0641 16.2103 38.1187 15.7805 37.9907ZM5.56312 34.3949C5.39864 34.3642 4.84251 34.0891 4.70512 33.9704C3.99776 33.3591 3.83971 32.2084 4.35712 31.4366C4.5599 31.1341 4.82091 30.9057 5.14663 30.7455C5.40434 30.6188 5.48799 30.6049 5.97909 30.607C6.46902 30.6092 6.55548 30.6243 6.82149 30.7549C7.1877 30.9347 7.55428 31.3185 7.73486 31.7112C7.85144 31.9647 7.87188 32.0815 7.87337 32.5025C7.87497 32.9535 7.86077 33.0259 7.71022 33.3345C7.51235 33.74 7.25624 33.9997 6.83838 34.2185C6.58222 34.3526 6.45456 34.3845 6.11043 34.4001C5.8809 34.4105 5.63461 34.4082 5.56312 34.3949ZM14.4686 28.5714C14.4859 28.5541 14.5308 28.5523 14.5683 28.5673C14.6098 28.5839 14.5975 28.5962 14.5369 28.5987C14.4821 28.601 14.4514 28.5887 14.4686 28.5714ZM9.84272 18.5669C9.26752 18.4829 8.69331 18.0439 8.43353 17.4895C8.31006 17.226 8.29294 17.1261 8.29294 16.6685C8.29294 16.1845 8.30511 16.1227 8.46384 15.8003C8.86226 14.991 9.78441 14.5619 10.6328 14.7912C11.8496 15.1199 12.4466 16.3718 11.919 17.4884C11.5357 18.2998 10.7627 18.7013 9.84272 18.5669ZM19.4722 12.2522C18.8178 12.0978 18.4343 11.8209 18.1599 11.3046C17.9249 10.8625 17.8485 10.4346 17.9321 10.0298C18.0298 9.55645 18.1576 9.32235 18.5187 8.95488C19.4838 7.97275 21.2264 8.41984 21.6777 9.76535C21.8144 10.1732 21.8152 10.5288 21.6802 10.9296C21.4297 11.6731 20.9619 12.0927 20.2002 12.2569C19.8408 12.3344 19.8204 12.3343 19.4722 12.2522Z" fill="black"/>
<path d="M2.80713 1.35427V0L3.00212 0.0331184C3.10936 0.0513328 3.2556 0.106033 3.3271 0.154676C3.42733 0.222874 4.34546 1.51451 4.6247 1.98015C4.71652 2.13328 4.74229 1.98057 4.65952 1.77371C4.59467 1.61163 4.57502 1.38133 4.57502 0.783611V0.00471284H4.783H4.99099V1.35533V2.70594L4.822 2.67597C4.72906 2.65948 4.59452 2.60552 4.52302 2.55606C4.42321 2.48701 3.45763 1.10886 3.17294 0.629106C3.08162 0.475226 3.05602 0.629159 3.1386 0.835556C3.20427 0.999684 3.2231 1.23193 3.2231 1.87765V2.70854H3.01512H2.80713V1.35427ZM9.04673 1.35663V0.00193274L9.81368 0.016322L10.5806 0.0307112L10.5969 0.1997L10.6132 0.36869H10.09H9.5667V0.565107C9.5667 0.782486 9.4481 0.99265 9.32543 0.99265C9.28177 0.99265 9.25573 1.0219 9.26757 1.05765C9.28237 1.10237 9.47178 1.13075 9.87479 1.14864L10.4605 1.17464L10.3478 1.31763C10.2458 1.4471 10.2035 1.46062 9.9009 1.46062H9.5667V1.90259V2.34456H10.09H10.6132L10.5969 2.51355L10.5806 2.68254L9.81368 2.69693L9.04673 2.71132V1.35663ZM15.3783 1.5543L15.3643 0.394688L15.0394 0.379207L14.7144 0.363726V0.184219V0.00471284H15.6503C16.5254 0.00471284 16.5863 0.010952 16.5863 0.100647C16.5863 0.250017 16.4254 0.359869 16.18 0.378068L15.9559 0.394688L15.9461 1.53862L15.9363 2.68254L15.6643 2.69822L15.3923 2.71391L15.3783 1.5543ZM20.902 1.53733V0.360689L21.054 0.208699C21.1438 0.118831 21.2611 0.0567095 21.3408 0.0567095H21.4757L21.4618 1.36963L21.4479 2.68254L21.175 2.69826L20.902 2.71398V1.53733ZM25.4102 2.66954C25.3982 2.64809 25.5495 2.20937 25.7463 1.69461C26.3221 0.188381 26.353 0.134878 26.6926 0.0582852C26.8385 0.0253739 26.8821 0.0341347 26.9092 0.1019C27.0336 0.412284 27.8175 2.61952 27.8175 2.65931C27.8175 2.68639 27.7019 2.70854 27.5606 2.70854H27.3036L27.1863 2.34456L27.0691 1.98059H26.5956H26.1221L26.0049 2.34456L25.8877 2.70854H25.6597C25.5344 2.70854 25.4221 2.69099 25.4102 2.66954ZM26.9336 1.62C26.9336 1.59326 26.9085 1.50551 26.8777 1.42501C26.7419 1.06898 26.6834 0.737721 26.7244 0.556091C26.7569 0.412017 26.7503 0.36869 26.6959 0.36869C26.633 0.36869 26.2576 1.42946 26.2576 1.60735C26.2576 1.64808 26.3709 1.66861 26.5956 1.66861C26.7815 1.66861 26.9336 1.64673 26.9336 1.62Z" fill="black"/>
</svg>
