<svg width="37" height="37" viewBox="0 0 37 37" fill="none" xmlns="http://www.w3.org/2000/svg">
<path d="M0.478271 0.381836H36.0079C36.0079 12.3267 36.0079 24.261 36.0079 36.2058C24.1682 36.2058 12.3285 36.2058 0.478271 36.2058V0.381836ZM31.2341 26.2904C31.2341 26.364 31.2341 26.4376 31.2341 26.5217C31.4024 26.5217 31.5706 26.5217 31.7388 26.5217C31.7388 26.9948 31.7388 27.468 31.7388 27.9517C31.8335 27.9517 31.9281 27.9517 32.0122 27.9517C32.0122 27.4785 32.0122 27.0054 32.0122 26.5217C32.1805 26.5217 32.3487 26.5217 32.5274 26.5217C32.5274 26.4481 32.5274 26.3745 32.5274 26.2904C32.0963 26.2904 31.6652 26.2904 31.2341 26.2904ZM32.8534 26.2904C32.8534 26.8371 32.8534 27.3944 32.8534 27.9412C32.948 27.9412 33.0427 27.9412 33.1268 27.9412C33.1268 27.489 33.1268 27.0369 33.1268 26.5848C33.3161 27.0369 33.4843 27.489 33.663 27.9412C33.7261 27.9412 33.7787 27.9412 33.8418 27.9412C34.0205 27.489 34.1888 27.0369 34.3781 26.5848C34.3781 27.0369 34.3781 27.489 34.3781 27.9412C34.4727 27.9412 34.5673 27.9412 34.6514 27.9412C34.6514 27.3944 34.6514 26.8371 34.6514 26.2904C34.5147 26.2904 34.3675 26.2904 34.2308 26.2904C34.0731 26.7004 33.9154 27.121 33.7577 27.5311C33.6 27.121 33.4317 26.7004 33.274 26.2904C33.1373 26.2904 33.0006 26.2904 32.8534 26.2904ZM4.69471 28.0568C4.00074 28.0884 3.30676 28.4038 2.89668 28.9716C2.53918 29.4553 2.40248 30.0652 2.40248 30.654C2.39197 31.2113 2.50763 31.7791 2.80205 32.2628C3.04389 32.6518 3.41191 32.9567 3.8325 33.1355C4.33721 33.3458 4.90501 33.3773 5.44127 33.2722C5.93546 33.167 6.40863 32.9042 6.73459 32.5151C7.02901 32.1681 7.19724 31.7265 7.26033 31.2744C7.33393 30.7486 7.3129 30.2124 7.1657 29.7077C7.01849 29.2345 6.73459 28.8034 6.32451 28.5195C5.85134 28.162 5.26251 28.0253 4.69471 28.0568ZM9.42638 28.7613C9.42638 28.5721 9.42638 28.3723 9.42638 28.183C9.0163 28.183 8.59571 28.183 8.18563 28.183C8.18563 29.8444 8.18563 31.5162 8.18563 33.1776C8.62726 33.1776 9.06888 33.1776 9.52102 33.1776C9.52102 32.0735 9.52102 30.9694 9.52102 29.8654C9.57359 29.7077 9.7208 29.5815 9.86801 29.5079C10.2045 29.3502 10.5935 29.3291 10.9615 29.3291C10.9615 28.9191 10.9615 28.4985 10.9615 28.0884C10.3727 28.0358 9.7944 28.3197 9.42638 28.7613ZM12.6755 28.2251C12.2233 28.3723 11.8238 28.6667 11.5504 29.0558C11.8448 29.224 12.1392 29.3922 12.4336 29.5605C12.686 29.245 13.054 29.0242 13.4641 28.9927C13.748 28.9716 14.095 28.9821 14.3053 29.2135C14.4525 29.3817 14.4104 29.613 14.4104 29.8233C13.7375 29.9075 13.054 30.0126 12.4231 30.286C12.0656 30.4437 11.7186 30.6645 11.5083 31.001C11.277 31.3795 11.2454 31.8632 11.3821 32.2838C11.4873 32.6308 11.7396 32.9252 12.0761 33.0724C12.4547 33.2512 12.8858 33.2407 13.2853 33.1776C13.6849 33.1145 14.0739 32.9567 14.4104 32.7254C14.4525 32.8726 14.484 33.0093 14.5261 33.1565C14.9151 33.1565 15.3042 33.1565 15.6932 33.1565C15.6827 31.9999 15.6932 30.8433 15.6827 29.6866C15.7037 29.3502 15.6406 28.9821 15.4303 28.7088C15.157 28.3407 14.6943 28.162 14.2527 28.0884C13.7269 28.0463 13.1802 28.0568 12.6755 28.2251ZM19.1631 28.1199C18.7005 28.2146 18.2904 28.4774 17.9118 28.7508C17.8698 28.551 17.8277 28.3618 17.7962 28.162C17.4387 28.2146 17.0707 28.2671 16.7132 28.3092C16.7132 29.9285 16.7132 31.5478 16.7132 33.167C17.1443 33.167 17.5754 33.167 18.017 33.167C18.017 31.9789 18.017 30.7802 18.017 29.592C18.3219 29.3397 18.6794 29.0978 19.079 29.0452C19.2788 29.0242 19.5206 29.0347 19.6678 29.1924C19.815 29.3607 19.8361 29.6025 19.8466 29.8233C19.8466 30.9379 19.8466 32.0525 19.8466 33.1565C20.2777 33.1565 20.7193 33.1565 21.1504 33.1565C21.1504 31.9684 21.1504 30.7907 21.1504 29.6025C21.1504 29.3607 21.1084 29.1294 21.0347 28.898C20.9296 28.5931 20.7088 28.3407 20.4144 28.2041C20.0253 28.0463 19.5732 28.0358 19.1631 28.1199ZM22.5594 28.8455C22.1598 29.3922 22.0231 30.0862 22.0337 30.7486C22.0442 31.3585 22.1703 31.9894 22.5594 32.4731C22.8643 32.8621 23.3375 33.104 23.8212 33.1565C24.1787 33.1881 24.5572 33.1776 24.8727 32.9883C25.0935 32.8621 25.2512 32.6518 25.3774 32.4415C25.3879 32.6518 25.3774 32.8621 25.3774 33.0724C25.3669 33.3458 25.3248 33.6507 25.1355 33.8715C24.9568 34.0713 24.6939 34.1344 24.4415 34.1344C24.1787 34.1344 23.8948 34.1239 23.6635 33.9767C23.5478 33.9031 23.4952 33.7769 23.4532 33.6402C23.022 33.7138 22.5909 33.7769 22.1598 33.8505C22.2334 34.2501 22.5173 34.5971 22.8748 34.7863C23.4321 35.0913 24.084 35.1333 24.7044 35.0702C25.2407 35.0177 25.8085 34.8599 26.187 34.4604C26.534 34.0924 26.6391 33.5771 26.6391 33.0934C26.6391 31.4426 26.6391 29.8023 26.6391 28.1515C26.2711 28.1515 25.9031 28.141 25.5351 28.1515C25.5035 28.3302 25.472 28.5195 25.4405 28.6982C25.3248 28.4564 25.104 28.2987 24.8621 28.1935C24.5467 28.0674 24.1997 28.0358 23.8632 28.0568C23.348 28.1199 22.8643 28.4143 22.5594 28.8455ZM28.0061 28.8034C27.6486 29.2345 27.4908 29.8023 27.4488 30.3491C27.4067 30.9484 27.4698 31.5793 27.7432 32.1261C27.9535 32.5572 28.3215 32.9042 28.7631 33.0829C29.3309 33.3143 29.9618 33.3143 30.5507 33.1881C31.129 33.0619 31.6757 32.7149 31.9702 32.1892C31.6442 32.0104 31.3288 31.8317 31.0133 31.6529C30.8661 31.8632 30.6979 32.0525 30.4665 32.1681C30.2142 32.2943 29.9093 32.3153 29.6359 32.2733C29.3625 32.2312 29.1101 32.084 28.9629 31.8527C28.7842 31.5688 28.7316 31.2113 28.7316 30.8853C29.8251 30.8853 30.9187 30.8853 32.0227 30.8853C32.0648 30.4437 32.0227 30.0021 31.8966 29.571C31.7599 29.1083 31.476 28.6877 31.0764 28.4249C30.5822 28.0989 29.9618 28.0358 29.3835 28.0989C28.8367 28.1515 28.332 28.3933 28.0061 28.8034Z" fill="black"/>
<path d="M29.0261 29.2555C29.1838 29.0768 29.4257 28.9822 29.657 28.9611C29.9619 28.9401 30.2879 29.0242 30.4876 29.2555C30.6664 29.4553 30.7295 29.7392 30.74 30.0021C30.0776 30.0021 29.4046 30.0021 28.7422 30.0021C28.7632 29.7497 28.8368 29.4658 29.0261 29.2555Z" fill="black"/>
<path d="M24.1576 29.0244C24.4625 28.9718 24.799 29.0665 25.0198 29.2978C25.2721 29.5607 25.3773 29.9287 25.3983 30.2967C25.4088 30.5596 25.3983 30.8224 25.3562 31.0853C25.3142 31.3587 25.2196 31.6426 25.0198 31.8424C24.841 32.0211 24.5781 32.1052 24.3258 32.1052C24.0945 32.1158 23.8421 32.0422 23.6844 31.8634C23.4636 31.6426 23.39 31.3166 23.3584 31.0117C23.3269 30.7068 23.3164 30.3913 23.3584 30.0864C23.4005 29.813 23.4846 29.5396 23.6634 29.3293C23.7895 29.1611 23.9578 29.0559 24.1576 29.0244Z" fill="black"/>
<path d="M4.63174 29.1819C4.94719 29.1293 5.30469 29.1819 5.55705 29.4027C5.78837 29.6025 5.90403 29.9074 5.95661 30.2124C6.00918 30.5488 6.00918 30.8958 5.94609 31.2323C5.88301 31.5267 5.75683 31.8211 5.51499 32.0104C5.2416 32.2102 4.8841 32.2522 4.55814 32.1786C4.29527 32.1261 4.06394 31.9578 3.92725 31.716C3.73798 31.3795 3.69592 30.9799 3.69592 30.5909C3.70644 30.2439 3.76953 29.8864 3.96931 29.592C4.11652 29.3712 4.36887 29.224 4.63174 29.1819Z" fill="black"/>
<path d="M13.2116 30.9062C13.5796 30.7485 13.9792 30.6854 14.3787 30.6328C14.3787 31.0219 14.3787 31.4109 14.3787 31.8C14.0423 32.0944 13.6217 32.3362 13.1695 32.3257C13.0118 32.3257 12.8646 32.2626 12.7594 32.1575C12.5597 31.9367 12.5281 31.5791 12.6858 31.3163C12.8015 31.1165 13.0013 31.0008 13.2116 30.9062Z" fill="black"/>
<path d="M35.9973 0.381836H36.0289V36.2374H0.478271V36.2058C12.318 36.2058 24.1576 36.2058 36.0079 36.2058C35.9973 24.261 35.9973 12.3162 35.9973 0.381836Z" fill="black"/>
<path d="M31.2336 26.2905C31.6648 26.2905 32.0959 26.2905 32.5375 26.2905C32.5375 26.3641 32.5375 26.4377 32.5375 26.5219C32.3692 26.5219 32.201 26.5219 32.0223 26.5219C32.0223 26.995 32.0223 27.4682 32.0223 27.9519C31.9276 27.9519 31.833 27.9519 31.7489 27.9519C31.7489 27.4787 31.7489 27.0055 31.7489 26.5219C31.5806 26.5219 31.4124 26.5219 31.2442 26.5219C31.2336 26.4483 31.2336 26.3641 31.2336 26.2905Z" fill="white"/>
<path d="M32.8534 26.2905C32.9901 26.2905 33.1373 26.2905 33.274 26.2905C33.4317 26.7006 33.5999 27.1212 33.7577 27.5313C33.9154 27.1212 34.0731 26.7006 34.2308 26.2905C34.3675 26.2905 34.5147 26.2905 34.6514 26.2905C34.6514 26.8373 34.6514 27.3946 34.6514 27.9414C34.5568 27.9414 34.4622 27.9414 34.378 27.9414C34.378 27.4892 34.378 27.0371 34.378 26.5849C34.1993 27.0371 34.0205 27.4892 33.8418 27.9414C33.7787 27.9414 33.7261 27.9414 33.663 27.9414C33.4843 27.4892 33.316 27.0371 33.1268 26.5849C33.1163 27.0371 33.1268 27.4892 33.1268 27.9414C33.0321 27.9414 32.9375 27.9414 32.8534 27.9414C32.8534 27.3946 32.8534 26.8478 32.8534 26.2905Z" fill="white"/>
<path d="M4.69474 28.0567C5.26254 28.0251 5.85137 28.1618 6.32454 28.4983C6.73462 28.7822 7.01852 29.2133 7.16572 29.6865C7.32345 30.1912 7.33396 30.7379 7.26036 31.2532C7.18675 31.7053 7.01852 32.1469 6.73462 32.4939C6.40866 32.8935 5.946 33.1563 5.44129 33.251C4.90504 33.3666 4.33724 33.3246 3.83253 33.1143C3.41193 32.946 3.04391 32.6411 2.80207 32.2416C2.50766 31.7684 2.39199 31.1901 2.40251 30.6328C2.40251 30.044 2.5392 29.4341 2.89671 28.9504C3.30678 28.3931 4.00076 28.0777 4.69474 28.0567ZM4.63165 29.1817C4.36878 29.2133 4.11642 29.371 3.9587 29.5918C3.75892 29.8862 3.70635 30.2437 3.68532 30.5907C3.6748 30.9798 3.71686 31.3793 3.91664 31.7158C4.05334 31.9471 4.28466 32.1259 4.54753 32.1785C4.87349 32.2416 5.231 32.21 5.50438 32.0102C5.74622 31.821 5.8724 31.5265 5.93549 31.2321C5.99858 30.8957 5.99858 30.5487 5.946 30.2122C5.89343 29.9178 5.77777 29.6128 5.54644 29.4026C5.3046 29.1923 4.95761 29.1397 4.63165 29.1817Z" fill="white"/>
<path d="M9.42642 28.7612C9.80495 28.3196 10.3833 28.0357 10.9616 28.0883C10.9616 28.4984 10.9616 28.919 10.9616 29.329C10.5936 29.329 10.2045 29.3501 9.86804 29.5078C9.72083 29.5814 9.57363 29.7076 9.52105 29.8653C9.52105 30.9693 9.52105 32.0734 9.52105 33.1775C9.07943 33.1775 8.63781 33.1775 8.18567 33.1775C8.18567 31.5161 8.18567 29.8443 8.18567 28.1829C8.59575 28.1829 9.01634 28.1829 9.42642 28.1829C9.42642 28.3722 9.42642 28.572 9.42642 28.7612Z" fill="white"/>
<path d="M12.6753 28.225C13.1801 28.0673 13.7268 28.0462 14.2526 28.1198C14.6942 28.1934 15.1463 28.3617 15.4302 28.7402C15.6405 29.0136 15.7036 29.3711 15.6826 29.7181C15.6826 30.8747 15.6721 32.0313 15.6931 33.188C15.3041 33.188 14.915 33.188 14.526 33.188C14.4839 33.0408 14.4524 32.9041 14.4103 32.7569C14.0738 32.9777 13.6848 33.1354 13.2852 33.209C12.8856 33.2721 12.4545 33.2826 12.076 33.1039C11.75 32.9567 11.4872 32.6622 11.382 32.3152C11.2558 31.8947 11.2769 31.411 11.5082 31.0324C11.7185 30.696 12.0655 30.4752 12.423 30.3174C13.0539 30.044 13.7373 29.9389 14.4103 29.8548C14.3998 29.655 14.4524 29.4132 14.3051 29.2449C14.0949 29.0136 13.7584 28.9926 13.464 29.0241C13.0644 29.0557 12.6859 29.2765 12.4335 29.5919C12.1391 29.4237 11.8447 29.2554 11.5503 29.0872C11.8236 28.6666 12.2232 28.3722 12.6753 28.225ZM13.2116 30.9063C13.0118 30.9904 12.8015 31.1166 12.6859 31.3163C12.5281 31.5687 12.5597 31.9262 12.7595 32.1575C12.8646 32.2732 13.0118 32.3363 13.1695 32.3258C13.6217 32.3363 14.0528 32.0944 14.3787 31.8C14.3787 31.411 14.3787 31.0219 14.3787 30.6329C13.9792 30.6855 13.5796 30.7591 13.2116 30.9063Z" fill="white"/>
<path d="M19.163 28.1198C19.573 28.0357 20.0252 28.0567 20.4142 28.2355C20.7086 28.3721 20.9189 28.6245 21.0346 28.9294C21.1187 29.1502 21.1503 29.3921 21.1503 29.6339C21.1503 30.8221 21.1503 31.9998 21.1503 33.1879C20.7192 33.1879 20.2775 33.1879 19.8464 33.1879C19.8464 32.0734 19.8464 30.9588 19.8464 29.8547C19.8359 29.6339 19.8149 29.3921 19.6677 29.2239C19.5205 29.0661 19.2786 29.0451 19.0788 29.0766C18.6688 29.1292 18.3218 29.3605 18.0168 29.6234C18.0168 30.8116 18.0168 32.0103 18.0168 33.1985C17.5857 33.1985 17.1546 33.1985 16.713 33.1985C16.713 31.5792 16.713 29.9599 16.713 28.3406C17.0705 28.288 17.4385 28.2355 17.796 28.1934C17.8276 28.3932 17.8696 28.5824 17.9117 28.7822C18.2902 28.4773 18.6898 28.2144 19.163 28.1198Z" fill="white"/>
<path d="M22.5593 28.8454C22.8642 28.4248 23.3479 28.1198 23.8736 28.0778C24.2101 28.0568 24.5571 28.0883 24.8726 28.2145C25.1144 28.3091 25.3352 28.4773 25.4509 28.7192C25.4824 28.5299 25.514 28.3512 25.5455 28.1724C25.9135 28.1619 26.2815 28.1724 26.6496 28.1724C26.6496 29.8232 26.6496 31.4636 26.6496 33.1144C26.639 33.5981 26.5339 34.1133 26.1974 34.4813C25.8189 34.8914 25.2511 35.0386 24.7148 35.0912C24.0945 35.1543 23.4425 35.1122 22.8853 34.8073C22.5277 34.618 22.2544 34.271 22.1702 33.8715C22.6013 33.7978 23.0325 33.7348 23.4636 33.6612C23.4951 33.7873 23.5582 33.9135 23.6739 33.9976C23.9052 34.1448 24.1891 34.1554 24.452 34.1554C24.7043 34.1554 24.9777 34.0817 25.1459 33.8925C25.3352 33.6717 25.3773 33.3773 25.3878 33.0934C25.3878 32.8831 25.3878 32.6728 25.3878 32.4625C25.2616 32.6728 25.1039 32.8831 24.8831 33.0092C24.5676 33.188 24.1786 33.209 23.8316 33.1775C23.3479 33.1249 22.8747 32.8831 22.5698 32.494C22.1913 32.0103 22.0546 31.3794 22.0441 30.7696C22.023 30.0756 22.1597 29.3816 22.5593 28.8454ZM24.1575 29.0241C23.9683 29.0557 23.7895 29.1608 23.6633 29.308C23.4846 29.5183 23.4005 29.7917 23.3584 30.0651C23.3164 30.37 23.3269 30.6855 23.3584 30.9904C23.39 31.2953 23.4636 31.6108 23.6844 31.8421C23.8421 32.0208 24.0945 32.0944 24.3258 32.0839C24.5781 32.0944 24.841 32.0103 25.0198 31.8211C25.2195 31.6213 25.3037 31.3374 25.3562 31.064C25.3983 30.8011 25.4088 30.5383 25.3983 30.2754C25.3773 29.9179 25.2721 29.5393 25.0198 29.2765C24.7989 29.0662 24.4625 28.9715 24.1575 29.0241Z" fill="white"/>
<path d="M28.0061 28.8033C28.3426 28.3932 28.8473 28.1514 29.3625 28.0883C29.9408 28.0252 30.5612 28.0883 31.0554 28.4142C31.4655 28.6771 31.7389 29.0977 31.8756 29.5603C32.0018 29.9809 32.0438 30.4331 32.0018 30.8747C30.9082 30.8747 29.8147 30.8747 28.7106 30.8747C28.7106 31.2112 28.7632 31.5582 28.9419 31.8421C29.0891 32.0734 29.3415 32.2206 29.6149 32.2627C29.8883 32.3047 30.1932 32.2837 30.4456 32.1575C30.6769 32.0418 30.8451 31.8526 30.9923 31.6423C31.3078 31.821 31.6337 31.9998 31.9492 32.1785C31.6548 32.7043 31.108 33.0513 30.5297 33.1774C29.9408 33.3036 29.2994 33.3036 28.7422 33.0723C28.3005 32.8935 27.9325 32.5466 27.7222 32.1155C27.4488 31.5687 27.3963 30.9378 27.4278 30.3384C27.4804 29.8022 27.6381 29.2344 28.0061 28.8033ZM29.0261 29.2554C28.8368 29.4657 28.7632 29.7391 28.7422 30.0125C29.4046 30.0125 30.0775 30.0125 30.74 30.0125C30.7295 29.7496 30.6769 29.4657 30.4876 29.2659C30.2773 29.0346 29.9514 28.9505 29.657 28.9715C29.4151 28.982 29.1838 29.0767 29.0261 29.2554Z" fill="white"/>
</svg>
