<svg width="56" height="28" viewBox="0 0 56 28" fill="none" xmlns="http://www.w3.org/2000/svg">
<path d="M50.323 13.0237H55.8345V18.5352H50.323V13.0237ZM33.7732 13.0237H39.2847V18.5352H33.7732V13.0237ZM17.2386 13.0237H22.7501V18.5352H17.2386V13.0237ZM13.7229 21.8667C13.7229 23.6169 13.9839 24.7529 14.4905 25.2749C14.9204 25.7201 15.6573 25.9965 16.7013 26.1039C17.0083 26.1347 17.5303 26.1346 18.2826 26.1346V27.6699H5.00276V26.1346C6.07743 26.1346 6.8604 26.0886 7.36703 25.9811C8.39564 25.7662 9.04044 25.1674 9.31678 24.1849C9.45496 23.6783 9.53172 22.9106 9.53172 21.8667V1.83181C7.27491 1.89322 5.50939 2.64549 4.23514 4.07326C3.0223 5.43962 2.28539 7.5429 2.0244 10.3524L0.565918 10.1068L0.826908 0.526855H22.4277L22.6887 10.1068L21.2456 10.3524C20.9846 7.52755 20.2323 5.43962 19.0195 4.07326C17.7452 2.64549 15.9644 1.89322 13.7076 1.83181V21.8667H13.7229ZM0.596622 13.0237H6.10813V18.5352H0.596622V13.0237Z" fill="black"/>
</svg>
