<svg width="38" height="38" viewBox="0 0 38 38" fill="none" xmlns="http://www.w3.org/2000/svg">
<g clipPath="url(#clip0_419_6616)">
<path d="M37.4853 19.3439C37.4856 21.7362 37.0146 24.1051 36.0993 26.3154C35.1841 28.5257 33.8424 30.5341 32.1508 32.2258C30.4593 33.9175 28.4512 35.2595 26.241 36.175C24.0308 37.0906 21.6619 37.5618 19.2696 37.5618C16.8773 37.5618 14.5084 37.0906 12.2983 36.175C10.0881 35.2595 8.07991 33.9175 6.3884 32.2258C4.69689 30.5341 3.35518 28.5257 2.43989 26.3154C1.5246 24.1051 1.05366 21.7362 1.05396 19.3439C1.05366 16.9516 1.5246 14.5827 2.43989 12.3724C3.35518 10.1621 4.69689 8.15374 6.3884 6.46202C8.07991 4.7703 10.0881 3.42834 12.2983 2.51278C14.5084 1.59721 16.8773 1.12598 19.2696 1.12598C21.6619 1.12598 24.0308 1.59721 26.241 2.51278C28.4512 3.42834 30.4593 4.7703 32.1508 6.46202C33.8424 8.15374 35.1841 10.1621 36.0993 12.3724C37.0146 14.5827 37.4856 16.9516 37.4853 19.3439Z" fill="black"/>
<path d="M13.3686 15.845V18.0164H11.6667V21.1604C11.6667 21.5908 11.7477 21.8465 11.9098 21.9276C12.0719 22.0086 12.2396 22.0492 12.4128 22.0492C12.6811 22.0492 12.9997 22.0016 13.3686 21.9066V24.2877C12.7091 24.4162 12.0607 24.4805 11.4235 24.4805C10.3951 24.4805 9.63912 24.2597 9.15564 23.8182C8.67216 23.3766 8.43042 22.6724 8.43042 21.7054L8.4388 20.7077V18.0164H7.16443V15.845H8.4388L8.48911 13.0698L11.6667 13.0195V15.845H13.3686ZM22.6263 15.845L19.4991 24.3715H17.0006L13.8147 15.845H17.2522L18.4679 19.4669C18.5685 19.7631 18.6579 20.0565 18.7361 20.3472C18.7641 20.2466 18.806 20.118 18.8619 19.9615C18.8731 19.9392 18.9094 19.833 18.9709 19.6429L20.2285 15.845H22.6263ZM31.3752 24.3715H28.03V19.0057C28.0299 18.5642 27.9615 18.2819 27.8245 18.159C27.6876 18.036 27.5157 17.9745 27.3089 17.9745C26.6997 17.9745 26.3951 18.3993 26.3951 19.2489V24.3715H23.0498V15.845H26.1519V17.0523C26.6102 16.13 27.4291 15.6689 28.6084 15.6689C29.2289 15.6689 29.7529 15.7877 30.1805 16.0252C30.608 16.2628 30.9141 16.5702 31.0985 16.9475C31.283 17.3247 31.3752 17.9801 31.3752 18.9135V24.3715Z" fill="white"/>
</g>
<defs>
<clipPath id="clip0_419_6616">
<rect width="37.3063" height="37.3063" fill="white" transform="translate(0.616455 0.690918)"/>
</clipPath>
</defs>
</svg>
