<svg width="180" height="42" viewBox="0 0 180 42" fill="none" xmlns="http://www.w3.org/2000/svg">
<mask id="mask0_419_6804" style="mask-type:luminance" maskUnits="userSpaceOnUse" x="0" y="0" width="180" height="42">
<path d="M180 0H0V41.5919H180V0Z" fill="white"/>
</mask>
<g mask="url(#mask0_419_6804)">
<path d="M28.4172 2.21958L1.97011 4.34436C1.71831 4.36458 1.70879 4.72998 1.95919 4.7633L30.0433 8.50009C31.6141 8.70911 32.7874 10.0489 32.7874 11.6335V16.0547C32.7874 16.5727 33.2501 16.9681 33.7618 16.8873L45.0727 15.1012C47.2535 14.7569 47.8755 11.9137 46.0378 10.6902L36.4367 4.29818C34.0728 2.72434 31.248 1.99216 28.4172 2.21958Z" fill="url(#paint0_linear_419_6804)"/>
<path d="M25.9485 24.9112L52.5969 22.7839C52.849 22.7639 52.8584 22.3982 52.608 22.3649L24.3283 18.6262C22.7564 18.4184 21.5817 17.0781 21.5817 15.4925V11.0736C21.5817 10.5556 21.1189 10.1602 20.6074 10.241L9.29638 12.0271C7.11566 12.3714 6.49362 15.2146 8.33135 16.4381L17.9353 22.8321C20.2974 24.4048 23.1198 25.137 25.9485 24.9112Z" fill="url(#paint1_linear_419_6804)"/>
<path d="M67.5074 24.7902C67.1978 24.7902 66.9468 24.5392 66.9468 24.2295V2.53893C66.9468 2.26737 67.1413 2.03485 67.4086 1.98704L72.5567 1.06627C72.9004 1.0048 73.2161 1.26903 73.2161 1.61817V1.6588C73.2161 2.14395 73.8031 2.41303 74.2036 2.13922C75.8112 1.04022 77.709 0.490723 79.8972 0.490723C81.7583 0.490723 83.3903 0.902579 84.7938 1.72629C86.2276 2.5195 87.3411 3.63302 88.1344 5.06689C88.9276 6.47025 89.3242 8.11765 89.3242 10.0091V24.2295C89.3242 24.5392 89.0732 24.7902 88.7635 24.7902H83.6155C83.3059 24.7902 83.0549 24.5392 83.0549 24.2295V10.9244C83.0549 9.36847 82.6125 8.14817 81.7278 7.26344C80.8431 6.34822 79.638 5.89059 78.1125 5.89059C77.0448 5.89059 76.099 6.10414 75.2754 6.53125C74.5046 6.9023 73.8543 7.43356 73.3239 8.12504C73.2523 8.21835 73.2161 8.33345 73.2161 8.45104V24.2295C73.2161 24.5392 72.9651 24.7902 72.6554 24.7902H67.5074Z" fill="white"/>
<path d="M105.743 25.2475C103.363 25.2475 101.197 24.6985 99.2445 23.6001C97.3226 22.502 95.7972 21.0222 94.6684 19.1614C93.5396 17.3003 92.9752 15.2105 92.9752 12.892C92.9752 10.5734 93.5092 8.4836 94.5768 6.62262C95.6752 4.76163 97.1547 3.28201 99.0158 2.18374C100.877 1.08546 102.951 0.536316 105.239 0.536316C107.527 0.536316 109.556 1.10071 111.326 2.22951C113.095 3.3583 114.483 4.88366 115.49 6.80566C116.527 8.72765 117.046 10.9089 117.046 13.3496V14.4363C117.046 14.746 116.795 14.997 116.485 14.997H100.128C99.7549 14.997 99.4858 15.356 99.6246 15.7027C99.893 16.3725 100.254 16.9915 100.709 17.5597C101.35 18.3224 102.128 18.9173 103.043 19.3444C103.988 19.7714 104.995 19.985 106.063 19.985C107.131 19.985 108.107 19.8172 108.992 19.4817C109.727 19.2119 110.374 18.8536 110.932 18.4065C111.162 18.2226 111.494 18.2166 111.712 18.4148L114.963 21.3767C115.216 21.6077 115.205 22.0107 114.932 22.2175C113.628 23.2032 112.289 23.9386 110.914 24.4239C109.388 24.973 107.665 25.2475 105.743 25.2475ZM99.4955 9.82441C99.3749 10.1687 99.6437 10.5124 100.008 10.5124H110.167C110.526 10.5124 110.794 10.1777 110.677 9.83766C110.449 9.16939 110.115 8.57057 109.678 8.04122C109.129 7.30903 108.458 6.74464 107.665 6.34805C106.902 5.92094 106.048 5.70738 105.102 5.70738C104.126 5.70738 103.241 5.90569 102.448 6.30228C101.685 6.69889 101.029 7.26327 100.48 7.99547C100.065 8.52649 99.7362 9.13613 99.4955 9.82441Z" fill="white"/>
<path d="M117.662 24.79C117.199 24.79 116.936 24.2609 117.215 23.8916L125.433 13.0024C125.584 12.8018 125.584 12.5249 125.431 12.3249L117.451 1.84851C117.17 1.47944 117.433 0.94812 117.897 0.94812H123.759C123.937 0.94812 124.104 1.03217 124.209 1.17471L128.852 7.43164C129.077 7.73454 129.53 7.73361 129.754 7.42975L134.353 1.17659C134.459 1.03294 134.626 0.94812 134.804 0.94812H140.442C140.905 0.94812 141.168 1.47753 140.889 1.84686L133.039 12.2317C132.887 12.4326 132.888 12.71 133.041 12.9101L141.429 23.8888C141.711 24.2579 141.448 24.79 140.983 24.79H135.078C134.9 24.79 134.733 24.7059 134.627 24.5631L129.617 17.8015C129.393 17.499 128.941 17.499 128.716 17.8015L123.706 24.5631C123.6 24.7059 123.433 24.79 123.256 24.79H117.662Z" fill="white"/>
<path d="M145.043 24.79C144.733 24.79 144.482 24.539 144.482 24.2293V9.8467C144.482 9.58119 144.669 9.35209 144.929 9.29786L150.077 8.22364C150.425 8.15097 150.752 8.41678 150.752 8.77248V24.2293C150.752 24.539 150.501 24.79 150.191 24.79H145.043Z" fill="white"/>
<path d="M167.278 25.2477C164.899 25.2477 162.748 24.6986 160.826 23.6003C158.904 22.5022 157.378 21.0224 156.25 19.1616C155.121 17.3005 154.557 15.2107 154.557 12.8921C154.557 10.5735 155.106 8.48377 156.204 6.62279C157.333 4.7313 158.858 3.23643 160.78 2.13814C162.733 1.03987 164.899 0.490723 167.278 0.490723C169.658 0.490723 171.809 1.03987 173.731 2.13814C175.683 3.23643 177.209 4.7313 178.307 6.62279C179.436 8.48377 180 10.5735 180 12.8921C180 15.2107 179.436 17.3005 178.307 19.1616C177.209 21.0224 175.698 22.5022 173.776 23.6003C171.855 24.6986 169.688 25.2477 167.278 25.2477ZM167.278 19.8022C168.529 19.8022 169.643 19.497 170.619 18.8868C171.626 18.2768 172.419 17.4531 172.998 16.4158C173.609 15.348 173.914 14.1735 173.914 12.8921C173.914 11.5803 173.609 10.4057 172.998 9.36848C172.419 8.33121 171.626 7.50751 170.619 6.89734C169.643 6.25668 168.529 5.93636 167.278 5.93636C166.058 5.93636 164.944 6.25668 163.938 6.89734C162.931 7.50751 162.138 8.33121 161.558 9.36848C160.978 10.4057 160.689 11.5803 160.689 12.8921C160.689 14.1735 160.978 15.348 161.558 16.4158C162.138 17.4531 162.931 18.2768 163.938 18.8868C164.944 19.497 166.058 19.8022 167.278 19.8022Z" fill="white"/>
<path d="M145.102 7.22079C145.063 7.22933 145.023 7.23469 144.983 7.23043C144.702 7.20038 144.482 6.96227 144.482 6.67297V1.63472C144.482 1.36922 144.669 1.14011 144.929 1.08588L150.077 0.0116599C150.425 -0.0609992 150.752 0.20479 150.752 0.560496V5.55165C150.752 5.84095 150.533 6.07906 150.251 6.10911C150.211 6.11337 150.171 6.11662 150.132 6.12517L145.102 7.22079Z" fill="white"/>
<path d="M67.4047 38.872V32.251H69.1457V32.7593C69.6202 32.3356 70.1962 32.1239 70.874 32.1239C71.3061 32.1239 71.6916 32.2129 72.0305 32.3908C72.3693 32.5603 72.6489 32.8017 72.8692 33.1151C73.1404 32.7931 73.4581 32.5476 73.8223 32.3781C74.1952 32.2086 74.606 32.1239 75.055 32.1239C75.555 32.1239 75.9911 32.2383 76.364 32.467C76.7452 32.6874 77.0418 32.9965 77.2536 33.3947C77.4739 33.7844 77.584 34.2419 77.584 34.7672V38.872H75.8557V35.0214C75.8557 34.5893 75.7413 34.2505 75.5125 34.0047C75.2838 33.7506 74.9788 33.6235 74.5975 33.6235C74.335 33.6235 74.0935 33.6786 73.8732 33.7887C73.6614 33.8988 73.4792 34.064 73.3267 34.2843C73.3351 34.3606 73.3437 34.4368 73.3521 34.5131C73.3605 34.5893 73.3648 34.674 73.3648 34.7672V38.872H71.6238V35.0214C71.6238 34.5893 71.5094 34.2505 71.2807 34.0047C71.0603 33.7506 70.7596 33.6235 70.3784 33.6235C70.1158 33.6235 69.8785 33.6743 69.6667 33.776C69.4634 33.8776 69.2898 34.0301 69.1457 34.2335V38.872H67.4047Z" fill="#F19E38"/>
<path d="M81.5394 38.9864C81.0649 38.9864 80.6456 38.9017 80.2813 38.7322C79.9171 38.5543 79.6332 38.3128 79.4299 38.0078C79.2265 37.7028 79.1249 37.3513 79.1249 36.953C79.1249 36.3176 79.362 35.8263 79.8365 35.4789C80.3195 35.123 80.9803 34.9451 81.819 34.9451C82.3952 34.9451 82.9374 35.0341 83.4457 35.212V34.7291C83.4457 34.3478 83.327 34.0599 83.0899 33.8649C82.8527 33.67 82.5053 33.5726 82.0478 33.5726C81.7682 33.5726 81.4675 33.6192 81.1455 33.7124C80.8235 33.7971 80.4508 33.9328 80.0272 34.1191L79.3917 32.8356C79.9171 32.5984 80.4168 32.4205 80.8913 32.3018C81.3742 32.1831 81.8572 32.1239 82.3401 32.1239C83.2296 32.1239 83.9202 32.3399 84.4115 32.772C84.9114 33.1957 85.1613 33.7971 85.1613 34.5766V38.872H83.4457V38.4018C83.1745 38.6051 82.8822 38.7533 82.5688 38.8466C82.2554 38.9398 81.9123 38.9864 81.5394 38.9864ZM80.777 36.9149C80.777 37.1691 80.887 37.3724 81.1074 37.5249C81.3277 37.669 81.62 37.741 81.9842 37.741C82.2722 37.741 82.5391 37.7071 82.7849 37.6393C83.0306 37.563 83.2508 37.453 83.4457 37.3089V36.343C83.2339 36.2584 83.0136 36.1948 82.7849 36.1524C82.5561 36.11 82.3104 36.0889 82.0478 36.0889C81.6495 36.0889 81.3361 36.1651 81.1074 36.3176C80.887 36.4617 80.777 36.6608 80.777 36.9149Z" fill="#F19E38"/>
<path d="M86.9874 38.872V32.251H88.7285V32.7974C89.2282 32.3484 89.8468 32.1239 90.5839 32.1239C91.1006 32.1239 91.5538 32.2383 91.9437 32.467C92.3417 32.6874 92.651 32.9965 92.8714 33.3947C93.0915 33.7844 93.2018 34.2419 93.2018 34.7672V38.872H91.4607V35.0214C91.4607 34.5893 91.3378 34.2505 91.0922 34.0047C90.8464 33.7506 90.5117 33.6235 90.0882 33.6235C89.7917 33.6235 89.5291 33.6827 89.3003 33.8014C89.0716 33.9115 88.881 34.0726 88.7285 34.2843V38.872H86.9874Z" fill="#F19E38"/>
<path d="M97.1384 38.9864C96.6641 38.9864 96.2448 38.9017 95.8803 38.7322C95.5161 38.5543 95.2322 38.3128 95.0289 38.0078C94.8255 37.7028 94.7239 37.3513 94.7239 36.953C94.7239 36.3176 94.9612 35.8263 95.4355 35.4789C95.9185 35.123 96.5793 34.9451 97.418 34.9451C97.9942 34.9451 98.5364 35.0341 99.0447 35.212V34.7291C99.0447 34.3478 98.9262 34.0599 98.6889 33.8649C98.4517 33.67 98.1043 33.5726 97.6468 33.5726C97.3672 33.5726 97.0665 33.6192 96.7445 33.7124C96.4227 33.7971 96.0498 33.9328 95.6262 34.1191L94.9908 32.8356C95.5161 32.5984 96.016 32.4205 96.4903 32.3018C96.9732 32.1831 97.4562 32.1239 97.9391 32.1239C98.8287 32.1239 99.5192 32.3399 100.011 32.772C100.51 33.1957 100.76 33.7971 100.76 34.5766V38.872H99.0447V38.4018C98.7737 38.6051 98.4814 38.7533 98.1678 38.8466C97.8544 38.9398 97.5113 38.9864 97.1384 38.9864ZM96.376 36.9149C96.376 37.1691 96.4862 37.3724 96.7064 37.5249C96.9267 37.669 97.219 37.741 97.5832 37.741C97.8714 37.741 98.1383 37.7071 98.3839 37.6393C98.6296 37.563 98.8499 37.453 99.0447 37.3089V36.343C98.8329 36.2584 98.6126 36.1948 98.3839 36.1524C98.1551 36.11 97.9095 36.0889 97.6468 36.0889C97.2487 36.0889 96.9351 36.1651 96.7064 36.3176C96.4862 36.4617 96.376 36.6608 96.376 36.9149Z" fill="#F19E38"/>
<path d="M105.916 41.5915C105.407 41.5915 104.916 41.5364 104.442 41.4263C103.967 41.3247 103.539 41.1765 103.158 40.9815L103.768 39.6345C104.132 39.8124 104.488 39.9438 104.836 40.0284C105.183 40.1131 105.53 40.1555 105.878 40.1555C106.394 40.1555 106.784 40.0454 107.047 39.8251C107.318 39.6047 107.454 39.2743 107.454 38.8338V38.3128C106.911 38.7111 106.305 38.9101 105.636 38.9101C105.009 38.9101 104.442 38.7619 103.933 38.4653C103.433 38.1603 103.031 37.7493 102.726 37.2326C102.429 36.7159 102.281 36.144 102.281 35.517C102.281 34.89 102.429 34.3224 102.726 33.8141C103.031 33.3057 103.442 32.9034 103.959 32.6068C104.475 32.3018 105.052 32.1493 105.687 32.1493C106.009 32.1493 106.322 32.1958 106.627 32.2891C106.932 32.3823 107.216 32.5135 107.479 32.683V32.251H109.195V38.8593C109.195 39.7318 108.911 40.4054 108.343 40.8799C107.784 41.3544 106.975 41.5915 105.916 41.5915ZM105.903 37.4359C106.225 37.4359 106.517 37.3851 106.78 37.2834C107.043 37.1734 107.267 37.0209 107.454 36.8259V34.2334C107.267 34.0471 107.038 33.903 106.767 33.8014C106.505 33.6913 106.221 33.6362 105.916 33.6362C105.552 33.6362 105.225 33.7208 104.937 33.8903C104.649 34.0512 104.421 34.2759 104.251 34.5639C104.082 34.8434 103.997 35.1612 103.997 35.517C103.997 35.8812 104.077 36.2075 104.238 36.4955C104.408 36.7835 104.637 37.0123 104.925 37.1818C105.221 37.3513 105.547 37.4359 105.903 37.4359Z" fill="#F19E38"/>
<path d="M114.315 38.9991C113.654 38.9991 113.053 38.8466 112.51 38.5416C111.977 38.2366 111.553 37.8256 111.24 37.3089C110.926 36.7921 110.769 36.2117 110.769 35.5678C110.769 34.924 110.918 34.3435 111.214 33.8268C111.519 33.3101 111.93 32.8991 112.447 32.5941C112.964 32.2891 113.54 32.1366 114.175 32.1366C114.811 32.1366 115.374 32.2934 115.865 32.6068C116.357 32.9202 116.742 33.3439 117.022 33.8776C117.31 34.4114 117.454 35.0171 117.454 35.6949V36.1524H112.549C112.625 36.415 112.748 36.6523 112.917 36.8641C113.095 37.0758 113.311 37.241 113.565 37.3597C113.828 37.4784 114.108 37.5376 114.404 37.5376C114.701 37.5376 114.972 37.4911 115.217 37.3978C115.471 37.3046 115.688 37.1734 115.865 37.0039L117.009 38.0459C116.603 38.3764 116.183 38.6178 115.751 38.7703C115.328 38.9228 114.849 38.9991 114.315 38.9991ZM112.523 34.907H115.738C115.679 34.6444 115.569 34.4157 115.408 34.2208C115.255 34.0174 115.069 33.8606 114.849 33.7505C114.637 33.6319 114.4 33.5726 114.137 33.5726C113.866 33.5726 113.62 33.6278 113.4 33.7378C113.188 33.8479 113.006 34.0047 112.854 34.208C112.701 34.403 112.591 34.6358 112.523 34.907Z" fill="#F19E38"/>
<path d="M119.029 38.872V32.251H120.77V32.7593C121.245 32.3356 121.821 32.1239 122.499 32.1239C122.931 32.1239 123.316 32.2129 123.655 32.3908C123.994 32.5603 124.273 32.8017 124.494 33.1151C124.765 32.7931 125.083 32.5476 125.447 32.3781C125.82 32.2086 126.23 32.1239 126.68 32.1239C127.179 32.1239 127.616 32.2383 127.988 32.467C128.37 32.6874 128.666 32.9965 128.878 33.3947C129.098 33.7844 129.208 34.2419 129.208 34.7672V38.872H127.48V35.0214C127.48 34.5893 127.366 34.2505 127.137 34.0047C126.908 33.7506 126.603 33.6235 126.222 33.6235C125.959 33.6235 125.718 33.6786 125.498 33.7887C125.286 33.8988 125.104 34.064 124.951 34.2843C124.96 34.3606 124.968 34.4368 124.977 34.5131C124.985 34.5893 124.989 34.674 124.989 34.7672V38.872H123.248V35.0214C123.248 34.5893 123.134 34.2505 122.905 34.0047C122.685 33.7506 122.384 33.6235 122.003 33.6235C121.74 33.6235 121.503 33.6743 121.291 33.776C121.088 33.8776 120.914 34.0301 120.77 34.2335V38.872H119.029Z" fill="#F19E38"/>
<path d="M134.295 38.9991C133.634 38.9991 133.033 38.8466 132.49 38.5416C131.957 38.2366 131.533 37.8256 131.22 37.3089C130.906 36.7921 130.749 36.2117 130.749 35.5678C130.749 34.924 130.898 34.3435 131.194 33.8268C131.499 33.3101 131.91 32.8991 132.427 32.5941C132.944 32.2891 133.52 32.1366 134.155 32.1366C134.791 32.1366 135.354 32.2934 135.845 32.6068C136.337 32.9202 136.722 33.3439 137.002 33.8776C137.29 34.4114 137.434 35.0171 137.434 35.6949V36.1524H132.529C132.605 36.415 132.728 36.6523 132.897 36.8641C133.075 37.0758 133.291 37.241 133.545 37.3597C133.808 37.4784 134.087 37.5376 134.384 37.5376C134.681 37.5376 134.952 37.4911 135.197 37.3978C135.451 37.3046 135.667 37.1734 135.845 37.0039L136.989 38.0459C136.582 38.3764 136.163 38.6178 135.731 38.7703C135.307 38.9228 134.829 38.9991 134.295 38.9991ZM132.503 34.907H135.718C135.659 34.6444 135.549 34.4157 135.388 34.2208C135.235 34.0174 135.049 33.8606 134.829 33.7505C134.617 33.6319 134.38 33.5726 134.117 33.5726C133.846 33.5726 133.6 33.6278 133.38 33.7378C133.168 33.8479 132.986 34.0047 132.834 34.208C132.681 34.403 132.571 34.6358 132.503 34.907Z" fill="#F19E38"/>
<path d="M139.009 38.872V32.251H140.75V32.7974C141.249 32.3484 141.868 32.1239 142.605 32.1239C143.122 32.1239 143.575 32.2383 143.965 32.467C144.363 32.6874 144.672 32.9965 144.893 33.3947C145.113 33.7844 145.223 34.2419 145.223 34.7672V38.872H143.482V35.0214C143.482 34.5893 143.359 34.2505 143.113 34.0047C142.868 33.7506 142.533 33.6235 142.109 33.6235C141.813 33.6235 141.55 33.6827 141.322 33.8014C141.093 33.9115 140.902 34.0726 140.75 34.2843V38.872H139.009Z" fill="#F19E38"/>
<path d="M150.003 38.9736C149.266 38.9736 148.706 38.8084 148.325 38.478C147.953 38.1391 147.766 37.6476 147.766 37.0038V33.6996H146.406V32.2509H147.766V30.5607L149.507 30.1667V32.2509H151.401V33.6996H149.507V36.648C149.507 36.953 149.575 37.1733 149.71 37.3088C149.846 37.4359 150.083 37.4994 150.422 37.4994C150.592 37.4994 150.744 37.491 150.88 37.474C151.024 37.4486 151.18 37.4062 151.35 37.3469V38.7829C151.172 38.8422 150.952 38.8889 150.689 38.9227C150.426 38.9566 150.198 38.9736 150.003 38.9736Z" fill="#F19E38"/>
</g>
<defs>
<linearGradient id="paint0_linear_419_6804" x1="16.3878" y1="8.09208" x2="38.6951" y2="13.9439" gradientUnits="userSpaceOnUse">
<stop stop-color="#F19E38"/>
<stop offset="1" stop-color="#FFD097"/>
</linearGradient>
<linearGradient id="paint1_linear_419_6804" x1="38.1247" y1="19.0363" x2="15.7375" y2="13.1392" gradientUnits="userSpaceOnUse">
<stop stop-color="#F19E38"/>
<stop offset="1" stop-color="#FFD097"/>
</linearGradient>
</defs>
</svg>
