<svg width="235" height="55" viewBox="0 0 235 55" fill="none" xmlns="http://www.w3.org/2000/svg">
<mask id="mask0_419_6528" style="mask-type:luminance" maskUnits="userSpaceOnUse" x="0" y="0" width="235" height="55">
<path d="M235 0H0V54.3005H235V0Z" fill="white"/>
</mask>
<g mask="url(#mask0_419_6528)">
<path d="M37.1003 2.89825L2.57207 5.67227C2.24333 5.69867 2.2309 6.17572 2.55782 6.21923L39.2232 11.0978C41.274 11.3707 42.8057 13.1198 42.8057 15.1886V20.9608C42.8057 21.637 43.4099 22.1533 44.0779 22.0478L58.8449 19.716C61.6921 19.2664 62.5041 15.5545 60.1049 13.9572L47.5701 5.61198C44.4839 3.55724 40.796 2.60134 37.1003 2.89825Z" fill="url(#paint0_linear_419_6528)"/>
<path d="M33.8771 32.5235L68.6682 29.7462C68.9974 29.7201 69.0096 29.2426 68.6826 29.1991L31.762 24.318C29.7098 24.0467 28.1761 22.2969 28.1761 20.2268V14.4577C28.1761 13.7814 27.5719 13.2652 26.9041 13.3707L12.1369 15.7025C9.28987 16.1521 8.47777 19.8639 10.877 21.4613L23.4155 29.8091C26.4994 31.8623 30.1841 32.8182 33.8771 32.5235Z" fill="url(#paint1_linear_419_6528)"/>
<path d="M88.1347 32.3654C87.7304 32.3654 87.4027 32.0378 87.4027 31.6335V3.31517C87.4027 2.96062 87.6567 2.65705 88.0056 2.59464L94.7268 1.39253C95.1755 1.31227 95.5876 1.65724 95.5876 2.11306V2.1661C95.5876 2.79949 96.354 3.15079 96.8769 2.79332C98.9757 1.35852 101.453 0.641113 104.31 0.641113C106.74 0.641113 108.871 1.17881 110.703 2.25422C112.575 3.28979 114.029 4.74356 115.064 6.61555C116.1 8.44772 116.618 10.5985 116.618 13.0679V31.6335C116.618 32.0378 116.29 32.3654 115.886 32.3654H109.165C108.76 32.3654 108.433 32.0378 108.433 31.6335V14.2628C108.433 12.2315 107.855 10.6383 106.7 9.48327C105.545 8.2884 103.972 7.69094 101.98 7.69094C100.586 7.69094 99.3514 7.96975 98.2761 8.52736C97.2699 9.01178 96.4208 9.70537 95.7284 10.6081C95.6349 10.73 95.5876 10.8802 95.5876 11.0338V31.6335C95.5876 32.0378 95.2599 32.3654 94.8556 32.3654H88.1347Z" fill="#161616"/>
<path d="M138.053 32.9626C134.946 32.9626 132.118 32.2457 129.569 30.8118C127.06 29.3781 125.069 27.4462 123.595 25.0168C122.121 22.5871 121.384 19.8587 121.384 16.8317C121.384 13.8046 122.081 11.0763 123.475 8.64669C124.909 6.21706 126.841 4.28534 129.271 2.85148C131.7 1.41762 134.408 0.700684 137.396 0.700684C140.383 0.700684 143.032 1.43753 145.342 2.91124C147.652 4.38494 149.464 6.37639 150.779 8.88566C152.133 11.3949 152.81 14.2427 152.81 17.4291V18.8479C152.81 19.2522 152.482 19.5799 152.078 19.5799H130.723C130.236 19.5799 129.884 20.0486 130.065 20.5012C130.416 21.3757 130.888 22.1838 131.481 22.9256C132.317 23.9213 133.333 24.6981 134.528 25.2556C135.763 25.8131 137.077 26.092 138.471 26.092C139.865 26.092 141.14 25.8729 142.295 25.435C143.255 25.0826 144.1 24.6149 144.828 24.0312C145.128 23.7911 145.562 23.7833 145.846 24.042L150.09 27.909C150.421 28.2106 150.406 28.7366 150.049 29.0067C148.348 30.2935 146.599 31.2536 144.804 31.8873C142.812 32.6041 140.562 32.9626 138.053 32.9626ZM129.897 12.8268C129.739 13.2763 130.09 13.725 130.566 13.725H143.829C144.298 13.725 144.648 13.2881 144.496 12.8441C144.197 11.9716 143.762 11.1899 143.191 10.4987C142.474 9.54284 141.598 8.80599 140.562 8.28822C139.566 7.73061 138.451 7.4518 137.217 7.4518C135.942 7.4518 134.787 7.7107 133.751 8.22847C132.756 8.74626 131.899 9.48309 131.182 10.439C130.64 11.1323 130.211 11.9282 129.897 12.8268Z" fill="#161616"/>
<path d="M153.615 32.3652C153.01 32.3652 152.666 31.6744 153.03 31.1923L163.76 16.9758C163.957 16.7139 163.957 16.3524 163.758 16.0913L153.339 2.41379C152.972 1.93196 153.316 1.23828 153.921 1.23828H161.575C161.807 1.23828 162.024 1.34801 162.162 1.53411L168.223 9.70287C168.517 10.0983 169.109 10.0971 169.401 9.70041L175.405 1.53657C175.543 1.34902 175.762 1.23828 175.995 1.23828H183.354C183.959 1.23828 184.303 1.92945 183.938 2.41164L173.69 15.9696C173.491 16.2319 173.492 16.5941 173.692 16.8554L184.643 31.1886C185.011 31.6705 184.668 32.3652 184.062 32.3652H176.352C176.12 32.3652 175.902 32.2554 175.763 32.069L169.223 23.2413C168.93 22.8463 168.339 22.8463 168.046 23.2413L161.505 32.069C161.367 32.2554 161.149 32.3652 160.917 32.3652H153.615Z" fill="#161616"/>
<path d="M189.362 32.3651C188.958 32.3651 188.63 32.0375 188.63 31.6332V12.8559C188.63 12.5093 188.873 12.2102 189.212 12.1393L195.933 10.7369C196.388 10.642 196.815 10.9891 196.815 11.4534V31.6332C196.815 32.0375 196.487 32.3651 196.083 32.3651H189.362Z" fill="#161616"/>
<path d="M218.391 32.9627C215.284 32.9627 212.477 32.2459 209.967 30.8119C207.458 29.3783 205.466 27.4463 203.993 25.0169C202.519 22.5872 201.782 19.8589 201.782 16.8318C201.782 13.8048 202.499 11.0765 203.933 8.64687C205.407 6.17742 207.398 4.22579 209.907 2.7919C212.457 1.35805 215.284 0.641113 218.391 0.641113C221.498 0.641113 224.306 1.35805 226.815 2.7919C229.364 4.22579 231.356 6.17742 232.79 8.64687C234.263 11.0765 235 13.8048 235 16.8318C235 19.8589 234.263 22.5872 232.79 25.0169C231.356 27.4463 229.384 29.3783 226.875 30.8119C224.366 32.2459 221.538 32.9627 218.391 32.9627ZM218.391 25.8533C220.024 25.8533 221.478 25.4549 222.752 24.6583C224.067 23.8618 225.103 22.7864 225.859 21.4322C226.656 20.0381 227.054 18.5047 227.054 16.8318C227.054 15.1191 226.656 13.5857 225.859 12.2315C225.103 10.8773 224.067 9.80192 222.752 9.00531C221.478 8.16889 220.024 7.75069 218.391 7.75069C216.798 7.75069 215.344 8.16889 214.03 9.00531C212.715 9.80192 211.68 10.8773 210.923 12.2315C210.166 13.5857 209.788 15.1191 209.788 16.8318C209.788 18.5047 210.166 20.0381 210.923 21.4322C211.68 22.7864 212.715 23.8618 214.03 24.6583C215.344 25.4549 216.798 25.8533 218.391 25.8533Z" fill="#161616"/>
<path d="M189.439 9.42762C189.387 9.43877 189.335 9.44577 189.283 9.44021C188.916 9.40097 188.63 9.0901 188.63 8.71241V2.1347C188.63 1.78807 188.873 1.48896 189.212 1.41816L195.933 0.0157008C196.388 -0.0791597 196.815 0.267843 196.815 0.732237V7.24847C196.815 7.62616 196.529 7.93703 196.161 7.97626C196.109 7.98183 196.057 7.98607 196.006 7.99722L189.439 9.42762Z" fill="#161616"/>
<path d="M88.0005 50.7499V42.1059H90.2735V42.7695C90.893 42.2164 91.645 41.9399 92.5299 41.9399C93.094 41.9399 93.5974 42.0561 94.0397 42.2884C94.4821 42.5097 94.8471 42.8249 95.1348 43.2341C95.4888 42.8137 95.9036 42.4931 96.3791 42.2718C96.8659 42.0505 97.4022 41.9399 97.9885 41.9399C98.6412 41.9399 99.2106 42.0893 99.6974 42.3879C100.195 42.6756 100.582 43.0791 100.859 43.5991C101.146 44.1078 101.29 44.7051 101.29 45.3909V50.7499H99.0337V45.7228C99.0337 45.1587 98.8844 44.7163 98.5858 44.3955C98.2871 44.0636 97.8889 43.8977 97.3912 43.8977C97.0484 43.8977 96.7331 43.9697 96.4455 44.1134C96.169 44.2571 95.9311 44.4728 95.7321 44.7605C95.743 44.86 95.7543 44.9596 95.7652 45.0591C95.7762 45.1587 95.7818 45.2692 95.7818 45.3909V50.7499H93.5088V45.7228C93.5088 45.1587 93.3595 44.7163 93.0608 44.3955C92.7732 44.0636 92.3806 43.8977 91.8829 43.8977C91.5401 43.8977 91.2302 43.9641 90.9537 44.0968C90.6883 44.2295 90.4616 44.4286 90.2735 44.6941V50.7499H88.0005Z" fill="#F19E38"/>
<path d="M106.454 50.8993C105.835 50.8993 105.287 50.7887 104.812 50.5674C104.336 50.3352 103.966 50.0199 103.7 49.6217C103.435 49.2235 103.302 48.7646 103.302 48.2446C103.302 47.4151 103.611 46.7736 104.231 46.3201C104.861 45.8555 105.724 45.6232 106.819 45.6232C107.571 45.6232 108.279 45.7394 108.943 45.9716V45.3412C108.943 44.8434 108.788 44.4674 108.478 44.213C108.169 43.9585 107.715 43.8314 107.118 43.8314C106.753 43.8314 106.36 43.8921 105.94 44.0139C105.52 44.1244 105.033 44.3015 104.48 44.5448L103.65 42.8691C104.336 42.5594 104.989 42.3272 105.608 42.1722C106.239 42.0173 106.869 41.9399 107.499 41.9399C108.661 41.9399 109.562 42.222 110.204 42.7861C110.857 43.3392 111.183 44.1244 111.183 45.1421V50.7499H108.943V50.1361C108.589 50.4015 108.207 50.595 107.798 50.7168C107.389 50.8385 106.941 50.8993 106.454 50.8993ZM105.459 48.1949C105.459 48.5267 105.602 48.7922 105.89 48.9913C106.178 49.1794 106.559 49.2733 107.035 49.2733C107.411 49.2733 107.759 49.2292 108.08 49.1406C108.401 49.041 108.688 48.8973 108.943 48.7092V47.4483C108.666 47.3377 108.379 47.2548 108.08 47.1994C107.782 47.144 107.461 47.1164 107.118 47.1164C106.598 47.1164 106.189 47.216 105.89 47.4151C105.602 47.6032 105.459 47.863 105.459 48.1949Z" fill="#F19E38"/>
<path d="M113.567 50.7499V42.1059H115.84V42.8193C116.492 42.233 117.3 41.9399 118.262 41.9399C118.937 41.9399 119.529 42.0893 120.038 42.3879C120.557 42.6756 120.961 43.0791 121.249 43.5991C121.536 44.1078 121.68 44.7051 121.68 45.3909V50.7499H119.407V45.7228C119.407 45.1587 119.247 44.7163 118.926 44.3955C118.605 44.0636 118.168 43.8977 117.615 43.8977C117.228 43.8977 116.885 43.9751 116.587 44.13C116.288 44.2737 116.039 44.484 115.84 44.7605V50.7499H113.567Z" fill="#F19E38"/>
<path d="M126.82 50.8993C126.2 50.8993 125.653 50.7887 125.177 50.5674C124.702 50.3352 124.331 50.0199 124.065 49.6217C123.8 49.2235 123.667 48.7646 123.667 48.2446C123.667 47.4151 123.977 46.7736 124.596 46.3201C125.227 45.8555 126.09 45.6232 127.185 45.6232C127.937 45.6232 128.645 45.7394 129.308 45.9716V45.3412C129.308 44.8434 129.154 44.4674 128.844 44.213C128.534 43.9585 128.081 43.8314 127.483 43.8314C127.118 43.8314 126.726 43.8921 126.305 44.0139C125.885 44.1244 125.398 44.3015 124.845 44.5448L124.016 42.8691C124.702 42.5594 125.354 42.3272 125.973 42.1722C126.604 42.0173 127.234 41.9399 127.865 41.9399C129.026 41.9399 129.928 42.222 130.569 42.7861C131.222 43.3392 131.548 44.1244 131.548 45.1421V50.7499H129.308V50.1361C128.955 50.4015 128.573 50.595 128.163 50.7168C127.754 50.8385 127.306 50.8993 126.82 50.8993ZM125.824 48.1949C125.824 48.5267 125.968 48.7922 126.255 48.9913C126.543 49.1794 126.925 49.2733 127.4 49.2733C127.777 49.2733 128.125 49.2292 128.446 49.1406C128.766 49.041 129.054 48.8973 129.308 48.7092V47.4483C129.032 47.3377 128.744 47.2548 128.446 47.1994C128.147 47.144 127.826 47.1164 127.483 47.1164C126.964 47.1164 126.554 47.216 126.255 47.4151C125.968 47.6032 125.824 47.863 125.824 48.1949Z" fill="#F19E38"/>
<path d="M138.279 54.3005C137.615 54.3005 136.974 54.2285 136.354 54.0848C135.735 53.9521 135.176 53.7586 134.679 53.5041L135.475 51.7454C135.951 51.9777 136.415 52.1492 136.869 52.2598C137.322 52.3703 137.776 52.4257 138.229 52.4257C138.904 52.4257 139.413 52.282 139.756 51.9943C140.11 51.7067 140.286 51.2753 140.286 50.7002V50.0199C139.579 50.5399 138.788 50.7997 137.914 50.7997C137.095 50.7997 136.354 50.6063 135.691 50.219C135.038 49.8208 134.513 49.2843 134.115 48.6097C133.727 47.935 133.534 47.1884 133.534 46.3699C133.534 45.5513 133.727 44.8103 134.115 44.1466C134.513 43.483 135.049 42.9576 135.724 42.5704C136.399 42.1722 137.151 41.9731 137.98 41.9731C138.401 41.9731 138.81 42.0339 139.208 42.1556C139.606 42.2774 139.977 42.4487 140.32 42.67V42.1059H142.56V50.7334C142.56 51.8726 142.189 52.7519 141.448 53.3714C140.718 53.9909 139.662 54.3005 138.279 54.3005ZM138.262 48.8751C138.683 48.8751 139.064 48.8088 139.407 48.676C139.75 48.5323 140.043 48.3332 140.286 48.0788V44.6941C140.043 44.4509 139.745 44.2627 139.391 44.13C139.048 43.9863 138.677 43.9143 138.279 43.9143C137.803 43.9143 137.377 44.0249 137.001 44.2462C136.625 44.4562 136.327 44.7495 136.105 45.1255C135.884 45.4905 135.774 45.9053 135.774 46.3699C135.774 46.8454 135.879 47.2714 136.089 47.6474C136.31 48.0234 136.609 48.322 136.985 48.5433C137.372 48.7646 137.798 48.8751 138.262 48.8751Z" fill="#F19E38"/>
<path d="M149.245 50.9159C148.382 50.9159 147.597 50.7168 146.889 50.3186C146.192 49.9204 145.639 49.3839 145.23 48.7092C144.82 48.0346 144.616 47.2768 144.616 46.4362C144.616 45.5957 144.809 44.8378 145.196 44.1632C145.595 43.4886 146.131 42.952 146.806 42.5538C147.481 42.1556 148.233 41.9565 149.062 41.9565C149.892 41.9565 150.627 42.1612 151.269 42.5704C151.911 42.9796 152.414 43.5327 152.779 44.2296C153.155 44.9264 153.343 45.7172 153.343 46.6021V47.1994H146.939C147.038 47.5422 147.199 47.8521 147.42 48.1285C147.652 48.405 147.934 48.6206 148.266 48.7756C148.609 48.9305 148.974 49.0079 149.361 49.0079C149.748 49.0079 150.102 48.9471 150.423 48.8254C150.755 48.7036 151.037 48.5323 151.269 48.311L152.762 49.6715C152.231 50.1029 151.684 50.4181 151.12 50.6172C150.567 50.8163 149.942 50.9159 149.245 50.9159ZM146.905 45.5735H151.103C151.026 45.2306 150.882 44.932 150.672 44.6775C150.472 44.4121 150.229 44.2074 149.942 44.0636C149.665 43.9087 149.355 43.8314 149.012 43.8314C148.659 43.8314 148.338 43.9033 148.05 44.0471C147.774 44.1908 147.536 44.3955 147.337 44.6609C147.138 44.9154 146.994 45.2194 146.905 45.5735Z" fill="#F19E38"/>
<path d="M155.399 50.7499V42.1059H157.672V42.7695C158.292 42.2164 159.044 41.9399 159.929 41.9399C160.493 41.9399 160.996 42.0561 161.438 42.2884C161.881 42.5097 162.246 42.8249 162.533 43.2341C162.887 42.8137 163.302 42.4931 163.778 42.2718C164.265 42.0505 164.801 41.9399 165.387 41.9399C166.04 41.9399 166.609 42.0893 167.096 42.3879C167.594 42.6756 167.981 43.0791 168.257 43.5991C168.545 44.1078 168.689 44.7051 168.689 45.3909V50.7499H166.432V45.7228C166.432 45.1587 166.283 44.7163 165.984 44.3955C165.686 44.0636 165.288 43.8977 164.79 43.8977C164.447 43.8977 164.132 43.9697 163.844 44.1134C163.568 44.2571 163.33 44.4728 163.131 44.7605C163.142 44.86 163.153 44.9596 163.164 45.0591C163.175 45.1587 163.181 45.2692 163.181 45.3909V50.7499H160.907V45.7228C160.907 45.1587 160.758 44.7163 160.46 44.3955C160.172 44.0636 159.779 43.8977 159.282 43.8977C158.939 43.8977 158.629 43.9641 158.352 44.0968C158.087 44.2295 157.86 44.4286 157.672 44.6941V50.7499H155.399Z" fill="#F19E38"/>
<path d="M175.33 50.9159C174.467 50.9159 173.681 50.7168 172.974 50.3186C172.277 49.9204 171.724 49.3839 171.314 48.7092C170.905 48.0346 170.701 47.2768 170.701 46.4362C170.701 45.5957 170.894 44.8378 171.281 44.1632C171.679 43.4886 172.216 42.952 172.891 42.5538C173.565 42.1556 174.317 41.9565 175.147 41.9565C175.977 41.9565 176.712 42.1612 177.354 42.5704C177.995 42.9796 178.498 43.5327 178.864 44.2296C179.239 44.9264 179.428 45.7172 179.428 46.6021V47.1994H173.023C173.123 47.5422 173.283 47.8521 173.504 48.1285C173.737 48.405 174.019 48.6206 174.351 48.7756C174.693 48.9305 175.058 49.0079 175.446 49.0079C175.833 49.0079 176.187 48.9471 176.508 48.8254C176.839 48.7036 177.121 48.5323 177.354 48.311L178.847 49.6715C178.316 50.1029 177.768 50.4181 177.204 50.6172C176.651 50.8163 176.026 50.9159 175.33 50.9159ZM172.99 45.5735H177.188C177.11 45.2306 176.966 44.932 176.756 44.6775C176.557 44.4121 176.314 44.2074 176.026 44.0636C175.75 43.9087 175.44 43.8314 175.097 43.8314C174.743 43.8314 174.423 43.9033 174.135 44.0471C173.859 44.1908 173.621 44.3955 173.422 44.6609C173.222 44.9154 173.079 45.2194 172.99 45.5735Z" fill="#F19E38"/>
<path d="M181.484 50.7499V42.1059H183.757V42.8193C184.409 42.233 185.217 41.9399 186.179 41.9399C186.854 41.9399 187.446 42.0893 187.954 42.3879C188.474 42.6756 188.878 43.0791 189.165 43.5991C189.453 44.1078 189.597 44.7051 189.597 45.3909V50.7499H187.324V45.7228C187.324 45.1587 187.163 44.7163 186.843 44.3955C186.522 44.0636 186.085 43.8977 185.532 43.8977C185.145 43.8977 184.802 43.9751 184.503 44.13C184.205 44.2737 183.956 44.484 183.757 44.7605V50.7499H181.484Z" fill="#F19E38"/>
<path d="M195.837 50.8826C194.875 50.8826 194.145 50.6669 193.647 50.2355C193.16 49.7931 192.917 49.1515 192.917 48.3109V43.9972H191.142V42.1057H192.917V39.8991L195.19 39.3848V42.1057H197.662V43.9972H195.19V47.8464C195.19 48.2445 195.278 48.5322 195.455 48.7091C195.632 48.875 195.942 48.958 196.384 48.958C196.606 48.958 196.805 48.947 196.982 48.9248C197.17 48.8916 197.375 48.8362 197.596 48.7589V50.6337C197.363 50.711 197.076 50.772 196.733 50.8162C196.39 50.8604 196.091 50.8826 195.837 50.8826Z" fill="#F19E38"/>
</g>
<defs>
<linearGradient id="paint0_linear_419_6528" x1="21.3952" y1="10.5651" x2="50.5185" y2="18.2051" gradientUnits="userSpaceOnUse">
<stop stop-color="#F19E38"/>
<stop offset="1" stop-color="#FFD097"/>
</linearGradient>
<linearGradient id="paint1_linear_419_6528" x1="49.7738" y1="24.8534" x2="20.5462" y2="17.1545" gradientUnits="userSpaceOnUse">
<stop stop-color="#F19E38"/>
<stop offset="1" stop-color="#FFD097"/>
</linearGradient>
</defs>
</svg>
