<svg width="164" height="80" viewBox="0 0 164 80" fill="none" xmlns="http://www.w3.org/2000/svg">
<mask id="mask0_80_5832" style="mask-type:luminance" maskUnits="userSpaceOnUse" x="0" y="0" width="164" height="80">
<path d="M163.038 0H0V80H163.038V0Z" fill="white"/>
</mask>
<g mask="url(#mask0_80_5832)">
<path d="M84.9004 6.59927L5.88583 12.9156C5.13355 12.9757 5.1051 14.0619 5.85322 14.161L89.7586 25.2693C94.4516 25.8907 97.9569 29.8733 97.9569 34.5839V47.7269C97.9569 49.2667 99.3394 50.4422 100.868 50.202L134.661 44.8925C141.176 43.8688 143.035 35.417 137.544 31.7799L108.86 12.7783C101.797 8.09977 93.3578 5.92322 84.9004 6.59927Z" fill="url(#paint0_linear_80_5832)"/>
<path d="M77.524 74.0545L157.14 67.7306C157.893 67.6711 157.921 66.5839 157.173 66.485L72.6836 55.3709C67.9874 54.7532 64.4776 50.7689 64.4776 46.0554V32.9193C64.4776 31.3796 63.0951 30.2041 61.5669 30.4442L27.7735 35.7537C21.2583 36.7774 19.3999 45.2292 24.8903 48.8663L53.5836 67.8739C60.6406 72.5489 69.0728 74.7256 77.524 74.0545Z" fill="url(#paint1_linear_80_5832)"/>
</g>
<defs>
<linearGradient id="paint0_linear_80_5832" x1="48.9608" y1="24.0564" x2="115.564" y2="41.6162" gradientUnits="userSpaceOnUse">
<stop stop-color="#F19E38"/>
<stop offset="1" stop-color="#FFD097"/>
</linearGradient>
<linearGradient id="paint1_linear_80_5832" x1="113.902" y1="56.59" x2="47.061" y2="38.8947" gradientUnits="userSpaceOnUse">
<stop stop-color="#F19E38"/>
<stop offset="1" stop-color="#FFD097"/>
</linearGradient>
</defs>
</svg>
