<svg width="27" height="12" viewBox="0 0 27 12" fill="none" xmlns="http://www.w3.org/2000/svg">
<path d="M14.0386 0.0214059L0.102156 1.14107C-0.0305303 1.15173 -0.0355469 1.34428 0.0964044 1.36184L14.8955 3.33096C15.7232 3.4411 16.3415 4.14709 16.3415 4.98211V7.3119C16.3415 7.58485 16.5853 7.79323 16.855 7.75066L22.8153 6.80947C23.9645 6.62801 24.2922 5.1298 23.3239 4.48506L18.2645 1.11674C17.0188 0.287392 15.5303 -0.0984353 14.0386 0.0214059Z" fill="url(#paint0_linear_419_6683)"/>
<path d="M12.7379 11.9788L26.7804 10.8578C26.9133 10.8472 26.9182 10.6545 26.7862 10.637L11.8841 8.66686C11.0558 8.55734 10.4368 7.85108 10.4368 7.01553V4.68696C10.4368 4.41401 10.1929 4.20564 9.92339 4.24821L3.96296 5.1894C2.81382 5.37086 2.48603 6.86907 3.45443 7.5138L8.5153 10.8832C9.76001 11.7119 11.2473 12.0978 12.7379 11.9788Z" fill="url(#paint1_linear_419_6683)"/>
<defs>
<linearGradient id="paint0_linear_419_6683" x1="7.69966" y1="3.11596" x2="19.4546" y2="6.19962" gradientUnits="userSpaceOnUse">
<stop stop-color="#F19E38"/>
<stop offset="1" stop-color="#FFD097"/>
</linearGradient>
<linearGradient id="paint1_linear_419_6683" x1="19.1542" y1="8.88295" x2="7.35714" y2="5.77547" gradientUnits="userSpaceOnUse">
<stop stop-color="#F19E38"/>
<stop offset="1" stop-color="#FFD097"/>
</linearGradient>
</defs>
</svg>
