<svg width="48" height="48" viewBox="0 0 48 48" fill="none" xmlns="http://www.w3.org/2000/svg">
<g clip-path="url(#clip0_419_7125)">
<path d="M15.63 0.0300112C15.5062 0.0525111 15.3787 0.0750111 15.27 0.150011C14.8312 0.446261 14.7337 1.06126 15.03 1.50001L17.1 4.59001C13.9012 6.28501 11.5162 9.10126 10.74 12.48H37.26C36.4837 9.10126 34.0987 6.28501 30.9 4.59001L32.97 1.50001C33.2662 1.06126 33.1687 0.446261 32.73 0.150011C32.2875 -0.146239 31.6762 -0.0187389 31.38 0.420011L29.1 3.78001C27.5175 3.20251 25.8 2.88001 24 2.88001C22.2 2.88001 20.4825 3.20251 18.9 3.78001L16.62 0.420011C16.3987 0.0900111 15.9975 -0.0412389 15.63 0.0300112ZM18.72 7.68001C19.515 7.68001 20.16 8.32501 20.16 9.12001C20.16 9.91876 19.515 10.56 18.72 10.56C17.9212 10.56 17.28 9.91876 17.28 9.12001C17.28 8.32501 17.9212 7.68001 18.72 7.68001ZM29.28 7.68001C30.0787 7.68001 30.72 8.32501 30.72 9.12001C30.72 9.91876 30.0787 10.56 29.28 10.56C28.485 10.56 27.84 9.91876 27.84 9.12001C27.84 8.32501 28.485 7.68001 29.28 7.68001ZM7.67999 14.4C6.08999 14.4 4.79999 15.69 4.79999 17.28V30.72C4.79999 32.31 6.08999 33.6 7.67999 33.6C8.01749 33.6 8.33999 33.5288 8.63999 33.42V14.58C8.33999 14.4713 8.01749 14.4 7.67999 14.4ZM10.56 14.4V35.52C10.56 37.1063 11.8537 38.4 13.44 38.4H34.56C36.1462 38.4 37.44 37.1063 37.44 35.52V14.4H10.56ZM40.32 14.4C39.9825 14.4 39.66 14.4713 39.36 14.58V33.42C39.66 33.525 39.9825 33.6 40.32 33.6C41.91 33.6 43.2 32.31 43.2 30.72V17.28C43.2 15.69 41.91 14.4 40.32 14.4ZM14.4 40.32V44.16C14.4 46.2787 16.1212 48 18.24 48C20.3587 48 22.08 46.2787 22.08 44.16V40.32H14.4ZM25.92 40.32V44.16C25.92 46.2787 27.6412 48 29.76 48C31.8787 48 33.6 46.2787 33.6 44.16V40.32H25.92Z" fill="url(#paint0_linear_419_7125)"/>
</g>
<defs>
<linearGradient id="paint0_linear_419_7125" x1="19.4999" y1="7" x2="34.4999" y2="41.5" gradientUnits="userSpaceOnUse">
<stop offset="0.572917"/>
<stop offset="1" stop-color="#F19E38"/>
</linearGradient>
<clipPath id="clip0_419_7125">
<rect width="48" height="48" fill="white"/>
</clipPath>
</defs>
</svg>
