<svg width="37" height="37" viewBox="0 0 37 37" fill="none" xmlns="http://www.w3.org/2000/svg">
<path d="M18.592 2.17066C18.5133 2.17102 18.4338 2.18406 18.3582 2.20987L3.35019 7.43333C3.03184 7.54375 2.83247 7.8617 2.87406 8.19654L5.24632 27.6438C5.27428 27.8739 5.41027 28.0767 5.61462 28.1871L18.2685 35.0644C18.3747 35.1225 18.4927 35.1513 18.6102 35.1513C18.7285 35.1513 18.8479 35.1218 18.9547 35.063L31.6731 28.0919C31.8753 27.9808 32.0127 27.7787 32.04 27.5499L34.4109 8.10412C34.4524 7.76784 34.2511 7.44709 33.9291 7.3381L18.8245 2.20707C18.7492 2.18198 18.6708 2.1703 18.592 2.17066ZM18.6425 5.75426L27.9635 25.8303H24.7818L22.7876 21.5339H14.4973L12.5031 25.8303H9.32145L18.6425 5.75426ZM18.6425 12.5658L15.8319 18.6603H21.453L18.6425 12.5658Z" fill="url(#paint0_linear_525_6059)"/>
<defs>
<linearGradient id="paint0_linear_525_6059" x1="16.2175" y1="22.7354" x2="26.2175" y2="34.7354" gradientUnits="userSpaceOnUse">
<stop/>
<stop offset="1" stop-color="#F19E38"/>
</linearGradient>
</defs>
</svg>
