<svg width="37" height="37" viewBox="0 0 37 37" fill="none" xmlns="http://www.w3.org/2000/svg">
<g clip-path="url(#clip0_1511_6934)">
<path fill-rule="evenodd" clip-rule="evenodd" d="M10.1685 17.6854C10.1685 18.1209 10.2156 18.474 10.298 18.7329C10.3921 18.9919 10.5098 19.2743 10.6746 19.5803C10.7334 19.6745 10.757 19.7686 10.757 19.851C10.757 19.9687 10.6864 20.0864 10.5334 20.2041L9.79189 20.6984C9.68597 20.769 9.58004 20.8043 9.48588 20.8043C9.36819 20.8043 9.2505 20.7455 9.1328 20.6396C8.96803 20.463 8.8268 20.2747 8.7091 20.0864C8.59141 19.8863 8.47371 19.6627 8.34425 19.392C7.42623 20.4748 6.27283 21.0162 4.88404 21.0162C3.8954 21.0162 3.10685 20.7337 2.53015 20.1688C1.95345 19.6039 1.65921 18.8506 1.65921 17.9091C1.65921 16.9087 2.01229 16.0966 2.73023 15.4846C3.44816 14.8725 4.40149 14.5665 5.61374 14.5665C6.0139 14.5665 6.42583 14.6019 6.8613 14.6607C7.29677 14.7195 7.74401 14.8137 8.21479 14.9196V14.0605C8.21479 13.166 8.02647 12.5422 7.66162 12.1773C7.285 11.8125 6.64945 11.636 5.7432 11.636C5.33127 11.636 4.90757 11.683 4.47211 11.789C4.03664 11.8949 3.61294 12.0243 3.20101 12.1891C3.0127 12.2715 2.87146 12.3186 2.78908 12.3421C2.70669 12.3657 2.64784 12.3774 2.60076 12.3774C2.43599 12.3774 2.35361 12.2597 2.35361 12.0126V11.4359C2.35361 11.2476 2.37715 11.1063 2.43599 11.0239C2.49484 10.9416 2.60076 10.8592 2.76554 10.7768C3.17747 10.5649 3.67178 10.3884 4.24849 10.2472C4.82519 10.0942 5.4372 10.0235 6.08452 10.0235C7.48508 10.0235 8.50902 10.3413 9.16811 10.9769C9.81543 11.6124 10.145 12.5775 10.145 13.8721V17.6854H10.1685ZM5.39012 19.4744C5.77851 19.4744 6.17867 19.4038 6.60237 19.2625C7.02607 19.1213 7.40269 18.8624 7.72047 18.5093C7.90878 18.2857 8.05001 18.0385 8.12063 17.7561C8.19125 17.4736 8.23833 17.1323 8.23833 16.7321V16.2378C7.89701 16.1554 7.53216 16.0848 7.15554 16.0377C6.77891 15.9906 6.41406 15.9671 6.04921 15.9671C5.26066 15.9671 4.68396 16.1201 4.29556 16.4379C3.90717 16.7557 3.71886 17.2029 3.71886 17.7914C3.71886 18.3445 3.86009 18.7565 4.15433 19.0389C4.4368 19.3332 4.84873 19.4744 5.39012 19.4744ZM14.841 20.7455C14.6291 20.7455 14.4879 20.7102 14.3937 20.6278C14.2996 20.5572 14.2172 20.3924 14.1466 20.1688L11.3808 11.071C11.3101 10.8356 11.2748 10.6826 11.2748 10.6002C11.2748 10.4119 11.369 10.306 11.5573 10.306H12.7107C12.9343 10.306 13.0873 10.3413 13.1697 10.4237C13.2639 10.4943 13.3345 10.6591 13.4051 10.8827L15.3824 18.6741L17.2184 10.8827C17.2773 10.6473 17.3479 10.4943 17.442 10.4237C17.5362 10.3531 17.701 10.306 17.9128 10.306H18.8544C19.078 10.306 19.231 10.3413 19.3251 10.4237C19.4193 10.4943 19.5017 10.6591 19.5488 10.8827L21.4083 18.7682L23.4444 10.8827C23.5151 10.6473 23.5974 10.4943 23.6798 10.4237C23.774 10.3531 23.927 10.306 24.1388 10.306H25.2334C25.4217 10.306 25.5276 10.4002 25.5276 10.6002C25.5276 10.6505 25.519 10.7008 25.5092 10.7584L25.5041 10.7886C25.4923 10.8592 25.4688 10.9533 25.4217 11.0828L22.5853 20.1806C22.5146 20.416 22.4323 20.569 22.3381 20.6396C22.244 20.7102 22.091 20.7573 21.8909 20.7573H20.8787C20.6551 20.7573 20.5021 20.722 20.4079 20.6396C20.3138 20.5572 20.2314 20.4042 20.1843 20.1688L18.36 12.5775L16.5475 20.157C16.4887 20.3924 16.4181 20.5454 16.3239 20.6278C16.2298 20.7102 16.065 20.7455 15.8531 20.7455H14.841ZM29.9647 21.0633C29.3527 21.0633 28.7407 20.9927 28.1522 20.8514C27.5637 20.7102 27.1047 20.5572 26.7987 20.3806C26.6104 20.2747 26.4809 20.157 26.4339 20.0511C26.3868 19.9452 26.3633 19.8275 26.3633 19.7216V19.1213C26.3633 18.8742 26.4574 18.7565 26.634 18.7565C26.7046 18.7565 26.7752 18.7682 26.8458 18.7918C26.8914 18.807 26.9517 18.832 27.0204 18.8605L27.0205 18.8605L27.0206 18.8605C27.0582 18.8761 27.0984 18.8928 27.14 18.9095C27.5402 19.086 27.9757 19.2272 28.4347 19.3214C28.9055 19.4156 29.3645 19.4626 29.8352 19.4626C30.5767 19.4626 31.1534 19.3332 31.5536 19.0742C31.9537 18.8153 32.1656 18.4387 32.1656 17.9561C32.1656 17.6266 32.0597 17.3559 31.8478 17.1323C31.636 16.9087 31.2358 16.7086 30.6591 16.5203L28.9525 15.9906C28.0934 15.7199 27.4578 15.3198 27.0694 14.7902C26.681 14.2723 26.4809 13.6956 26.4809 13.0836C26.4809 12.5893 26.5869 12.1538 26.7987 11.7772C27.0106 11.4006 27.293 11.071 27.6461 10.8121C27.9992 10.5414 28.3994 10.3413 28.8701 10.2001C29.3409 10.0588 29.8352 10 30.3531 10C30.612 10 30.8827 10.0118 31.1416 10.0471C31.4123 10.0824 31.6595 10.1295 31.9067 10.1765C32.142 10.2354 32.3657 10.2942 32.5775 10.3649C32.7894 10.4355 32.9541 10.5061 33.0718 10.5767C33.2366 10.6709 33.3543 10.765 33.4249 10.8709C33.4955 10.9651 33.5308 11.0946 33.5308 11.2593V11.8125C33.5308 12.0597 33.4367 12.1891 33.2601 12.1891C33.166 12.1891 33.013 12.142 32.8129 12.0479C32.142 11.7419 31.3888 11.5889 30.5532 11.5889C29.8823 11.5889 29.3527 11.6948 28.9878 11.9184C28.623 12.142 28.4347 12.4834 28.4347 12.9659C28.4347 13.2954 28.5524 13.5779 28.7878 13.8015C29.0231 14.0251 29.4586 14.2488 30.0824 14.4488L31.7537 14.9785C32.6011 15.2492 33.2131 15.6258 33.5779 16.1083C33.9428 16.5909 34.1193 17.144 34.1193 17.7561C34.1193 18.2621 34.0134 18.7212 33.8133 19.1213C33.6015 19.5215 33.319 19.8746 32.9541 20.157C32.5893 20.4513 32.1538 20.6631 31.6477 20.8161C31.1181 20.9809 30.5649 21.0633 29.9647 21.0633ZM32.1891 26.7833C28.317 29.6433 22.6912 31.1615 17.854 31.1615C11.0748 31.1615 4.96643 28.6546 0.352816 24.4883C-0.0120367 24.1587 0.317508 23.7115 0.752977 23.9704C5.74322 26.8657 11.8986 28.6193 18.2659 28.6193C22.5617 28.6193 27.2813 27.7248 31.6242 25.8888C32.2715 25.5946 32.8247 26.3125 32.1891 26.7833ZM29.2703 24.7942C30.5297 24.6412 33.3073 24.3116 33.8016 24.9472C34.2959 25.571 33.2484 28.1956 32.7776 29.3607C32.6364 29.7138 32.9424 29.855 33.2602 29.5843C35.3316 27.8425 35.873 24.2057 35.4493 23.6761C35.0256 23.1582 31.3888 22.711 29.1762 24.2646C28.8349 24.5117 28.8937 24.8413 29.2703 24.7942Z" fill="url(#paint0_linear_1511_6934)"/>
</g>
<defs>
<linearGradient id="paint0_linear_1511_6934" x1="17.8897" y1="10" x2="17.8897" y2="31.1615" gradientUnits="userSpaceOnUse">
<stop stop-color="#171109"/>
<stop offset="0.541667" stop-color="#402B11"/>
<stop offset="1" stop-color="#171109"/>
</linearGradient>
<clipPath id="clip0_1511_6934">
<rect width="35.8512" height="35.8512" fill="white" transform="translate(0.345123 0.151611)"/>
</clipPath>
</defs>
</svg>
