<svg width="36" height="22" viewBox="0 0 36 22" fill="none" xmlns="http://www.w3.org/2000/svg">
<path fill-rule="evenodd" clip-rule="evenodd" d="M10.1678 7.68544C10.1678 8.12091 10.2149 8.474 10.2972 8.73292C10.3914 8.99185 10.5091 9.27432 10.6739 9.58032C10.7327 9.67448 10.7563 9.76863 10.7563 9.85102C10.7563 9.96871 10.6856 10.0864 10.5326 10.2041L9.79116 10.6984C9.68523 10.769 9.57931 10.8043 9.48515 10.8043C9.36746 10.8043 9.24976 10.7455 9.13207 10.6396C8.9673 10.463 8.82606 10.2747 8.70837 10.0864C8.59068 9.88633 8.47298 9.66271 8.34352 9.39201C7.4255 10.4748 6.2721 11.0162 4.8833 11.0162C3.89467 11.0162 3.10612 10.7337 2.52942 10.1688C1.95271 9.60386 1.65848 8.85062 1.65848 7.90906C1.65848 6.90866 2.01156 6.09657 2.7295 5.48456C3.44743 4.87255 4.40076 4.56654 5.61301 4.56654C6.01317 4.56654 6.4251 4.60185 6.86057 4.6607C7.29604 4.71954 7.74328 4.8137 8.21405 4.91963V4.06046C8.21405 3.16598 8.02574 2.5422 7.66089 2.17735C7.28427 1.81249 6.64872 1.63595 5.74247 1.63595C5.33054 1.63595 4.90684 1.68303 4.47137 1.78895C4.0359 1.89488 3.6122 2.02434 3.20027 2.18912C3.01196 2.2715 2.87073 2.31858 2.78834 2.34212C2.70596 2.36566 2.64711 2.37743 2.60003 2.37743C2.43526 2.37743 2.35287 2.25973 2.35287 2.01257V1.43587C2.35287 1.24756 2.37641 1.10633 2.43526 1.02394C2.49411 0.941555 2.60003 0.859169 2.7648 0.776783C3.17673 0.564933 3.67105 0.388391 4.24775 0.247158C4.82446 0.0941555 5.43647 0.0235389 6.08379 0.0235389C7.48435 0.0235389 8.50829 0.341314 9.16738 0.976863C9.8147 1.61241 10.1442 2.57751 10.1442 3.87214V7.68544H10.1678ZM5.38939 9.4744C5.77778 9.4744 6.17794 9.40378 6.60164 9.26255C7.02534 9.12131 7.40196 8.86239 7.71974 8.5093C7.90805 8.28568 8.04928 8.03853 8.1199 7.75606C8.19051 7.47359 8.23759 7.13228 8.23759 6.73212V6.2378C7.89628 6.15542 7.53143 6.0848 7.1548 6.03772C6.77818 5.99064 6.41333 5.9671 6.04848 5.9671C5.25993 5.9671 4.68322 6.12011 4.29483 6.43788C3.90644 6.75566 3.71813 7.2029 3.71813 7.79137C3.71813 8.34453 3.85936 8.75646 4.1536 9.03893C4.43606 9.33316 4.84799 9.4744 5.38939 9.4744ZM14.8402 10.7455C14.6284 10.7455 14.4872 10.7102 14.393 10.6278C14.2989 10.5572 14.2165 10.3924 14.1458 10.1688L11.38 1.07102C11.3094 0.83563 11.2741 0.682627 11.2741 0.600241C11.2741 0.41193 11.3683 0.306005 11.5566 0.306005H12.71C12.9336 0.306005 13.0866 0.341314 13.169 0.4237C13.2631 0.494316 13.3338 0.659089 13.4044 0.882708L15.3816 8.67408L17.2177 0.882708C17.2765 0.647319 17.3471 0.494316 17.4413 0.4237C17.5354 0.353083 17.7002 0.306005 17.9121 0.306005H18.8536C19.0772 0.306005 19.2302 0.341314 19.3244 0.4237C19.4186 0.494316 19.5009 0.659089 19.548 0.882708L21.4076 8.76823L23.4437 0.882708C23.5143 0.647319 23.5967 0.494316 23.6791 0.4237C23.7732 0.353083 23.9263 0.306005 24.1381 0.306005H25.2327C25.421 0.306005 25.5269 0.400161 25.5269 0.600241C25.5269 0.650509 25.5183 0.700776 25.5085 0.75838L25.5034 0.788552C25.4916 0.859169 25.468 0.953324 25.421 1.08279L22.5845 10.1806C22.5139 10.416 22.4315 10.569 22.3374 10.6396C22.2432 10.7102 22.0902 10.7573 21.8901 10.7573H20.878C20.6543 10.7573 20.5013 10.722 20.4072 10.6396C20.313 10.5572 20.2306 10.4042 20.1836 10.1688L18.3593 2.57751L16.5468 10.157C16.488 10.3924 16.4173 10.5454 16.3232 10.6278C16.229 10.7102 16.0643 10.7455 15.8524 10.7455H14.8402ZM29.964 11.0633C29.352 11.0633 28.7399 10.9927 28.1515 10.8514C27.563 10.7102 27.104 10.5572 26.798 10.3806C26.6097 10.2747 26.4802 10.157 26.4331 10.0511C26.3861 9.94517 26.3625 9.82748 26.3625 9.72155V9.12131C26.3625 8.87416 26.4567 8.75646 26.6332 8.75646C26.7038 8.75646 26.7745 8.76823 26.8451 8.79177C26.8907 8.80697 26.951 8.83198 27.0197 8.86047L27.0197 8.86049L27.0198 8.86053C27.0575 8.87615 27.0977 8.89281 27.1393 8.90946C27.5395 9.08601 27.9749 9.22724 28.4339 9.32139C28.9047 9.41555 29.3637 9.46263 29.8345 9.46263C30.576 9.46263 31.1527 9.33316 31.5528 9.07424C31.953 8.81531 32.1649 8.43869 32.1649 7.95614C32.1649 7.6266 32.0589 7.3559 31.8471 7.13228C31.6352 6.90866 31.2351 6.70858 30.6584 6.52027L28.9518 5.99064C28.0926 5.71995 27.4571 5.31979 27.0687 4.79016C26.6803 4.27231 26.4802 3.6956 26.4802 3.08359C26.4802 2.58928 26.5861 2.15381 26.798 1.77719C27.0098 1.40056 27.2923 1.07102 27.6454 0.812091C27.9985 0.541394 28.3986 0.341314 28.8694 0.20008C29.3402 0.0588472 29.8345 0 30.3524 0C30.6113 0 30.882 0.0117694 31.1409 0.0470777C31.4116 0.0823861 31.6588 0.129464 31.9059 0.176542C32.1413 0.235389 32.3649 0.294236 32.5768 0.364853C32.7886 0.435469 32.9534 0.506086 33.0711 0.576702C33.2359 0.670858 33.3536 0.765013 33.4242 0.870938C33.4948 0.965094 33.5301 1.09456 33.5301 1.25933V1.81249C33.5301 2.05965 33.436 2.18912 33.2594 2.18912C33.1653 2.18912 33.0123 2.14204 32.8122 2.04788C32.1413 1.74188 31.3881 1.58887 30.5524 1.58887C29.8816 1.58887 29.352 1.6948 28.9871 1.91842C28.6223 2.14204 28.4339 2.48335 28.4339 2.9659C28.4339 3.29544 28.5516 3.57791 28.787 3.80153C29.0224 4.02515 29.4579 4.24877 30.0817 4.44885L31.7529 4.97847C32.6003 5.24917 33.2123 5.62579 33.5772 6.10834C33.942 6.59088 34.1186 7.14405 34.1186 7.75606C34.1186 8.26215 34.0127 8.72115 33.8126 9.12131C33.6007 9.52147 33.3183 9.87456 32.9534 10.157C32.5886 10.4513 32.1531 10.6631 31.647 10.8161C31.1174 10.9809 30.5642 11.0633 29.964 11.0633ZM32.1884 16.7833C28.3163 19.6433 22.6905 21.1615 17.8532 21.1615C11.074 21.1615 4.9657 18.6546 0.352083 14.4883C-0.0127691 14.1587 0.316775 13.7115 0.752244 13.9704C5.74249 16.8657 11.8979 18.6193 18.2652 18.6193C22.561 18.6193 27.2806 17.7248 31.6235 15.8888C32.2708 15.5946 32.824 16.3125 32.1884 16.7833ZM29.2696 14.7942C30.5289 14.6412 33.3065 14.3116 33.8008 14.9472C34.2952 15.571 33.2477 18.1956 32.7769 19.3607C32.6357 19.7138 32.9417 19.855 33.2594 19.5843C35.3309 17.8425 35.8723 14.2057 35.4486 13.6761C35.0249 13.1582 31.3881 12.711 29.1754 14.2646C28.8341 14.5117 28.893 14.8413 29.2696 14.7942Z" fill="url(#paint0_linear_1499_6324)"/>
<defs>
<linearGradient id="paint0_linear_1499_6324" x1="17.889" y1="0" x2="17.889" y2="21.1615" gradientUnits="userSpaceOnUse">
<stop stop-color="#171109"/>
<stop offset="0.541667" stop-color="#402B11"/>
<stop offset="1" stop-color="#171109"/>
</linearGradient>
</defs>
</svg>
