<svg width="47" height="28" viewBox="0 0 47 28" fill="none" xmlns="http://www.w3.org/2000/svg">
<g clip-path="url(#clip0_1696_757)">
<path d="M13.3833 10.383C13.3833 10.9387 13.4433 11.3892 13.5483 11.7195C13.6682 12.0499 13.8181 12.4103 14.028 12.8007C14.103 12.9209 14.133 13.041 14.133 13.1461C14.133 13.2963 14.043 13.4465 13.8481 13.5966L12.9036 14.2273C12.7687 14.3174 12.6337 14.3625 12.5138 14.3625C12.3639 14.3625 12.214 14.2874 12.064 14.1522C11.8541 13.927 11.6742 13.6867 11.5243 13.4465C11.3744 13.1912 11.2245 12.9058 11.0596 12.5605C9.89016 13.942 8.42092 14.6328 6.65184 14.6328C5.3925 14.6328 4.38802 14.2724 3.6534 13.5516C2.91878 12.8308 2.54398 11.8697 2.54398 10.6684C2.54398 9.39194 2.99374 8.35579 3.90827 7.57492C4.82279 6.79406 6.03716 6.40362 7.58136 6.40362C8.09109 6.40362 8.61582 6.44867 9.17053 6.52376C9.72525 6.59884 10.295 6.71897 10.8946 6.85412V5.75791C10.8946 4.61664 10.6548 3.82075 10.19 3.35524C9.71025 2.88972 8.90067 2.66447 7.74627 2.66447C7.22155 2.66447 6.68183 2.72453 6.12711 2.85968C5.5724 2.99483 5.03268 3.16002 4.50796 3.37025C4.26808 3.47537 4.08817 3.53544 3.98323 3.56547C3.87828 3.5955 3.80332 3.61052 3.74335 3.61052C3.53346 3.61052 3.42852 3.46035 3.42852 3.145V2.40918C3.42852 2.16892 3.4585 1.98872 3.53346 1.8836C3.60842 1.77848 3.74335 1.67337 3.95324 1.56825C4.47797 1.29795 5.10764 1.0727 5.84226 0.892499C6.57688 0.697282 7.35648 0.607182 8.18105 0.607182C9.96512 0.607182 11.2694 1.01263 12.109 1.82353C12.9336 2.63443 13.3534 3.8658 13.3534 5.51764V10.383H13.3833ZM7.29651 12.6656C7.79125 12.6656 8.30099 12.5755 8.84071 12.3953C9.38042 12.2151 9.86018 11.8847 10.265 11.4342C10.5048 11.1489 10.6847 10.8335 10.7747 10.4731C10.8647 10.1127 10.9246 9.67726 10.9246 9.16669V8.53599C10.4898 8.43088 10.0251 8.34078 9.54534 8.28071C9.06559 8.22064 8.60083 8.19061 8.13607 8.19061C7.13159 8.19061 6.39697 8.38583 5.90223 8.79128C5.40749 9.19673 5.16761 9.76736 5.16761 10.5182C5.16761 11.224 5.34752 11.7496 5.72232 12.11C6.08214 12.4854 6.60687 12.6656 7.29651 12.6656ZM19.3353 14.2874C19.0654 14.2874 18.8855 14.2423 18.7656 14.1372C18.6456 14.0471 18.5407 13.8369 18.4507 13.5516L14.9275 1.94367C14.8376 1.64333 14.7926 1.44812 14.7926 1.343C14.7926 1.10273 14.9126 0.967582 15.1524 0.967582H16.6217C16.9065 0.967582 17.1014 1.01263 17.2064 1.11775C17.3263 1.20785 17.4163 1.41808 17.5062 1.7034L20.0249 11.6444L22.3637 1.7034C22.4386 1.40307 22.5286 1.20785 22.6485 1.11775C22.7685 1.02765 22.9784 0.967582 23.2482 0.967582H24.4476C24.7325 0.967582 24.9273 1.01263 25.0473 1.11775C25.1672 1.20785 25.2722 1.41808 25.3321 1.7034L27.7009 11.7646L30.2946 1.7034C30.3845 1.40307 30.4895 1.20785 30.5944 1.11775C30.7143 1.02765 30.9092 0.967582 31.1791 0.967582H32.5734C32.8133 0.967582 32.9482 1.08772 32.9482 1.343C32.9482 1.41808 32.9332 1.49317 32.9182 1.58327C32.9032 1.67337 32.8732 1.7935 32.8133 1.95868L29.2001 13.5666C29.1102 13.8669 29.0052 14.0621 28.8853 14.1522C28.7654 14.2423 28.5705 14.3024 28.3156 14.3024H27.0263C26.7414 14.3024 26.5465 14.2574 26.4266 14.1522C26.3066 14.0471 26.2017 13.8519 26.1417 13.5516L23.8179 3.8658L21.5091 13.5365C21.4342 13.8369 21.3442 14.0321 21.2243 14.1372C21.1043 14.2423 20.8944 14.2874 20.6246 14.2874H19.3353ZM38.6003 14.6928C37.8207 14.6928 37.0411 14.6027 36.2914 14.4225C35.5418 14.2423 34.9571 14.0471 34.5673 13.8219C34.3275 13.6867 34.1626 13.5365 34.1026 13.4014C34.0426 13.2662 34.0126 13.1161 34.0126 12.9809V12.2151C34.0126 11.8997 34.1326 11.7496 34.3575 11.7496C34.4474 11.7496 34.5374 11.7646 34.6273 11.7946C34.7173 11.8246 34.8522 11.8847 35.0021 11.9448C35.5119 12.17 36.0666 12.3502 36.6513 12.4704C37.2509 12.5905 37.8356 12.6506 38.4353 12.6506C39.3798 12.6506 40.1145 12.4854 40.6242 12.155C41.1339 11.8246 41.4038 11.3441 41.4038 10.7284C41.4038 10.308 41.2689 9.96258 40.999 9.67726C40.7291 9.39194 40.2194 9.13666 39.4848 8.89639L37.3109 8.22064C36.2165 7.87526 35.4069 7.36469 34.9122 6.68894C34.4174 6.02821 34.1626 5.29239 34.1626 4.51152C34.1626 3.88082 34.2975 3.3252 34.5673 2.84467C34.8372 2.36413 35.197 1.94367 35.6468 1.6133C36.0965 1.26792 36.6063 1.01263 37.206 0.832432C37.8057 0.652232 38.4353 0.577148 39.095 0.577148C39.4248 0.577148 39.7696 0.592165 40.0995 0.637215C40.4443 0.682265 40.7591 0.742332 41.074 0.802399C41.3738 0.877482 41.6587 0.952566 41.9285 1.04267C42.1984 1.13277 42.4083 1.22287 42.5582 1.31297C42.7681 1.4331 42.918 1.55323 43.008 1.68838C43.0979 1.80852 43.1429 1.9737 43.1429 2.18393V2.88972C43.1429 3.20507 43.023 3.37025 42.7981 3.37025C42.6781 3.37025 42.4832 3.31019 42.2284 3.19005C41.3738 2.79962 40.4143 2.6044 39.3499 2.6044C38.4953 2.6044 37.8207 2.73955 37.3559 3.02487C36.8911 3.31019 36.6513 3.74567 36.6513 4.36135C36.6513 4.78182 36.8012 5.14222 37.101 5.42754C37.4009 5.71286 37.9556 5.99817 38.7502 6.25346L40.8791 6.92921C41.9585 7.27459 42.7381 7.75513 43.2029 8.37081C43.6676 8.98649 43.8925 9.69228 43.8925 10.4731C43.8925 11.1189 43.7576 11.7045 43.5027 12.2151C43.2328 12.7256 42.873 13.1761 42.4083 13.5365C41.9435 13.912 41.3888 14.1823 40.7441 14.3775C40.0695 14.5877 39.3649 14.6928 38.6003 14.6928Z" fill="#252F3E"/>
<path fill-rule="evenodd" clip-rule="evenodd" d="M41.4338 21.9909C36.5013 25.6399 29.3351 27.5771 23.1733 27.5771C14.5378 27.5771 6.75679 24.3785 0.879844 19.0626C0.415085 18.6422 0.834867 18.0715 1.38958 18.4019C7.74628 22.096 15.5872 24.3335 23.698 24.3335C29.1702 24.3335 35.182 23.1922 40.7142 20.8496C41.5387 20.4742 42.2434 21.3902 41.4338 21.9909Z" fill="#FF9900"/>
<path fill-rule="evenodd" clip-rule="evenodd" d="M43.4877 19.6483C42.8581 18.8374 39.3199 19.2579 37.7157 19.4531C37.236 19.5132 37.161 19.0927 37.5958 18.7774C40.4143 16.7951 45.0469 17.3658 45.5866 18.0265C46.1264 18.7023 45.4367 23.3424 42.7981 25.5649C42.3933 25.9103 42.0035 25.7301 42.1834 25.2796C42.7831 23.7929 44.1174 20.4442 43.4877 19.6483Z" fill="#FF9900"/>
</g>
<defs>
<clipPath id="clip0_1696_757">
<rect width="46" height="27" fill="white" transform="translate(0.270721 0.577148)"/>
</clipPath>
</defs>
</svg>
