<svg width="41" height="32" viewBox="0 0 41 32" fill="none" xmlns="http://www.w3.org/2000/svg">
<path d="M18.8809 29.9096C23.9897 29.0071 28.2093 28.2603 28.2578 28.25L28.3459 28.2313L23.5226 22.4942C20.8699 19.3388 18.6994 16.7449 18.6994 16.7299C18.6994 16.7016 23.6798 2.98665 23.7078 2.93785C23.7172 2.92154 27.1065 8.77311 31.9237 17.1224C36.4337 24.9392 40.152 31.3842 40.1866 31.4446L40.2494 31.5544L24.9207 31.5524L9.59207 31.5504L18.8809 29.9096ZM0.484741 28.16C0.484741 28.1519 2.75743 24.2067 5.53516 19.3929L10.5856 10.6404L16.4713 5.70116C19.7084 2.98456 22.3657 0.758566 22.3763 0.754506C22.387 0.750447 22.3444 0.857625 22.2817 0.99268C22.219 1.12774 19.343 7.29636 15.8907 14.7007L9.61365 28.1632L5.04919 28.169C2.53875 28.1721 0.484741 28.1681 0.484741 28.16Z" fill="url(#paint0_linear_575_8805)"/>
<defs>
<linearGradient id="paint0_linear_575_8805" x1="17.455" y1="21.9155" x2="31.955" y2="42.4155" gradientUnits="userSpaceOnUse">
<stop/>
<stop offset="1" stop-color="#F19E38"/>
</linearGradient>
</defs>
</svg>
