<svg width="33" height="37" viewBox="0 0 33 37" fill="none" xmlns="http://www.w3.org/2000/svg">
<g clipPath="url(#clip0_525_6061)">
<path d="M31.9658 11.348C31.9656 10.7511 31.8379 10.2237 31.5798 9.77117C31.3262 9.32593 30.9465 8.95286 30.4371 8.65788C26.2325 6.23347 22.0238 3.81647 17.8205 1.38959C16.6873 0.735387 15.5886 0.759361 14.4638 1.42296C12.7903 2.40982 4.41127 7.21033 1.91444 8.65652C0.88618 9.25191 0.385826 10.1629 0.385579 11.3469C0.383972 16.2225 0.385579 21.0981 0.383972 25.9738C0.383972 26.5575 0.506435 27.0748 0.753213 27.5206C1.00691 27.9792 1.39197 28.3625 1.91309 28.6641C4.41004 30.1103 12.7901 34.9104 14.4633 35.8977C15.5886 36.5617 16.6873 36.5854 17.8209 35.9311C22.0242 33.5041 26.2332 31.0871 30.4384 28.6626C30.9596 28.3611 31.3446 27.9775 31.5983 27.5193C31.8447 27.0735 31.9674 26.5563 31.9674 25.9724C31.9674 25.9724 31.9674 16.2237 31.9658 11.348Z" fill="black"/>
<path d="M16.224 18.6128L0.753204 27.5205C1.0069 27.9791 1.39196 28.3625 1.91308 28.6641C4.41003 30.1103 12.7901 34.9104 14.4633 35.8977C15.5886 36.5616 16.6873 36.5854 17.8208 35.931C22.0242 33.504 26.2332 31.087 30.4384 28.6626C30.9595 28.3611 31.3446 27.9775 31.5983 27.5193L16.224 18.6128Z" fill="url(#paint0_linear_525_6061)"/>
<path d="M31.9658 11.3481C31.9656 10.7512 31.8379 10.2238 31.5798 9.77124L16.224 18.613L31.5983 27.5194C31.8447 27.0735 31.9672 26.5564 31.9674 25.9725C31.9674 25.9725 31.9674 16.2238 31.9658 11.3481Z" fill="black"/>
<path d="M25.3327 15.2827V16.9478H26.9978V15.2827H27.8303V16.9478H29.4953V17.7803H27.8303V19.4452H29.4953V20.2777H27.8303V21.9428H26.9978V20.2777H25.3327V21.9428H24.5002V20.2777H22.8353V19.4452H24.5002V17.7803H22.8353V16.9478H24.5002V15.2827H25.3327ZM26.9978 17.7802H25.3327V19.4452H26.9978V17.7802Z" fill="white"/>
<path d="M16.258 6.92078C20.6009 6.92078 24.3925 9.27932 26.4235 12.7851L26.4037 12.7514L21.2939 15.6935C20.2873 13.989 18.4418 12.8386 16.3246 12.8149L16.2579 12.8145C13.0295 12.8145 10.4122 15.4319 10.4122 18.6602C10.4111 19.6778 10.677 20.6778 11.1832 21.5605C12.1908 23.3196 14.0851 24.5061 16.258 24.5061C18.4444 24.5061 20.3494 23.3046 21.3519 21.5267L21.3275 21.5693L26.4296 24.525C24.4208 28.0011 20.6811 30.3524 16.3887 30.3992L16.258 30.4C11.9014 30.4 8.09898 28.0268 6.0731 24.5025C5.08413 22.782 4.51828 20.7873 4.51828 18.6602C4.51828 12.1768 9.77416 6.92065 16.2579 6.92065L16.258 6.92078Z" fill="white"/>
</g>
<defs>
<linearGradient id="paint0_linear_525_6061" x1="16.1249" y1="27.8521" x2="16.1758" y2="36.409" gradientUnits="userSpaceOnUse">
<stop/>
<stop offset="1" stop-color="#F19E38"/>
</linearGradient>
<clipPath id="clip0_525_6061">
<rect width="31.8635" height="35.85" fill="white" transform="translate(0.243958 0.735352)"/>
</clipPath>
</defs>
</svg>
