<svg width="48" height="48" viewBox="0 0 48 48" fill="none" xmlns="http://www.w3.org/2000/svg">
<path d="M15.36 2.87988C9.00483 2.87988 3.84003 8.04468 3.84003 14.3999V33.5999C3.84003 39.9551 9.00483 45.1199 15.36 45.1199H34.56C40.9152 45.1199 46.08 39.9551 46.08 33.5999V14.3999C46.08 8.04468 40.9152 2.87988 34.56 2.87988H15.36ZM12.1144 17.3474C12.7864 17.3474 13.2863 17.8275 13.2863 18.4611C13.2863 19.0851 12.7864 19.5655 12.1144 19.5655C11.4328 19.5655 10.935 19.0851 10.935 18.4611C10.935 17.8275 11.4328 17.3474 12.1144 17.3474ZM22.1175 17.8949C25.6215 17.8949 27.7819 20.3416 27.7819 24.268C27.7819 28.1848 25.6407 30.6524 22.1175 30.6524C18.5751 30.6524 16.425 28.1944 16.425 24.268C16.425 20.332 18.6231 17.8949 22.1175 17.8949ZM34.5319 17.8949C36.9991 17.8949 38.8023 19.3336 38.9175 21.388H37.0744C36.892 20.2648 35.9227 19.5655 34.5019 19.5655C33.0043 19.5655 32.0157 20.2746 32.0157 21.3786C32.0157 22.2426 32.6496 22.7424 34.2432 23.1168L35.5782 23.443C38.0838 24.0286 39.1107 25.0369 39.1107 26.8705C39.1107 29.2033 37.3053 30.6618 34.4157 30.6618C31.7181 30.6618 29.9038 29.271 29.7694 27.0918H31.6425C31.8057 28.2438 32.9376 28.9818 34.56 28.9818C36.0768 28.9818 37.1907 28.1953 37.1907 27.1105C37.1907 26.1889 36.4897 25.6326 34.8769 25.2486L33.3019 24.8736C31.1035 24.3552 30.0957 23.2899 30.0957 21.5043C30.0957 19.3347 31.8727 17.8949 34.5319 17.8949ZM22.1175 19.6518C19.8231 19.6518 18.3657 21.4456 18.3657 24.268C18.3657 27.0808 19.7751 28.8955 22.1175 28.8955C24.4311 28.8955 25.8525 27.0808 25.8525 24.268C25.8525 21.4456 24.4311 19.6518 22.1175 19.6518ZM11.2125 21.178H13.0182V30.3655H11.2125V21.178Z" fill="url(#paint0_linear_419_7121)"/>
<defs>
<linearGradient id="paint0_linear_419_7121" x1="27.5" y1="28" x2="38.5" y2="52" gradientUnits="userSpaceOnUse">
<stop/>
<stop offset="1" stop-color="#F19E38"/>
</linearGradient>
</defs>
</svg>
