<svg width="37" height="37" viewBox="0 0 37 37" fill="none" xmlns="http://www.w3.org/2000/svg">
<g clipPath="url(#clip0_575_8800)">
<path d="M20.1064 0.754395C22.0376 5.31065 13.1833 8.1025 12.3602 11.9003C11.6071 15.3861 17.605 19.4743 17.6104 19.4743C16.6959 18.0327 16.0289 16.8169 15.1144 14.5684C13.5652 10.7706 24.5551 7.34402 20.1064 0.754395ZM25.9591 7.08043C25.9591 7.08043 18.2183 7.56995 17.8256 12.6319C17.6481 14.8858 19.8697 16.0692 19.9343 17.7099C19.9881 19.0493 18.6002 20.1629 18.6002 20.1629C18.6002 20.1629 21.0908 19.711 21.8708 17.6669C22.7315 15.3968 20.1925 13.8476 20.4507 12.0294C20.6981 10.2919 25.9591 7.08043 25.9591 7.08043ZM27.8526 18.7427C27.0403 18.7051 26.1258 19.0063 25.3136 19.6034C26.9166 19.2484 28.2829 20.2543 28.2829 21.4109C28.2829 24.0037 24.582 26.4459 24.582 26.4459C24.582 26.4459 30.3055 25.8057 30.3055 21.54C30.3055 19.7809 29.2028 18.8073 27.8526 18.7427ZM12.6615 18.7858C10.6658 18.8557 6.67971 19.1838 6.67971 20.7223C6.67971 22.8633 15.9644 23.03 22.6024 21.7121C22.6024 21.7121 24.4098 20.4533 24.8832 19.9907C20.5314 20.8944 10.5958 21.0343 10.5958 20.2489C10.5958 19.5281 13.7804 18.7858 13.7804 18.7858C13.7804 18.7858 13.3285 18.7642 12.6615 18.7858ZM12.059 22.7449C10.967 22.7449 9.34784 23.5948 9.34784 24.4233C9.34784 26.0908 17.5674 27.3711 23.6352 24.9397L21.5265 23.6486C17.4114 24.9935 9.81046 24.547 12.059 22.7449ZM13.0918 26.4889C11.6018 26.4889 10.6389 27.4303 10.6389 28.1242C10.6389 30.2598 19.5416 30.4696 23.0758 28.2963L20.838 26.8332C18.2021 27.9682 11.5695 28.135 13.0918 26.4889ZM8.09984 28.4254C5.66841 28.377 4.09766 29.4798 4.09766 30.405C4.09766 35.3271 29.0145 35.0904 29.0145 30.0607C29.0145 29.227 28.0301 28.8289 27.6804 28.6406C29.7138 33.4497 7.32523 33.0731 7.32523 30.2329C7.32523 29.5874 8.98205 28.9419 10.5098 29.2431L9.21874 28.5115C8.83681 28.4523 8.4495 28.4308 8.09984 28.4254ZM31.6396 31.7391C27.8526 35.4024 18.2667 36.7149 8.61626 34.4502C18.2667 38.4847 31.5912 36.2415 31.6396 31.7391Z" fill="url(#paint0_linear_575_8800)"/>
</g>
<defs>
<linearGradient id="paint0_linear_575_8800" x1="17.7178" y1="21.9155" x2="28.2178" y2="36.4155" gradientUnits="userSpaceOnUse">
<stop/>
<stop offset="1" stop-color="#F19E38"/>
</linearGradient>
<clipPath id="clip0_575_8800">
<rect width="35.8512" height="35.8512" fill="white" transform="translate(0.717773 0.754395)"/>
</clipPath>
</defs>
</svg>
