<svg width="28" height="38" viewBox="0 0 28 38" fill="none" xmlns="http://www.w3.org/2000/svg">
<path fill-rule="evenodd" clip-rule="evenodd" d="M9.12928 29.2797C9.12928 29.2797 7.72975 30.0941 10.1263 30.3692C13.0306 30.7008 14.514 30.6531 17.7134 30.0479C17.7134 30.0479 18.5557 30.5753 19.7315 31.0315C12.5573 34.1057 3.49501 30.8537 9.12928 29.2797ZM8.2523 25.2681C8.2523 25.2681 6.68224 26.4302 9.08095 26.6782C12.1834 26.9986 14.6322 27.0248 18.8725 26.2089C18.8725 26.2089 19.4579 26.8032 20.3793 27.1278C11.7064 29.6645 2.04715 27.3275 8.2523 25.2681Z" fill="#3174B9"/>
<path fill-rule="evenodd" clip-rule="evenodd" d="M15.642 18.4624C17.4105 20.4981 15.1784 22.329 15.1784 22.329C15.1784 22.329 19.667 20.0124 17.6054 17.1103C15.6806 14.4051 14.2041 13.0612 22.1961 8.42676C22.1961 8.42676 9.65081 11.5587 15.642 18.4624Z" fill="#CA3132"/>
<path fill-rule="evenodd" clip-rule="evenodd" d="M25.13 32.2472C25.13 32.2472 26.166 33.1013 23.9889 33.7619C19.849 35.0158 6.75503 35.394 3.1179 33.8117C1.8114 33.2427 4.26269 32.4539 5.03389 32.2873C5.83822 32.1134 6.29723 32.145 6.29723 32.145C4.8433 31.1212 -3.10062 34.1559 2.26281 35.0265C16.8879 37.3978 28.9231 33.9589 25.13 32.2472ZM9.80243 21.1112C9.80243 21.1112 3.14283 22.6934 7.44446 23.2685C9.26135 23.5114 12.8805 23.4554 16.2544 23.1724C19.0109 22.9411 21.7777 22.4462 21.7777 22.4462C21.7777 22.4462 20.8065 22.863 20.1028 23.3427C13.3389 25.1219 0.274474 24.2932 4.03593 22.4745C7.21617 20.9361 9.80243 21.1112 9.80243 21.1112ZM21.7501 27.7887C28.6252 24.2169 25.4465 20.7838 23.2271 21.2464C22.6845 21.3598 22.441 21.4577 22.441 21.4577C22.441 21.4577 22.6435 21.1409 23.0283 21.0048C27.4181 19.4621 30.7935 25.5559 21.613 27.9692C21.6127 27.9692 21.7185 27.8738 21.7501 27.7887Z" fill="#3174B9"/>
<path fill-rule="evenodd" clip-rule="evenodd" d="M17.6055 0.941406C17.6055 0.941406 21.4122 4.75058 13.9939 10.6062C8.04468 15.3051 12.6375 17.9834 13.9921 21.0448C10.5188 17.9117 7.97112 15.1531 9.6801 12.5863C12.1891 8.81844 19.1415 6.99122 17.6055 0.941406Z" fill="#CA3132"/>
<path fill-rule="evenodd" clip-rule="evenodd" d="M10.4788 37.4704C17.077 37.8924 27.2114 37.2361 27.4519 34.1133C27.4519 34.1133 26.9904 35.297 21.9982 36.236C16.3657 37.2963 9.41764 37.1728 5.2981 36.4928C5.2981 36.4928 6.14225 37.1914 10.4788 37.4704Z" fill="#3174B9"/>
</svg>
