<svg width="48" height="48" viewBox="0 0 48 48" fill="none" xmlns="http://www.w3.org/2000/svg">
<path d="M41.6025 3.84009H6.40125C4.9875 3.84009 3.84 4.98759 3.84 6.40134V41.5988C3.84 43.0126 4.9875 44.1601 6.40125 44.1601H41.5987C43.0125 44.1601 44.16 43.0126 44.16 41.6026V6.40134C44.16 4.98759 43.0125 3.84009 41.6025 3.84009ZM25.92 34.7363C25.92 38.5726 23.67 40.3201 20.385 40.3201C17.415 40.3201 15.2737 38.3288 14.4 36.4801L17.4187 34.6538C18 35.6851 18.885 36.4801 20.16 36.4801C21.3787 36.4801 22.08 36.0038 22.08 34.1513V22.0801H25.92V34.7363ZM34.2487 40.3201C30.8475 40.3201 28.9162 38.6063 27.84 36.4801L30.72 34.5601C31.5037 35.8426 32.3587 37.0688 34.1662 37.0688C35.685 37.0688 36.48 36.3113 36.48 35.2613C36.48 34.0088 35.655 33.5626 33.9862 32.8313L33.0712 32.4376C30.4275 31.3126 28.6687 29.9026 28.6687 26.9176C28.6687 24.1726 30.765 22.0801 34.035 22.0801C36.3637 22.0801 38.0362 22.8901 39.2437 25.0126L36.3937 26.8463C35.7637 25.7176 35.0887 25.2751 34.035 25.2751C32.9625 25.2751 32.2837 25.9576 32.2837 26.8463C32.2837 27.9451 32.9625 28.3876 34.5337 29.0701L35.4487 29.4638C38.565 30.7951 40.32 32.1563 40.32 35.2163C40.32 38.5126 37.7287 40.3201 34.2487 40.3201Z" fill="url(#paint0_linear_419_7129)"/>
<defs>
<linearGradient id="paint0_linear_419_7129" x1="34.5" y1="27" x2="41.5" y2="46.5" gradientUnits="userSpaceOnUse">
<stop/>
<stop offset="1" stop-color="#F19E38"/>
</linearGradient>
</defs>
</svg>
