<svg width="31" height="31" viewBox="0 0 31 31" fill="none" xmlns="http://www.w3.org/2000/svg">
<g clip-path="url(#clip0_1696_704)">
<path d="M0.738708 0.515381H30.7387V30.5154H0.738708V0.515381Z" fill="#F0DB4F"/>
<path d="M28.2834 23.3604C28.0638 21.9916 27.1712 20.8423 24.5277 19.7701C23.6095 19.348 22.5857 19.0458 22.2806 18.3499C22.1722 17.945 22.1579 17.7169 22.2264 17.4716C22.4231 16.676 23.3728 16.4279 24.1256 16.656C24.6104 16.8186 25.0695 17.1922 25.3462 17.7882C26.6408 16.9498 26.638 16.9555 27.542 16.3794C27.2112 15.8661 27.0344 15.6294 26.8176 15.4099C26.0391 14.5401 24.9783 14.0924 23.2815 14.1266C22.9878 14.1637 22.6912 14.2035 22.3975 14.2406C21.5506 14.4545 20.7435 14.8994 20.2701 15.4954C18.85 17.1066 19.2549 19.9269 20.983 21.0876C22.6855 22.3652 25.1865 22.656 25.5058 23.8509C25.8167 25.3138 24.4308 25.7872 23.0534 25.619C22.0382 25.408 21.4736 24.8918 20.8633 23.9536C19.7397 24.6038 19.7397 24.6038 18.5848 25.2682C18.8585 25.8671 19.1465 26.138 19.6057 26.657C21.7787 28.8614 27.2169 28.753 28.1922 25.4165C28.2321 25.3024 28.4945 24.5381 28.2834 23.3604ZM17.0477 14.3034H14.2416C14.2416 16.7273 14.2302 19.1342 14.2302 21.5581C14.2302 23.1009 14.3101 24.5153 14.0591 24.9488C13.6485 25.8014 12.5848 25.6959 12.1 25.5305C11.6066 25.2881 11.3557 24.9431 11.0648 24.4555C10.985 24.3157 10.9251 24.2074 10.9051 24.1988C10.1437 24.6636 9.38513 25.1313 8.62372 25.5961C9.00302 26.3747 9.56193 27.0505 10.2777 27.4896C11.3471 28.1313 12.7844 28.328 14.2872 27.983C15.2654 27.6978 16.1095 27.1075 16.5515 26.2093C17.1903 25.0315 17.0534 23.6056 17.0477 22.0286C17.0619 19.4564 17.0477 16.8842 17.0477 14.3034Z" fill="#323330"/>
</g>
<defs>
<clipPath id="clip0_1696_704">
<rect x="0.738708" y="0.515381" width="30" height="30" rx="3" fill="white"/>
</clipPath>
</defs>
</svg>
