<svg width="36" height="37" viewBox="0 0 36 37" fill="none" xmlns="http://www.w3.org/2000/svg">
<g clip-path="url(#clip0_1511_6974)">
<path d="M4.37261 8.00436C4.40481 7.95171 4.437 7.89906 4.4692 7.84641C4.4827 7.8168 4.49517 7.78828 4.50867 7.75866C4.64057 7.57987 4.7195 7.36708 4.84413 7.1839C4.85659 7.17951 4.86802 7.17403 4.85763 7.15648C5.12039 6.67056 5.38108 6.18464 5.64592 5.69982C6.05408 4.95175 6.46536 4.20477 6.87456 3.4556C7.15913 2.93458 7.44059 2.41137 7.72308 1.89035C7.8768 1.66878 8.0627 1.47573 8.24238 1.27829C8.51656 1.03479 8.80841 0.817603 9.13972 0.667331C9.46271 0.520349 9.79818 0.432598 10.1523 0.428211C15.2362 0.366786 20.3201 0.418339 25.4039 0.402983C26.0209 0.400789 26.6201 0.492927 27.1425 0.883416C27.4074 1.08085 27.6182 1.32875 27.7813 1.62381C27.8529 1.75324 27.9007 1.89584 27.9869 2.01649C28.0752 2.17225 28.1635 2.32801 28.2517 2.48376C28.2694 2.51886 28.2871 2.55287 28.3047 2.58797C28.3068 2.62636 28.3276 2.65597 28.3525 2.6823C28.392 2.7876 28.4491 2.88193 28.5145 2.97078C28.5311 3.02124 28.5571 3.06731 28.5914 3.1057C28.6236 3.19454 28.6693 3.27571 28.7201 3.35359C28.7544 3.4556 28.8136 3.54116 28.8718 3.62781C28.8894 3.67936 28.9144 3.72543 28.9507 3.76382C28.9673 3.81647 28.9923 3.86583 29.0276 3.90642C29.0504 3.9843 29.092 4.05121 29.1356 4.11702C29.2083 4.27387 29.2986 4.41976 29.39 4.56564C29.4326 4.67753 29.4887 4.78283 29.5531 4.88264C29.5635 4.90348 29.5749 4.92323 29.5853 4.94407C29.6009 4.9693 29.6164 4.99452 29.632 5.01975C29.6538 5.05705 29.6767 5.09434 29.6985 5.13163C29.7026 5.14041 29.7068 5.14918 29.711 5.15796C29.7172 5.16673 29.7234 5.17661 29.7286 5.18538C29.7774 5.28191 29.8262 5.37843 29.8751 5.47496C29.9156 5.5638 29.9592 5.65156 30.0184 5.72943C30.0454 5.7755 30.0713 5.82267 30.0983 5.86874C30.1046 5.87751 30.1108 5.88738 30.117 5.89616C30.169 5.99598 30.2209 6.09579 30.2739 6.19561C30.3081 6.29762 30.3694 6.38317 30.4265 6.46983C30.4369 6.48738 30.4463 6.50602 30.4567 6.52357C30.4639 6.53564 30.4712 6.54661 30.4785 6.55868C30.7049 7.01827 30.9625 7.45812 31.2065 7.90784C31.3291 8.1327 31.4485 8.35866 31.5711 8.58352C31.7279 8.8698 31.8878 9.15389 32.0436 9.44018C32.2409 9.80215 32.4341 10.1663 32.6315 10.5294C32.755 10.7564 32.8807 10.9824 33.0053 11.2094C33.4187 11.9685 33.8362 12.7242 34.2454 13.4855C34.4448 13.8584 34.6525 14.2292 34.8654 14.5944C35.1126 15.0189 35.3141 15.4719 35.5644 15.8931C35.6787 16.0851 35.7617 16.2968 35.8926 16.4778C35.9144 16.6302 35.9747 16.7706 36.0287 16.9132C36.0307 16.9428 36.0089 16.9779 36.0474 16.9988C36.0858 17.0767 36.0089 17.1699 36.0775 17.2434C36.0931 17.4606 36.1169 17.6767 36.0847 17.8949C36.0806 17.9147 36.0764 17.9344 36.0723 17.9542L36.0733 17.9531C36.0609 17.9586 36.0484 17.964 36.0577 17.9816C36.0546 18.009 36.0515 18.0375 36.0484 18.0649C36.0339 18.0671 36.0245 18.0748 36.0276 18.0924L36.0235 18.1746C35.9902 18.224 35.9996 18.2843 35.9819 18.3381C35.9528 18.4116 35.9227 18.4862 35.8936 18.5596C35.8781 18.5596 35.8687 18.5651 35.8739 18.5838C35.8718 18.6024 35.8698 18.6211 35.8677 18.6386C35.8106 18.7253 35.7524 18.8119 35.7171 18.9117C35.6953 18.9874 35.633 19.0423 35.6215 19.1234C35.5852 19.141 35.5592 19.1673 35.5582 19.2134C35.525 19.277 35.4907 19.3406 35.4574 19.4042C35.4398 19.4404 35.4211 19.4766 35.4034 19.5128C35.3744 19.5457 35.3422 19.5765 35.3432 19.6269C35.3349 19.6291 35.3307 19.6357 35.3287 19.6434C35.3017 19.6401 35.3068 19.6576 35.311 19.6741C35.2985 19.7026 35.285 19.73 35.2726 19.7585C35.1905 19.8956 35.1095 20.0328 35.0275 20.1699C35.0108 20.1951 34.987 20.217 34.989 20.2521C34.9496 20.2774 34.9548 20.3245 34.9402 20.3618C34.9132 20.3695 34.9174 20.3958 34.9111 20.4156C34.8281 20.5132 34.7772 20.6327 34.7128 20.7435C34.7097 20.7534 34.7065 20.7622 34.7045 20.7721C34.6733 20.8214 34.6432 20.8697 34.612 20.919L34.6183 20.9256C34.6183 20.9256 34.6141 20.9212 34.611 20.919C34.5622 20.9794 34.5549 21.0583 34.5227 21.1263C34.4957 21.134 34.4999 21.1593 34.4957 21.1801C34.4531 21.2042 34.449 21.2547 34.4261 21.2931C34.396 21.2986 34.397 21.3249 34.3929 21.349C34.368 21.394 34.343 21.439 34.3171 21.4839C34.2797 21.507 34.2797 21.5464 34.2755 21.5848C34.2496 21.6166 34.2236 21.6496 34.1976 21.6814L34.1914 21.6879C34.1623 21.7055 34.1571 21.7274 34.1779 21.756C34.1717 21.7669 34.1654 21.7768 34.1592 21.7878C34.1332 21.7943 34.1395 21.8185 34.1353 21.8371C34.1281 21.8448 34.1218 21.8525 34.1146 21.8591C34.0824 21.9282 34.0221 21.9797 34.0024 22.0565C33.9754 22.0653 33.9785 22.0894 33.9775 22.1113C33.9692 22.13 33.9608 22.1486 33.9525 22.1673C33.9359 22.1947 33.9183 22.2221 33.9016 22.2495C33.884 22.2857 33.8663 22.3219 33.8476 22.3581C33.8196 22.402 33.7916 22.447 33.7625 22.4909L33.7666 22.4887C33.7479 22.4931 33.75 22.5051 33.7542 22.5194C33.7417 22.5468 33.7292 22.5753 33.7168 22.6027C33.6233 22.73 33.5329 22.8583 33.4872 23.0152C33.453 23.0305 33.4322 23.0558 33.4364 23.0974C33.4187 23.1336 33.401 23.1698 33.3844 23.2071C33.3574 23.2148 33.3616 23.2411 33.3554 23.2609C33.2733 23.3563 33.2224 23.4726 33.1746 23.5888C33.1404 23.6042 33.1206 23.6294 33.1227 23.6711C33.1009 23.7018 33.0791 23.7325 33.0562 23.7632L33.0542 23.7654C33.0012 23.8126 33.0105 23.8894 32.9773 23.9453C32.9565 23.9771 32.9223 24.0024 32.9295 24.0484C32.8932 24.066 32.8662 24.0923 32.8672 24.1384L32.8651 24.1406C32.8298 24.1559 32.8361 24.1899 32.834 24.2195C32.8277 24.2239 32.8257 24.2305 32.8267 24.2393C32.7841 24.2525 32.7872 24.3018 32.7613 24.3281C32.726 24.3512 32.7228 24.3907 32.7197 24.429C32.699 24.4938 32.5816 24.4982 32.6221 24.6013C32.6169 24.6111 32.6117 24.621 32.6055 24.632C32.5795 24.6397 32.5858 24.6649 32.5795 24.6835C32.5525 24.6912 32.5577 24.7175 32.5515 24.7373C32.5079 24.7855 32.4632 24.8327 32.4518 24.9029C32.4445 24.9215 32.4372 24.9402 32.4289 24.9577C32.4206 24.9577 32.4144 24.961 32.4102 24.9687L32.4092 24.9698C32.3635 24.9972 32.378 25.0576 32.3469 25.0927C32.3386 25.1113 32.3292 25.1311 32.3209 25.1497C32.2544 25.1804 32.2648 25.2605 32.2295 25.3109C32.216 25.3384 32.2036 25.3658 32.1901 25.3932C32.0872 25.538 31.9865 25.6839 31.9335 25.8583C31.8993 25.8736 31.8785 25.8989 31.8826 25.9405C31.8691 25.968 31.8556 25.9954 31.8421 26.0217C31.8245 26.0459 31.8006 26.0678 31.8016 26.1029C31.758 26.138 31.7424 26.1895 31.7268 26.2411H31.7258C31.6583 26.285 31.6552 26.3683 31.6209 26.432C31.6136 26.4407 31.6053 26.4506 31.5981 26.4605C31.5898 26.4791 31.5825 26.4978 31.5742 26.5164C31.5555 26.5438 31.5378 26.5702 31.5191 26.5976L31.5181 26.5987C31.4838 26.6129 31.4599 26.6338 31.4703 26.6788C31.4516 26.7237 31.4319 26.7698 31.4132 26.8148C31.3696 26.863 31.3291 26.9135 31.3114 26.9804H31.3104C31.2761 27.0451 31.2408 27.1076 31.2065 27.1712C31.1795 27.18 31.1816 27.2042 31.1806 27.2261C31.1452 27.2897 31.1099 27.3533 31.0757 27.417H31.0767C31.0601 27.4191 31.0601 27.4301 31.0653 27.4422C31.0507 27.4696 31.0227 27.4904 31.0258 27.5266C30.9645 27.6001 30.9219 27.6846 30.8856 27.7734C30.8804 27.7833 30.8762 27.7932 30.8711 27.8031C30.8129 27.8283 30.8139 27.8886 30.7973 27.9391C30.763 27.9544 30.7433 27.9807 30.7433 28.0202C30.7028 28.0564 30.6997 28.1124 30.6748 28.1562C30.6716 28.1661 30.6675 28.1749 30.6644 28.1848C30.5834 28.2835 30.5304 28.402 30.467 28.5116C30.4639 28.5215 30.4608 28.5314 30.4587 28.5413C30.4203 28.5884 30.4006 28.6455 30.3808 28.7036C30.3486 28.7168 30.3476 28.7442 30.3507 28.7749C30.3113 28.7913 30.3009 28.8308 30.2884 28.8681C30.2718 28.8934 30.2469 28.9142 30.25 28.9493C30.2084 28.9734 30.2043 29.0217 30.1845 29.0601C30.1804 29.07 30.1773 29.0787 30.1731 29.0886C30.1482 29.0974 30.144 29.1182 30.1472 29.1413C30.1409 29.1478 30.1378 29.1544 30.1378 29.1643C30.0952 29.1895 30.0786 29.2312 30.0682 29.2784C30.0308 29.2926 30.0319 29.331 30.0215 29.3617C29.9883 29.3891 29.9706 29.4264 29.9633 29.4692C29.955 29.478 29.9467 29.4868 29.9384 29.4955C29.9249 29.4999 29.9156 29.5065 29.9187 29.5241C29.9156 29.5317 29.9135 29.5405 29.9124 29.5493C29.8989 29.5537 29.8886 29.5614 29.8917 29.5789L29.8657 29.6337C29.8304 29.6974 29.7795 29.7511 29.7618 29.8257C29.7587 29.8334 29.7567 29.8422 29.7567 29.8498L29.7307 29.8794C29.7172 29.8838 29.7078 29.8904 29.711 29.908C29.7026 29.9266 29.6933 29.9453 29.685 29.9628C29.6767 29.9815 29.6673 29.999 29.659 30.0177C29.6507 30.0593 29.6019 30.0791 29.604 30.1273C29.5728 30.157 29.5489 30.1921 29.5417 30.237C29.5032 30.2809 29.4887 30.3368 29.47 30.3906C29.3745 30.5091 29.2986 30.6396 29.2436 30.7844C29.2166 30.7921 29.2207 30.8184 29.2145 30.8381C29.1709 30.8721 29.1574 30.9248 29.1397 30.9752C29.1127 30.9829 29.1169 31.0092 29.1107 31.029C29.0411 31.1321 28.9777 31.2396 28.9299 31.3569C28.9216 31.3668 28.9123 31.3756 28.904 31.3855C28.8666 31.4337 28.8448 31.4908 28.8261 31.5489C28.8115 31.5511 28.8022 31.5577 28.8053 31.5752C28.8022 31.5895 28.8001 31.6048 28.797 31.6191C28.7503 31.6443 28.7368 31.6915 28.7243 31.7398C28.6973 31.7463 28.7015 31.7727 28.6973 31.7924C28.6547 31.8154 28.6506 31.8648 28.6298 31.9032C28.6267 31.912 28.6236 31.9218 28.6204 31.9306C28.5955 31.9405 28.5893 31.9602 28.5924 31.9855C28.5862 31.9909 28.5831 31.9975 28.5841 32.0063C28.5425 32.0195 28.5425 32.0644 28.5249 32.094C28.5062 32.127 28.4698 32.15 28.4771 32.195C28.4377 32.2246 28.4158 32.2696 28.393 32.3123C28.3826 32.3409 28.3722 32.3694 28.3629 32.3979C28.3359 32.4045 28.3431 32.4308 28.3369 32.4494C28.3099 32.4593 28.3141 32.4834 28.313 32.5054C28.2694 32.5536 28.2175 32.5964 28.2092 32.6699C28.2019 32.6886 28.1946 32.7072 28.1874 32.7248C28.1811 32.7302 28.1749 32.7357 28.1687 32.7412V32.7379C28.123 32.7763 28.1178 32.8388 28.0897 32.8871C28.0762 32.909 28.0638 32.9299 28.0503 32.9518L28.0399 32.9551L28.042 32.965C28.0285 32.9858 28.0139 33.0067 28.0004 33.0286C27.99 33.0319 27.9817 33.0352 27.989 33.0494C27.9755 33.0571 27.962 33.0637 27.9495 33.0714L27.9443 33.0659L27.9506 33.0681C27.9495 33.0801 27.9474 33.0933 27.9464 33.1054C27.8872 33.1613 27.8363 33.2249 27.7989 33.3006C27.693 33.4191 27.5881 33.5375 27.4822 33.656C27.4718 33.6659 27.4624 33.6747 27.452 33.6845C27.3752 33.6845 27.3617 33.7756 27.3004 33.7986C27.2692 33.7964 27.2744 33.8249 27.2672 33.8425C27.2516 33.8469 27.237 33.8502 27.2215 33.8545C27.2038 33.8458 27.1997 33.8589 27.1945 33.8721C27.1685 33.8831 27.1436 33.8951 27.1176 33.9061C27.101 33.9017 27.0948 33.9116 27.0927 33.9269C27.0667 33.9489 27.0397 33.9708 27.0138 33.9927C26.9961 33.9829 26.993 33.9928 26.993 34.0092C26.9224 34.0476 26.8517 34.086 26.7821 34.1244C26.7365 34.1145 26.7022 34.1277 26.6835 34.1748C26.3449 34.3405 25.9835 34.3778 25.6169 34.3964C25.5743 34.3953 25.5307 34.392 25.4881 34.392C20.5506 34.392 15.6132 34.392 10.6747 34.392C10.6322 34.392 10.5885 34.3953 10.546 34.3964C10.3206 34.3964 10.0952 34.3865 9.87192 34.3449C9.86361 34.3394 9.85634 34.3394 9.84699 34.3427C9.76079 34.3251 9.67459 34.3087 9.58734 34.2911C9.56138 34.29 9.53541 34.2878 9.50945 34.2867C9.4326 34.2582 9.35574 34.2286 9.27888 34.2001C9.2498 34.1704 9.21345 34.1562 9.17295 34.1496C9.13348 34.1288 9.09402 34.1068 9.05455 34.086C9.0317 34.0564 9.00158 34.0399 8.96627 34.0355C8.58303 33.7854 8.23822 33.4937 8.00143 33.079C8.0035 33.0067 7.97442 32.9584 7.9038 32.943C7.80825 32.7697 7.7127 32.5953 7.61611 32.422C7.60884 32.4121 7.60157 32.4023 7.59326 32.3935C7.57353 32.3398 7.5538 32.2849 7.53406 32.2312C7.53199 32.2004 7.50498 32.2103 7.4894 32.2015C7.48317 32.1588 7.4624 32.1248 7.43436 32.094C7.42709 32.082 7.42086 32.071 7.41359 32.059C7.37724 31.9504 7.31492 31.8582 7.25468 31.765C7.25053 31.7365 7.26715 31.7014 7.2308 31.6838L7.22976 31.6827C7.21314 31.6641 7.19652 31.6465 7.17887 31.6279C7.13525 31.5215 7.08124 31.4217 7.01685 31.3273C6.98984 31.267 6.96803 31.2034 6.92338 31.1529L6.83613 30.9983C6.83406 30.9719 6.85483 30.9379 6.81329 30.9259L6.80809 30.9193C6.80809 30.8886 6.78109 30.8809 6.76447 30.8644C6.75305 30.7921 6.68554 30.746 6.68139 30.6703C6.68346 30.6538 6.67827 30.6462 6.66165 30.6506C6.64088 30.6209 6.62011 30.5913 6.59934 30.5617C6.57857 30.5244 6.55779 30.4871 6.53806 30.4498C6.53391 30.4411 6.52975 30.4323 6.5256 30.4246C6.51937 30.4136 6.51313 30.4038 6.5069 30.3928C6.35319 30.1098 6.20156 29.8268 6.04473 29.546C6.01565 29.4944 5.99488 29.4429 5.98138 29.3859C5.98553 29.3683 5.97826 29.3617 5.96165 29.3639C5.83494 29.1807 5.73004 28.9833 5.62826 28.7848C5.57529 28.6828 5.51713 28.5829 5.46209 28.482C5.45586 28.4732 5.45066 28.4645 5.44443 28.4557C5.30526 28.2001 5.16609 27.9456 5.02692 27.6901C5.01965 27.6769 5.01342 27.6637 5.00615 27.6506C4.86386 27.3917 4.72158 27.1329 4.58137 26.8729C4.34665 26.4396 4.11608 26.0031 3.87721 25.572C3.68715 25.2287 3.46801 24.9029 3.30079 24.5486C3.18343 24.3007 3.04634 24.066 2.91859 23.8269C2.70568 23.4265 2.50005 23.0207 2.26221 22.6346C2.1085 22.3856 1.96933 22.1245 1.83639 21.8623C1.63906 21.4741 1.42407 21.0967 1.21635 20.7161C1.21012 20.7073 1.20493 20.6986 1.1987 20.6898C1.05953 20.4353 0.921397 20.1797 0.782227 19.9253C0.774956 19.911 0.767686 19.8978 0.760416 19.8836C0.633709 19.6565 0.518426 19.4229 0.379256 19.2057C0.13415 18.8218 -0.025792 18.4028 -0.127573 17.9553C-0.126535 17.9366 -0.127573 17.9191 -0.146268 17.9092C-0.201313 17.5549 -0.214814 17.1995 -0.180541 16.8408C-0.136921 16.39 0.00328831 15.9787 0.230738 15.597C0.314864 15.4555 0.392757 15.3096 0.473767 15.1648C0.488307 15.1637 0.497654 15.1571 0.4935 15.1396C0.718873 14.7129 0.9484 14.2884 1.18935 13.8716C1.36799 13.5623 1.52378 13.2387 1.68995 12.9217C1.72422 12.9085 1.76265 12.8975 1.7398 12.8438C1.8447 12.6617 1.94856 12.4785 2.05345 12.2965C2.0815 12.2866 2.07111 12.2636 2.07007 12.2427C2.35776 11.7129 2.64545 11.1831 2.93313 10.6533C2.93937 10.6457 2.94456 10.6369 2.95079 10.6292C3.03907 10.4723 3.12631 10.3144 3.21459 10.1575C3.23536 10.1202 3.24575 10.072 3.29456 10.0599C3.32676 10.0402 3.32884 10.0193 3.29456 9.99959C3.47943 9.65846 3.66949 9.32172 3.84813 8.97839C3.97172 8.74147 4.11297 8.51441 4.23864 8.27749C4.27083 8.21606 4.28329 8.14367 4.33522 8.09431C4.34976 8.0636 4.36327 8.03398 4.37781 8.00327L4.37261 8.00436ZM11.1099 21.5925C11.1151 21.5848 11.1203 21.5783 11.1255 21.5706C11.1961 21.4302 11.2667 21.2898 11.3374 21.1505C11.3592 21.0704 11.435 21.0243 11.4506 20.941C11.4817 20.9234 11.5066 20.9015 11.4952 20.8576C11.5202 20.8269 11.5285 20.7896 11.5295 20.7501C11.5378 20.7501 11.5451 20.7468 11.5513 20.7402C11.6105 20.6887 11.6302 20.6097 11.6687 20.5439H11.6614C11.678 20.5351 11.6842 20.5209 11.6811 20.5022C11.7393 20.3903 11.7975 20.2785 11.8556 20.1666C11.893 20.0964 11.9304 20.0262 11.9667 19.956C12.001 19.8989 12.0353 19.843 12.0685 19.786C12.1547 19.719 12.1537 19.5962 12.2233 19.5183C12.2295 19.5084 12.2368 19.5008 12.243 19.492C12.2087 19.4426 12.2669 19.4196 12.271 19.3812C12.2825 19.3538 12.2929 19.3275 12.3043 19.3L12.3728 19.1849C12.4061 19.1026 12.4725 19.0379 12.4923 18.9468C12.511 18.9205 12.5297 18.8931 12.5483 18.8668C12.5608 18.8372 12.5733 18.8086 12.5857 18.779C12.6273 18.7198 12.6667 18.6584 12.6896 18.5871C12.7197 18.5816 12.7436 18.5717 12.7405 18.5322C12.7467 18.5223 12.754 18.5147 12.7602 18.5059C12.7716 18.4598 12.7841 18.4149 12.7955 18.3688C12.8132 18.3501 12.8298 18.3326 12.8475 18.3139C12.8797 18.2646 12.8942 18.2086 12.8994 18.1505C12.9669 18.1077 12.9659 18.0211 13.0064 17.9607C13.0323 17.9531 13.0365 17.9322 13.0365 17.9081C13.0926 17.8675 13.105 17.7984 13.1393 17.7425C13.1964 17.6536 13.2525 17.5648 13.2837 17.4617C13.3179 17.4233 13.3418 17.3783 13.3574 17.3278C13.3678 17.3026 13.3792 17.2774 13.3896 17.2522L13.4104 17.2193C13.4156 17.2116 13.4208 17.2039 13.4249 17.1962C13.5142 17.0306 13.6025 16.865 13.6918 16.6993C13.6981 16.6938 13.7012 16.6862 13.7012 16.6774C13.7386 16.6368 13.7645 16.5907 13.777 16.5359C13.7853 16.5183 13.7947 16.4997 13.803 16.4822C13.8372 16.4427 13.8622 16.3966 13.8767 16.345C13.8964 16.3253 13.9089 16.3012 13.9089 16.2716C13.9162 16.2595 13.9234 16.2474 13.9307 16.2365C13.9359 16.2288 13.9421 16.2211 13.9473 16.2134C14.0294 16.0577 14.1114 15.9008 14.1935 15.745L14.1914 15.7472L14.2101 15.7187C14.2174 15.7132 14.2205 15.7045 14.2194 15.6957C14.2537 15.665 14.2703 15.6222 14.2869 15.5805C14.2984 15.5531 14.3108 15.5268 14.3223 15.4993C14.3534 15.4708 14.369 15.4335 14.3794 15.3919C14.4043 15.3392 14.4282 15.2876 14.4531 15.235C14.5102 15.1582 14.5497 15.0705 14.5819 14.9794C14.6369 14.9158 14.6494 14.8215 14.7221 14.7677C14.7938 14.8324 14.8135 14.9312 14.8665 15.0057C14.8737 15.02 14.881 15.0343 14.8883 15.0474C14.8935 15.0946 14.9184 15.1319 14.9444 15.1692C14.9963 15.2986 15.07 15.416 15.1458 15.5301C15.1552 15.5465 15.1635 15.563 15.1729 15.5794C15.1822 15.5937 15.1905 15.6079 15.1999 15.6222C15.2341 15.7264 15.2881 15.8196 15.3463 15.9107C15.4346 16.0675 15.5229 16.2233 15.6122 16.3801C15.6215 16.4185 15.6361 16.4547 15.6641 16.4822C15.6703 16.5249 15.6921 16.5589 15.7191 16.5885C15.7285 16.6072 15.7389 16.6258 15.7482 16.6445C15.769 16.6829 15.7887 16.7202 15.8095 16.7586C15.8251 16.7838 15.8396 16.8101 15.8552 16.8353C15.8967 16.9077 15.9373 16.9801 15.9788 17.0525C16.038 17.1896 16.1169 17.3147 16.2031 17.4342L16.2052 17.4375L16.1834 17.5703C15.984 17.9684 15.7441 18.3414 15.5519 18.745C15.3536 19.1629 15.1053 19.5545 14.907 19.9746C14.7865 20.2302 14.6151 20.4551 14.5113 20.7227C14.4697 20.8302 14.3908 20.9201 14.3358 21.0221C14.1644 21.3446 13.993 21.6682 13.8289 21.9951C13.7375 22.1772 13.6191 22.345 13.5745 22.5501C13.5579 22.5841 13.5412 22.6192 13.5475 22.6598C13.5288 22.7914 13.5568 22.9077 13.643 23.0064V23.013C13.6534 23.0218 13.6628 23.0316 13.6731 23.0404C13.7614 23.172 13.8964 23.206 14.0356 23.228C14.8997 23.2291 15.7648 23.2313 16.6289 23.2324C16.6933 23.2324 16.7567 23.2192 16.8128 23.1819C16.8626 23.1797 16.9021 23.1534 16.9395 23.1238C17.0797 23.0119 17.1472 22.8463 17.223 22.6872C17.4027 22.4909 17.4702 22.2254 17.6073 22.0028C17.6218 21.9775 17.6353 21.9523 17.6499 21.9271C17.6738 21.881 17.6987 21.8338 17.7226 21.7878C17.7288 21.7713 17.7361 21.756 17.7423 21.7395C17.8285 21.5859 17.9085 21.4302 17.977 21.2667C18.0009 21.2196 18.0248 21.1713 18.0487 21.1241C18.0539 21.1176 18.0591 21.1099 18.0643 21.1033C18.0674 21.0934 18.0715 21.0836 18.0747 21.0737C18.1671 20.9848 18.1723 21.1187 18.2211 21.1384L18.2263 21.134L18.2221 21.1285C18.2242 21.1516 18.2388 21.1625 18.2564 21.1713C18.2637 21.2777 18.3385 21.3512 18.38 21.4401C18.3873 21.4554 18.3935 21.4719 18.4008 21.4872C18.4184 21.53 18.4361 21.5728 18.4537 21.6166C18.4662 21.6528 18.4755 21.6901 18.515 21.7055C18.5181 21.7263 18.515 21.7494 18.5389 21.7581C18.5441 21.8207 18.6116 21.8415 18.6241 21.9007C18.6293 21.9073 18.6355 21.915 18.6407 21.9216C18.6511 21.9797 18.6895 22.0203 18.7217 22.0642C18.7165 22.0971 18.7404 22.1157 18.7529 22.1399C18.7923 22.2517 18.8567 22.3483 18.9232 22.4437C18.9273 22.4612 18.9315 22.4777 18.9356 22.4952C18.9356 22.5271 18.9637 22.526 18.9813 22.538C18.9793 22.5578 18.9824 22.5742 19.0032 22.5797C19.0115 22.6324 19.0426 22.6675 19.0842 22.6927C19.1299 22.8254 19.2015 22.9428 19.2867 23.0492C19.3802 23.1654 19.5079 23.2302 19.6471 23.2302C20.4873 23.2334 21.3275 23.2302 22.1677 23.228C22.2581 23.2334 22.3505 23.2455 22.4294 23.1797C22.6735 23.1424 22.8781 22.753 22.7639 22.5282C22.7223 22.447 22.6912 22.3603 22.6548 22.2759C22.6548 22.243 22.6237 22.2397 22.607 22.2221C22.5198 21.9973 22.39 21.7976 22.2768 21.5881C22.0742 21.2141 21.8655 20.8433 21.663 20.4693C21.5653 20.2894 21.4771 20.104 21.3784 19.9253C21.1509 19.5117 20.9193 19.1004 20.6898 18.688C20.5143 18.371 20.3419 18.0529 20.1674 17.7348C20.1612 17.7238 20.1549 17.7139 20.1487 17.703C20.1186 17.6481 20.0926 17.5911 20.0594 17.5384C20.0168 17.4737 20.0199 17.4189 20.0563 17.3509C20.4987 16.5304 20.9339 15.7056 21.3566 14.8741C21.3909 14.8072 21.4168 14.6975 21.476 14.6931C21.5487 14.6866 21.5456 14.8127 21.5975 14.8653C21.636 14.9641 21.692 15.0518 21.7533 15.1363C21.8229 15.2876 21.8904 15.439 21.9818 15.5772C21.987 15.6123 22.0047 15.6386 22.0285 15.6617C22.0493 15.6968 22.0701 15.7319 22.0909 15.7659C22.1147 15.8295 22.148 15.8887 22.1895 15.9414C22.2134 16.0182 22.2529 16.084 22.2965 16.1498C22.3401 16.2628 22.4024 16.3637 22.4741 16.4591C22.4918 16.4931 22.5094 16.5271 22.5271 16.5611C22.5437 16.6138 22.5686 16.662 22.605 16.7037C22.6278 16.7816 22.6683 16.8496 22.713 16.9154C22.7857 17.0734 22.876 17.2193 22.9664 17.3651C23.009 17.477 23.0651 17.5812 23.1294 17.681C23.1793 17.8061 23.2582 17.9136 23.3289 18.0255C23.359 18.1143 23.4016 18.1966 23.4535 18.2734C23.5013 18.3589 23.521 18.4598 23.5906 18.5311C23.5885 18.5706 23.6082 18.5958 23.6404 18.6123L23.7962 18.8898C23.791 18.9249 23.8139 18.9446 23.8326 18.9666C23.899 19.0938 23.9655 19.2222 24.032 19.3494C24.1057 19.4788 24.1784 19.6083 24.2522 19.7366C24.3415 19.8934 24.4308 20.0503 24.5191 20.2061C24.5263 20.2477 24.5419 20.285 24.572 20.3125C24.5824 20.3377 24.5939 20.3629 24.6042 20.3881C24.6281 20.4276 24.651 20.466 24.6749 20.5055C24.6998 20.5582 24.705 20.6229 24.7559 20.6602C24.7621 20.6667 24.7683 20.6722 24.7735 20.6788C24.8099 20.7413 24.8452 20.805 24.8815 20.8675C24.8795 20.873 24.8815 20.8773 24.8867 20.8795C24.894 20.8916 24.9013 20.9048 24.9075 20.9168C24.921 20.9761 24.949 21.0265 24.9833 21.0726C25.0373 21.1724 25.0685 21.2854 25.1422 21.3731C25.1609 21.3995 25.1796 21.4269 25.1983 21.4532C25.2482 21.5454 25.299 21.6375 25.3489 21.7307C25.3427 21.7691 25.3697 21.7889 25.3884 21.813C25.4486 21.949 25.5234 22.0762 25.6065 22.1969C25.6065 22.2057 25.6085 22.2123 25.6148 22.2177C25.6376 22.2572 25.6605 22.2956 25.6833 22.3351C25.7456 22.5128 25.8537 22.6631 25.9482 22.821C25.9554 22.832 25.9617 22.8441 25.9689 22.855C25.9835 22.8814 25.998 22.9077 26.0115 22.934C26.025 22.9746 26.0406 23.0152 26.0718 23.0448C26.0749 23.0865 26.0936 23.1205 26.1216 23.1501C26.1226 23.1885 26.1424 23.2148 26.1715 23.2334C26.2462 23.4177 26.3688 23.5735 26.4591 23.749C26.51 23.8477 26.5973 23.9442 26.7219 23.9673C26.7759 24.0046 26.8382 23.9947 26.8974 23.9947C27.773 23.9947 28.6485 23.9947 29.524 23.9947C29.5749 23.9947 29.6279 24.0089 29.6736 23.9717C29.9914 23.8828 30.1233 23.5548 29.9696 23.2499C29.8802 23.0722 29.7992 22.8901 29.7151 22.7091C29.7193 22.6949 29.7151 22.6894 29.7016 22.6949C29.6144 22.5633 29.5396 22.424 29.4856 22.2737C29.4825 22.2441 29.4565 22.2539 29.442 22.2452C29.3817 22.1179 29.2976 22.0028 29.2426 21.8766C29.1647 21.6978 29.0598 21.5377 28.9663 21.3699L28.9486 21.3457C28.8105 21.0901 28.6921 20.8214 28.5322 20.579C28.5249 20.5691 28.5166 20.5593 28.5093 20.5483C28.4969 20.4869 28.4667 20.4342 28.4293 20.3859C28.421 20.3761 28.4138 20.3662 28.4055 20.3563C28.3244 20.2104 28.2476 20.0613 28.1676 19.9143C28.0825 19.7574 27.9734 19.6094 27.9329 19.4284C27.9371 19.4108 27.9298 19.4042 27.9132 19.4075C27.8 19.2419 27.6971 19.0719 27.6234 18.8821C27.6234 18.8492 27.5933 18.8448 27.5767 18.8284C27.5341 18.7308 27.4905 18.6353 27.423 18.5531C27.3845 18.45 27.3368 18.3512 27.2692 18.2657C27.2422 18.2218 27.21 18.1801 27.1903 18.133C27.102 17.9256 26.9795 17.7403 26.8756 17.5428C26.8683 17.533 26.8611 17.5231 26.8528 17.5143C26.8175 17.4046 26.751 17.3136 26.6949 17.2149C26.6793 17.1863 26.6637 17.1589 26.6492 17.1304L26.4612 16.7761C26.454 16.7673 26.4456 16.7586 26.4384 16.7498C26.4363 16.7279 26.4342 16.7059 26.4124 16.6949C26.4062 16.6609 26.3906 16.6324 26.3657 16.6105C26.3615 16.6017 26.3574 16.594 26.3532 16.5853C26.347 16.5754 26.3407 16.5655 26.3345 16.5556C26.3283 16.5216 26.3137 16.4931 26.2847 16.4756C26.2608 16.4032 26.2296 16.3352 26.1829 16.2748C26.1538 16.2233 26.1247 16.1717 26.0946 16.1202C26.0946 16.0928 26.1112 16.0599 26.0728 16.0445L26.0686 16.0401C26.0655 16.0105 26.0396 16.0017 26.0219 15.9853C26.0177 15.9491 26.0032 15.9195 25.9721 15.9008C25.891 15.7396 25.8173 15.5739 25.7145 15.4259C25.6085 15.1911 25.4756 14.9739 25.3468 14.7535C25.3468 14.7326 25.3406 14.714 25.3209 14.703L25.3188 14.6986C25.3115 14.6888 25.3042 14.6789 25.297 14.6701C25.2772 14.6251 25.2585 14.5802 25.2388 14.5341C25.243 14.5154 25.2326 14.51 25.2191 14.5067C25.1921 14.4617 25.1651 14.4156 25.137 14.3707L25.0778 14.2544C25.0768 14.2445 25.0716 14.2379 25.0633 14.2346C25.055 14.2204 25.0456 14.205 25.0373 14.1908C25.0228 14.1337 24.9906 14.0888 24.9584 14.0438C24.9542 14.0153 24.9709 13.9802 24.9345 13.9626H24.9335C24.9169 13.9429 24.9002 13.9253 24.8836 13.9067C24.8815 13.8979 24.8784 13.888 24.8763 13.8793C24.8545 13.842 24.8327 13.8047 24.8109 13.7674C24.8068 13.7586 24.8026 13.7498 24.7985 13.741C24.7922 13.7312 24.786 13.7224 24.7798 13.7125C24.7746 13.6785 24.7579 13.6522 24.7341 13.6303C24.6998 13.5655 24.6665 13.5019 24.6323 13.4372C24.6022 13.3835 24.571 13.3297 24.5409 13.276C24.5388 13.2507 24.5585 13.2189 24.5211 13.2069C24.4713 13.1696 24.4744 13.0917 24.4194 13.0577L24.1587 12.5652C24.1016 12.4643 24.0444 12.3623 23.9884 12.2614C23.978 12.2438 23.9676 12.2252 23.9582 12.2076C23.9375 12.1626 23.9157 12.1188 23.8949 12.0738C23.898 12.0562 23.8887 12.0497 23.8741 12.0464C23.8658 12.0365 23.8575 12.0266 23.8481 12.0178C23.843 11.9751 23.8211 11.9411 23.7941 11.9104C23.7858 11.8939 23.7775 11.8774 23.7682 11.861L23.7651 11.8555L23.7432 11.827C23.7183 11.7096 23.6415 11.623 23.5802 11.5275C23.5553 11.465 23.5314 11.4014 23.4867 11.3498C23.4587 11.2994 23.4306 11.25 23.4026 11.1996C23.3984 11.1711 23.4161 11.136 23.3777 11.1195L23.3756 11.1173C23.359 11.0987 23.3424 11.0811 23.3268 11.0625C23.2987 10.9802 23.2551 10.9078 23.2073 10.8387C23.2063 10.8288 23.2021 10.8222 23.1949 10.8157C23.1876 10.8058 23.1803 10.797 23.1731 10.7871C23.1346 10.6851 23.0879 10.5864 23.0194 10.5009C22.9778 10.3989 22.9259 10.3034 22.8636 10.2146C22.8542 10.2025 22.8449 10.1904 22.8355 10.1784L22.8407 10.1839L22.8459 10.1784C22.8251 10.1444 22.8501 10.0786 22.7826 10.0775C22.7774 10.0336 22.7545 10.0018 22.7275 9.96997L22.7057 9.94036C22.6922 9.87893 22.6631 9.82628 22.6257 9.77802C22.6185 9.76815 22.6102 9.75828 22.6029 9.7484C22.5676 9.63762 22.499 9.54658 22.4419 9.44896L22.4211 9.41715L22.4242 9.41934C22.4107 9.39082 22.3972 9.3612 22.3837 9.33269C22.3827 9.32281 22.3775 9.31623 22.3692 9.31294C22.3609 9.29868 22.3515 9.28333 22.3432 9.26907L22.2113 9.0113C22.2041 9.00252 22.1958 8.99375 22.1885 8.98497C22.1864 8.96304 22.1843 8.9422 22.1625 8.93013C22.1283 8.87419 22.1147 8.80509 22.0597 8.7634C22.0597 8.75463 22.0566 8.74695 22.0524 8.73927C22.0109 8.66249 21.9787 8.57913 21.9216 8.51332C21.9216 8.50344 21.9174 8.49906 21.9091 8.49906C21.8987 8.4826 21.8883 8.46615 21.878 8.4497C21.8416 8.35098 21.7772 8.27749 21.6941 8.22045L21.6453 8.18974H21.6474C21.638 8.18535 21.6297 8.17877 21.6204 8.17219C21.5955 8.16341 21.5716 8.15573 21.5466 8.14696C21.4636 8.13489 21.3805 8.11954 21.3005 8.16122C21.286 8.16451 21.2714 8.1678 21.2569 8.16999C21.1686 8.18206 21.1042 8.22813 21.0544 8.3071C20.8819 8.58242 20.7438 8.87748 20.588 9.16267C20.4935 9.33598 20.3897 9.5049 20.3232 9.69466C20.291 9.70892 20.2848 9.73743 20.2858 9.77034C20.1518 9.90635 20.1072 10.0972 20.0158 10.2596C19.9721 10.3374 19.8943 10.4021 19.8994 10.5074V10.5053C19.6865 10.8146 19.537 11.1623 19.3708 11.5001C19.348 11.5067 19.3448 11.5243 19.349 11.5451C19.1236 11.8939 18.9481 12.2734 18.7664 12.6475C18.7601 12.6529 18.758 12.6595 18.7591 12.6683C18.5534 12.9688 18.407 13.3045 18.2491 13.6325C18.2263 13.6555 18.2045 13.6796 18.2014 13.7158C18.1598 13.7608 18.1328 13.8134 18.1214 13.8749C18.1131 13.8782 18.1048 13.8814 18.0965 13.8847C18.0788 13.8825 18.0622 13.8804 18.0445 13.8782C18.0362 13.8683 18.0279 13.8595 18.0196 13.8496C18.0092 13.8134 17.9988 13.7761 17.9885 13.74C17.9822 13.7301 17.975 13.7202 17.9687 13.7103C17.9417 13.6654 17.9126 13.6226 17.8877 13.5765C17.7496 13.322 17.6114 13.0665 17.4744 12.812C17.4775 12.7714 17.4764 12.733 17.4245 12.7286C17.4058 12.6924 17.3861 12.6562 17.3674 12.6189C17.3611 12.6091 17.3539 12.5981 17.3476 12.5882C17.2251 12.3623 17.1025 12.1352 16.98 11.9093C16.9239 11.8149 16.9031 11.6954 16.8045 11.6307C16.712 11.3575 16.5677 11.1085 16.4171 10.8749C16.2249 10.5755 16.0681 10.2552 15.876 9.95681C15.7711 9.79447 15.7036 9.60471 15.5893 9.44566C15.581 9.41166 15.5675 9.38095 15.5364 9.3634C15.5332 9.35462 15.5301 9.34585 15.527 9.33707C15.5208 9.3283 15.5145 9.31843 15.5083 9.30965C15.4979 9.23068 15.4221 9.19338 15.4024 9.11989C15.3629 9.02885 15.3183 8.9411 15.2518 8.86651C15.2165 8.75573 15.1313 8.67675 15.0866 8.57255C15.0472 8.43983 14.9506 8.37292 14.8343 8.32794C14.7335 8.27968 14.6307 8.25994 14.5237 8.30381C14.3576 8.36085 14.2319 8.45628 14.1561 8.63617C14.0813 8.81386 13.9754 8.9773 13.8819 9.14622C13.8538 9.20325 13.8268 9.2592 13.7988 9.31623C13.7625 9.3272 13.7417 9.34914 13.7521 9.39301C13.7064 9.48406 13.6607 9.57619 13.616 9.66723C13.6025 9.66943 13.5932 9.67601 13.5973 9.69246L13.5132 9.85919C13.4997 9.86138 13.4903 9.86687 13.4935 9.88332C13.4852 9.91184 13.4758 9.94036 13.4675 9.96888C13.455 9.97217 13.4436 9.97655 13.4509 9.99411C13.4073 10.0643 13.347 10.1257 13.3366 10.2146C13.3107 10.2234 13.3138 10.2475 13.3086 10.2683C13.2992 10.2782 13.2909 10.2892 13.2816 10.299C13.2463 10.3122 13.2245 10.333 13.2349 10.3769C13.1892 10.468 13.1445 10.559 13.0988 10.65C13.0843 10.6533 13.0749 10.6599 13.0791 10.6775C13.051 10.7323 13.023 10.7882 12.9949 10.8431C12.9814 10.8453 12.9721 10.8508 12.9752 10.8683C12.9669 10.8968 12.9576 10.9254 12.9492 10.9539C12.9368 10.9572 12.9254 10.9616 12.9316 10.9791C12.888 11.0493 12.8288 11.1107 12.8173 11.1996C12.7914 11.2073 12.7945 11.2325 12.7893 11.2533C12.78 11.2632 12.7716 11.2742 12.7623 11.284C12.727 11.2972 12.7052 11.3191 12.7156 11.363C12.6699 11.4541 12.6252 11.5451 12.5795 11.6361C12.566 11.6394 12.5567 11.6449 12.5598 11.6625C12.5577 11.6723 12.5567 11.6833 12.5546 11.6932C12.5515 11.6943 12.5473 11.6954 12.5473 11.6976C12.5463 11.7019 12.5473 11.7074 12.5473 11.7129C12.5307 11.7414 12.5016 11.7623 12.5037 11.8007C12.4663 11.8149 12.4694 11.8522 12.4601 11.8829C12.4362 11.8939 12.4383 11.9191 12.431 11.9389C12.4185 11.9422 12.4071 11.9466 12.4123 11.9641C12.3718 12.0354 12.3105 12.0957 12.3001 12.1846C12.2742 12.1923 12.2773 12.2175 12.2721 12.2383C12.2638 12.2482 12.2544 12.2581 12.2461 12.2679C12.1859 12.2657 12.1932 12.3074 12.1994 12.348C12.163 12.4215 12.1267 12.495 12.0903 12.5685C12.0561 12.5849 12.0613 12.6189 12.0592 12.6497C12.0529 12.6606 12.0457 12.6716 12.0394 12.6826C12.0301 12.6848 12.0207 12.6869 12.028 12.7012C12.0228 12.7122 12.0187 12.7231 12.0135 12.7341C11.9553 12.7593 11.9564 12.8186 11.9418 12.869C11.9159 12.8789 11.919 12.9063 11.9107 12.9272C11.8992 12.9294 11.8888 12.9326 11.8951 12.9491C11.8577 13.0226 11.8203 13.0972 11.784 13.1707C11.7569 13.1783 11.7611 13.2036 11.7559 13.2244L11.7299 13.2529C11.6697 13.2518 11.678 13.2935 11.6832 13.3341C11.6469 13.4076 11.6105 13.48 11.5742 13.5535C11.5399 13.5699 11.5451 13.6039 11.542 13.6347C11.5274 13.6621 11.5118 13.6906 11.4973 13.718C11.4402 13.7432 11.4391 13.8025 11.4246 13.854C11.3477 13.9407 11.3104 14.0493 11.2657 14.1546C11.2387 14.1623 11.2428 14.1886 11.2377 14.2083C11.2293 14.2171 11.22 14.227 11.2117 14.2357C11.1452 14.239 11.1587 14.2763 11.1816 14.318C11.1224 14.4036 11.0704 14.4935 11.0372 14.5944C11.0247 14.5988 11.0144 14.6032 11.0216 14.6196C11.0019 14.6438 10.9811 14.6679 10.979 14.7019C10.9219 14.7282 10.9198 14.7864 10.9053 14.839C10.8793 14.8489 10.8825 14.8741 10.8762 14.895C10.869 14.9037 10.8617 14.9114 10.8534 14.9202C10.8253 14.929 10.8253 14.952 10.8305 14.9761C10.8295 14.9849 10.8285 14.9937 10.8264 15.0025C10.7848 15.0376 10.7599 15.0847 10.7474 15.1396C10.7298 15.167 10.7121 15.1933 10.6934 15.2207C10.627 15.224 10.6405 15.2613 10.6623 15.303C10.6052 15.3897 10.5522 15.4785 10.519 15.5783C10.5065 15.5827 10.4961 15.5871 10.5023 15.6035L10.4618 15.6858C10.4182 15.7078 10.4213 15.7604 10.3964 15.7944L10.358 15.8767C10.3497 15.8854 10.3414 15.8942 10.333 15.903L10.331 15.9052C10.2936 15.9227 10.3112 15.9578 10.3071 15.9864C10.2614 16.0193 10.2406 16.0686 10.2282 16.1235C10.17 16.1608 10.1253 16.2057 10.1419 16.2869C10.0641 16.4076 9.99135 16.5315 9.94254 16.6697C9.901 16.6928 9.89788 16.7421 9.87711 16.7794C9.85738 16.8167 9.81168 16.8375 9.81376 16.8891C9.78052 16.9066 9.78468 16.9406 9.78052 16.9714C9.74936 17.0119 9.71924 17.0536 9.71094 17.1074C9.67666 17.1227 9.65589 17.148 9.66004 17.1896C9.64031 17.2017 9.61435 17.2094 9.63096 17.2423C9.57904 17.3333 9.5323 17.4288 9.47414 17.5154C9.44402 17.5593 9.4596 17.5889 9.47725 17.624C9.45544 17.6372 9.41806 17.6119 9.40663 17.6536C9.39728 17.681 9.38794 17.7096 9.37859 17.737C9.37132 17.7458 9.36301 17.7556 9.35574 17.7644C9.30173 17.873 9.24773 17.9816 9.19268 18.0902C9.18541 18.1 9.1771 18.1088 9.16983 18.1187C9.15322 18.1527 9.13556 18.1867 9.11894 18.2207C9.0909 18.2174 9.09921 18.2361 9.10233 18.2514C9.04624 18.3534 8.9912 18.4565 8.93511 18.5585C8.90811 18.5651 8.91226 18.5893 8.91019 18.609L8.90811 18.6112C8.89461 18.6134 8.88526 18.6189 8.88838 18.6364C8.84372 18.7319 8.81048 18.835 8.75336 18.9194C8.62042 19.1147 8.53837 19.3395 8.41686 19.5414C8.38155 19.5578 8.38882 19.5918 8.38674 19.6214C8.28911 19.7201 8.27873 19.8748 8.18318 19.9746C8.17072 19.9801 8.15929 19.9856 8.16448 20.0031L7.89861 20.5242C7.86433 20.5406 7.87056 20.5746 7.86745 20.6053C7.77605 20.7183 7.73866 20.8631 7.66492 20.9859C7.65765 20.9958 7.65038 21.0057 7.64311 21.0156C7.56418 21.1625 7.48629 21.3095 7.40736 21.4565C7.39385 21.4565 7.38451 21.4631 7.38866 21.4795C7.38658 21.4883 7.38347 21.4982 7.38139 21.507C7.34816 21.5245 7.35231 21.5596 7.34712 21.5892C7.23183 21.7954 7.11344 21.9995 7.01789 22.2166C7.00958 22.2265 7.00231 22.2353 6.994 22.2452L6.99192 22.2474C6.97842 22.2495 6.96907 22.255 6.97323 22.2726L6.8891 22.4393C6.8756 22.4415 6.86625 22.447 6.86937 22.4634C6.79875 22.6291 6.73747 22.8002 6.60868 22.9296C6.60557 22.9384 6.60557 22.9472 6.60868 22.9559C6.54949 23.081 6.48613 23.2038 6.44459 23.3366C6.34385 23.6568 6.54741 23.9903 6.86625 23.9925C7.78021 23.9991 8.69416 23.9925 9.60708 23.9914C9.6372 23.998 9.66212 23.9859 9.68497 23.9673C9.89788 23.874 10.0049 23.6821 10.0983 23.477C10.1336 23.4133 10.169 23.3508 10.2053 23.2872C10.2344 23.2576 10.251 23.2225 10.2552 23.1797C10.385 22.9417 10.5148 22.7037 10.6446 22.4667C10.6633 22.4218 10.682 22.3768 10.7007 22.3318C10.7256 22.323 10.7246 22.2989 10.7277 22.277C10.7859 22.2463 10.7942 22.1837 10.817 22.1289C10.8534 22.0587 10.8908 21.9885 10.9271 21.9183C10.9375 21.892 10.9469 21.8645 10.9572 21.8382C11.005 21.8185 11.0061 21.7647 11.0299 21.7274C11.0601 21.7033 11.0788 21.6715 11.085 21.632C11.0923 21.6188 11.0995 21.6046 11.1068 21.5914V21.5892L11.1099 21.5925Z" fill="black"/>
</g>
<defs>
<clipPath id="clip0_1511_6974">
<rect width="35.8512" height="35.8512" fill="white" transform="translate(0.098877 0.151611)"/>
</clipPath>
</defs>
</svg>
