<svg width="37" height="37" viewBox="0 0 37 37" fill="none" xmlns="http://www.w3.org/2000/svg">
<g clip-path="url(#clip0_575_8837)">
<path d="M4.57189 8.60715C4.60409 8.5545 4.63628 8.50185 4.66848 8.4492C4.68198 8.41958 4.69445 8.39106 4.70795 8.36145C4.83985 8.18265 4.91878 7.96986 5.04341 7.78668C5.05587 7.78229 5.0673 7.77681 5.05691 7.75926C5.31967 7.27334 5.58036 6.78742 5.8452 6.3026C6.25336 5.55453 6.66464 4.80755 7.07384 4.05838C7.35841 3.53737 7.63987 3.01415 7.92236 2.49314C8.07608 2.27157 8.26198 2.07851 8.44166 1.88108C8.71584 1.63757 9.00769 1.42039 9.33899 1.27011C9.66199 1.12313 9.99746 1.03538 10.3516 1.03099C15.4355 0.969569 20.5194 1.02112 25.6032 1.00577C26.2201 1.00357 26.8194 1.09571 27.3418 1.4862C27.6067 1.68364 27.8175 1.93153 27.9805 2.22659C28.0522 2.35603 28.1 2.49862 28.1862 2.61928C28.2745 2.77503 28.3627 2.93079 28.451 3.08655C28.4687 3.12165 28.4863 3.15565 28.504 3.19075C28.5061 3.22914 28.5268 3.25876 28.5518 3.28508C28.5912 3.39038 28.6484 3.48472 28.7138 3.57356C28.7304 3.62402 28.7564 3.67009 28.7906 3.70848C28.8228 3.79733 28.8685 3.8785 28.9194 3.95637C28.9537 4.05838 29.0129 4.14394 29.0711 4.23059C29.0887 4.28215 29.1136 4.32822 29.15 4.36661C29.1666 4.41926 29.1915 4.46862 29.2268 4.5092C29.2497 4.58708 29.2912 4.65399 29.3349 4.7198C29.4076 4.87666 29.4979 5.02254 29.5893 5.16843C29.6319 5.28031 29.688 5.38561 29.7524 5.48543C29.7628 5.50627 29.7742 5.52601 29.7846 5.54685C29.8001 5.57208 29.8157 5.59731 29.8313 5.62254C29.8531 5.65983 29.876 5.69712 29.8978 5.73442C29.9019 5.74319 29.9061 5.75197 29.9102 5.76074C29.9165 5.76952 29.9227 5.77939 29.9279 5.78816C29.9767 5.88469 30.0255 5.98122 30.0743 6.07774C30.1148 6.16659 30.1585 6.25434 30.2177 6.33222C30.2447 6.37829 30.2706 6.42545 30.2976 6.47152C30.3039 6.4803 30.3101 6.49017 30.3163 6.49894C30.3682 6.59876 30.4202 6.69857 30.4731 6.79839C30.5074 6.9004 30.5687 6.98596 30.6258 7.07261C30.6362 7.09016 30.6456 7.10881 30.6559 7.12636C30.6632 7.13842 30.6705 7.14939 30.6777 7.16146C30.9042 7.62105 31.1617 8.0609 31.4058 8.51062C31.5284 8.73548 31.6478 8.96144 31.7703 9.1863C31.9272 9.47259 32.0871 9.75668 32.2429 10.043C32.4402 10.4049 32.6334 10.7691 32.8307 11.1322C32.9543 11.3592 33.08 11.5852 33.2046 11.8122C33.618 12.5713 34.0355 13.327 34.4447 14.0883C34.6441 14.4612 34.8518 14.8319 35.0647 15.1972C35.3119 15.6217 35.5134 16.0747 35.7637 16.4959C35.8779 16.6879 35.961 16.8996 36.0919 17.0805C36.1137 17.233 36.1739 17.3734 36.2279 17.516C36.23 17.5456 36.2082 17.5807 36.2466 17.6016C36.2851 17.6794 36.2082 17.7727 36.2768 17.8462C36.2923 18.0634 36.3162 18.2794 36.284 18.4977C36.2799 18.5175 36.2757 18.5372 36.2716 18.5569L36.2726 18.5559C36.2601 18.5613 36.2477 18.5668 36.257 18.5844C36.2539 18.6118 36.2508 18.6403 36.2477 18.6677C36.2331 18.6699 36.2238 18.6776 36.2269 18.6952L36.2227 18.7774C36.1895 18.8268 36.1989 18.8871 36.1812 18.9409C36.1521 19.0143 36.122 19.0889 36.0929 19.1624C36.0773 19.1624 36.068 19.1679 36.0732 19.1866C36.0711 19.2052 36.069 19.2239 36.067 19.2414C36.0098 19.3281 35.9517 19.4147 35.9164 19.5145C35.8946 19.5902 35.8322 19.6451 35.8208 19.7262C35.7845 19.7438 35.7585 19.7701 35.7575 19.8162C35.7242 19.8798 35.69 19.9434 35.6567 20.007C35.6391 20.0432 35.6204 20.0794 35.6027 20.1156C35.5736 20.1485 35.5414 20.1792 35.5425 20.2297C35.5342 20.2319 35.53 20.2385 35.5279 20.2461C35.5009 20.2429 35.5061 20.2604 35.5103 20.2769C35.4978 20.3054 35.4843 20.3328 35.4719 20.3613C35.3898 20.4984 35.3088 20.6355 35.2267 20.7726C35.2101 20.7979 35.1862 20.8198 35.1883 20.8549C35.1489 20.8801 35.154 20.9273 35.1395 20.9646C35.1125 20.9723 35.1167 20.9986 35.1104 21.0183C35.0273 21.116 34.9764 21.2355 34.9121 21.3463C34.9089 21.3562 34.9058 21.365 34.9037 21.3748C34.8726 21.4242 34.8425 21.4725 34.8113 21.5218L34.8175 21.5284C34.8175 21.5284 34.8134 21.524 34.8103 21.5218C34.7615 21.5821 34.7542 21.6611 34.722 21.7291C34.695 21.7368 34.6991 21.762 34.695 21.7829C34.6524 21.807 34.6483 21.8575 34.6254 21.8959C34.5953 21.9013 34.5963 21.9277 34.5922 21.9518C34.5672 21.9968 34.5423 22.0417 34.5164 22.0867C34.479 22.1097 34.479 22.1492 34.4748 22.1876C34.4488 22.2194 34.4229 22.2523 34.3969 22.2841L34.3907 22.2907C34.3616 22.3083 34.3564 22.3302 34.3772 22.3587C34.371 22.3697 34.3647 22.3796 34.3585 22.3905C34.3325 22.3971 34.3388 22.4213 34.3346 22.4399C34.3273 22.4476 34.3211 22.4553 34.3138 22.4618C34.2816 22.5309 34.2214 22.5825 34.2017 22.6593C34.1747 22.6681 34.1778 22.6922 34.1767 22.7141C34.1684 22.7328 34.1601 22.7514 34.1518 22.7701C34.1352 22.7975 34.1175 22.8249 34.1009 22.8523C34.0833 22.8885 34.0656 22.9247 34.0469 22.9609C34.0189 23.0048 33.9908 23.0498 33.9618 23.0936L33.9659 23.0915C33.9472 23.0958 33.9493 23.1079 33.9534 23.1222C33.941 23.1496 33.9285 23.1781 33.9161 23.2055C33.8226 23.3328 33.7322 23.4611 33.6865 23.618C33.6523 23.6333 33.6315 23.6585 33.6356 23.7002C33.618 23.7364 33.6003 23.7726 33.5837 23.8099C33.5567 23.8176 33.5609 23.8439 33.5546 23.8637C33.4726 23.9591 33.4217 24.0754 33.3739 24.1916C33.3396 24.207 33.3199 24.2322 33.322 24.2739C33.3002 24.3046 33.2784 24.3353 33.2555 24.366L33.2534 24.3682C33.2005 24.4154 33.2098 24.4922 33.1766 24.5481C33.1558 24.5799 33.1215 24.6051 33.1288 24.6512C33.0925 24.6688 33.0655 24.6951 33.0665 24.7412L33.0644 24.7434C33.0291 24.7587 33.0353 24.7927 33.0333 24.8223C33.027 24.8267 33.0249 24.8333 33.026 24.8421C32.9834 24.8552 32.9865 24.9046 32.9606 24.9309C32.9252 24.954 32.9221 24.9934 32.919 25.0318C32.8982 25.0965 32.7809 25.1009 32.8214 25.204C32.8162 25.2139 32.811 25.2238 32.8048 25.2348C32.7788 25.2424 32.785 25.2677 32.7788 25.2863C32.7518 25.294 32.757 25.3203 32.7508 25.3401C32.7071 25.3883 32.6625 25.4355 32.6511 25.5057C32.6438 25.5243 32.6365 25.543 32.6282 25.5605C32.6199 25.5605 32.6137 25.5638 32.6095 25.5715L32.6085 25.5726C32.5628 25.6 32.5773 25.6603 32.5462 25.6954C32.5379 25.7141 32.5285 25.7338 32.5202 25.7525C32.4537 25.7832 32.4641 25.8633 32.4288 25.9137C32.4153 25.9411 32.4028 25.9686 32.3893 25.996C32.2865 26.1408 32.1858 26.2867 32.1328 26.4611C32.0985 26.4764 32.0778 26.5017 32.0819 26.5433C32.0684 26.5708 32.0549 26.5982 32.0414 26.6245C32.0238 26.6486 31.9999 26.6706 32.0009 26.7057C31.9573 26.7408 31.9417 26.7923 31.9261 26.8439H31.9251C31.8576 26.8878 31.8545 26.9711 31.8202 27.0347C31.8129 27.0435 31.8046 27.0534 31.7973 27.0633C31.789 27.0819 31.7818 27.1005 31.7735 27.1192C31.7548 27.1466 31.7371 27.1729 31.7184 27.2004L31.7174 27.2015C31.6831 27.2157 31.6592 27.2366 31.6696 27.2815C31.6509 27.3265 31.6312 27.3726 31.6125 27.4175C31.5689 27.4658 31.5283 27.5163 31.5107 27.5832H31.5097C31.4754 27.6479 31.4401 27.7104 31.4058 27.774C31.3788 27.7828 31.3809 27.8069 31.3798 27.8289C31.3445 27.8925 31.3092 27.9561 31.2749 28.0197H31.276C31.2594 28.0219 31.2594 28.0329 31.2645 28.045C31.25 28.0724 31.222 28.0932 31.2251 28.1294C31.1638 28.2029 31.1212 28.2874 31.0849 28.3762C31.0797 28.3861 31.0755 28.396 31.0703 28.4058C31.0122 28.4311 31.0132 28.4914 30.9966 28.5418C30.9623 28.5572 30.9426 28.5835 30.9426 28.623C30.9021 28.6592 30.899 28.7152 30.874 28.759C30.8709 28.7689 30.8668 28.7777 30.8637 28.7876C30.7826 28.8863 30.7297 29.0047 30.6663 29.1144C30.6632 29.1243 30.6601 29.1342 30.658 29.144C30.6196 29.1912 30.5999 29.2482 30.5801 29.3064C30.5479 29.3195 30.5469 29.347 30.55 29.3777C30.5105 29.3941 30.5001 29.4336 30.4877 29.4709C30.4711 29.4961 30.4461 29.517 30.4493 29.5521C30.4077 29.5762 30.4036 29.6245 30.3838 29.6629C30.3797 29.6727 30.3766 29.6815 30.3724 29.6914C30.3475 29.7002 30.3433 29.721 30.3464 29.744C30.3402 29.7506 30.3371 29.7572 30.3371 29.7671C30.2945 29.7923 30.2779 29.834 30.2675 29.8811C30.2301 29.8954 30.2312 29.9338 30.2208 29.9645C30.1875 29.9919 30.1699 30.0292 30.1626 30.072C30.1543 30.0808 30.146 30.0895 30.1377 30.0983C30.1242 30.1027 30.1148 30.1093 30.118 30.1268C30.1148 30.1345 30.1128 30.1433 30.1117 30.1521C30.0982 30.1565 30.0878 30.1641 30.0909 30.1817L30.065 30.2365C30.0297 30.3002 29.9788 30.3539 29.9611 30.4285C29.958 30.4362 29.9559 30.4449 29.9559 30.4526L29.93 30.4822C29.9165 30.4866 29.9071 30.4932 29.9102 30.5108C29.9019 30.5294 29.8926 30.548 29.8843 30.5656C29.876 30.5842 29.8666 30.6018 29.8583 30.6204C29.85 30.6621 29.8012 30.6819 29.8033 30.7301C29.7721 30.7597 29.7482 30.7948 29.7409 30.8398C29.7025 30.8837 29.688 30.9396 29.6693 30.9934C29.5737 31.1118 29.4979 31.2424 29.4429 31.3872C29.4159 31.3948 29.42 31.4212 29.4138 31.4409C29.3702 31.4749 29.3567 31.5276 29.339 31.578C29.312 31.5857 29.3162 31.612 29.3099 31.6318C29.2403 31.7349 29.177 31.8424 29.1292 31.9597C29.1209 31.9696 29.1116 31.9784 29.1033 31.9882C29.0659 32.0365 29.0441 32.0935 29.0254 32.1517C29.0108 32.1539 29.0015 32.1605 29.0046 32.178C29.0015 32.1923 28.9994 32.2076 28.9963 32.2219C28.9495 32.2471 28.936 32.2943 28.9236 32.3425C28.8966 32.3491 28.9007 32.3754 28.8966 32.3952C28.854 32.4182 28.8498 32.4676 28.8291 32.506C28.826 32.5148 28.8228 32.5246 28.8197 32.5334C28.7948 32.5433 28.7886 32.563 28.7917 32.5882C28.7854 32.5937 28.7823 32.6003 28.7834 32.6091C28.7418 32.6222 28.7418 32.6672 28.7242 32.6968C28.7055 32.7297 28.6691 32.7528 28.6764 32.7977C28.6369 32.8274 28.6151 32.8723 28.5923 32.9151C28.5819 32.9436 28.5715 32.9722 28.5622 33.0007C28.5352 33.0073 28.5424 33.0336 28.5362 33.0522C28.5092 33.0621 28.5133 33.0862 28.5123 33.1082C28.4687 33.1564 28.4168 33.1992 28.4084 33.2727C28.4012 33.2913 28.3939 33.31 28.3866 33.3275C28.3804 33.333 28.3742 33.3385 28.3679 33.344V33.3407C28.3222 33.3791 28.317 33.4416 28.289 33.4899C28.2755 33.5118 28.263 33.5327 28.2495 33.5546L28.2392 33.5579L28.2412 33.5678C28.2277 33.5886 28.2132 33.6094 28.1997 33.6314C28.1893 33.6347 28.181 33.638 28.1883 33.6522C28.1748 33.6599 28.1613 33.6665 28.1488 33.6742L28.1436 33.6687L28.1498 33.6709C28.1488 33.6829 28.1467 33.6961 28.1457 33.7082C28.0865 33.7641 28.0356 33.8277 27.9982 33.9034C27.8923 34.0219 27.7874 34.1403 27.6814 34.2588C27.671 34.2687 27.6617 34.2774 27.6513 34.2873C27.5745 34.2873 27.561 34.3784 27.4997 34.4014C27.4685 34.3992 27.4737 34.4277 27.4664 34.4453C27.4509 34.4496 27.4363 34.4529 27.4207 34.4573C27.4031 34.4486 27.3989 34.4617 27.3937 34.4749C27.3678 34.4858 27.3429 34.4979 27.3169 34.5089C27.3003 34.5045 27.294 34.5144 27.292 34.5297C27.266 34.5517 27.239 34.5736 27.213 34.5955C27.1954 34.5857 27.1923 34.5955 27.1923 34.612C27.1216 34.6504 27.051 34.6888 26.9814 34.7272C26.9357 34.7173 26.9015 34.7304 26.8828 34.7776C26.5442 34.9432 26.1828 34.9805 25.8161 34.9992C25.7736 34.9981 25.7299 34.9948 25.6874 34.9948C20.7499 34.9948 15.8125 34.9948 10.874 34.9948C10.8314 34.9948 10.7878 34.9981 10.7452 34.9992C10.5199 34.9992 10.2945 34.9893 10.0712 34.9476C10.0629 34.9421 10.0556 34.9421 10.0463 34.9454C9.96007 34.9279 9.87387 34.9114 9.78662 34.8939C9.76066 34.8928 9.73469 34.8906 9.70873 34.8895C9.63188 34.861 9.55502 34.8314 9.47816 34.8028C9.44908 34.7732 9.41273 34.759 9.37223 34.7524C9.33276 34.7315 9.2933 34.7096 9.25383 34.6888C9.23098 34.6592 9.20086 34.6427 9.16555 34.6383C8.78231 34.3882 8.4375 34.0965 8.20071 33.6818C8.20278 33.6094 8.1737 33.5612 8.10308 33.5458C8.00753 33.3725 7.91198 33.1981 7.81539 33.0248C7.80812 33.0149 7.80085 33.0051 7.79254 32.9963C7.77281 32.9425 7.75308 32.8877 7.73334 32.8339C7.73127 32.8032 7.70426 32.8131 7.68868 32.8043C7.68245 32.7616 7.66168 32.7275 7.63364 32.6968C7.62637 32.6848 7.62014 32.6738 7.61287 32.6617C7.57652 32.5531 7.5142 32.461 7.45396 32.3678C7.44981 32.3393 7.46643 32.3042 7.43008 32.2866L7.42904 32.2855C7.41242 32.2669 7.3958 32.2493 7.37815 32.2307C7.33453 32.1243 7.28052 32.0244 7.21613 31.9301C7.18912 31.8698 7.16731 31.8062 7.12266 31.7557L7.03541 31.6011C7.03334 31.5747 7.05411 31.5407 7.01257 31.5287L7.00737 31.5221C7.00737 31.4914 6.98037 31.4837 6.96375 31.4672C6.95233 31.3948 6.88482 31.3488 6.88066 31.2731C6.88274 31.2566 6.87755 31.249 6.86093 31.2533C6.84016 31.2237 6.81939 31.1941 6.79862 31.1645C6.77784 31.1272 6.75707 31.0899 6.73734 31.0526C6.73319 31.0438 6.72903 31.0351 6.72488 31.0274C6.71865 31.0164 6.71241 31.0065 6.70618 30.9956C6.55247 30.7126 6.40084 30.4296 6.24401 30.1488C6.21493 30.0972 6.19416 30.0457 6.18066 29.9886C6.18481 29.9711 6.17754 29.9645 6.16093 29.9667C6.03422 29.7835 5.92932 29.5861 5.82754 29.3875C5.77457 29.2855 5.71641 29.1857 5.66137 29.0848C5.65514 29.076 5.64994 29.0673 5.64371 29.0585C5.50454 28.8029 5.36537 28.5484 5.2262 28.2929C5.21893 28.2797 5.2127 28.2665 5.20543 28.2534C5.06314 27.9945 4.92086 27.7356 4.78065 27.4757C4.54593 27.0424 4.31536 26.6059 4.07649 26.1748C3.88643 25.8315 3.66729 25.5057 3.50007 25.1514C3.38271 24.9035 3.24562 24.6688 3.11787 24.4296C2.90496 24.0293 2.69932 23.6234 2.46149 23.2373C2.30778 22.9883 2.16861 22.7273 2.03567 22.4651C1.83834 22.0768 1.62335 21.6995 1.41563 21.3189C1.4094 21.3101 1.40421 21.3013 1.39798 21.2926C1.25881 21.0381 1.12068 20.7825 0.981506 20.528C0.974236 20.5138 0.966966 20.5006 0.959696 20.4864C0.832989 20.2593 0.717706 20.0257 0.578536 19.8085C0.33343 19.4246 0.173488 19.0056 0.0717065 18.558C0.0727451 18.5394 0.0717065 18.5218 0.053012 18.512C-0.00203299 18.1577 -0.0155346 17.8023 0.0187387 17.4436C0.0623592 16.9928 0.202568 16.5815 0.430018 16.1998C0.514143 16.0583 0.592037 15.9124 0.673047 15.7676C0.687587 15.7665 0.696934 15.7599 0.69278 15.7424C0.918153 15.3157 1.14768 14.8912 1.38863 14.4744C1.56727 14.165 1.72306 13.8415 1.88923 13.5245C1.9235 13.5113 1.96193 13.5003 1.93908 13.4466C2.04398 13.2645 2.14784 13.0813 2.25273 12.8992C2.28078 12.8894 2.27039 12.8663 2.26935 12.8455C2.55704 12.3157 2.84473 11.7859 3.13241 11.2561C3.13865 11.2484 3.14384 11.2397 3.15007 11.232C3.23835 11.0751 3.32559 10.9172 3.41387 10.7603C3.43464 10.723 3.44503 10.6748 3.49384 10.6627C3.52604 10.643 3.52812 10.6221 3.49384 10.6024C3.67871 10.2612 3.86877 9.9245 4.04741 9.58118C4.171 9.34425 4.31225 9.1172 4.43792 8.88027C4.47011 8.81884 4.48257 8.74645 4.5345 8.69709C4.54904 8.66638 4.56255 8.63676 4.57709 8.60605L4.57189 8.60715ZM11.3092 22.1953C11.3144 22.1876 11.3196 22.181 11.3248 22.1734C11.3954 22.033 11.466 21.8926 11.5366 21.7533C11.5584 21.6732 11.6343 21.6271 11.6498 21.5438C11.681 21.5262 11.7059 21.5043 11.6945 21.4604C11.7194 21.4297 11.7277 21.3924 11.7288 21.3529C11.7371 21.3529 11.7444 21.3496 11.7506 21.343C11.8098 21.2915 11.8295 21.2125 11.8679 21.1467H11.8607C11.8773 21.1379 11.8835 21.1236 11.8804 21.105C11.9386 20.9931 11.9967 20.8812 12.0549 20.7694C12.0923 20.6992 12.1297 20.629 12.166 20.5588C12.2003 20.5017 12.2346 20.4458 12.2678 20.3887C12.354 20.3218 12.353 20.199 12.4226 20.1211C12.4288 20.1112 12.4361 20.1035 12.4423 20.0948C12.408 20.0454 12.4662 20.0224 12.4703 19.984C12.4818 19.9566 12.4921 19.9302 12.5036 19.9028L12.5721 19.7876C12.6053 19.7054 12.6718 19.6407 12.6915 19.5496C12.7102 19.5233 12.7289 19.4959 12.7476 19.4696C12.7601 19.4399 12.7726 19.4114 12.785 19.3818C12.8266 19.3226 12.866 19.2611 12.8889 19.1898C12.919 19.1844 12.9429 19.1745 12.9398 19.135C12.946 19.1251 12.9533 19.1175 12.9595 19.1087C12.9709 19.0626 12.9834 19.0176 12.9948 18.9716C13.0125 18.9529 13.0291 18.9354 13.0467 18.9167C13.0789 18.8674 13.0935 18.8114 13.0987 18.7533C13.1662 18.7105 13.1651 18.6239 13.2056 18.5635C13.2316 18.5559 13.2358 18.535 13.2358 18.5109C13.2918 18.4703 13.3043 18.4012 13.3386 18.3452C13.3957 18.2564 13.4518 18.1676 13.4829 18.0644C13.5172 18.0261 13.5411 17.9811 13.5567 17.9306C13.5671 17.9054 13.5785 17.8802 13.5889 17.8549L13.6097 17.822C13.6148 17.8144 13.62 17.8067 13.6242 17.799C13.7135 17.6334 13.8018 17.4677 13.8911 17.3021C13.8973 17.2966 13.9005 17.289 13.9005 17.2802C13.9378 17.2396 13.9638 17.1935 13.9763 17.1387C13.9846 17.1211 13.9939 17.1025 14.0022 17.0849C14.0365 17.0454 14.0614 16.9994 14.076 16.9478C14.0957 16.9281 14.1082 16.9039 14.1082 16.8743C14.1154 16.8623 14.1227 16.8502 14.13 16.8392C14.1352 16.8316 14.1414 16.8239 14.1466 16.8162C14.2287 16.6604 14.3107 16.5036 14.3927 16.3478L14.3907 16.35L14.4094 16.3215C14.4166 16.316 14.4197 16.3072 14.4187 16.2985C14.453 16.2678 14.4696 16.225 14.4862 16.1833C14.4976 16.1559 14.5101 16.1296 14.5215 16.1021C14.5527 16.0736 14.5683 16.0363 14.5787 15.9946C14.6036 15.942 14.6275 15.8904 14.6524 15.8378C14.7095 15.761 14.749 15.6732 14.7812 15.5822C14.8362 15.5186 14.8487 15.4243 14.9214 15.3705C14.993 15.4352 15.0128 15.5339 15.0657 15.6085C15.073 15.6228 15.0803 15.6371 15.0876 15.6502C15.0928 15.6974 15.1177 15.7347 15.1436 15.772C15.1956 15.9014 15.2693 16.0188 15.3451 16.1328C15.3545 16.1493 15.3628 16.1657 15.3721 16.1822C15.3815 16.1965 15.3898 16.2107 15.3991 16.225C15.4334 16.3292 15.4874 16.4224 15.5456 16.5135C15.6339 16.6703 15.7221 16.8261 15.8115 16.9829C15.8208 17.0213 15.8353 17.0575 15.8634 17.0849C15.8696 17.1277 15.8914 17.1617 15.9184 17.1913C15.9278 17.21 15.9382 17.2286 15.9475 17.2473C15.9683 17.2857 15.988 17.323 16.0088 17.3613C16.0244 17.3866 16.0389 17.4129 16.0545 17.4381C16.096 17.5105 16.1365 17.5829 16.1781 17.6553C16.2373 17.7924 16.3162 17.9175 16.4024 18.037L16.4045 18.0403L16.3827 18.173C16.1833 18.5712 15.9434 18.9441 15.7512 19.3478C15.5528 19.7657 15.3046 20.1573 15.1063 20.5774C14.9858 20.833 14.8144 21.0578 14.7106 21.3255C14.669 21.433 14.5901 21.5229 14.535 21.6249C14.3637 21.9474 14.1923 22.271 14.0282 22.5979C13.9368 22.7799 13.8184 22.9478 13.7737 23.1529C13.7571 23.1869 13.7405 23.222 13.7467 23.2626C13.7281 23.3942 13.7561 23.5105 13.8423 23.6092V23.6158C13.8527 23.6245 13.862 23.6344 13.8724 23.6432C13.9607 23.7748 14.0957 23.8088 14.2349 23.8307C15.099 23.8318 15.9641 23.834 16.8282 23.8351C16.8926 23.8351 16.956 23.822 17.0121 23.7847C17.0619 23.7825 17.1014 23.7562 17.1388 23.7265C17.279 23.6147 17.3465 23.449 17.4223 23.29C17.602 23.0936 17.6695 22.8282 17.8066 22.6055C17.8211 22.5803 17.8346 22.5551 17.8492 22.5298C17.873 22.4838 17.898 22.4366 17.9219 22.3905C17.9281 22.3741 17.9354 22.3587 17.9416 22.3423C18.0278 22.1887 18.1078 22.033 18.1763 21.8695C18.2002 21.8224 18.2241 21.7741 18.248 21.7269C18.2532 21.7204 18.2584 21.7127 18.2636 21.7061C18.2667 21.6962 18.2708 21.6863 18.2739 21.6765C18.3664 21.5876 18.3716 21.7214 18.4204 21.7412L18.4256 21.7368L18.4214 21.7313C18.4235 21.7544 18.438 21.7653 18.4557 21.7741C18.463 21.8805 18.5377 21.954 18.5793 22.0428C18.5865 22.0582 18.5928 22.0746 18.6001 22.09C18.6177 22.1328 18.6354 22.1756 18.653 22.2194C18.6655 22.2556 18.6748 22.2929 18.7143 22.3083C18.7174 22.3291 18.7143 22.3522 18.7382 22.3609C18.7434 22.4235 18.8109 22.4443 18.8233 22.5035C18.8285 22.5101 18.8348 22.5178 18.84 22.5244C18.8504 22.5825 18.8888 22.6231 18.921 22.667C18.9158 22.6999 18.9397 22.7185 18.9521 22.7426C18.9916 22.8545 19.056 22.951 19.1225 23.0465C19.1266 23.064 19.1308 23.0805 19.1349 23.098C19.1349 23.1298 19.163 23.1287 19.1806 23.1408C19.1785 23.1606 19.1817 23.177 19.2024 23.1825C19.2107 23.2351 19.2419 23.2702 19.2834 23.2955C19.3291 23.4282 19.4008 23.5456 19.486 23.652C19.5794 23.7682 19.7072 23.8329 19.8464 23.8329C20.6866 23.8362 21.5268 23.8329 22.367 23.8307C22.4574 23.8362 22.5498 23.8483 22.6287 23.7825C22.8728 23.7452 23.0774 23.3558 22.9631 23.1309C22.9216 23.0498 22.8904 22.9631 22.8541 22.8787C22.8541 22.8457 22.8229 22.8425 22.8063 22.8249C22.7191 22.6 22.5893 22.4004 22.476 22.1909C22.2735 21.8169 22.0648 21.4461 21.8622 21.0721C21.7646 20.8922 21.6763 20.7068 21.5777 20.528C21.3502 20.1145 21.1186 19.7032 20.8891 19.2908C20.7136 18.9738 20.5412 18.6557 20.3667 18.3376C20.3605 18.3266 20.3542 18.3167 20.348 18.3058C20.3179 18.2509 20.2919 18.1939 20.2587 18.1412C20.2161 18.0765 20.2192 18.0217 20.2556 17.9537C20.698 17.1332 21.1332 16.3083 21.5559 15.4769C21.5901 15.41 21.6161 15.3003 21.6753 15.2959C21.748 15.2893 21.7449 15.4155 21.7968 15.4681C21.8352 15.5669 21.8913 15.6546 21.9526 15.7391C22.0222 15.8904 22.0897 16.0418 22.1811 16.18C22.1863 16.2151 22.2039 16.2414 22.2278 16.2645C22.2486 16.2996 22.2694 16.3347 22.2901 16.3687C22.314 16.4323 22.3473 16.4915 22.3888 16.5442C22.4127 16.621 22.4522 16.6868 22.4958 16.7526C22.5394 16.8656 22.6017 16.9665 22.6734 17.0619C22.691 17.0959 22.7087 17.1299 22.7263 17.1639C22.743 17.2166 22.7679 17.2648 22.8042 17.3065C22.8271 17.3844 22.8676 17.4524 22.9123 17.5182C22.985 17.6762 23.0753 17.822 23.1657 17.9679C23.2083 18.0798 23.2643 18.184 23.3287 18.2838C23.3786 18.4089 23.4575 18.5164 23.5281 18.6282C23.5583 18.7171 23.6008 18.7994 23.6528 18.8761C23.7005 18.9617 23.7203 19.0626 23.7899 19.1339C23.7878 19.1734 23.8075 19.1986 23.8397 19.2151L23.9955 19.4926C23.9903 19.5277 24.0132 19.5474 24.0318 19.5694C24.0983 19.6966 24.1648 19.8249 24.2313 19.9522C24.305 20.0816 24.3777 20.211 24.4514 20.3394C24.5408 20.4962 24.6301 20.6531 24.7184 20.8088C24.7256 20.8505 24.7412 20.8878 24.7713 20.9152C24.7817 20.9405 24.7931 20.9657 24.8035 20.9909C24.8274 21.0304 24.8503 21.0688 24.8741 21.1083C24.8991 21.1609 24.9043 21.2257 24.9551 21.263C24.9614 21.2695 24.9676 21.275 24.9728 21.2816C25.0092 21.3441 25.0445 21.4077 25.0808 21.4703C25.0787 21.4757 25.0808 21.4801 25.086 21.4823C25.0933 21.4944 25.1006 21.5076 25.1068 21.5196C25.1203 21.5789 25.1483 21.6293 25.1826 21.6754C25.2366 21.7752 25.2678 21.8882 25.3415 21.9759C25.3602 22.0022 25.3789 22.0297 25.3976 22.056C25.4474 22.1481 25.4983 22.2403 25.5482 22.3335C25.5419 22.3719 25.569 22.3916 25.5876 22.4158C25.6479 22.5518 25.7227 22.679 25.8057 22.7997C25.8057 22.8085 25.8078 22.815 25.8141 22.8205C25.8369 22.86 25.8598 22.8984 25.8826 22.9379C25.9449 23.1156 26.0529 23.2659 26.1474 23.4238C26.1547 23.4348 26.1609 23.4468 26.1682 23.4578C26.1828 23.4841 26.1973 23.5105 26.2108 23.5368C26.2243 23.5774 26.2399 23.618 26.271 23.6476C26.2742 23.6893 26.2928 23.7233 26.3209 23.7529C26.3219 23.7913 26.3417 23.8176 26.3707 23.8362C26.4455 24.0205 26.5681 24.1763 26.6584 24.3518C26.7093 24.4505 26.7966 24.547 26.9212 24.57C26.9752 24.6073 27.0375 24.5975 27.0967 24.5975C27.9722 24.5975 28.8478 24.5975 29.7233 24.5975C29.7742 24.5975 29.8271 24.6117 29.8728 24.5744C30.1907 24.4856 30.3226 24.1576 30.1688 23.8527C30.0795 23.675 29.9985 23.4929 29.9144 23.3119C29.9185 23.2977 29.9144 23.2922 29.9009 23.2977C29.8136 23.166 29.7389 23.0267 29.6849 22.8765C29.6817 22.8468 29.6558 22.8567 29.6412 22.8479C29.581 22.7207 29.4969 22.6055 29.4418 22.4794C29.3639 22.3006 29.259 22.1405 29.1656 21.9726L29.1479 21.9485C29.0098 21.6929 28.8914 21.4242 28.7314 21.1818C28.7242 21.1719 28.7159 21.162 28.7086 21.1511C28.6961 21.0896 28.666 21.037 28.6286 20.9887C28.6203 20.9789 28.613 20.969 28.6047 20.9591C28.5237 20.8132 28.4469 20.6641 28.3669 20.5171C28.2817 20.3602 28.1727 20.2121 28.1322 20.0312C28.1363 20.0136 28.1291 20.007 28.1124 20.0103C27.9992 19.8447 27.8964 19.6747 27.8227 19.4849C27.8227 19.452 27.7926 19.4476 27.7759 19.4312C27.7334 19.3335 27.6897 19.2381 27.6222 19.1558C27.5838 19.0527 27.536 18.954 27.4685 18.8685C27.4415 18.8246 27.4093 18.7829 27.3896 18.7357C27.3013 18.5284 27.1788 18.3431 27.0749 18.1456C27.0676 18.1357 27.0604 18.1259 27.0521 18.1171C27.0167 18.0074 26.9503 17.9164 26.8942 17.8177C26.8786 17.7891 26.863 17.7617 26.8485 17.7332L26.6605 17.3789C26.6532 17.3701 26.6449 17.3613 26.6377 17.3526C26.6356 17.3306 26.6335 17.3087 26.6117 17.2977C26.6055 17.2637 26.5899 17.2352 26.565 17.2133C26.5608 17.2045 26.5566 17.1968 26.5525 17.188C26.5463 17.1782 26.54 17.1683 26.5338 17.1584C26.5276 17.1244 26.513 17.0959 26.4839 17.0784C26.4601 17.006 26.4289 16.938 26.3822 16.8776C26.3531 16.8261 26.324 16.7745 26.2939 16.723C26.2939 16.6955 26.3105 16.6626 26.2721 16.6473L26.2679 16.6429C26.2648 16.6133 26.2388 16.6045 26.2212 16.588C26.217 16.5519 26.2025 16.5222 26.1713 16.5036C26.0903 16.3423 26.0166 16.1767 25.9138 16.0286C25.8078 15.7939 25.6749 15.5767 25.5461 15.3563C25.5461 15.3354 25.5399 15.3168 25.5201 15.3058L25.5181 15.3014C25.5108 15.2915 25.5035 15.2817 25.4963 15.2729C25.4765 15.2279 25.4578 15.1829 25.4381 15.1369C25.4422 15.1182 25.4319 15.1127 25.4184 15.1095C25.3914 15.0645 25.3644 15.0184 25.3363 14.9734L25.2771 14.8572C25.2761 14.8473 25.2709 14.8407 25.2626 14.8374C25.2543 14.8232 25.2449 14.8078 25.2366 14.7936C25.2221 14.7365 25.1899 14.6915 25.1577 14.6466C25.1535 14.6181 25.1701 14.583 25.1338 14.5654H25.1327C25.1161 14.5457 25.0995 14.5281 25.0829 14.5095C25.0808 14.5007 25.0777 14.4908 25.0756 14.482C25.0538 14.4447 25.032 14.4074 25.0102 14.3702C25.006 14.3614 25.0019 14.3526 24.9977 14.3438C24.9915 14.334 24.9853 14.3252 24.979 14.3153C24.9738 14.2813 24.9572 14.255 24.9333 14.233C24.8991 14.1683 24.8658 14.1047 24.8316 14.04C24.8014 13.9862 24.7703 13.9325 24.7402 13.8788C24.7381 13.8535 24.7578 13.8217 24.7204 13.8096C24.6706 13.7724 24.6737 13.6945 24.6186 13.6605L24.358 13.168C24.3008 13.0671 24.2437 12.9651 24.1876 12.8641C24.1772 12.8466 24.1669 12.8279 24.1575 12.8104C24.1367 12.7654 24.1149 12.7215 24.0942 12.6766C24.0973 12.659 24.0879 12.6524 24.0734 12.6492C24.0651 12.6393 24.0568 12.6294 24.0474 12.6206C24.0422 12.5779 24.0204 12.5439 23.9934 12.5131C23.9851 12.4967 23.9768 12.4802 23.9675 12.4638L23.9643 12.4583L23.9425 12.4298C23.9176 12.3124 23.8407 12.2258 23.7795 12.1303C23.7545 12.0678 23.7307 12.0042 23.686 11.9526C23.658 11.9022 23.6299 11.8528 23.6019 11.8024C23.5977 11.7738 23.6154 11.7387 23.5769 11.7223L23.5749 11.7201C23.5583 11.7014 23.5416 11.6839 23.5261 11.6652C23.498 11.583 23.4544 11.5106 23.4066 11.4415C23.4056 11.4316 23.4014 11.425 23.3942 11.4185C23.3869 11.4086 23.3796 11.3998 23.3723 11.3899C23.3339 11.2879 23.2872 11.1892 23.2186 11.1036C23.1771 11.0016 23.1252 10.9062 23.0628 10.8174C23.0535 10.8053 23.0442 10.7932 23.0348 10.7812L23.04 10.7866L23.0452 10.7812C23.0244 10.7472 23.0493 10.6813 22.9818 10.6803C22.9766 10.6364 22.9538 10.6046 22.9268 10.5728L22.905 10.5431C22.8915 10.4817 22.8624 10.4291 22.825 10.3808C22.8177 10.3709 22.8094 10.3611 22.8022 10.3512C22.7669 10.2404 22.6983 10.1494 22.6412 10.0517L22.6204 10.0199L22.6235 10.0221C22.61 9.9936 22.5965 9.96399 22.583 9.93547C22.582 9.9256 22.5768 9.91902 22.5685 9.91572C22.5602 9.90147 22.5508 9.88611 22.5425 9.87185L22.4106 9.61408C22.4033 9.60531 22.395 9.59653 22.3878 9.58776C22.3857 9.56582 22.3836 9.54498 22.3618 9.53291C22.3275 9.47697 22.314 9.40787 22.259 9.36619C22.259 9.35741 22.2559 9.34973 22.2517 9.34206C22.2102 9.26528 22.178 9.18191 22.1209 9.1161C22.1209 9.10623 22.1167 9.10184 22.1084 9.10184C22.098 9.08539 22.0876 9.06893 22.0772 9.05248C22.0409 8.95376 21.9765 8.88027 21.8934 8.82323L21.8446 8.79252H21.8467C21.8373 8.78813 21.829 8.78155 21.8197 8.77497C21.7947 8.76619 21.7708 8.75852 21.7459 8.74974C21.6628 8.73768 21.5798 8.72232 21.4998 8.764C21.4852 8.76729 21.4707 8.77058 21.4562 8.77278C21.3679 8.78484 21.3035 8.83091 21.2536 8.90989C21.0812 9.1852 20.9431 9.48026 20.7873 9.76545C20.6928 9.93876 20.5889 10.1077 20.5225 10.2974C20.4903 10.3117 20.484 10.3402 20.4851 10.3731C20.3511 10.5091 20.3064 10.7 20.215 10.8623C20.1714 10.9402 20.0935 11.0049 20.0987 11.1102V11.108C19.8858 11.4174 19.7363 11.7651 19.5701 12.1029C19.5472 12.1095 19.5441 12.127 19.5483 12.1479C19.3229 12.4967 19.1474 12.8762 18.9656 13.2502C18.9594 13.2557 18.9573 13.2623 18.9584 13.2711C18.7527 13.5716 18.6063 13.9073 18.4484 14.2352C18.4256 14.2583 18.4038 14.2824 18.4006 14.3186C18.3591 14.3636 18.3321 14.4162 18.3207 14.4777C18.3124 14.4809 18.3041 14.4842 18.2957 14.4875C18.2781 14.4853 18.2615 14.4831 18.2438 14.4809C18.2355 14.4711 18.2272 14.4623 18.2189 14.4524C18.2085 14.4162 18.1981 14.3789 18.1877 14.3427C18.1815 14.3329 18.1742 14.323 18.168 14.3131C18.141 14.2681 18.1119 14.2254 18.087 14.1793C17.9489 13.9248 17.8107 13.6692 17.6736 13.4148C17.6767 13.3742 17.6757 13.3358 17.6238 13.3314C17.6051 13.2952 17.5854 13.259 17.5667 13.2217C17.5604 13.2119 17.5532 13.2009 17.5469 13.191C17.4244 12.9651 17.3018 12.738 17.1793 12.512C17.1232 12.4177 17.1024 12.2981 17.0037 12.2334C16.9113 11.9603 16.767 11.7113 16.6164 11.4777C16.4242 11.1782 16.2674 10.8579 16.0753 10.5596C15.9704 10.3973 15.9028 10.2075 15.7886 10.0484C15.7803 10.0144 15.7668 9.98373 15.7356 9.96618C15.7325 9.95741 15.7294 9.94863 15.7263 9.93986C15.7201 9.93108 15.7138 9.92121 15.7076 9.91243C15.6972 9.83346 15.6214 9.79617 15.6017 9.72267C15.5622 9.63163 15.5175 9.54388 15.4511 9.46929C15.4158 9.35851 15.3306 9.27953 15.2859 9.17533C15.2465 9.04261 15.1499 8.9757 15.0336 8.93073C14.9328 8.88246 14.83 8.86272 14.723 8.9066C14.5568 8.96363 14.4312 9.05906 14.3554 9.23895C14.2806 9.41664 14.1746 9.58008 14.0812 9.749C14.0531 9.80604 14.0261 9.86198 13.9981 9.91902C13.9617 9.92998 13.941 9.95192 13.9513 9.9958C13.9057 10.0868 13.86 10.179 13.8153 10.27C13.8018 10.2722 13.7924 10.2788 13.7966 10.2952L13.7125 10.462C13.699 10.4642 13.6896 10.4696 13.6927 10.4861C13.6844 10.5146 13.6751 10.5431 13.6668 10.5717C13.6543 10.575 13.6429 10.5793 13.6502 10.5969C13.6065 10.6671 13.5463 10.7285 13.5359 10.8174C13.5099 10.8261 13.5131 10.8503 13.5079 10.8711C13.4985 10.881 13.4902 10.8919 13.4809 10.9018C13.4456 10.915 13.4237 10.9358 13.4341 10.9797C13.3884 11.0707 13.3438 11.1618 13.2981 11.2528C13.2835 11.2561 13.2742 11.2627 13.2783 11.2802C13.2503 11.3351 13.2223 11.391 13.1942 11.4459C13.1807 11.4481 13.1714 11.4536 13.1745 11.4711C13.1662 11.4996 13.1568 11.5281 13.1485 11.5567C13.1361 11.5599 13.1246 11.5643 13.1309 11.5819C13.0872 11.6521 13.028 11.7135 13.0166 11.8024C12.9907 11.81 12.9938 11.8353 12.9886 11.8561C12.9792 11.866 12.9709 11.8769 12.9616 11.8868C12.9263 11.9 12.9045 11.9219 12.9148 11.9658C12.8691 12.0568 12.8245 12.1479 12.7788 12.2389C12.7653 12.2422 12.7559 12.2477 12.7591 12.2652C12.757 12.2751 12.7559 12.2861 12.7539 12.296C12.7507 12.2971 12.7466 12.2981 12.7466 12.3003C12.7456 12.3047 12.7466 12.3102 12.7466 12.3157C12.73 12.3442 12.7009 12.3651 12.703 12.4034C12.6656 12.4177 12.6687 12.455 12.6593 12.4857C12.6355 12.4967 12.6375 12.5219 12.6303 12.5417C12.6178 12.5449 12.6064 12.5493 12.6116 12.5669C12.5711 12.6382 12.5098 12.6985 12.4994 12.7874C12.4734 12.795 12.4766 12.8203 12.4714 12.8411C12.4631 12.851 12.4537 12.8608 12.4454 12.8707C12.3852 12.8685 12.3924 12.9102 12.3987 12.9508C12.3623 13.0243 12.326 13.0978 12.2896 13.1713C12.2553 13.1877 12.2605 13.2217 12.2585 13.2524C12.2522 13.2634 12.245 13.2744 12.2387 13.2853C12.2294 13.2875 12.22 13.2897 12.2273 13.304C12.2221 13.315 12.218 13.3259 12.2128 13.3369C12.1546 13.3621 12.1556 13.4214 12.1411 13.4718C12.1151 13.4817 12.1182 13.5091 12.1099 13.5299C12.0985 13.5321 12.0881 13.5354 12.0944 13.5519C12.057 13.6254 12.0196 13.7 11.9832 13.7735C11.9562 13.7811 11.9604 13.8064 11.9552 13.8272L11.9292 13.8557C11.869 13.8546 11.8773 13.8963 11.8825 13.9369C11.8461 14.0104 11.8098 14.0828 11.7734 14.1563C11.7392 14.1727 11.7444 14.2067 11.7412 14.2374C11.7267 14.2649 11.7111 14.2934 11.6966 14.3208C11.6395 14.346 11.6384 14.4053 11.6239 14.4568C11.547 14.5435 11.5096 14.6521 11.465 14.7574C11.438 14.765 11.4421 14.7914 11.4369 14.8111C11.4286 14.8199 11.4193 14.8297 11.411 14.8385C11.3445 14.8418 11.358 14.8791 11.3809 14.9208C11.3217 15.0063 11.2697 15.0963 11.2365 15.1972C11.224 15.2016 11.2136 15.206 11.2209 15.2224C11.2012 15.2466 11.1804 15.2707 11.1783 15.3047C11.1212 15.331 11.1191 15.3892 11.1046 15.4418C11.0786 15.4517 11.0817 15.4769 11.0755 15.4977C11.0682 15.5065 11.061 15.5142 11.0527 15.523C11.0246 15.5318 11.0246 15.5548 11.0298 15.5789C11.0288 15.5877 11.0277 15.5965 11.0257 15.6052C10.9841 15.6403 10.9592 15.6875 10.9467 15.7424C10.9291 15.7698 10.9114 15.7961 10.8927 15.8235C10.8262 15.8268 10.8397 15.8641 10.8616 15.9058C10.8044 15.9924 10.7515 16.0813 10.7182 16.1811C10.7058 16.1855 10.6954 16.1899 10.7016 16.2063L10.6611 16.2886C10.6175 16.3105 10.6206 16.3632 10.5957 16.3972L10.5573 16.4795C10.5489 16.4882 10.5406 16.497 10.5323 16.5058L10.5303 16.508C10.4929 16.5255 10.5105 16.5606 10.5064 16.5891C10.4607 16.6221 10.4399 16.6714 10.4274 16.7263C10.3693 16.7635 10.3246 16.8085 10.3412 16.8897C10.2633 17.0103 10.1906 17.1343 10.1418 17.2725C10.1003 17.2955 10.0972 17.3449 10.0764 17.3822C10.0567 17.4195 10.011 17.4403 10.013 17.4919C9.9798 17.5094 9.98396 17.5434 9.9798 17.5741C9.94864 17.6147 9.91852 17.6564 9.91022 17.7102C9.87594 17.7255 9.85517 17.7507 9.85932 17.7924C9.83959 17.8045 9.81363 17.8122 9.83024 17.8451C9.77832 17.9361 9.73158 18.0315 9.67342 18.1182C9.6433 18.1621 9.65888 18.1917 9.67653 18.2268C9.65472 18.2399 9.61734 18.2147 9.60591 18.2564C9.59656 18.2838 9.58722 18.3123 9.57787 18.3398C9.5706 18.3485 9.56229 18.3584 9.55502 18.3672C9.50101 18.4758 9.44701 18.5844 9.39196 18.693C9.38469 18.7028 9.37638 18.7116 9.36911 18.7215C9.3525 18.7555 9.33484 18.7895 9.31822 18.8235C9.29018 18.8202 9.29849 18.8388 9.30161 18.8542C9.24552 18.9562 9.19048 19.0593 9.13439 19.1613C9.10739 19.1679 9.11154 19.192 9.10947 19.2118L9.10739 19.214C9.09389 19.2162 9.08454 19.2217 9.08766 19.2392C9.043 19.3346 9.00976 19.4377 8.95264 19.5222C8.8197 19.7174 8.73765 19.9423 8.61614 20.1441C8.58083 20.1606 8.5881 20.1946 8.58602 20.2242C8.48839 20.3229 8.47801 20.4776 8.38246 20.5774C8.36999 20.5829 8.35857 20.5884 8.36376 20.6059L8.09789 21.1269C8.06361 21.1434 8.06984 21.1774 8.06673 21.2081C7.97533 21.3211 7.93794 21.4659 7.8642 21.5887C7.85693 21.5986 7.84966 21.6085 7.84239 21.6183C7.76346 21.7653 7.68557 21.9123 7.60664 22.0593C7.59313 22.0593 7.58379 22.0659 7.58794 22.0823C7.58586 22.0911 7.58275 22.101 7.58067 22.1097C7.54744 22.1273 7.55159 22.1624 7.5464 22.192C7.43111 22.3982 7.31272 22.6022 7.21717 22.8194C7.20886 22.8293 7.20159 22.8381 7.19328 22.8479L7.1912 22.8501C7.1777 22.8523 7.16835 22.8578 7.17251 22.8754L7.08838 23.0421C7.07488 23.0443 7.06553 23.0498 7.06865 23.0662C6.99803 23.2319 6.93675 23.403 6.80796 23.5324C6.80485 23.5412 6.80485 23.5499 6.80796 23.5587C6.74876 23.6838 6.68541 23.8066 6.64387 23.9393C6.54313 24.2596 6.74669 24.5931 7.06553 24.5953C7.97949 24.6019 8.89344 24.5953 9.80636 24.5942C9.83648 24.6008 9.8614 24.5887 9.88425 24.57C10.0972 24.4768 10.2041 24.2849 10.2976 24.0797C10.3329 24.0161 10.3682 23.9536 10.4046 23.89C10.4337 23.8604 10.4503 23.8253 10.4544 23.7825C10.5843 23.5445 10.7141 23.3064 10.8439 23.0695C10.8626 23.0245 10.8813 22.9796 10.9 22.9346C10.9249 22.9258 10.9239 22.9017 10.927 22.8798C10.9852 22.849 10.9935 22.7865 11.0163 22.7317C11.0527 22.6615 11.09 22.5913 11.1264 22.5211C11.1368 22.4947 11.1461 22.4673 11.1565 22.441C11.2043 22.4213 11.2053 22.3675 11.2292 22.3302C11.2593 22.3061 11.278 22.2743 11.2843 22.2348C11.2915 22.2216 11.2988 22.2074 11.3061 22.1942V22.192L11.3092 22.1953Z" fill="url(#paint0_linear_575_8837)"/>
</g>
<defs>
<linearGradient id="paint0_linear_575_8837" x1="15.7577" y1="18.0015" x2="31.9987" y2="40.3063" gradientUnits="userSpaceOnUse">
<stop/>
<stop offset="1" stop-color="#F19E38"/>
</linearGradient>
<clipPath id="clip0_575_8837">
<rect width="35.8512" height="35.8512" fill="white" transform="translate(0.298157 0.754395)"/>
</clipPath>
</defs>
</svg>
