<svg width="93" height="13" viewBox="0 0 93 13" fill="none" xmlns="http://www.w3.org/2000/svg">
<g clip-path="url(#clip0_1696_770)">
<path d="M40.3242 7.83291H46.4006L43.1877 2.6781L37.2907 11.9982H34.607L41.7796 0.802701C42.0914 0.350462 42.6111 0.0771484 43.1877 0.0771484C43.7452 0.0771484 44.2649 0.340969 44.5674 0.783895L51.7683 11.9982H49.0847L47.8185 9.91554H41.6664L40.3244 7.83291H40.3242ZM68.2021 9.91536V0.190163H65.9247V10.8673C65.9247 11.1594 66.038 11.4422 66.2554 11.6589C66.4727 11.8757 66.7656 11.9982 67.0869 11.9982H77.4727L78.8147 9.91554H68.2019L68.2021 9.91536ZM30.5244 8.17196C32.7359 8.17196 34.5314 6.39094 34.5314 4.18581C34.5314 1.98049 32.7359 0.189984 30.5244 0.189984H20.5611V11.9983H22.8378V2.27297H30.3733C31.4317 2.27297 32.2822 3.1307 32.2822 4.18616C32.2822 5.24145 31.4317 6.099 30.3733 6.099L23.9529 6.08969L30.7512 11.9983H34.0588L29.485 8.17231H30.5245L30.5244 8.17196ZM6.54679 11.9982C3.27796 11.9983 0.625183 9.3596 0.625183 6.099C0.625183 2.83822 3.27796 0.190342 6.54679 0.190342H13.4293C16.6988 0.190342 19.3496 2.83822 19.3496 6.099C19.3496 9.3596 16.6988 11.9982 13.4291 11.9982H6.54679ZM13.2763 9.91554C15.394 9.91554 17.1092 8.20975 17.1092 6.09882C17.1092 3.98807 15.394 2.27297 13.2763 2.27297H6.6991C4.58208 2.27297 2.86595 3.98807 2.86595 6.099C2.86595 8.20975 4.58208 9.91554 6.69892 9.91554H13.2761H13.2763ZM56.5218 11.9982C53.2522 11.9982 50.5966 9.3596 50.5966 6.099C50.5966 2.83822 53.2522 0.190342 56.5218 0.190342H64.6964L63.3637 2.27297H56.673C54.5562 2.27297 52.8363 3.98807 52.8363 6.099C52.8363 8.20975 54.5562 9.91554 56.673 9.91554H64.8851L63.5431 11.9982H56.5218ZM84.3715 9.91554C82.6232 9.91554 81.1395 8.74706 80.686 7.13548H90.4195L91.7614 5.05285H80.686C81.1395 3.45076 82.6232 2.27297 84.3715 2.27297H91.0528L92.4038 0.189984H84.2201C80.9504 0.189984 78.2949 2.83804 78.2949 6.09864C78.2949 9.35942 80.9504 11.998 84.2201 11.998H91.2416L92.5834 9.91554H84.3713H84.3715Z" fill="#EA1B22"/>
</g>
<defs>
<clipPath id="clip0_1696_770">
<rect width="92" height="12" fill="white" transform="translate(0.604309 0.0771484)"/>
</clipPath>
</defs>
</svg>
