<svg width="103" height="32" viewBox="0 0 103 32" fill="none" xmlns="http://www.w3.org/2000/svg">
<path d="M45.7821 18.8008H51.8711L48.6548 13.6068L42.7415 22.988H40.0526L47.2444 11.7329C47.4011 11.5083 47.6095 11.3246 47.8519 11.1971C48.0943 11.0696 48.3637 11.002 48.6376 11C48.9115 10.9981 49.1819 11.0618 49.4261 11.1858C49.6703 11.3099 49.8812 11.4906 50.0412 11.713L57.2529 22.988H54.564L53.2974 20.8904H47.1365L45.794 18.8008M73.7339 20.8904V11.1136H71.4486V21.8533C71.4481 22.0025 71.478 22.1503 71.5364 22.2877C71.5948 22.425 71.6804 22.5491 71.7882 22.6524C71.8963 22.7631 72.0256 22.8509 72.1684 22.9106C72.3111 22.9703 72.4645 23.0007 72.6192 23H83.0073L84.3617 20.9024H73.7219M35.9493 19.1444C37.0143 19.1444 38.0356 18.7214 38.7887 17.9683C39.5417 17.2153 39.9647 16.194 39.9647 15.129C39.9647 14.0641 39.5417 13.0428 38.7887 12.2897C38.0356 11.5367 37.0143 11.1136 35.9493 11.1136H25.9608V22.988H28.2422V13.2152H35.8095C36.3192 13.2152 36.808 13.4177 37.1684 13.7781C37.5288 14.1385 37.7313 14.6273 37.7313 15.137C37.7313 15.6467 37.5288 16.1355 37.1684 16.4959C36.808 16.8563 36.3192 17.0588 35.8095 17.0588H29.3729L36.1891 22.988H39.5013L34.9225 19.1444H35.9493ZM11.929 22.988H18.829C20.3765 22.9478 21.847 22.3049 22.9273 21.1962C24.0076 20.0875 24.6122 18.6008 24.6122 17.0528C24.6122 15.5049 24.0076 14.0181 22.9273 12.9094C21.847 11.8007 20.3765 11.1578 18.829 11.1176H11.929C11.1366 11.0971 10.3481 11.2354 9.61003 11.5244C8.87196 11.8134 8.19924 12.2473 7.63153 12.8005C7.06383 13.3537 6.61263 14.0149 6.30456 14.7452C5.99649 15.4756 5.83777 16.2602 5.83777 17.0528C5.83777 17.8455 5.99649 18.6301 6.30456 19.3604C6.61263 20.0907 7.06383 20.752 7.63153 21.3051C8.19924 21.8583 8.87196 22.2922 9.61003 22.5812C10.3481 22.8703 11.1366 23.0086 11.929 22.988ZM18.6732 20.8984H12.0808C11.0834 20.8662 10.1376 20.4474 9.4434 19.7305C8.74922 19.0136 8.3611 18.0547 8.3611 17.0568C8.3611 16.0589 8.74922 15.1001 9.4434 14.3832C10.1376 13.6662 11.0834 13.2474 12.0808 13.2152H18.6732C19.1881 13.1986 19.7011 13.2857 20.1817 13.4713C20.6623 13.6569 21.1007 13.9372 21.4708 14.2955C21.8409 14.6539 22.1352 15.083 22.3361 15.5574C22.5371 16.0317 22.6407 16.5416 22.6407 17.0568C22.6407 17.572 22.5371 18.0819 22.3361 18.5563C22.1352 19.0306 21.8409 19.4597 21.4708 19.8181C21.1007 20.1765 20.6623 20.4568 20.1817 20.6424C19.7011 20.8279 19.1881 20.915 18.6732 20.8984ZM62.0194 22.988H69.0633L70.3978 20.8984H62.1752C61.6603 20.915 61.1473 20.8279 60.6667 20.6424C60.1861 20.4568 59.7478 20.1765 59.3776 19.8181C59.0075 19.4597 58.7132 19.0306 58.5123 18.5563C58.3113 18.0819 58.2077 17.572 58.2077 17.0568C58.2077 16.5416 58.3113 16.0317 58.5123 15.5574C58.7132 15.083 59.0075 14.6539 59.3776 14.2955C59.7478 13.9372 60.1861 13.6569 60.6667 13.4713C61.1473 13.2857 61.6603 13.1986 62.1752 13.2152H68.8675L70.218 11.1176H62.0194C61.227 11.0971 60.4385 11.2354 59.7005 11.5244C58.9624 11.8134 58.2897 12.2473 57.722 12.8005C57.1543 13.3537 56.7031 14.0149 56.395 14.7452C56.0869 15.4756 55.9282 16.2602 55.9282 17.0528C55.9282 17.8455 56.0869 18.6301 56.395 19.3604C56.7031 20.0907 57.1543 20.752 57.722 21.3051C58.2897 21.8583 58.9624 22.2922 59.7005 22.5812C60.4385 22.8703 61.227 23.0086 62.0194 22.988ZM89.9353 20.8984C89.0982 20.8987 88.2838 20.6257 87.6161 20.1209C86.9483 19.6161 86.4635 18.9071 86.2356 18.1016H95.9923L97.3348 16.008H86.2356C86.463 15.2022 86.9475 14.4928 87.6154 13.9879C88.2834 13.483 89.098 13.2103 89.9353 13.2112H96.6316L97.9701 11.1136H89.7795C88.232 11.1538 86.7615 11.7967 85.6812 12.9054C84.6009 14.0141 83.9963 15.5009 83.9963 17.0488C83.9963 18.5968 84.6009 20.0836 85.6812 21.1922C86.7615 22.3009 88.232 22.9439 89.7795 22.984H96.8234L98.1619 20.8944H89.9313" fill="url(#paint0_linear_1511_6943)"/>
<defs>
<linearGradient id="paint0_linear_1511_6943" x1="51.9998" y1="11" x2="51.9998" y2="23" gradientUnits="userSpaceOnUse">
<stop stop-color="#171109"/>
<stop offset="0.541667" stop-color="#402B11"/>
<stop offset="1" stop-color="#171109"/>
</linearGradient>
</defs>
</svg>
