<svg width="94" height="12" viewBox="0 0 94 12" fill="none" xmlns="http://www.w3.org/2000/svg">
<path d="M40.7812 7.80081H46.8702L43.6539 2.60678L37.7407 11.988H35.0518L42.2435 0.732935C42.4003 0.508344 42.6086 0.324594 42.851 0.19708C43.0934 0.0695656 43.3629 0.0020001 43.6367 4.37316e-05C43.9106 -0.00191263 44.181 0.0617971 44.4252 0.185836C44.6694 0.309874 44.8803 0.490629 45.0403 0.712958L52.252 11.988H49.5631L48.2966 9.89041H42.1356L40.7932 7.80081M68.7331 9.89041V0.113647H66.4477V10.8533C66.4473 11.0025 66.4772 11.1503 66.5355 11.2877C66.5939 11.425 66.6796 11.5491 66.7873 11.6524C66.8955 11.7631 67.0248 11.8509 67.1675 11.9106C67.3103 11.9703 67.4636 12.0007 67.6184 12H78.0064L79.3609 9.9024H68.7211M30.9485 8.14442C32.0134 8.14442 33.0348 7.72137 33.7878 6.96834C34.5408 6.21531 34.9639 5.19398 34.9639 4.12903C34.9639 3.06409 34.5408 2.04276 33.7878 1.28973C33.0348 0.536695 32.0134 0.113647 30.9485 0.113647H20.96V11.988H23.2414V2.21523H30.8087C31.3183 2.21523 31.8072 2.41771 32.1676 2.77811C32.528 3.13852 32.7304 3.62733 32.7304 4.13702C32.7304 4.64671 32.528 5.13553 32.1676 5.49593C31.8072 5.85634 31.3183 6.05882 30.8087 6.05882H24.3721L31.1882 11.988H34.5004L29.9217 8.14442H30.9485ZM6.9281 11.988H13.8282C15.3756 11.9478 16.8462 11.3049 17.9265 10.1962C19.0068 9.08755 19.6113 7.60079 19.6113 6.05282C19.6113 4.50485 19.0068 3.01809 17.9265 1.90941C16.8462 0.800726 15.3756 0.157795 13.8282 0.117642H6.9281C6.13572 0.0970818 5.34725 0.235393 4.60918 0.52442C3.87111 0.813447 3.19839 1.24734 2.63068 1.8005C2.06297 2.35367 1.61178 3.01491 1.30371 3.74524C0.995631 4.47556 0.836914 5.26018 0.836914 6.05282C0.836914 6.84546 0.995631 7.63008 1.30371 8.36041C1.61178 9.09073 2.06297 9.75198 2.63068 10.3051C3.19839 10.8583 3.87111 11.2922 4.60918 11.5812C5.34725 11.8703 6.13572 12.0086 6.9281 11.988ZM13.6723 9.8984H7.07992C6.08251 9.86623 5.13672 9.4474 4.44254 8.73048C3.74837 8.01355 3.36024 7.05474 3.36024 6.05682C3.36024 5.05889 3.74837 4.10008 4.44254 3.38316C5.13672 2.66623 6.08251 2.2474 7.07992 2.21523H13.6723C14.1873 2.19862 14.7002 2.2857 15.1808 2.47128C15.6614 2.65687 16.0998 2.93717 16.4699 3.29553C16.84 3.6539 17.1343 4.08301 17.3353 4.55737C17.5363 5.03172 17.6398 5.54164 17.6398 6.05682C17.6398 6.57199 17.5363 7.08191 17.3353 7.55627C17.1343 8.03063 16.84 8.45974 16.4699 8.8181C16.0998 9.17647 15.6614 9.45677 15.1808 9.64235C14.7002 9.82794 14.1873 9.91501 13.6723 9.8984ZM57.0185 11.988H64.0624L65.3969 9.8984H57.1744C56.6594 9.91501 56.1465 9.82794 55.6659 9.64235C55.1853 9.45677 54.7469 9.17647 54.3768 8.8181C54.0067 8.45974 53.7124 8.03063 53.5114 7.55627C53.3104 7.08191 53.2069 6.57199 53.2069 6.05682C53.2069 5.54164 53.3104 5.03172 53.5114 4.55737C53.7124 4.08301 54.0067 3.6539 54.3768 3.29553C54.7469 2.93717 55.1853 2.65687 55.6659 2.47128C56.1465 2.2857 56.6594 2.19862 57.1744 2.21523H63.8667L65.2171 0.117642H57.0185C56.2262 0.0970818 55.4377 0.235393 54.6996 0.52442C53.9615 0.813447 53.2888 1.24734 52.7211 1.8005C52.1534 2.35367 51.7022 3.01491 51.3941 3.74524C51.0861 4.47556 50.9274 5.26018 50.9274 6.05282C50.9274 6.84546 51.0861 7.63008 51.3941 8.36041C51.7022 9.09073 52.1534 9.75198 52.7211 10.3051C53.2888 10.8583 53.9615 11.2922 54.6996 11.5812C55.4377 11.8703 56.2262 12.0086 57.0185 11.988ZM84.9344 9.8984C84.0973 9.89872 83.283 9.62573 82.6152 9.12092C81.9474 8.61612 81.4627 7.90709 81.2347 7.10162H90.9915L92.334 5.00802H81.2347C81.4621 4.20221 81.9467 3.49281 82.6146 2.98791C83.2825 2.483 84.0972 2.21026 84.9344 2.21124H91.6308L92.9692 0.113647H84.7786C83.2312 0.1538 81.7606 0.796731 80.6803 1.90541C79.6 3.0141 78.9955 4.50086 78.9955 6.04883C78.9955 7.5968 79.6 9.08355 80.6803 10.1922C81.7606 11.3009 83.2312 11.9439 84.7786 11.984H91.8225L93.161 9.89441H84.9305" fill="url(#paint0_linear_1511_6901)"/>
<defs>
<linearGradient id="paint0_linear_1511_6901" x1="46.999" y1="0" x2="46.999" y2="12" gradientUnits="userSpaceOnUse">
<stop stop-color="#171109"/>
<stop offset="0.541667" stop-color="#402B11"/>
<stop offset="1" stop-color="#171109"/>
</linearGradient>
</defs>
</svg>
