<svg width="35" height="35" viewBox="0 0 35 35" fill="none" xmlns="http://www.w3.org/2000/svg">
<g clip-path="url(#clip0_1696_698)">
<path d="M17.0502 0.730225C8.44053 0.730225 8.9781 4.47889 8.9781 4.47889L8.98766 8.36263H17.2037V9.52862H5.72437C5.72437 9.52862 0.215027 8.90129 0.215027 17.6233C0.215027 26.3456 5.02371 26.0362 5.02371 26.0362H7.89352V21.9888C7.89352 21.9888 7.73881 17.1608 12.6255 17.1608H20.7743C20.7743 17.1608 25.3526 17.235 25.3526 12.7182V5.24996C25.3526 5.24996 26.0479 0.730225 17.0502 0.730225ZM12.5199 3.34196C12.714 3.34178 12.9063 3.38005 13.0857 3.45456C13.2651 3.52908 13.4281 3.63838 13.5654 3.77622C13.7027 3.91406 13.8116 4.07772 13.8858 4.25785C13.96 4.43797 13.9981 4.63103 13.9979 4.82596C13.9981 5.02089 13.96 5.21394 13.8858 5.39407C13.8116 5.57419 13.7027 5.73786 13.5654 5.8757C13.4281 6.01353 13.2651 6.12284 13.0857 6.19735C12.9063 6.27187 12.714 6.31013 12.5199 6.30996C12.3257 6.31013 12.1334 6.27187 11.954 6.19735C11.7746 6.12284 11.6116 6.01353 11.4743 5.8757C11.3371 5.73786 11.2282 5.57419 11.154 5.39407C11.0797 5.21394 11.0416 5.02089 11.0418 4.82596C11.0416 4.63103 11.0797 4.43797 11.154 4.25785C11.2282 4.07772 11.3371 3.91406 11.4743 3.77622C11.6116 3.63838 11.7746 3.52908 11.954 3.45456C12.1334 3.38005 12.3257 3.34178 12.5199 3.34196Z" fill="url(#paint0_linear_1696_698)"/>
<path d="M17.2947 34.6042C25.9044 34.6042 25.3668 30.8556 25.3668 30.8556L25.3573 26.972H17.1411V25.806H28.6204C28.6204 25.806 34.1298 26.4333 34.1298 17.711C34.1298 8.9889 29.3211 9.29823 29.3211 9.29823H26.4513V13.3456C26.4513 13.3456 26.606 18.1736 21.7193 18.1736H13.5705C13.5705 18.1736 8.99219 18.0993 8.99219 22.6162V30.0846C8.99219 30.0846 8.29698 34.6042 17.2946 34.6042H17.2947ZM21.8251 31.9928C21.6309 31.9929 21.4386 31.9547 21.2592 31.8802C21.0798 31.8056 20.9168 31.6963 20.7795 31.5585C20.6422 31.4207 20.5334 31.257 20.4591 31.0769C20.3849 30.8967 20.3468 30.7037 20.347 30.5088C20.3468 30.3138 20.3849 30.1208 20.4591 29.9406C20.5333 29.7605 20.6422 29.5968 20.7795 29.4589C20.9168 29.3211 21.0798 29.2118 21.2592 29.1373C21.4386 29.0627 21.6309 29.0245 21.8251 29.0246C22.0192 29.0245 22.2115 29.0627 22.3909 29.1372C22.5703 29.2118 22.7333 29.3211 22.8706 29.4589C23.0079 29.5967 23.1167 29.7604 23.191 29.9405C23.2652 30.1206 23.3033 30.3137 23.3031 30.5086C23.3033 30.7036 23.2652 30.8966 23.191 31.0767C23.1167 31.2569 23.0079 31.4205 22.8706 31.5584C22.7333 31.6962 22.5703 31.8055 22.3909 31.88C22.2115 31.9545 22.0192 31.9929 21.8251 31.9928Z" fill="url(#paint1_linear_1696_698)"/>
</g>
<defs>
<linearGradient id="paint0_linear_1696_698" x1="326.134" y1="305.405" x2="2013.51" y2="1969.27" gradientUnits="userSpaceOnUse">
<stop stop-color="#387EB8"/>
<stop offset="1" stop-color="#366994"/>
</linearGradient>
<linearGradient id="paint1_linear_1696_698" x1="490.05" y1="530.097" x2="2301.77" y2="2235.92" gradientUnits="userSpaceOnUse">
<stop stop-color="#FFE052"/>
<stop offset="1" stop-color="#FFC331"/>
</linearGradient>
<clipPath id="clip0_1696_698">
<rect width="34" height="34" fill="white" transform="translate(0.195801 0.720703)"/>
</clipPath>
</defs>
</svg>
