<svg width="48" height="48" viewBox="0 0 48 48" fill="none" xmlns="http://www.w3.org/2000/svg">
<path d="M23.52 1.91992C15.1688 1.91992 13.44 6.23242 13.44 8.72992V13.4399H23.04V14.3999H8.73001C5.56126 14.3999 1.92001 16.8974 1.92001 23.9999C1.92001 31.1024 5.56126 33.5999 8.73001 33.5999H14.4V27.8399C14.4 25.7287 16.1288 23.9999 18.24 23.9999H29.76C31.3913 23.9999 32.64 22.7512 32.64 21.1199V8.72992C32.64 5.36992 29.4713 1.91992 23.52 1.91992ZM19.2 6.71992C20.2575 6.71992 21.12 7.58242 21.12 8.63992C21.12 9.69742 20.2575 10.5599 19.2 10.5599C18.1425 10.5599 17.28 9.69742 17.28 8.63992C17.28 7.58242 18.1425 6.71992 19.2 6.71992ZM33.6 14.3999V21.1199C33.6 23.2312 31.8713 24.9599 29.76 24.9599H18.24C16.6088 24.9599 15.36 26.2087 15.36 27.8399V39.2699C15.36 42.6299 18.5288 46.0799 24.48 46.0799C32.8313 46.0799 34.56 41.7674 34.56 39.2699V34.5599H24.96V33.5999H39.27C42.4388 33.5999 46.08 31.1024 46.08 23.9999C46.08 16.8974 42.4388 14.3999 39.27 14.3999H33.6ZM28.8 37.4399C29.8575 37.4399 30.72 38.3024 30.72 39.3599C30.72 40.4174 29.8575 41.2799 28.8 41.2799C27.7425 41.2799 26.88 40.4174 26.88 39.3599C26.88 38.3024 27.7425 37.4399 28.8 37.4399Z" fill="url(#paint0_linear_419_7133)"/>
<defs>
<linearGradient id="paint0_linear_419_7133" x1="18.5" y1="16.5" x2="37" y2="46" gradientUnits="userSpaceOnUse">
<stop offset="0.453125"/>
<stop offset="1" stop-color="#F19E38"/>
</linearGradient>
</defs>
</svg>
