<svg width="48" height="48" viewBox="0 0 48 48" fill="none" xmlns="http://www.w3.org/2000/svg">
<path fill-rule="evenodd" clip-rule="evenodd" d="M33.1725 3.82509C32.424 3.79992 31.6405 3.93042 30.855 4.18509C29.284 4.69443 27.6377 5.68702 25.9481 7.06134C25.286 7.59994 24.6179 8.21561 23.9475 8.86884C23.2919 8.23219 22.6375 7.63305 21.99 7.10634C20.3019 5.73312 18.66 4.74015 17.0925 4.23197C15.525 3.72378 13.9654 3.70803 12.6844 4.44759C11.4034 5.18715 10.6374 6.54475 10.2938 8.15634C9.95012 9.76793 9.98798 11.6871 10.3331 13.8357C10.453 14.582 10.624 15.365 10.8188 16.1626C10.0868 16.3844 9.37603 16.6176 8.71689 16.8751C6.72768 17.652 5.08173 18.5815 3.88314 19.6876C2.68456 20.7937 1.91064 22.1361 1.91064 23.6101C1.91064 25.0841 2.68456 26.4247 3.88314 27.5307C5.08173 28.6368 6.72768 29.5682 8.71689 30.3451C9.4217 30.6204 10.1848 30.8682 10.9725 31.1026C10.6892 32.1613 10.4596 33.1887 10.3031 34.1626C9.9577 36.3129 9.92122 38.2323 10.2656 39.8476C10.6101 41.4628 11.3765 42.8281 12.6638 43.5713C13.9511 44.3146 15.5177 44.2963 17.0888 43.787C18.6598 43.2776 20.3043 42.2869 21.9938 40.9126C22.6498 40.379 23.3134 39.7702 23.9775 39.1238C24.6451 39.7741 25.3114 40.3857 25.9706 40.922C27.6588 42.2952 29.3025 43.2863 30.87 43.7945C32.4375 44.3027 33.9972 44.3184 35.2781 43.5788C36.5591 42.8393 37.3232 41.4817 37.6669 39.8701C38.0105 38.2585 37.9727 36.3412 37.6275 34.1926C37.4706 33.2161 37.2409 32.1853 36.9563 31.1232C37.77 30.8832 38.5572 30.6286 39.2831 30.3451C41.2724 29.5682 42.9183 28.6368 44.1169 27.5307C45.3155 26.4247 46.0894 25.0841 46.0894 23.6101C46.0894 22.1361 45.3155 20.7937 44.1169 19.6876C42.9183 18.5815 41.2724 17.652 39.2831 16.8751C38.6146 16.614 37.8928 16.3777 37.1494 16.1532C37.3457 15.3507 37.52 14.5621 37.6406 13.8113C37.9861 11.661 38.0226 9.73971 37.6781 8.12447C37.3337 6.50922 36.5654 5.14581 35.2781 4.40259C34.6345 4.03098 33.921 3.85026 33.1725 3.82509ZM33.0844 5.77884C33.5541 5.79168 33.9548 5.90346 34.2975 6.10134C34.983 6.49711 35.4897 7.26738 35.76 8.53509C36.0303 9.8028 36.021 11.5156 35.7019 13.502C35.5926 14.1821 35.434 14.9028 35.2538 15.6413C33.2901 15.1688 31.1383 14.8181 28.845 14.612C27.6938 13.017 26.5108 11.564 25.3181 10.2751C25.949 9.65929 26.5758 9.08335 27.1875 8.58572C28.7482 7.31619 30.2257 6.45234 31.4588 6.05259C32.0753 5.85271 32.6147 5.766 33.0844 5.77884ZM14.8669 5.78447C15.3393 5.77128 15.8799 5.85776 16.4981 6.05822C17.7347 6.45912 19.2149 7.32258 20.7769 8.59322C21.3764 9.08086 21.9891 9.64584 22.6069 10.247C21.4054 11.5465 20.2127 13.0121 19.0538 14.6213C16.7702 14.8312 14.6272 15.1838 12.6731 15.6582C12.4943 14.9238 12.3356 14.2067 12.2269 13.5301C11.9075 11.542 11.8995 9.82896 12.1706 8.55759C12.4417 7.28622 12.9526 6.51014 13.6444 6.11072C13.9903 5.911 14.3945 5.79765 14.8669 5.78447ZM23.9775 11.657C24.7595 12.508 25.5417 13.4393 26.3175 14.4413C25.5553 14.4096 24.7837 14.3907 24 14.3907C23.2008 14.3907 22.4145 14.4102 21.6375 14.4432C22.4135 13.4404 23.1953 12.5086 23.9775 11.657ZM24 16.3295C25.3055 16.3295 26.578 16.3831 27.8156 16.4738C28.6673 17.697 29.4995 18.9947 30.2925 20.3682C30.9893 21.5751 31.6199 22.7801 32.1938 23.9701C31.6138 25.1759 30.9727 26.3972 30.2663 27.6207C29.6444 28.6978 28.9951 29.7207 28.335 30.707C26.937 30.8238 25.4883 30.8888 24 30.8888C22.4759 30.8888 20.9947 30.82 19.5656 30.6976C18.9166 29.7255 18.2782 28.7181 17.6663 27.6582C16.9615 26.4375 16.3235 25.2184 15.7444 24.0151C16.3259 22.805 16.9668 21.5791 17.6756 20.3513C18.4645 18.985 19.2943 17.6949 20.1413 16.4776C21.3923 16.3848 22.6795 16.3295 24 16.3295ZM30.2869 16.7138C31.8694 16.9113 33.3553 17.1854 34.7381 17.5145C34.3278 18.8596 33.8224 20.2645 33.21 21.7145C32.8124 20.948 32.4006 20.1789 31.9556 19.4082C31.4164 18.4743 30.8548 17.5839 30.2869 16.7138ZM17.61 16.7288C17.0541 17.5826 16.5071 18.4557 15.9788 19.3707C15.5281 20.1513 15.1078 20.9307 14.7056 21.707C14.0985 20.2658 13.5962 18.8688 13.1888 17.5313C14.5613 17.2017 16.0385 16.9286 17.61 16.7288ZM36.6375 18.0245C37.318 18.2304 37.9753 18.4453 38.5781 18.6807C40.4119 19.3969 41.8624 20.245 42.8025 21.1126C43.7426 21.9801 44.1506 22.8075 44.1506 23.6101C44.1506 24.4127 43.7426 25.24 42.8025 26.1076C41.8624 26.9751 40.4119 27.8232 38.5781 28.5395C37.9082 28.8011 37.1721 29.0384 36.4069 29.2632C35.861 27.5748 35.1642 25.8133 34.335 24.0151C35.2885 21.9506 36.0587 19.9376 36.6375 18.0245ZM11.3306 18.0338C11.9029 19.9279 12.6632 21.9208 13.6031 23.9645C12.7685 25.7732 12.0683 27.5447 11.52 29.2426C10.7817 29.0237 10.0706 28.7928 9.42189 28.5395C7.58815 27.8232 6.13764 26.9751 5.19752 26.1076C4.2574 25.24 3.84939 24.4127 3.84939 23.6101C3.84939 22.8075 4.2574 21.9801 5.19752 21.1126C6.13764 20.245 7.58815 19.3969 9.42189 18.6807C10.0155 18.4489 10.6617 18.2371 11.3306 18.0338ZM24 19.2001C21.3604 19.2001 19.2 21.3605 19.2 24.0001C19.2 26.6397 21.3604 28.8001 24 28.8001C26.6396 28.8001 28.8 26.6397 28.8 24.0001C28.8 21.3605 26.6396 19.2001 24 19.2001ZM14.7281 26.2707C15.132 27.0508 15.552 27.8336 16.005 28.6182C16.3594 29.2321 16.7214 29.8296 17.0888 30.4163C15.7995 30.2376 14.574 30.0112 13.4231 29.7432C13.7891 28.6223 14.227 27.4588 14.7281 26.2707ZM33.2344 26.2707C33.7376 27.4616 34.1756 28.627 34.5431 29.7507C33.3886 30.0184 32.1593 30.244 30.8663 30.422C31.2385 29.828 31.6061 29.223 31.965 28.6013C32.4147 27.8225 32.8331 27.0451 33.2344 26.2707ZM12.87 31.607C14.6075 32.0186 16.4906 32.3347 18.4875 32.5407C19.8205 34.4688 21.2093 36.2012 22.6069 37.7157C21.9819 38.3251 21.3625 38.897 20.7563 39.3901C19.1956 40.6596 17.7162 41.5216 16.4831 41.9213C15.2501 42.3211 14.3299 42.2684 13.6444 41.8726C12.9589 41.4768 12.4541 40.7066 12.1838 39.4388C11.9135 38.1711 11.9209 36.4602 12.24 34.4738C12.3848 33.5727 12.6011 32.6078 12.87 31.607ZM35.0981 31.6145C35.3693 32.6214 35.5863 33.5899 35.7319 34.4963C36.0513 36.4844 36.0592 38.1975 35.7881 39.4688C35.517 40.7402 35.01 41.5182 34.3181 41.9176C33.6263 42.317 32.6972 42.3691 31.4606 41.9682C30.2241 41.5673 28.7439 40.7038 27.1819 39.4332C26.5713 38.9366 25.9476 38.36 25.3181 37.7457C26.7251 36.2253 28.1237 34.484 29.4656 32.5445C31.4676 32.3399 33.356 32.0256 35.0981 31.6145ZM20.9925 32.7376C21.9782 32.7913 22.9769 32.8276 24 32.8276C24.9893 32.8276 25.9556 32.7935 26.91 32.7432C25.9344 34.0595 24.9399 35.2562 23.9494 36.3338C22.9595 35.2539 21.9669 34.0551 20.9925 32.7376Z" fill="url(#paint0_radial_419_7117)"/>
<defs>
<radialGradient id="paint0_radial_419_7117" cx="0" cy="0" r="1" gradientUnits="userSpaceOnUse" gradientTransform="translate(24 23.9898) rotate(90) scale(20.1678 22.0894)">
<stop offset="0.578125"/>
<stop offset="1" stop-color="#F19E38"/>
</radialGradient>
</defs>
</svg>
