<svg width="40" height="48" viewBox="0 0 40 48" fill="none" xmlns="http://www.w3.org/2000/svg">
<path d="M11.63 0.0300112C11.5062 0.0525111 11.3787 0.0750111 11.27 0.150011C10.8312 0.446261 10.7337 1.06126 11.03 1.50001L13.1 4.59001C9.90124 6.28501 7.51624 9.10126 6.73999 12.48H33.26C32.4837 9.10126 30.0987 6.28501 26.9 4.59001L28.97 1.50001C29.2662 1.06126 29.1687 0.446261 28.73 0.150011C28.2875 -0.146239 27.6762 -0.0187389 27.38 0.420011L25.1 3.78001C23.5175 3.20251 21.8 2.88001 20 2.88001C18.2 2.88001 16.4825 3.20251 14.9 3.78001L12.62 0.420011C12.3987 0.0900111 11.9975 -0.0412389 11.63 0.0300112ZM14.72 7.68001C15.515 7.68001 16.16 8.32501 16.16 9.12001C16.16 9.91876 15.515 10.56 14.72 10.56C13.9212 10.56 13.28 9.91876 13.28 9.12001C13.28 8.32501 13.9212 7.68001 14.72 7.68001ZM25.28 7.68001C26.0787 7.68001 26.72 8.32501 26.72 9.12001C26.72 9.91876 26.0787 10.56 25.28 10.56C24.485 10.56 23.84 9.91876 23.84 9.12001C23.84 8.32501 24.485 7.68001 25.28 7.68001ZM3.67999 14.4C2.08999 14.4 0.799988 15.69 0.799988 17.28V30.72C0.799988 32.31 2.08999 33.6 3.67999 33.6C4.01749 33.6 4.33999 33.5288 4.63999 33.42V14.58C4.33999 14.4713 4.01749 14.4 3.67999 14.4ZM6.55999 14.4V35.52C6.55999 37.1063 7.85374 38.4 9.43999 38.4H30.56C32.1462 38.4 33.44 37.1063 33.44 35.52V14.4H6.55999ZM36.32 14.4C35.9825 14.4 35.66 14.4713 35.36 14.58V33.42C35.66 33.525 35.9825 33.6 36.32 33.6C37.91 33.6 39.2 32.31 39.2 30.72V17.28C39.2 15.69 37.91 14.4 36.32 14.4ZM10.4 40.32V44.16C10.4 46.2787 12.1212 48 14.24 48C16.3587 48 18.08 46.2787 18.08 44.16V40.32H10.4ZM21.92 40.32V44.16C21.92 46.2787 23.6412 48 25.76 48C27.8787 48 29.6 46.2787 29.6 44.16V40.32H21.92Z" fill="url(#paint0_linear_419_7126)"/>
<defs>
<linearGradient id="paint0_linear_419_7126" x1="15.4999" y1="7" x2="30.4999" y2="41.5" gradientUnits="userSpaceOnUse">
<stop offset="0.572917"/>
<stop offset="1" stop-color="#F19E38"/>
</linearGradient>
</defs>
</svg>
