<svg width="37" height="37" viewBox="0 0 37 37" fill="none" xmlns="http://www.w3.org/2000/svg">
<g clipPath="url(#clip0_575_8828)">
<path d="M36.6476 16.975L28.968 3.34961C28.4814 2.47949 27.5146 1.91553 26.5349 1.91553H11.1886C10.2089 1.91553 9.24212 2.47949 8.75549 3.34961L1.0759 16.975C0.589282 17.8516 0.589282 18.9795 1.0759 19.8561L8.75549 33.4814C9.24212 34.3516 10.2089 34.9155 11.1886 34.9155H26.5349C27.5146 34.9155 28.4814 34.3483 28.968 33.4814L36.6476 19.8561C37.1342 18.9795 37.1342 17.8516 36.6476 16.975ZM25.9677 26.6655H23.4508C23.3316 26.6655 23.2156 26.5914 23.1608 26.4851L18.9004 18.5799C18.8779 18.538 18.8456 18.538 18.8231 18.5799L14.5498 26.4851C14.5015 26.5914 14.3919 26.6559 14.2759 26.6655H11.759C11.5302 26.6655 11.3562 26.3626 11.4754 26.1531L15.6391 18.4155L11.4754 10.6618C11.3723 10.4749 11.498 10.2074 11.6946 10.1655H14.2727C14.3823 10.1655 14.4918 10.2396 14.5498 10.3363L18.8231 18.2447C18.8456 18.2866 18.8779 18.2866 18.9004 18.2447L23.1575 10.3363C23.222 10.23 23.3316 10.1655 23.4508 10.1655H25.9677C26.1868 10.1655 26.3512 10.4588 26.2481 10.6618L22.0844 18.4155L26.2481 26.1531C26.3673 26.3626 26.1933 26.6655 25.9677 26.6655Z" fill="url(#paint0_linear_575_8828)"/>
</g>
<defs>
<linearGradient id="paint0_linear_575_8828" x1="15.2109" y1="19.9155" x2="29.2109" y2="40.4155" gradientUnits="userSpaceOnUse">
<stop/>
<stop offset="1" stop-color="#F19E38"/>
</linearGradient>
<clipPath id="clip0_575_8828">
<rect width="35.8512" height="35.8512" fill="white" transform="translate(0.93634 0.754395)"/>
</clipPath>
</defs>
</svg>
