<svg width="86" height="64" viewBox="0 0 86 64" fill="none" xmlns="http://www.w3.org/2000/svg">
<path d="M19.3269 43.1115L24.0382 40.3915C26.0389 39.2364 26.7245 36.6781 25.5694 34.6774C24.4142 32.6765 21.8559 31.9911 19.8551 33.1462L15.1438 35.8662C13.691 36.705 13.1932 38.5627 14.032 40.0155L15.1777 41.9997C16.0165 43.4525 17.8741 43.9503 19.3269 43.1115Z" stroke="#F19E38" stroke-width="1.6" stroke-miterlimit="10" stroke-linecap="round" stroke-linejoin="round"/>
<path d="M24.1575 49.9834L27.3588 48.135C29.3597 46.9799 30.0452 44.4216 28.89 42.4207C27.7348 40.42 25.1766 39.7346 23.1757 40.8897L19.9744 42.7379C18.5216 43.5769 18.0237 45.4345 18.8625 46.8874L20.0082 48.8714C20.847 50.3242 22.7047 50.8222 24.1575 49.9834Z" stroke="#F19E38" stroke-width="1.6" stroke-miterlimit="10" stroke-linecap="round" stroke-linejoin="round"/>
<path d="M30.6477 55.8966L33.6336 54.1729C35.6345 53.0176 36.3199 50.4595 35.1648 48.4586C34.0096 46.4579 31.4513 45.7723 29.4505 46.9274L26.4646 48.6513C25.0118 49.4901 24.514 51.3478 25.3528 52.8006L26.4985 54.7848C27.3373 56.2376 29.1949 56.7354 30.6477 55.8966Z" stroke="#F19E38" stroke-width="1.6" stroke-miterlimit="10" stroke-linecap="round" stroke-linejoin="round"/>
<path d="M37.8167 61.4182L39.9398 60.1924C41.9405 59.0373 42.6262 56.479 41.471 54.4783C40.3159 52.4775 37.7574 51.7918 35.7567 52.9471L33.6336 54.1729C32.1807 55.0117 31.6829 56.8693 32.5217 58.3221L33.6673 60.3063C34.5062 61.7591 36.3639 62.257 37.8167 61.4182Z" stroke="#F19E38" stroke-width="1.6" stroke-miterlimit="10" stroke-linecap="round" stroke-linejoin="round"/>
<path d="M66.5058 13.1721L59.2186 17.3699C57.0622 18.6145 54.4057 18.6143 52.2494 17.3694L46.5159 14.0591C44.3267 12.7951 41.6294 12.7951 39.4402 14.0591L28.3828 20.443C27.7716 20.7961 27.5622 21.5778 27.9151 22.1888L28.3268 22.9022C30.0568 25.8985 33.8887 26.9248 36.885 25.195C37.602 24.7813 38.2423 24.4117 38.6902 24.1531C39.4625 23.7073 40.4502 23.8344 41.0588 24.486C42.0401 25.5367 43.4377 26.1934 44.9886 26.1934C46.7177 26.1934 48.2561 25.377 49.2398 24.109" stroke="#F19E38" stroke-width="1.6" stroke-miterlimit="10" stroke-linecap="round" stroke-linejoin="round"/>
<path d="M70.6382 36.4635L77.6198 32.4231" stroke="#F19E38" stroke-width="1.6" stroke-miterlimit="10" stroke-linecap="round" stroke-linejoin="round"/>
<path d="M50.2069 22.1171C50.0243 22.8526 49.6904 23.5283 49.2397 24.109" stroke="#F19E38" stroke-width="1.6" stroke-miterlimit="10" stroke-linecap="round" stroke-linejoin="round"/>
<path d="M31.2534 18.786C29.576 18.7441 27.9263 18.2806 26.4581 17.4334L19.062 13.1711" stroke="black" stroke-width="1.6" stroke-miterlimit="10" stroke-linecap="round" stroke-linejoin="round"/>
<path d="M55.2654 27.5879L49.2397 24.1091" stroke="#F19E38" stroke-width="1.6" stroke-miterlimit="10" stroke-linecap="round" stroke-linejoin="round"/>
<path d="M42.7427 59.3305L43.3153 59.6323L48.2734 62.4946C49.7456 63.3449 51.629 62.8211 52.4509 61.3329L53.5591 59.327C54.3593 57.878 53.8524 56.0553 52.4189 55.2278L49.603 53.6019L56.4518 57.5561C57.9243 58.4062 59.8074 57.8822 60.6295 56.3942L61.7375 54.3883C62.5377 52.9395 62.0308 51.1167 60.5975 50.2891L56.4184 47.8763L62.6165 51.4547C64.0694 52.2936 65.9272 51.7956 66.7658 50.3428L67.9115 48.3586C68.7502 46.906 68.2527 45.0487 66.8002 44.2095L63.0102 42.0204L67.7619 44.7645C69.2458 45.6213 71.144 45.0822 71.956 43.5733L73.0418 41.5549C73.8197 40.1088 73.3078 38.3062 71.8856 37.4853L61.5992 31.5464" stroke="url(#paint0_linear_1019_6794)" stroke-width="1.6" stroke-miterlimit="10" stroke-linecap="round" stroke-linejoin="round"/>
<path d="M7.86621 32.5623L14.486 36.3773" stroke="black" stroke-width="1.6" stroke-miterlimit="10" stroke-linecap="round" stroke-linejoin="round"/>
<path d="M75.1187 28.2291L78.0557 33.316C78.1042 33.4001 78.2115 33.4289 78.2955 33.3804L83.5506 30.3463" stroke="#F19E38" stroke-width="1.6" stroke-miterlimit="10" stroke-linecap="round" stroke-linejoin="round"/>
<path d="M71.3081 9.14176L66.0532 12.1758C65.9692 12.2243 65.9404 12.3318 65.9889 12.4159L72.1651 23.1132" stroke="#F19E38" stroke-width="1.6" stroke-miterlimit="10" stroke-linecap="round" stroke-linejoin="round"/>
<path d="M7.85889 20.0881L14.1783 9.14252" stroke="black" stroke-width="1.6" stroke-miterlimit="10" stroke-linecap="round" stroke-linejoin="round"/>
<path d="M7.21238 5.12069L1.14531 1.61799C1.02823 1.55044 0.881836 1.63484 0.881836 1.76994V29.6373C0.881836 29.6999 0.91536 29.7581 0.969606 29.7896L7.1893 33.3804C7.27319 33.4289 7.38067 33.4001 7.42919 33.316L19.4961 12.4157C19.5446 12.3316 19.5158 12.2241 19.4317 12.1756L12.4676 8.1549" stroke="black" stroke-width="1.6" stroke-miterlimit="10" stroke-linecap="round" stroke-linejoin="round"/>
<path d="M71.3081 9.14161L84.2755 31.6014C84.3652 31.7571 84.6031 31.6934 84.6031 31.5138V1.76996C84.6031 1.63468 84.4569 1.55028 84.3396 1.61801L71.3081 9.14161Z" stroke="#F19E38" stroke-width="1.6" stroke-miterlimit="10" stroke-linecap="round" stroke-linejoin="round"/>
<defs>
<linearGradient id="paint0_linear_1019_6794" x1="65.9821" y1="31.3907" x2="77.0402" y2="43.5547" gradientUnits="userSpaceOnUse">
<stop/>
<stop offset="1" stop-opacity="0"/>
</linearGradient>
</defs>
</svg>
