<svg width="102" height="73" viewBox="0 0 102 73" fill="none" xmlns="http://www.w3.org/2000/svg">
<path d="M82.5776 38.0873H71.5423C69.8067 38.0873 68.3994 36.6801 68.3994 34.9444C68.3994 33.2087 69.8067 31.8015 71.5423 31.8015H81.3047L89.3307 24.0265C90.5775 22.8186 92.5671 22.8502 93.7748 24.097C94.9825 25.3438 94.9511 27.3335 93.7043 28.5412L84.7644 37.2017C84.178 37.7698 83.3939 38.0873 82.5776 38.0873Z" stroke="black" stroke-width="1.6" stroke-miterlimit="10" stroke-linecap="round" stroke-linejoin="round"/>
<path d="M98.0301 54.3518H86.2095V68.9651C86.2095 70.3056 87.2962 71.3923 88.6367 71.3923H98.0299C99.3704 71.3923 100.457 70.3056 100.457 68.9651V56.7791C100.457 55.4386 99.3706 54.3518 98.0301 54.3518Z" stroke="url(#paint0_linear_1019_6811)" stroke-width="1.6" stroke-miterlimit="10" stroke-linecap="round" stroke-linejoin="round"/>
<path d="M86.3668 47.2965C86.3668 47.7212 86.0225 48.0656 85.5977 48.0656H80.2032C79.0494 48.0656 77.988 48.698 77.439 49.7129L73.0957 56.9215V69.0991L81.6959 55.0546C81.9302 54.6213 82.3831 54.3514 82.8756 54.3514H91.5178C93.2537 54.3514 94.6608 52.9444 94.6608 51.2085V47.2965H86.3668Z" stroke="black" stroke-width="1.6" stroke-miterlimit="10" stroke-linecap="round" stroke-linejoin="round"/>
<path d="M90.1756 20.3933C93.7918 20.3933 96.7234 17.4618 96.7234 13.8456C96.7234 10.2294 93.7918 7.29785 90.1756 7.29785C86.5594 7.29785 83.6279 10.2294 83.6279 13.8456C83.6279 17.4618 86.5594 20.3933 90.1756 20.3933Z" stroke="black" stroke-width="1.6" stroke-miterlimit="10" stroke-linecap="round" stroke-linejoin="round"/>
<path d="M51.1141 20.3933C54.7303 20.3933 57.6618 17.4618 57.6618 13.8456C57.6618 10.2294 54.7303 7.29785 51.1141 7.29785C47.4979 7.29785 44.5664 10.2294 44.5664 13.8456C44.5664 17.4618 47.4979 20.3933 51.1141 20.3933Z" stroke="#F19E38" stroke-width="1.6" stroke-miterlimit="10" stroke-linecap="round" stroke-linejoin="round"/>
<path d="M19.6497 38.0873H30.6849C32.4206 38.0873 33.8279 36.6801 33.8279 34.9444C33.8279 33.2087 32.4206 31.8015 30.6849 31.8015H20.9225L12.8966 24.0265C11.6498 22.8186 9.66017 22.8502 8.45248 24.097C7.24479 25.3438 7.27617 27.3335 8.52297 28.5412L17.4629 37.2017C18.0493 37.7698 18.8334 38.0873 19.6497 38.0873Z" stroke="black" stroke-width="1.6" stroke-miterlimit="10" stroke-linecap="round" stroke-linejoin="round"/>
<path d="M7.56689 26.2971H7.56848C7.57206 27.1136 7.89016 27.9282 8.523 28.5411L15.8609 35.6497V47.2969H7.56689V26.2971Z" stroke="black" stroke-width="1.6" stroke-miterlimit="10" stroke-linecap="round" stroke-linejoin="round"/>
<path d="M4.19729 54.3518H16.0179V68.9651C16.0179 70.3056 14.9312 71.3923 13.5907 71.3923H4.19729C2.85677 71.3923 1.77002 70.3056 1.77002 68.9651V56.7791C1.77002 55.4386 2.85677 54.3518 4.19729 54.3518Z" stroke="url(#paint1_linear_1019_6811)" stroke-width="1.6" stroke-miterlimit="10" stroke-linecap="round" stroke-linejoin="round"/>
<path d="M29.132 56.922L24.7887 49.7134C24.2397 48.6983 23.1783 48.066 22.0244 48.066H16.6297C16.205 48.066 15.8607 47.7217 15.8607 47.297H7.56689V51.209C7.56689 52.9449 8.97395 54.3519 10.7098 54.3519H19.3521C19.8445 54.3519 20.2975 54.6218 20.5318 55.055L29.132 69.0996V56.922Z" stroke="black" stroke-width="1.6" stroke-miterlimit="10" stroke-linecap="round" stroke-linejoin="round"/>
<path d="M12.0521 20.3933C15.6683 20.3933 18.5998 17.4618 18.5998 13.8456C18.5998 10.2294 15.6683 7.29785 12.0521 7.29785C8.43591 7.29785 5.50439 10.2294 5.50439 13.8456C5.50439 17.4618 8.43591 20.3933 12.0521 20.3933Z" stroke="black" stroke-width="1.6" stroke-miterlimit="10" stroke-linecap="round" stroke-linejoin="round"/>
<path d="M73.7136 38.0873H28.5146C27.592 38.0873 26.8442 38.8351 26.8442 39.7576V42.6921C26.8442 43.6146 27.592 44.3626 28.5146 44.3626H73.7136C74.6362 44.3626 75.384 43.6148 75.384 42.6921V39.7576C75.3842 38.8351 74.6362 38.0873 73.7136 38.0873Z" stroke="black" stroke-width="1.6" stroke-miterlimit="10" stroke-linecap="round" stroke-linejoin="round"/>
<path d="M62.1422 38.0873V32.4694C62.1422 26.3541 57.0978 21.3597 50.9644 21.4419C44.9083 21.5231 40.0854 26.5574 40.0854 32.6139V38.0871L62.1422 38.0873Z" stroke="#F19E38" stroke-width="1.6" stroke-miterlimit="10" stroke-linecap="round" stroke-linejoin="round"/>
<g filter="url(#filter0_f_1019_6811)">
<path d="M51.1141 20.3933C54.7303 20.3933 57.6618 17.4618 57.6618 13.8456C57.6618 10.2294 54.7303 7.29785 51.1141 7.29785C47.4979 7.29785 44.5664 10.2294 44.5664 13.8456C44.5664 17.4618 47.4979 20.3933 51.1141 20.3933Z" stroke="#F19E38" stroke-width="1.6" stroke-miterlimit="10" stroke-linecap="round" stroke-linejoin="round"/>
</g>
<path d="M54.5889 71.3928H70.8179C72.0758 71.3928 73.0955 70.3731 73.0955 69.1152V44.3629H29.1323V69.1152C29.1323 70.3731 30.152 71.3928 31.4099 71.3928H47.6389" stroke="url(#paint2_linear_1019_6811)" stroke-width="1.6" stroke-miterlimit="10" stroke-linecap="round" stroke-linejoin="round"/>
<path d="M94.6607 35.8703V26.2971H94.6591C94.6555 27.1136 94.3374 27.9282 93.7046 28.5411L86.3667 35.6497V47.2969H94.6607V42.8202" stroke="black" stroke-width="1.6" stroke-miterlimit="10" stroke-linecap="round" stroke-linejoin="round"/>
<defs>
<filter id="filter0_f_1019_6811" x="37.8689" y="0.600122" width="26.4907" height="26.4908" filterUnits="userSpaceOnUse" color-interpolation-filters="sRGB">
<feFlood flood-opacity="0" result="BackgroundImageFix"/>
<feBlend mode="normal" in="SourceGraphic" in2="BackgroundImageFix" result="shape"/>
<feGaussianBlur stdDeviation="2.94884" result="effect1_foregroundBlur_1019_6811"/>
</filter>
<linearGradient id="paint0_linear_1019_6811" x1="93.3333" y1="54.3518" x2="93.3333" y2="71.3923" gradientUnits="userSpaceOnUse">
<stop/>
<stop offset="1" stop-opacity="0"/>
</linearGradient>
<linearGradient id="paint1_linear_1019_6811" x1="8.89397" y1="54.3518" x2="8.89397" y2="71.3923" gradientUnits="userSpaceOnUse">
<stop/>
<stop offset="1" stop-opacity="0"/>
</linearGradient>
<linearGradient id="paint2_linear_1019_6811" x1="51.1137" y1="44.5298" x2="51.1137" y2="75.4816" gradientUnits="userSpaceOnUse">
<stop/>
<stop offset="1" stop-opacity="0"/>
</linearGradient>
</defs>
</svg>
