<svg width="85" height="45" viewBox="0 0 85 45" fill="none" xmlns="http://www.w3.org/2000/svg">
<g clip-path="url(#clip0_1584_6277)">
<path d="M32.6715 32.8917L32.9335 32.8127L32.985 32.6616C33.4307 31.3581 34.125 29.6667 35.0522 27.6326C35.5785 26.4802 36.0824 25.4676 36.5594 24.6084C36.2705 25.8081 36.0376 26.8771 35.8607 27.7994C35.5919 29.2044 35.4575 30.553 35.4575 31.8137C35.4575 32.8105 35.5964 33.4915 35.8853 33.8975C36.1966 34.3372 36.7812 34.5515 37.6748 34.5515H38.1294L37.8517 33.8546C37.8047 33.7216 37.7733 33.6381 37.7688 33.6246L37.7061 33.3788C37.6748 33.2841 37.6546 33.2051 37.6434 33.1397C37.6322 33.0676 37.6233 32.9728 37.6188 32.8556C37.6121 32.7293 37.6098 32.5895 37.6098 32.4316C37.6098 30.8056 37.9144 28.476 38.5124 25.5059C39.1104 22.5404 39.6143 20.6031 40.0084 19.7439L40.1495 19.4372L39.8337 19.3222C39.4194 19.1688 39.126 19.0989 38.9133 19.0989C38.6288 19.0989 38.3847 19.1846 38.1921 19.3515C38.0309 19.4913 37.8495 19.7236 37.6367 20.0574C36.9402 21.0925 36.0152 22.6757 34.8909 24.7572C34.172 26.0855 33.5696 27.3281 33.0858 28.4715C33.1082 28.1761 33.1328 27.8513 33.1619 27.4973C33.2851 25.9525 33.3478 24.7144 33.3478 23.8145C33.3478 21.9923 33.1619 20.7565 32.7767 20.0394C32.3646 19.2681 31.7286 18.8779 30.8865 18.8779C29.9212 18.8779 28.9918 19.232 28.1228 19.9356C27.2315 20.6528 26.7813 21.4624 26.7813 22.3419C26.7813 22.8245 26.9134 23.2733 27.1732 23.677C27.4554 24.1167 27.8697 24.3513 28.3692 24.3513H28.7275L28.676 23.9949C28.629 23.6747 28.6043 23.3883 28.6043 23.1447C28.6043 22.4501 28.7857 21.8097 29.1441 21.2414C29.4778 20.7114 29.9324 20.4543 30.5326 20.4543C30.7633 20.4543 30.7633 20.5062 30.7633 20.5535C30.7633 20.6325 30.7387 20.7836 30.6222 21.0384L25.4711 32.3076C25.0053 33.3089 24.7388 33.9133 24.6604 34.1501L24.526 34.5605H24.9538C25.1822 34.5605 25.4062 34.5109 25.6212 34.4094C25.8339 34.3102 26.0422 34.1455 26.2572 33.9065C26.4498 33.6923 26.6335 33.4577 26.8037 33.2096C26.9717 32.9593 27.1732 32.6098 27.3994 32.1655L28.0355 30.8665C28.2214 30.4425 28.4632 29.881 28.7611 29.1819L29.5763 27.2063L31.1709 23.4582C31.1642 24.1686 31.1396 25.1699 31.0993 26.4396C31.05 27.9663 31.0254 29.0624 31.0254 29.6961C31.0254 30.765 31.0903 31.5295 31.2247 32.0347C31.4442 32.8511 31.9973 32.9729 32.3087 32.9729C32.4274 32.9729 32.5483 32.948 32.6648 32.9007" fill="black"/>
<path d="M42.042 32.152C41.6523 32.152 41.5045 31.8543 41.5045 31.3131C41.5045 29.7457 42.8191 27.1703 43.8942 27.1703C44.2637 27.1703 44.5616 27.4319 44.5616 27.9731C44.5616 29.4097 42.9311 32.152 42.042 32.152ZM69.6676 21.6473C69.9095 21.6473 70.0573 21.7962 70.0573 22.0194C70.0573 23.1583 68.0081 26.6741 66.8032 27.5897C67.7304 24.3062 69.0002 21.6473 69.6676 21.6473ZM79.0001 30.4538C78.7784 30.4538 78.6283 30.7154 78.6283 30.7154C78.6283 30.7154 77.6474 32.3211 76.6463 32.3211C76.1087 32.3211 75.6653 31.9107 75.6653 31.3514C75.6653 30.0073 76.3506 27.919 76.962 26.2569H78.111C78.3506 26.2569 78.6664 25.7901 78.6664 25.6029C78.6664 25.4902 78.6104 25.436 78.5186 25.436H77.2778C77.6115 24.5204 77.8892 23.8687 77.8892 23.6995C77.8892 23.3635 77.0001 22.581 76.4447 22.581C76.223 22.581 76.0371 22.7298 75.9453 22.935C75.6115 23.5327 75.242 24.428 74.8702 25.436H74.5007C74.2409 25.436 73.9453 25.9029 73.9453 26.09C73.9453 26.2028 74.0013 26.2569 74.0931 26.2569H74.5925C74.0169 27.9776 73.5309 29.8427 73.4279 30.959C73.1077 31.4078 72.3641 32.3211 71.6094 32.3211C71.2376 32.3211 71.0159 32.0415 71.0159 31.6107C71.0159 29.8021 72.0528 28.2708 72.0528 27.1522C72.0528 26.8726 71.1458 26.09 70.5881 26.09C70.3664 26.09 70.1805 26.2389 70.0887 26.4441C69.7818 27.1635 69.213 28.661 68.8882 29.9622C68.6643 30.2193 67.4706 31.5002 65.9006 31.5002C65.764 31.5002 65.5534 31.4642 65.5087 31.4551C65.6274 30.7064 65.811 30.1246 66.0932 29.8945C68.1066 28.264 71.0024 23.589 71.0024 22.0397C71.0024 21.3677 70.1312 20.3979 69.2981 20.3979C67.0002 20.3979 64.4852 25.763 63.6139 31.0334C63.269 31.5002 62.5658 32.3189 61.8514 32.3189C60.6823 32.3189 60.091 31.3852 58.4046 31.3852C59.9791 29.7998 63.2422 27.6732 63.2422 27.1319C63.2422 26.7395 62.8525 26.0878 62.4829 26.0878C62.2254 26.0878 61.8335 26.4419 61.2601 26.4419C60.4091 26.4419 59.6655 26.0878 58.4628 26.0878C57.6297 26.0878 57.09 26.275 56.7383 27.3935C56.2008 29.1458 55.4618 30.2261 55.1281 30.7132C55.1281 30.7132 53.9971 32.4136 52.3106 32.4136C51.2916 32.4136 50.4764 31.7979 50.4764 30.5102C50.4764 28.8121 51.5312 27.0034 52.6063 27.0034C52.9019 27.0034 53.1438 27.1906 53.1438 27.3958C53.1438 27.7882 52.4024 27.8987 52.4024 28.5347C52.4024 28.9451 52.8481 29.3172 53.3476 29.3172C53.847 29.3172 54.4607 28.5347 54.4607 27.8987C54.4607 27.0395 53.6634 26.09 52.3487 26.09C50.4585 26.09 48.1987 28.2347 48.1987 30.7357C48.1987 30.765 48.2032 30.7944 48.2032 30.8237C47.9658 31.1777 47.1371 32.3211 46.2905 32.3211C45.9748 32.3211 45.771 32.0979 45.771 31.7979C45.771 30.5282 46.846 28.4016 46.846 27.8423C46.846 27.1883 46.0867 26.9651 45.5313 26.9651C45.5313 26.9651 45.0117 26.0878 43.5112 26.0878C41.4731 26.0878 39.2492 28.9429 39.2492 31.6288C39.2492 32.7654 40.1025 33.5682 41.1014 33.5682C42.5101 33.5682 43.7329 31.9828 43.7329 31.9828C43.8628 33.0293 44.6601 33.5682 45.6791 33.5682C46.8885 33.5682 47.8851 32.5737 48.4271 31.8949C48.9512 33.1059 50.3017 33.5682 51.5536 33.5682C54.1852 33.5682 55.7238 31.2747 55.7238 31.2747C55.7238 31.2747 55.7663 31.2161 55.8089 31.1394C56.0799 30.7199 56.436 30.0817 56.8906 29.1842C57.3341 28.3069 57.6678 27.9528 58.2053 27.9528C58.9287 27.9528 59.558 28.3249 60.2814 28.3249C59.1504 29.6871 55.7977 31.8881 55.7977 32.6549C55.7977 33.009 56.2434 33.5682 56.6868 33.5682C57.1303 33.5682 57.6879 33.2142 58.5591 33.2142C59.7641 33.2142 60.2075 33.5682 61.2444 33.5682C62.1067 33.5682 62.8592 33.0608 63.4191 32.5241C63.343 33.2503 63.3004 33.9629 63.3004 34.6507C63.3004 37.8238 65.4191 39.9865 65.4168 37.7719C65.4168 37.7719 65.2198 34.9101 65.3855 32.612C66.8435 32.5895 67.9319 32.1001 68.6576 31.6085C68.7046 32.7699 69.6295 33.5705 71.0002 33.5705C72.0954 33.5705 73.0136 32.7564 73.5802 32.0979C73.999 32.9909 75.1121 33.5705 76.0393 33.5705C77.8736 33.5705 79.2263 31.277 79.2263 31.277C79.2263 31.277 79.3943 30.9973 79.3943 30.8282C79.3943 30.623 79.2084 30.4538 79.0046 30.4538" fill="black"/>
<path d="M72.4962 25.2693C73.2935 25.2693 73.9968 24.3357 73.9968 23.3479C73.9968 22.7322 73.5892 22.3218 73.0516 22.3218C72.2364 22.3218 71.4951 23.2554 71.4951 24.2071C71.4951 24.8792 71.9587 25.2693 72.4962 25.2693Z" fill="black"/>
<path d="M83.2083 19.223C82.3886 19.223 81.775 19.8883 81.775 20.6573C81.775 21.476 82.4401 22.0916 83.2083 22.0916C84.028 22.0916 84.6417 21.4263 84.6417 20.6573C84.6417 19.8883 84.028 19.223 83.2083 19.223ZM83.2083 22.4998C82.1848 22.4998 81.4166 21.6812 81.4166 20.7069C81.4166 19.6831 82.2363 18.9141 83.2083 18.9141C84.2318 18.9141 85 19.7327 85 20.7069C85 21.6812 84.2318 22.4998 83.2083 22.4998Z" fill="black"/>
<path d="M82.85 20.4523H83.4121C83.4636 20.4523 83.5151 20.4004 83.5151 20.3508C83.5151 20.3012 83.5667 20.2471 83.5667 20.1975C83.5667 20.1479 83.5667 20.096 83.5151 20.0441C83.4636 19.9923 83.4121 19.9923 83.3606 19.9923H82.7985V20.4523H82.85ZM82.4916 21.528V19.6855H83.2598C83.4659 19.6855 83.6182 19.6855 83.6697 19.7374C83.7727 19.7893 83.8242 19.8389 83.8757 19.8908C83.9272 19.9923 83.9787 20.096 83.9787 20.1975C83.9787 20.3508 83.9272 20.4546 83.8757 20.556C83.7727 20.6575 83.6697 20.7094 83.5174 20.7094C83.6204 20.7613 83.6697 20.8109 83.7234 20.8628C83.7749 20.9146 83.8264 21.0161 83.9272 21.1695L84.131 21.528H83.6697L83.4144 21.1176C83.3113 20.9642 83.2621 20.8605 83.2106 20.8605C83.1762 20.8259 83.1419 20.8086 83.1075 20.8086H82.8522V21.5776H82.4939V21.5258L82.4916 21.528Z" fill="black"/>
<path d="M3.74018 33.9968C3.83648 34.4772 3.9507 34.944 4.07164 35.4334L4.16571 35.81C4.30456 36.3715 4.21498 36.9601 4.12091 37.5826C4.02685 38.1982 3.93279 38.8365 4.04029 39.513C4.10748 39.928 4.19034 40.37 4.27769 40.7849C4.12539 40.715 3.98206 40.6744 3.84992 40.6744C3.57669 40.6744 3.34601 40.8188 3.20267 41.0804C3.08173 41.3036 3.07054 41.5427 3.1758 41.7502C3.31913 42.0366 3.68643 42.2598 4.26873 42.4177C3.56997 42.8642 3.10189 43.6445 3.10189 44.5376V45.0044H8.09623V44.5376C8.09623 43.6445 7.62815 42.8642 6.92939 42.4177C7.50945 42.2598 7.87898 42.0366 8.02232 41.7502C8.12534 41.5404 8.11638 41.3036 7.9932 41.0804C7.84987 40.8188 7.61919 40.6744 7.34596 40.6744C7.21382 40.6744 7.07048 40.715 6.91819 40.7849C7.00553 40.37 7.0884 39.928 7.15559 39.513C7.26533 38.8387 7.16903 38.2005 7.0772 37.5826C6.99882 37.0639 6.93163 36.5677 6.98986 36.0919C7.56544 36.7685 8.03576 37.1135 8.38514 37.1135C8.73451 37.1135 9.20483 36.7842 9.78489 36.1325C9.83416 36.5971 9.76698 37.0774 9.69307 37.5848C9.59901 38.2005 9.5027 38.8387 9.61244 39.513C9.67963 39.9257 9.7625 40.3677 9.84984 40.7827C9.69755 40.7128 9.55645 40.6744 9.42432 40.6744C9.15108 40.6744 8.9204 40.8188 8.77707 41.0804C8.65613 41.3036 8.64493 41.5427 8.74795 41.7502C8.89129 42.0366 9.26082 42.2598 9.84088 42.4177C9.14212 42.8642 8.67405 43.6445 8.67405 44.5376V45.0044H13.6684V44.5376C13.6684 43.6445 13.2003 42.8642 12.5015 42.4177C13.0816 42.2598 13.4511 42.0366 13.5945 41.7502C13.6975 41.5404 13.6885 41.3036 13.5654 41.0804C13.422 40.8188 13.1936 40.6744 12.9181 40.6744C12.786 40.6744 12.6404 40.715 12.4881 40.7849C12.5754 40.37 12.6583 39.928 12.7255 39.513C12.8352 38.8387 12.7389 38.2005 12.6471 37.5826C12.5531 36.9601 12.4657 36.3715 12.6023 35.81L12.6941 35.4401C12.8196 34.9418 12.9338 34.4637 13.0323 33.9743C14.768 32.3596 15.8408 30.1044 15.8408 27.7522C15.8408 24.2477 13.4377 21.3046 10.2082 20.4815C10.2082 20.4815 10.2082 20.4792 10.2104 20.477C9.62588 20.3304 9.01671 20.2515 8.38738 20.2515C8.12534 20.2515 7.86779 20.265 7.61247 20.2921C7.54304 20.2988 7.47361 20.3078 7.40419 20.3169C7.15783 20.3484 6.91595 20.3935 6.67855 20.4499C3.38632 21.228 0.924988 24.2026 0.924988 27.75C0.924988 30.1089 2.0112 32.3889 3.7357 33.9946L3.74018 33.9968ZM3.7693 41.4457C3.7693 41.4457 3.7693 41.4322 3.78721 41.3984C3.82081 41.3375 3.83648 41.3375 3.85216 41.3375C3.9731 41.3375 4.20826 41.475 4.51509 41.7637C4.51733 41.7727 4.51957 41.7817 4.52181 41.7908C4.00669 41.6622 3.78721 41.5089 3.7693 41.4435V41.4457ZM7.09736 44.0662H4.10076C4.30008 43.4235 4.89582 42.9544 5.59906 42.9544C6.3023 42.9544 6.89803 43.4235 7.09736 44.0662ZM6.15896 37.7224C6.24631 38.293 6.32693 38.8297 6.23959 39.3597C6.06042 40.467 5.85661 41.2946 5.74015 41.6893H5.45796C5.3415 41.2946 5.1377 40.467 4.95853 39.3597C4.87342 38.8297 4.95405 38.2907 5.03916 37.7224C5.14218 37.0368 5.24968 36.3264 5.06827 35.5845L4.97421 35.2056C4.94957 35.1086 4.92717 35.0139 4.90254 34.9192C4.92493 34.9327 4.94733 34.944 4.96749 34.9575C5.019 34.9914 5.07499 35.0207 5.12874 35.0545C5.26312 35.1357 5.39749 35.2191 5.53635 35.2936C5.69984 35.3815 5.87005 35.4627 6.04026 35.5394C6.07162 35.5529 6.10073 35.5709 6.13209 35.5845C5.95068 36.3264 6.05594 37.0346 6.1612 37.7201L6.15896 37.7224ZM7.34596 41.3397C7.36163 41.3397 7.37955 41.3397 7.4109 41.4006C7.42658 41.4322 7.42882 41.4457 7.42882 41.4457C7.4109 41.5134 7.19142 41.6622 6.67407 41.793C6.67631 41.784 6.67855 41.775 6.68303 41.7659C6.98986 41.4773 7.22502 41.3397 7.34596 41.3397ZM9.33921 41.4457C9.33921 41.4457 9.33921 41.4322 9.35713 41.3984C9.39072 41.3375 9.4064 41.3375 9.42208 41.3375C9.54302 41.3375 9.77594 41.475 10.0828 41.7614C10.085 41.7705 10.0872 41.7795 10.0917 41.7908C9.57885 41.6622 9.35713 41.5111 9.34145 41.4457H9.33921ZM12.6673 44.0662H9.67067C9.86776 43.4235 10.4657 42.9544 11.169 42.9544C11.8722 42.9544 12.4679 43.4235 12.6673 44.0662ZM10.6359 35.5845V35.58C11.0682 35.3815 11.4803 35.1515 11.8722 34.8921C11.8453 34.9981 11.8207 35.1041 11.7938 35.2124L11.702 35.5845C11.5206 36.3264 11.6259 37.0368 11.7311 37.7224C11.8162 38.293 11.8991 38.8297 11.8117 39.3597C11.6303 40.467 11.4288 41.2946 11.3123 41.6893H11.0279C10.9114 41.2946 10.7099 40.467 10.5284 39.3597C10.4411 38.8297 10.524 38.2907 10.6091 37.7224C10.7143 37.0368 10.8196 36.3264 10.6382 35.5845H10.6359ZM12.9181 41.3375C12.9338 41.3375 12.9495 41.3375 12.9831 41.3984C13.001 41.4299 13.001 41.4435 13.001 41.4435C12.9831 41.5111 12.7636 41.6622 12.2462 41.7908C12.2485 41.7817 12.2507 41.775 12.2529 41.7659C12.562 41.4773 12.7972 41.3375 12.9181 41.3375ZM8.3829 31.8837C11.4288 31.8837 14.0088 30.2735 14.8979 28.0454C14.8128 30.0277 13.8811 31.913 12.4052 33.2842L12.2977 33.3812C11.7737 33.8502 11.2026 34.2449 10.5934 34.5584C10.5508 34.5809 10.506 34.6012 10.4613 34.6238C10.3112 34.6982 10.1589 34.7658 10.0044 34.8312C9.87224 34.8854 9.74234 34.9418 9.60572 34.9891L9.48031 35.0342L9.39744 35.138C9.04134 35.5822 8.59118 36.0333 8.38514 36.155C8.18805 36.0288 7.76476 35.5935 7.4221 35.1515L7.33476 35.0387L7.19814 34.9936C7.05033 34.9463 6.90699 34.8899 6.76366 34.8335C6.62032 34.7771 6.47923 34.714 6.34037 34.6486C6.27766 34.6193 6.21719 34.5922 6.15672 34.5629C6.01339 34.4907 5.87229 34.4118 5.73344 34.3306C5.68192 34.299 5.62593 34.272 5.57442 34.2404C5.39525 34.1299 5.21832 34.0104 5.04811 33.8841C4.97197 33.8277 4.9003 33.7668 4.82639 33.7082C4.73233 33.6337 4.63826 33.5593 4.54644 33.4804C2.97199 32.107 1.95297 30.1202 1.86562 28.0409C2.75699 30.269 5.33478 31.8792 8.38066 31.8792L8.3829 31.8837Z" fill="black"/>
<path d="M15.8945 9.57327C16.208 8.93054 16.3738 8.21339 16.3738 7.47144C16.3738 5.73269 15.4443 4.16308 14.0715 3.50005C13.8072 1.50646 12.4298 0 10.7971 0C9.16446 0 7.7871 1.50646 7.52283 3.50005C6.3112 4.08414 5.44895 5.37186 5.26082 6.86028C4.70092 6.05743 3.86778 5.56129 3.01897 5.56129C2.66511 5.56129 2.32469 5.64473 2.00666 5.80936C0.857741 6.40924 0.333672 7.89767 0.700969 9.38383C-0.0425826 10.3513 -0.215033 11.7315 0.29112 12.947C0.494924 13.4387 0.795032 13.8626 1.16905 14.1941C1.07274 14.9767 1.1892 15.8021 1.50275 16.5621C2.12984 18.0731 3.4221 19.0315 4.75915 18.9751C5.12196 19.2525 5.56317 19.4149 6.03125 19.46C6.085 19.584 6.14771 19.7126 6.22161 19.8434C6.36047 20.087 6.52396 20.2944 6.68297 20.4478C6.92037 20.3914 7.16225 20.3486 7.40861 20.3147C7.37949 20.0576 7.25631 19.7194 7.05251 19.363C7.24064 19.3089 7.42876 19.239 7.60793 19.1443C7.89908 18.9909 8.16112 18.797 8.38508 18.5715C8.47018 18.6459 8.56201 18.7158 8.65607 18.7835C8.69638 18.8128 8.73446 18.8421 8.76805 18.8624C8.77029 18.8624 8.77477 18.8669 8.77701 18.8692C8.78149 18.8714 8.78597 18.8759 8.79045 18.8782C9.19134 19.1398 9.64598 19.327 10.1297 19.4172C10.0066 19.8073 9.89906 20.1343 9.82291 20.3869V20.3914C9.95505 20.4162 10.0849 20.4455 10.2148 20.4771C10.3806 20.229 10.5754 19.893 10.7747 19.4803C10.7815 19.4803 10.7904 19.4803 10.7971 19.4803C12.179 19.4803 13.4444 18.6978 14.0379 17.5048C15.6347 16.8124 16.7254 14.8797 16.7254 12.6877C16.7254 11.5488 16.432 10.4596 15.8967 9.57101L15.8945 9.57327ZM7.04803 17.9784C6.80167 18.1069 6.53516 18.1746 6.27984 18.1746C5.93046 18.1746 5.6102 18.0505 5.384 17.8273L5.16228 17.6085L4.85993 17.6581C4.78826 17.6694 4.71435 17.6762 4.64045 17.6762C3.8521 17.6762 3.05256 17.0222 2.64943 16.0479C2.38292 15.4029 2.31573 14.6993 2.45906 14.0656L2.56433 13.6101L2.18359 13.3597C1.85661 13.1455 1.59905 12.8252 1.43556 12.4306C1.08842 11.5939 1.25191 10.6039 1.83421 10.0243L2.13208 9.72662L1.98875 9.32294C1.65056 8.37351 1.91036 7.32259 2.56209 6.98206C2.70318 6.90764 2.85772 6.8693 3.01673 6.8693C3.56543 6.8693 4.12534 7.30004 4.44112 7.96532L4.64717 8.39381L5.04582 8.32841C5.09957 8.32164 5.15556 8.31262 5.20931 8.30811C5.23618 8.30811 5.26306 8.30585 5.28993 8.3036C5.28993 8.3036 5.28993 8.30134 5.28993 8.29909C5.28993 8.29909 5.28993 8.30134 5.28993 8.3036C5.36608 8.74787 5.5027 9.17636 5.69978 9.57327C5.16228 10.4618 4.86889 11.5511 4.86889 12.6899C4.86889 14.882 5.96182 16.8147 7.55642 17.507L7.5833 17.5589C7.43324 17.7258 7.25407 17.8724 7.05027 17.9784H7.04803ZM13.3861 16.3659L13.1084 16.4584L12.9987 16.7403C12.7254 17.4371 12.0894 17.9423 11.3346 18.1092C11.6975 17.0537 11.9953 15.757 12.0603 14.2934C12.2529 10.2882 11.1062 7.23013 10.9024 7.30455C10.5978 7.36544 11.2943 10.4573 11.104 14.2393C11.0413 15.7299 10.777 17.065 10.497 18.1452C9.95953 18.0798 9.46457 17.8521 9.09727 17.4912C8.88003 17.2792 8.70534 17.0244 8.59336 16.738L8.48362 16.4561L8.20815 16.3636C8.15664 16.3456 8.10961 16.3253 8.06033 16.3027C8.05585 16.3027 8.05138 16.2982 8.0469 16.296C7.98419 16.2689 7.92148 16.2373 7.86101 16.2058C7.85653 16.2035 7.84981 16.199 7.84309 16.1968C6.82631 15.6307 6.12083 14.2325 6.12083 12.6877C6.12083 11.6728 6.40974 10.7189 6.93605 10.0018L7.03683 9.86193L7.20256 9.63416L6.96292 9.24852C6.76584 8.93054 6.62698 8.57873 6.5486 8.20663C6.46573 7.80069 6.46125 7.4331 6.49037 7.12865C6.49037 7.11286 6.49261 7.09482 6.49485 7.07903C6.49932 7.0452 6.50156 7.01138 6.50604 6.9798C6.66282 5.8477 7.3571 4.89827 8.29773 4.58254L8.70982 4.44497L8.73222 3.99394C8.80836 2.48522 9.71541 1.3035 10.7971 1.3035C11.8789 1.3035 12.7859 2.48522 12.8621 3.99394L12.8845 4.44497L13.2943 4.58254C14.3716 4.94337 15.1218 6.1296 15.1218 7.46918C15.1218 8.11191 14.9516 8.72757 14.6291 9.25078L14.3895 9.63641L14.656 10.0018C15.1823 10.7189 15.4712 11.6751 15.4712 12.6877C15.4712 14.4106 14.5933 15.9554 13.3839 16.3636L13.3861 16.3659Z" fill="black"/>
</g>
<defs>
<clipPath id="clip0_1584_6277">
<rect width="85" height="45" fill="white"/>
</clipPath>
</defs>
</svg>
